<?xml version="1.0" standalone="no"?>
<!DOCTYPE svg PUBLIC "-//W3C//DTD SVG 20010904//EN"
 "http://www.w3.org/TR/2001/REC-SVG-20010904/DTD/svg10.dtd">
<svg version="1.0" xmlns="http://www.w3.org/2000/svg"
 width="300.000000pt" height="452.000000pt" viewBox="0 0 300.000000 452.000000"
 preserveAspectRatio="xMidYMid meet">
<metadata>
Created by potrace 1.10, written by Peter Selinger 2001-2011
</metadata>
<g transform="translate(0.000000,452.000000) scale(0.100000,-0.100000)"
fill="#000000" stroke="none">
<path d="M873 4514 c3 -3 -1 -23 -8 -44 -18 -51 -30 -213 -18 -235 8 -14 12
-2 17 51 4 38 16 106 26 152 18 82 18 82 -3 82 -11 0 -18 -3 -14 -6z"/>
<path d="M955 4493 c-3 -16 -19 -81 -36 -147 -16 -65 -28 -121 -25 -124 7 -7
46 85 48 114 1 13 5 24 9 24 3 0 6 6 7 13 1 6 7 42 15 80 11 55 12 67 1 67 -8
0 -16 -12 -19 -27z"/>
<path d="M1100 4510 c13 -9 12 -12 -4 -25 -11 -8 -16 -15 -10 -15 5 0 -2 -6
-16 -13 -17 -9 -28 -10 -33 -3 -5 7 -7 2 -4 -11 3 -13 2 -23 -1 -23 -4 0 -5
-36 -2 -81 3 -47 1 -85 -5 -91 -7 -8 -5 -9 8 -5 20 7 22 -3 5 -22 -7 -8 -8
-11 -3 -9 12 7 37 -17 28 -26 -4 -3 -14 -6 -24 -6 -10 0 -28 -4 -41 -9 -13 -5
-27 -10 -33 -11 -5 -2 -27 -14 -47 -26 -21 -13 -42 -24 -47 -24 -5 0 -40 -30
-78 -67 -73 -71 -108 -124 -138 -208 -10 -27 -24 -57 -31 -65 -7 -8 -13 -18
-14 -22 0 -4 -8 -25 -17 -45 -31 -75 -44 -140 -50 -258 -5 -111 -3 -127 21
-206 27 -89 63 -149 119 -199 47 -42 46 -27 -1 24 -67 72 -95 140 -112 270
-12 85 -2 207 21 286 13 41 77 188 120 276 88 179 312 299 494 265 41 -8 47
-7 33 3 -14 10 -15 15 -5 26 10 10 4 11 -28 6 -22 -3 -50 -9 -61 -12 -25 -7
-59 24 -80 73 -16 38 -18 77 -4 68 6 -3 10 -1 10 4 0 6 -4 11 -8 11 -4 0 -8
15 -7 34 0 38 29 76 57 76 10 0 18 6 18 14 0 8 12 24 28 35 l27 20 -50 1 c-37
0 -46 -3 -35 -10z"/>
<path d="M1260 4510 c25 -5 61 -6 82 -3 33 5 38 2 62 -34 14 -21 29 -54 32
-73 4 -19 16 -43 26 -54 18 -20 18 -19 18 6 0 15 -7 34 -16 42 -8 9 -11 16 -6
16 14 0 2 42 -18 60 -9 8 -19 23 -23 33 -6 15 -19 17 -104 16 -82 -1 -90 -3
-53 -9z"/>
<path d="M1741 4498 c1 -17 2 -19 6 -5 2 9 9 17 14 17 9 0 11 -26 10 -135 0
-38 2 -53 7 -41 8 17 10 16 33 -10 18 -21 43 -34 94 -47 75 -19 119 -16 129
10 5 11 10 12 19 5 8 -7 18 -6 32 4 18 13 18 15 2 31 -16 16 -18 16 -38 -6
-26 -28 -65 -43 -93 -36 -77 21 -104 32 -125 52 -21 21 -24 33 -24 88 1 36 -3
65 -8 65 -5 0 -9 7 -9 15 0 9 -9 15 -25 15 -20 0 -25 -5 -24 -22z m332 -193
c-3 -9 -8 -14 -10 -11 -3 3 -2 9 2 15 9 16 15 13 8 -4z"/>
<path d="M2117 4501 c-3 -14 -1 -18 9 -14 8 3 14 11 14 19 0 21 -17 17 -23 -5z"/>
<path d="M2160 4503 c0 -15 2 -16 10 -3 8 12 10 9 10 -12 0 -15 -7 -33 -15
-42 -9 -8 -31 -35 -49 -60 -30 -38 -32 -45 -18 -51 9 -3 13 -3 9 1 -3 4 3 16
16 26 12 11 32 28 45 39 13 11 22 30 22 46 0 16 3 38 6 51 5 18 2 22 -15 22
-13 0 -21 -6 -21 -17z"/>
<path d="M2514 4402 c-180 -175 -272 -262 -278 -262 -3 0 -20 -15 -37 -32 -17
-18 -36 -33 -42 -33 -7 0 -11 -12 -9 -29 3 -23 1 -28 -12 -23 -9 4 -21 -1 -28
-9 -7 -9 -37 -39 -66 -67 -30 -29 -100 -97 -157 -152 -56 -55 -123 -119 -148
-141 -26 -23 -43 -44 -40 -48 3 -3 0 -6 -9 -6 -8 0 -23 -9 -33 -20 -25 -28
-43 -26 -37 5 2 14 -1 45 -7 68 -7 23 -13 49 -15 57 -5 28 -19 55 -43 88 -13
17 -21 37 -18 42 4 6 3 9 -2 8 -17 -4 -53 14 -53 27 0 28 -36 37 -154 41 -88
3 -145 -9 -238 -49 -27 -11 -41 -35 -15 -24 43 18 47 16 11 -7 -37 -23 -74
-64 -74 -81 0 -4 20 11 44 32 61 54 142 91 224 103 78 11 108 5 175 -34 50
-30 83 -69 116 -136 24 -50 40 -150 23 -150 -5 0 -13 7 -16 16 -5 13 -17 16
-61 12 l-55 -5 22 24 c25 27 54 30 80 6 10 -9 18 -11 18 -5 0 6 -5 14 -10 17
-8 5 -7 11 1 21 10 12 8 16 -9 20 -11 4 -18 12 -16 18 6 15 -23 42 -33 32 -4
-4 -1 -11 7 -16 8 -5 12 -11 9 -15 -3 -3 -18 4 -33 16 l-27 21 -6 -21 c-3 -11
-9 -21 -13 -21 -17 0 -20 -57 -5 -93 14 -34 35 -50 35 -28 0 5 11 4 25 -2 15
-7 23 -18 20 -26 -3 -8 0 -11 10 -8 8 4 17 1 21 -5 5 -7 10 -3 15 10 11 30 29
28 29 -3 0 -14 3 -25 6 -25 11 0 129 107 273 246 75 73 156 149 181 169 25 21
45 43 45 49 0 6 11 19 24 28 25 17 212 193 425 400 86 84 115 118 101 118 -12
0 -69 -48 -141 -118z m-1050 -521 c4 -5 -3 -7 -14 -4 -23 6 -26 13 -6 13 8 0
17 -4 20 -9z m37 -225 c-28 -15 -64 -10 -39 5 7 5 24 9 38 8 l25 0 -24 -13z"/>
<path d="M2866 4493 c10 -16 30 -46 46 -67 15 -21 28 -43 28 -47 0 -17 44
-109 52 -109 4 0 8 20 8 45 0 25 -5 45 -11 45 -6 0 -8 -9 -4 -21 5 -15 3 -20
-6 -17 -15 5 -21 40 -8 49 7 4 6 11 -3 20 -8 8 -33 40 -56 72 -43 57 -80 82
-46 30z"/>
<path d="M2947 4460 c27 -34 49 -54 51 -46 5 21 -59 106 -80 106 -15 0 -9 -12
29 -60z"/>
<path d="M1942 4498 c6 -18 28 -21 28 -4 0 9 -7 16 -16 16 -9 0 -14 -5 -12
-12z"/>
<path d="M2555 4359 c-82 -83 -168 -164 -189 -180 -21 -16 -35 -29 -30 -30 5
0 2 -3 -7 -7 -15 -6 -97 -83 -433 -403 -61 -58 -136 -127 -166 -155 -30 -27
-75 -69 -100 -94 -25 -25 -56 -55 -69 -65 l-24 -20 5 22 c5 20 4 21 -13 12
-10 -5 -19 -20 -19 -33 0 -13 -7 -29 -15 -36 -8 -6 -14 -15 -13 -18 2 -20 -3
-32 -12 -27 -5 3 -10 1 -10 -5 0 -6 -4 -8 -10 -5 -5 3 -10 2 -10 -4 0 -5 5
-13 10 -16 21 -13 9 -23 -15 -12 -29 14 -29 39 -2 43 11 1 20 4 20 6 1 2 8 14
16 28 13 23 13 24 -3 11 -13 -11 -20 -11 -28 -3 -17 17 -35 15 -42 -4 -3 -8
-2 -12 4 -9 5 3 6 -10 3 -31 -4 -24 -2 -39 7 -44 7 -4 9 -13 5 -19 -5 -9 -11
-7 -20 6 -7 10 -11 21 -9 25 3 5 1 8 -4 8 -19 0 -4 71 19 91 12 10 25 19 29
19 4 0 12 11 18 25 10 22 9 28 -8 42 -11 10 -20 28 -20 40 0 27 -1 27 -45 9
-21 -9 -35 -22 -35 -33 0 -10 -7 -27 -15 -37 -24 -32 -19 -66 8 -66 13 0 27
-3 30 -6 11 -11 -35 -84 -52 -84 -14 0 -14 -2 -2 -9 12 -8 13 -12 2 -25 -9
-11 -12 -31 -8 -59 5 -33 1 -51 -13 -75 -11 -18 -15 -32 -10 -32 6 0 10 5 10
11 0 6 7 8 16 5 8 -3 12 -2 9 3 -3 5 -2 12 3 15 5 3 7 28 5 56 -1 28 2 50 7
50 6 0 10 -7 10 -17 0 -9 3 -14 6 -10 4 3 13 -1 22 -9 12 -13 13 -22 3 -56 -7
-23 -14 -57 -16 -77 -10 -113 -34 -218 -56 -247 -5 -6 -7 -13 -4 -16 3 -3 -2
-11 -11 -18 -10 -9 -18 -10 -22 -3 -8 11 -94 57 -102 54 -3 -1 -21 1 -40 4
-45 9 -86 54 -94 105 -6 41 -43 90 -67 90 -25 -1 -52 -29 -55 -56 -2 -15 -7
-30 -12 -33 -6 -3 -14 -22 -19 -41 -10 -34 -83 -173 -83 -157 0 4 -15 -6 -32
-22 -18 -17 -38 -31 -44 -31 -6 0 -25 -7 -42 -16 -27 -13 -45 -14 -111 -6 -58
7 -96 6 -138 -3 -89 -19 -143 -37 -143 -48 0 -6 -3 -7 -7 -4 -3 4 -12 2 -20
-4 -7 -6 -13 -8 -13 -5 0 4 -10 0 -22 -8 -31 -22 -35 -20 -42 16 -3 17 -9 29
-12 25 -9 -8 25 -166 46 -213 10 -23 21 -57 25 -75 11 -59 66 -231 71 -226 3
3 6 20 6 38 1 19 3 28 5 22 3 -7 9 -13 14 -13 4 0 6 6 3 14 -3 8 0 17 7 22 8
4 10 3 5 -4 -4 -6 6 -5 21 3 15 8 36 15 45 15 26 0 30 17 5 22 -29 5 -62 -3
-84 -22 -23 -19 -41 -19 -53 0 -19 30 -10 45 38 62 46 17 47 17 61 -2 7 -11
23 -20 35 -20 20 1 20 2 -4 15 -14 8 -19 14 -12 15 6 0 12 5 12 10 0 15 -66
12 -107 -5 -29 -12 -38 -13 -45 -3 -12 20 -10 33 12 61 19 24 41 31 150 53 30
6 32 8 15 14 -11 4 -31 6 -45 4 -85 -12 -100 -16 -94 -26 4 -6 3 -8 -4 -4 -6
3 -13 2 -17 -4 -4 -6 -11 -8 -16 -5 -18 12 -8 24 28 36 21 6 42 14 47 17 29
17 150 6 143 -13 -3 -6 1 -12 9 -12 22 0 16 22 -9 34 -72 36 -146 33 -215 -7
-19 -12 -37 -18 -41 -15 -3 4 -11 25 -18 47 -17 59 -2 85 72 118 130 60 262
74 322 34 24 -15 27 -15 52 5 14 12 49 33 76 46 28 13 65 39 82 57 32 34 81
124 104 191 7 20 16 37 19 37 3 0 6 10 7 21 3 29 8 32 31 20 14 -7 24 -29 32
-66 11 -51 37 -85 54 -68 3 3 6 1 6 -5 0 -7 -15 -12 -36 -12 -28 0 -44 8 -70
34 -26 26 -34 30 -34 16 0 -10 7 -23 15 -30 29 -24 17 -75 -36 -165 -52 -89
-67 -101 -138 -111 -20 -2 -46 -7 -58 -9 -28 -7 -31 11 -3 20 20 6 46 43 37
52 -9 8 -46 -16 -57 -37 -6 -11 -21 -20 -33 -20 -17 -1 -14 -5 17 -20 21 -11
43 -17 49 -13 6 3 7 1 3 -5 -9 -15 6 -16 20 -2 6 6 19 7 29 4 16 -7 17 -8 2
-13 -10 -4 -13 -11 -8 -19 6 -10 13 -9 32 7 22 18 22 20 6 26 -29 12 -20 28
12 22 20 -4 31 -2 35 8 8 21 27 19 20 -2 -5 -14 -4 -15 4 -4 8 11 10 11 15 0
3 -8 3 1 0 20 -4 19 -2 32 3 29 10 -7 29 11 30 30 2 29 5 33 14 27 6 -3 10 2
10 12 0 11 7 28 15 39 8 10 15 29 15 40 0 12 7 27 15 34 12 10 15 10 15 0 0
-10 4 -9 16 1 21 17 61 23 69 9 3 -5 0 -7 -8 -4 -8 3 -18 0 -22 -5 -3 -6 -10
-9 -15 -6 -19 12 -18 -14 0 -35 12 -14 18 -31 14 -42 -3 -10 -1 -18 5 -18 5 0
19 -20 30 -45 11 -25 27 -45 35 -45 12 0 9 11 -14 47 -17 26 -30 54 -30 63 0
9 -7 25 -15 36 -19 25 -19 34 3 34 22 0 60 -42 44 -48 -15 -5 -16 -42 -1 -42
5 0 7 -4 4 -10 -3 -5 -2 -10 4 -10 5 0 15 -16 22 -35 8 -22 16 -30 20 -23 4 7
3 20 -2 30 -7 14 -6 20 6 24 10 4 13 13 9 26 -4 13 -2 18 4 14 5 -3 15 0 21 8
9 10 8 15 -4 19 -26 11 -7 35 23 29 15 -3 21 -7 14 -10 -10 -3 -10 -7 -1 -18
6 -7 9 -21 5 -29 -3 -8 0 -15 7 -15 9 0 8 -3 -1 -9 -8 -4 -14 -12 -15 -17 -1
-5 -5 -8 -9 -6 -5 1 -8 -3 -8 -9 0 -6 -28 -37 -62 -70 -69 -66 -69 -66 -119 7
-20 30 -25 44 -16 47 6 3 2 6 -10 6 -13 1 -23 -3 -23 -9 0 -5 4 -10 9 -10 4 0
24 -25 44 -56 28 -42 34 -60 27 -73 -5 -9 -10 -13 -10 -8 0 4 -8 -1 -19 -10
-10 -10 -34 -33 -54 -51 l-36 -32 -51 30 c-28 16 -54 30 -57 30 -4 0 -14 7
-23 15 -18 16 -53 10 -47 -8 2 -6 14 -17 28 -25 l24 -14 -25 21 c-32 26 -18
27 37 0 24 -11 43 -27 43 -35 0 -8 5 -14 11 -14 5 0 7 5 3 12 -4 7 -3 8 5 4 6
-4 9 -11 6 -16 -3 -5 0 -12 6 -16 8 -4 3 -11 -12 -20 -20 -10 -27 -10 -41 3
-19 17 -25 4 -7 -14 8 -8 5 -14 -10 -22 -12 -7 -21 -8 -21 -4 0 4 -4 3 -8 -2
-4 -6 -18 -18 -32 -27 -25 -15 -27 -14 -52 11 -28 29 -46 71 -29 71 6 0 11 -5
11 -12 0 -6 2 -9 5 -6 3 3 -1 17 -9 33 l-14 27 -5 -23 -4 -24 -8 23 c-4 12
-11 22 -16 22 -5 0 -9 6 -9 13 0 8 -10 22 -22 33 -23 19 -23 19 -5 -2 9 -11
14 -24 10 -28 -5 -4 -1 -13 7 -19 16 -12 86 -146 79 -150 -45 -25 -46 -25 -75
-2 -16 12 -53 27 -82 34 -64 13 -65 13 -58 2 3 -5 26 -12 51 -15 25 -4 45 -12
45 -17 0 -6 4 -8 8 -5 5 3 19 -4 32 -16 20 -19 21 -22 6 -30 -10 -5 -24 -7
-33 -4 -14 6 -14 4 -2 -11 7 -10 10 -15 5 -11 -5 4 -17 3 -27 -3 -11 -5 -19
-6 -19 -1 0 5 -6 9 -14 9 -8 0 -12 -6 -9 -13 9 -23 -28 -32 -159 -38 -14 0
-24 -4 -22 -8 3 -4 -1 -5 -9 -2 -13 5 -34 -12 -26 -21 2 -1 33 3 69 11 36 7
81 13 100 13 l35 -1 -34 -14 c-18 -8 -41 -22 -49 -31 -14 -14 -17 -14 -27 1
-7 9 -18 16 -26 16 -8 0 -6 -6 7 -15 22 -17 12 -20 -17 -4 -11 6 -33 8 -48 4
-28 -6 -28 -8 -18 -40 10 -35 29 -40 20 -5 -5 18 0 19 61 18 56 -1 70 3 101
26 19 15 35 31 35 36 0 5 19 19 42 31 24 12 61 34 83 49 22 15 83 49 135 75
114 58 124 66 310 224 149 128 204 189 216 244 3 18 9 37 13 42 16 26 32 88
46 180 9 55 19 121 24 147 7 43 6 48 -20 72 -34 32 -44 60 -30 83 8 15 10 14
16 -12 9 -43 27 -75 40 -75 15 0 89 78 135 143 19 26 56 61 82 78 28 17 46 34
42 40 -7 12 115 131 127 123 4 -2 44 32 89 76 45 44 86 78 90 75 5 -3 12 0 16
6 4 8 3 9 -4 5 -7 -4 -12 -5 -12 -2 0 8 101 101 113 104 7 2 4 -2 -5 -8 -9 -6
-15 -16 -12 -24 5 -12 -99 -126 -115 -126 -5 0 -59 -50 -121 -110 -62 -61
-115 -108 -118 -106 -2 3 15 29 38 58 l43 53 -53 -51 c-37 -36 -52 -60 -52
-78 0 -20 -9 -30 -42 -46 -42 -20 -86 -67 -86 -93 0 -16 -29 -57 -30 -41 0 5
5 15 12 22 9 9 9 12 0 12 -7 0 -12 -4 -12 -10 0 -5 -22 -32 -49 -59 l-48 -50
-2 -78 c-1 -43 -11 -110 -22 -150 -10 -40 -19 -83 -18 -95 1 -27 48 115 50
152 1 14 5 -4 10 -40 4 -39 4 -78 -2 -97 -6 -18 -8 -37 -5 -41 5 -8 -1 -16
-54 -66 -22 -21 -27 -46 -9 -46 6 0 13 9 16 19 3 11 12 22 20 25 11 5 9 -2 -6
-26 -11 -18 -28 -48 -36 -65 -8 -18 -20 -33 -25 -33 -6 0 -10 -10 -10 -23 0
-15 -11 -28 -35 -41 -25 -14 -34 -25 -33 -41 1 -14 7 -21 15 -18 7 3 20 0 28
-7 11 -9 15 -9 15 -1 0 6 -7 14 -15 17 -8 4 -15 12 -15 20 0 16 5 17 28 5 15
-8 21 -1 36 37 10 26 29 70 41 97 13 28 26 58 29 69 4 11 12 16 21 12 12 -4
15 3 15 34 0 22 4 48 10 58 5 9 23 48 40 85 17 37 35 65 40 62 6 -4 10 6 10
22 0 29 19 96 41 148 7 17 13 38 14 47 1 10 13 42 26 72 23 53 25 55 59 52 82
-9 158 -51 191 -106 27 -45 36 -80 21 -80 -12 0 -52 39 -52 50 0 6 -7 10 -16
10 -11 0 -14 5 -10 16 5 12 2 15 -9 10 -10 -3 -26 4 -40 18 -28 28 -52 38 -60
26 -4 -6 -2 -10 4 -10 15 0 76 -61 97 -97 9 -17 32 -39 49 -49 l32 -17 123 99
c67 54 137 110 156 124 41 31 46 43 33 78 -16 42 -19 90 -5 95 9 4 11 -3 8
-21 -4 -21 -2 -24 12 -19 10 4 15 3 11 -3 -3 -5 2 -21 11 -36 15 -22 15 -27 3
-35 -8 -5 -10 -9 -5 -9 5 0 18 9 30 21 12 11 122 99 246 195 124 96 271 210
327 254 56 44 104 80 107 80 3 0 6 -7 6 -15 0 -16 -59 -66 -225 -190 -111 -83
-390 -296 -532 -407 -51 -39 -90 -75 -88 -79 3 -4 -3 -6 -13 -5 -10 0 -16 -5
-14 -14 2 -8 0 -12 -4 -8 -4 4 -13 0 -21 -10 -9 -10 -11 -11 -7 -2 7 14 -9 2
-73 -54 -12 -11 -19 -24 -16 -29 3 -6 1 -7 -4 -4 -10 7 -70 -41 -66 -53 1 -3
-8 -7 -19 -7 -20 -2 -20 -1 3 23 l24 25 -28 -10 c-35 -14 -37 -14 -37 1 0 20
-88 108 -109 108 -16 0 -82 -47 -94 -67 -4 -7 -15 -13 -22 -13 -8 0 -15 -4
-15 -10 0 -11 27 -2 99 35 28 14 52 25 55 25 3 0 26 -27 51 -60 33 -43 45 -66
39 -78 -7 -16 -7 -16 -11 1 -3 9 -13 17 -24 17 -12 0 -19 7 -19 19 0 11 -5 23
-10 26 -13 8 -88 -45 -96 -67 -3 -10 -10 -18 -15 -18 -6 0 -7 -4 -4 -10 10
-16 21 -12 33 14 6 14 21 30 33 36 12 7 19 8 15 2 -3 -5 2 -13 11 -16 15 -6
14 -8 -5 -22 -12 -8 -24 -30 -27 -52 -4 -20 -9 -45 -12 -55 -4 -17 -3 -18 19
-4 16 10 30 12 46 6 33 -13 27 -36 -10 -42 -18 -3 -46 -9 -62 -13 -25 -6 -28
-4 -23 10 4 10 3 15 -3 11 -6 -3 -10 -1 -10 4 0 6 7 11 15 11 12 0 13 4 5 19
-5 11 -10 29 -10 39 0 15 -5 19 -20 15 -14 -4 -17 -9 -11 -17 6 -7 4 -33 -6
-71 -8 -33 -23 -96 -33 -140 -16 -68 -24 -84 -54 -110 -20 -16 -36 -36 -36
-42 0 -7 -3 -13 -7 -13 -5 0 -26 -25 -47 -55 -22 -30 -43 -55 -48 -55 -5 0 -4
-9 2 -19 14 -28 12 -44 -5 -37 -10 3 -15 -1 -15 -13 0 -10 -7 -21 -15 -25 -8
-3 -15 -16 -15 -30 0 -19 -9 -29 -40 -42 -25 -11 -40 -24 -40 -36 0 -10 -6
-18 -13 -18 -7 0 -26 -14 -43 -31 l-29 -32 44 27 43 28 -32 -46 c-17 -26 -41
-55 -52 -66 -12 -11 -33 -41 -47 -67 -28 -50 -51 -67 -51 -36 0 33 36 86 71
105 32 17 33 19 12 24 -29 8 -29 25 -2 42 15 9 18 19 13 35 -6 20 -6 21 12 7
17 -14 18 -13 6 1 -7 9 -10 24 -6 33 4 10 1 16 -9 16 -9 0 -24 3 -34 7 -15 5
-14 2 5 -19 17 -19 20 -28 11 -33 -7 -5 -17 -2 -23 6 -6 8 -19 15 -29 15 -14
2 -15 -1 -6 -12 6 -8 18 -14 25 -14 8 0 14 -11 14 -26 0 -20 -16 -42 -57 -82
-45 -41 -52 -52 -33 -47 25 8 25 8 6 -14 l-19 -21 -23 21 c-12 11 -28 34 -34
50 -7 16 -18 29 -25 29 -24 0 -34 55 -23 125 12 79 4 100 -10 23 l-9 -53 -8
53 c-8 54 -25 72 -25 26 0 -23 -3 -26 -25 -21 -18 3 -31 -2 -43 -18 -10 -12
-24 -24 -32 -27 -10 -3 -11 -6 -2 -12 7 -4 23 4 39 21 14 15 23 21 18 13 -6
-12 -5 -13 5 -3 10 9 19 6 41 -15 30 -28 41 -54 14 -32 -13 11 -15 10 -12 -6
7 -35 26 -74 37 -74 6 0 9 -4 5 -9 -3 -5 -1 -12 4 -16 6 -3 8 -12 5 -20 -4 -9
0 -12 13 -9 12 3 21 -3 28 -17 6 -12 24 -29 40 -38 17 -9 44 -26 59 -39 16
-12 33 -22 38 -22 15 0 38 27 38 44 0 23 39 94 56 100 8 3 14 12 14 21 0 8 4
15 9 15 11 0 41 57 41 78 0 8 6 12 15 8 9 -3 15 0 15 9 0 8 11 22 25 31 13 9
27 24 30 34 3 10 19 35 36 56 16 21 29 47 27 59 -2 17 14 45 67 113 6 7 26 30
45 51 59 65 65 75 68 111 5 66 14 110 22 110 4 0 10 9 13 21 4 13 10 18 18 14
6 -4 27 -9 46 -10 22 -1 29 1 21 6 -9 6 -3 9 16 9 34 0 60 28 44 47 -7 9 -7
17 2 28 18 22 24 19 38 -17 10 -27 9 -36 -8 -65 -23 -39 -27 -56 -6 -28 12 17
14 15 14 -26 0 -35 -2 -40 -9 -21 -11 29 -17 28 -11 -3 2 -14 9 -25 15 -25 5
0 15 -7 22 -16 10 -15 16 -13 49 21 21 20 36 31 35 24 -3 -19 11 -49 23 -49 5
0 7 4 3 10 -3 5 8 16 24 24 17 9 31 26 33 38 2 13 9 22 16 20 6 -1 11 3 10 9
-5 22 19 19 31 -4 7 -13 26 -32 42 -41 17 -10 37 -33 46 -50 16 -34 16 -37
-24 -171 -5 -17 -4 -18 11 -6 13 11 16 11 16 0 0 -8 3 -23 6 -34 3 -11 -1 -28
-9 -39 -12 -17 -17 -17 -53 -6 -142 47 -234 98 -234 131 0 12 17 11 25 -1 3
-5 12 -10 18 -10 7 0 3 7 -8 15 -11 9 -37 31 -57 50 -21 19 -46 35 -56 35 -10
0 -23 5 -30 12 -9 9 -12 9 -12 0 0 -7 13 -15 29 -18 38 -8 77 -50 84 -91 6
-30 4 -33 -18 -33 -13 0 -26 -3 -28 -7 -3 -5 14 -6 38 -5 37 3 44 1 50 -17 3
-12 10 -19 15 -16 5 3 23 -1 40 -10 16 -8 30 -13 30 -10 0 4 12 -1 28 -9 28
-15 58 -27 78 -31 6 -2 21 -6 32 -9 32 -11 53 29 49 94 -2 29 2 75 9 102 9 35
10 57 3 76 -12 32 -68 92 -85 92 -7 0 -18 16 -24 35 -6 19 -17 41 -24 48 -7 6
-29 38 -49 70 -36 56 -46 87 -29 87 5 0 19 9 32 20 13 11 29 20 37 20 7 0 13
5 13 11 0 5 6 7 13 3 6 -4 9 -4 5 0 -3 4 3 17 14 28 27 27 13 37 -15 10 -13
-12 -26 -22 -29 -22 -3 0 -29 -15 -57 -34 -27 -19 -55 -36 -62 -38 -12 -4 63
-121 109 -170 19 -21 22 -28 10 -28 -8 0 -28 -6 -44 -14 -16 -8 -41 -18 -56
-21 -23 -6 -28 -4 -28 11 0 15 -7 19 -32 19 -22 -1 -32 -5 -30 -14 2 -8 0 -21
-4 -30 -5 -13 -8 -11 -14 9 -11 40 5 60 45 56 32 -2 33 -1 20 14 -12 13 -12
19 -2 29 9 10 7 10 -11 0 -20 -13 -24 -11 -47 15 -14 16 -25 32 -25 36 0 13
102 101 163 139 34 22 76 55 93 73 36 40 75 72 104 88 24 13 50 -1 50 -26 0
-8 5 -14 10 -14 6 0 10 -7 10 -15 0 -8 7 -15 15 -15 18 0 19 -12 4 -27 -9 -9
-7 -11 8 -7 13 4 28 -2 39 -13 11 -10 37 -32 59 -48 22 -16 43 -33 46 -37 3
-5 14 -10 25 -12 10 -2 31 -9 46 -15 15 -5 44 -12 65 -15 21 -2 49 -9 63 -14
29 -11 125 -5 151 9 10 5 27 9 38 9 12 0 50 12 86 26 46 18 65 31 65 44 0 16
-5 16 -60 -6 -32 -14 -78 -29 -102 -34 -24 -5 -61 -13 -84 -19 -40 -10 -64 -6
-229 38 -45 12 -150 88 -206 149 -47 52 -49 55 -33 73 9 11 25 19 36 19 10 0
18 4 18 10 0 16 35 46 182 159 119 91 296 214 321 224 9 3 17 11 17 17 0 5 8
10 18 10 13 -1 11 -5 -11 -21 -26 -20 -29 -47 -4 -33 9 5 9 4 0 -6 -8 -9 -3
-20 23 -48 18 -20 32 -38 29 -40 -2 -2 2 -11 10 -19 18 -18 20 -37 3 -27 -10
6 -10 4 -2 -7 11 -13 2 -59 -11 -59 -4 0 -4 4 -1 9 8 12 -12 66 -21 57 -3 -3
-12 -1 -20 6 -7 6 -17 8 -21 4 -4 -4 1 -13 10 -20 11 -8 17 -29 18 -67 1 -29
1 -58 0 -64 -1 -5 -2 -13 -1 -17 0 -5 -4 -8 -9 -8 -6 0 -10 -9 -10 -20 0 -11
-4 -20 -8 -20 -5 0 -21 -17 -35 -37 -15 -21 -27 -32 -27 -26 0 7 5 15 10 18 6
3 10 12 10 18 -1 7 -9 2 -19 -10 -11 -13 -26 -23 -35 -23 -9 0 -16 -5 -16 -11
0 -6 7 -8 16 -5 15 6 15 3 -1 -20 -16 -25 -16 -27 0 -21 9 4 21 7 26 7 6 0 8
4 5 8 -7 11 32 44 44 37 5 -3 12 0 16 6 5 8 3 9 -6 4 -8 -5 -11 -3 -9 4 3 7 7
11 10 9 19 -11 79 82 79 122 0 11 7 31 15 44 9 13 14 30 13 37 -2 8 3 13 10
12 15 -4 15 1 -2 57 -8 25 -19 44 -26 42 -6 -1 -9 2 -5 7 7 12 -22 71 -35 71
-5 0 -7 7 -4 15 4 8 11 15 18 15 16 0 77 -134 86 -189 l8 -46 1 63 c0 34 -3
62 -7 62 -5 0 -8 10 -8 23 1 12 -4 21 -11 20 -6 -1 -14 4 -17 12 -7 18 15 20
32 3 8 -8 12 -8 12 -1 0 6 -7 13 -15 17 -9 3 -15 18 -15 34 0 37 -8 44 -34 31
-11 -5 -3 5 18 24 22 19 41 45 43 58 3 22 0 20 -26 -11 -16 -19 -35 -35 -42
-35 -7 0 -13 -8 -15 -18 -4 -26 -11 -32 -27 -19 -10 9 -19 8 -35 -4 -20 -14
-21 -14 -15 3 5 14 -3 11 -33 -12 -21 -16 -40 -33 -42 -37 -2 -4 -8 -8 -13 -8
-6 0 -24 -13 -42 -30 -18 -16 -35 -30 -39 -30 -4 0 -13 -6 -20 -13 -32 -31
-118 -88 -118 -78 0 6 4 11 8 11 4 0 49 33 100 73 140 110 180 138 197 141 8
1 21 8 27 14 7 7 18 12 25 12 7 0 13 3 13 8 0 4 16 16 35 27 21 11 34 24 31
32 -3 7 -2 12 2 12 24 -4 31 5 30 41 0 29 -5 41 -19 45 -11 4 -19 11 -19 16 0
6 9 7 20 4 16 -5 20 -2 20 19 0 33 -52 68 -150 102 -151 53 -298 36 -427 -47
-78 -51 -157 -134 -150 -158 2 -10 -3 -23 -14 -30 -11 -6 -19 -23 -19 -37 0
-14 4 -22 10 -19 6 3 7 -1 4 -9 -3 -9 -1 -16 6 -16 6 0 9 -3 6 -8 -2 -4 2 -16
10 -27 17 -22 17 -20 5 23 -12 39 3 82 28 83 10 0 12 2 4 6 -7 2 -13 14 -13
24 0 13 4 18 12 13 7 -4 8 -3 4 4 -9 15 23 64 37 55 5 -3 7 -1 4 5 -4 5 8 22
25 36 18 15 40 32 48 39 8 6 16 11 17 9 2 -1 20 5 41 14 20 10 40 16 45 16 4
-1 7 2 7 6 0 4 16 9 37 10 20 2 40 5 44 8 21 13 122 15 150 4 16 -7 38 -14 47
-15 26 -2 56 -17 70 -34 8 -9 11 -10 7 -3 -9 17 6 15 33 -4 22 -15 22 -37 -1
-29 -7 3 -37 -18 -67 -46 -58 -53 -53 -55 17 -7 46 31 73 36 73 13 0 -9 -9
-15 -23 -15 -23 0 -47 -17 -47 -33 0 -4 6 -5 13 -1 6 4 3 -2 -7 -14 -16 -18
-22 -20 -34 -9 -13 10 -14 9 -8 -1 5 -9 -2 -24 -20 -43 -29 -31 -53 -36 -72
-17 -11 11 -36 22 -130 55 -38 14 -45 14 -60 1 -9 -9 -23 -13 -31 -10 -9 3
-11 0 -6 -9 6 -11 5 -11 -5 -2 -9 8 -24 5 -61 -14 -27 -14 -49 -30 -49 -35 0
-5 -5 -6 -12 -2 -7 4 -8 3 -4 -4 4 -7 1 -12 -8 -12 -8 0 -20 -10 -27 -21 -9
-18 -4 -17 34 10 47 32 63 38 52 21 -3 -5 -1 -10 4 -10 6 0 11 5 11 10 0 6 7
10 16 10 8 0 13 4 9 9 -9 15 15 24 30 11 11 -9 20 -8 43 8 29 21 46 23 70 9 6
-5 12 -6 12 -3 0 3 19 -1 42 -10 22 -8 43 -12 45 -10 8 7 42 -27 37 -36 -3 -4
-16 -1 -30 8 -15 10 -24 12 -24 5 0 -6 6 -11 13 -11 8 0 7 -4 -3 -10 -8 -5
-10 -10 -5 -10 6 0 3 -4 -5 -10 -9 -6 -17 -5 -22 3 -4 6 -3 14 2 17 5 3 5 12
0 19 -10 17 -41 7 -36 -11 1 -7 1 -10 -1 -5 -3 4 -16 7 -29 7 -13 0 -32 5 -42
11 -14 9 -28 5 -69 -19 -40 -24 -50 -27 -46 -14 5 12 -1 10 -20 -7 -15 -13
-24 -28 -21 -32 3 -5 -1 -9 -8 -9 -38 0 -91 -158 -63 -187 19 -19 24 -16 17 9
-4 16 -2 19 9 13 11 -6 12 -5 2 6 -15 16 -17 69 -3 69 6 0 10 7 10 15 0 8 6
12 14 9 8 -3 17 -1 21 5 3 7 0 8 -9 5 -24 -9 -19 10 8 33 45 39 116 75 137 70
16 -4 19 -2 15 11 -5 15 -5 15 6 1 16 -19 48 -32 48 -18 0 5 14 3 30 -6 37
-19 39 -29 3 -21 -25 6 -26 5 -10 -8 16 -13 16 -15 -10 -31 -34 -22 -40 -27
-78 -61 -16 -15 -46 -37 -65 -50 -19 -13 -45 -31 -57 -40 -22 -16 -23 -15 -24
7 0 16 -3 19 -6 9 -3 -8 -11 -18 -17 -22 -7 -5 -6 -8 3 -8 8 0 3 -9 -12 -20
-14 -11 -29 -29 -32 -40 -12 -37 -26 -20 -24 28 1 27 -1 53 -4 59 -4 6 -2 24
3 39 9 22 8 29 -4 36 -8 5 -13 15 -10 23 8 20 -16 19 -45 -1 -19 -14 -25 -14
-32 -3 -5 8 -9 10 -9 4 0 -27 38 -45 51 -24 8 14 39 5 39 -11 0 -6 -4 -9 -8
-6 -9 5 -8 -47 1 -61 3 -5 -5 -10 -18 -11 -18 -1 -23 2 -19 13 4 9 0 15 -9 15
-20 0 -30 -40 -11 -47 8 -3 14 -9 14 -14 0 -13 -28 1 -34 17 -3 9 -1 24 4 35
8 14 7 19 -2 19 -10 0 -10 2 1 9 7 5 10 14 6 21 -11 19 -25 -10 -18 -37 3 -14
1 -23 -7 -23 -6 0 -9 4 -6 9 6 9 -23 25 -31 17 -2 -2 -1 -16 3 -31 5 -19 9
-23 15 -14 6 10 11 11 19 3 9 -9 6 -15 -9 -26 -20 -14 -20 -17 -7 -64 7 -27
17 -58 21 -69 6 -14 5 -17 -3 -10 -23 22 -54 141 -55 210 -1 39 -3 62 -5 53
-3 -15 -8 -13 -29 13 -14 16 -23 33 -19 36 3 4 0 16 -8 27 -7 12 -15 38 -18
58 -3 32 1 41 29 65 21 18 31 34 27 45 -5 18 31 44 55 39 8 -1 12 3 8 12 -5
14 60 82 222 231 35 32 39 34 20 10 -13 -16 -71 -75 -129 -130 -60 -56 -99
-100 -92 -102 8 -2 27 8 42 23 19 19 29 23 32 13 3 -8 21 1 53 30 165 145 403
165 597 51 26 -16 48 -24 48 -18 0 16 -26 39 -44 39 -9 0 -16 5 -16 12 0 6 -3
8 -7 5 -3 -4 -21 2 -38 13 -75 46 -256 62 -352 32 -35 -11 -63 -16 -63 -12 0
5 8 11 18 14 35 12 182 165 182 190 0 7 -58 -47 -217 -199 -96 -92 -100 -95
-115 -95 -7 0 12 23 42 52 155 145 298 288 273 274 -21 -12 -14 8 7 22 11 7
20 17 20 23 0 18 28 39 44 33 9 -3 16 -1 16 5 0 6 7 8 15 5 8 -4 15 -1 15 5 0
6 -17 11 -37 11 -36 0 -48 -10 -188 -151z m70 21 c-10 -11 -21 -18 -23 -15 -6
6 31 44 37 39 2 -2 -4 -13 -14 -24z m-282 -307 c4 -3 -1 -12 -11 -19 -25 -20
-34 -17 -20 6 13 21 21 24 31 13z m647 -43 c0 -5 -7 -10 -15 -10 -8 0 -15 5
-15 10 0 6 7 10 15 10 8 0 15 -4 15 -10z m-865 -130 c-10 -11 -23 -20 -28 -20
-6 0 -2 9 8 20 10 11 23 20 28 20 6 0 2 -9 -8 -20z m-59 -136 c-4 -10 -2 -13
6 -8 8 5 9 2 5 -9 -3 -10 -2 -17 4 -17 6 0 8 -4 4 -9 -3 -6 7 -25 23 -43 22
-25 31 -47 36 -93 4 -33 16 -87 28 -119 l20 -59 -40 -36 c-22 -20 -56 -49 -77
-66 -35 -28 -46 -37 -94 -77 -12 -10 -23 -13 -26 -8 -4 6 -19 34 -33 62 -21
40 -38 57 -70 73 -41 20 -51 40 -19 40 25 0 57 32 57 57 0 37 -28 58 -78 58
l-46 0 34 25 c19 14 39 33 44 43 5 9 25 31 44 47 18 17 59 54 89 83 31 28 60
52 65 52 4 0 8 5 8 10 0 6 5 10 11 10 6 0 8 -7 5 -16z m891 -20 c-9 -9 -28 6
-21 18 4 6 10 6 17 -1 6 -6 8 -13 4 -17z m-641 -176 c4 -6 2 -14 -5 -16 -8 -3
-9 -8 -2 -16 13 -15 3 -56 -12 -50 -18 6 -19 94 -2 94 8 0 17 -5 21 -12z m199
-17 c-31 -28 -217 -171 -223 -171 -3 0 0 7 8 14 21 21 213 166 219 166 3 0 1
-4 -4 -9z m-255 -21 c0 -5 -5 -10 -11 -10 -5 0 -7 5 -4 10 3 6 8 10 11 10 2 0
4 -4 4 -10z m-853 -37 c4 -10 11 -22 17 -26 6 -4 -1 -5 -16 -1 -21 4 -29 1
-38 -17 -12 -21 -11 -22 17 -16 22 4 30 2 30 -9 0 -9 -6 -13 -15 -9 -9 3 -18
1 -22 -5 -4 -6 -13 -5 -25 4 -16 12 -17 16 -6 29 7 9 10 21 6 27 -8 14 13 40
32 40 7 0 17 -8 20 -17z m456 -20 c4 -2 7 -12 7 -22 0 -15 -11 -19 -68 -24
-80 -7 -114 -20 -165 -64 -46 -40 -66 -43 -41 -5 28 43 44 54 81 55 7 0 17 15
23 33 6 18 16 35 23 38 13 5 127 -4 140 -11z m-86 -69 c-3 -3 -12 -4 -19 -1
-8 3 -5 6 6 6 11 1 17 -2 13 -5z m503 -28 c0 -2 -8 -10 -17 -17 -16 -13 -17
-12 -4 4 13 16 21 21 21 13z m-685 -72 c-11 -9 -27 -21 -36 -27 -8 -7 -26 -40
-38 -74 -13 -34 -29 -68 -37 -74 -8 -6 -14 -25 -14 -42 0 -19 -4 -27 -9 -22
-13 13 -17 104 -6 129 7 15 5 18 -6 11 -8 -4 6 12 31 36 25 25 47 43 50 42 3
-1 17 7 30 18 14 10 32 19 40 18 11 0 10 -4 -5 -15z m605 6 c0 -5 -5 -10 -11
-10 -5 0 -7 5 -4 10 3 6 8 10 11 10 2 0 4 -4 4 -10z m-585 -42 c-5 -22 -63
-83 -72 -74 -9 8 33 71 46 69 6 -2 10 0 10 5 -3 14 1 22 10 22 6 0 8 -10 6
-22z m-42 -105 c-4 -10 -12 -27 -19 -38 -7 -11 -13 -29 -12 -40 1 -32 -21 -77
-34 -69 -7 4 -8 3 -4 -4 4 -6 0 -24 -8 -39 -13 -24 -15 -25 -16 -8 -1 11 -3
29 -6 40 -7 33 16 101 48 139 31 38 62 49 51 19z m267 -101 c0 -4 -11 -19 -24
-34 l-25 -26 22 -6 c33 -8 13 -19 -22 -11 -35 7 -37 31 -6 65 17 19 55 28 55
12z m88 -259 c-23 -24 -34 -29 -40 -20 -10 15 -10 37 0 36 20 -3 33 2 27 11
-4 6 -4 18 -1 27 6 14 9 14 26 -2 20 -18 20 -19 -12 -52z m112 47 c0 -18 -58
-72 -65 -61 -3 6 -1 11 4 11 6 0 11 6 11 14 0 8 10 22 22 30 26 19 28 19 28 6z
m-889 -33 c14 -5 15 -12 6 -56 -5 -28 -13 -51 -17 -51 -12 0 -19 26 -13 50 4
13 -2 29 -16 44 -23 24 -19 40 8 26 9 -5 23 -11 32 -13z m139 -74 c0 -28 -34
-8 -45 26 l-7 24 26 -19 c14 -11 26 -25 26 -31z m-658 -95 c-8 -8 -17 -8 -34
0 -22 10 -21 11 12 11 26 1 31 -2 22 -11z m548 -608 c0 -5 -4 -10 -10 -10 -5
0 -10 5 -10 10 0 6 5 10 10 10 6 0 10 -4 10 -10z"/>
<path d="M1390 4416 c0 -14 5 -28 11 -32 6 -3 8 -15 5 -27 -3 -13 -2 -17 5
-10 12 12 2 80 -12 89 -5 3 -9 -6 -9 -20z"/>
<path d="M2100 4422 c0 -6 -16 -22 -36 -36 -33 -22 -34 -43 -2 -31 17 7 52 64
44 72 -3 4 -6 1 -6 -5z"/>
<path d="M2879 4409 c5 -13 23 -53 40 -89 17 -36 31 -70 31 -75 0 -12 40 -38
47 -31 3 3 -6 21 -21 40 -14 19 -26 38 -26 41 0 16 -50 112 -64 124 -15 13
-16 12 -7 -10z"/>
<path d="M1226 4361 c-3 -5 1 -14 9 -21 13 -10 15 -9 15 9 0 21 -14 28 -24 12z"/>
<path d="M1916 4315 c4 -8 10 -12 15 -9 14 8 10 24 -6 24 -9 0 -12 -6 -9 -15z"/>
<path d="M1435 4291 c-8 -17 -12 -37 -8 -47 4 -12 2 -15 -8 -12 -16 5 -49 -28
-49 -48 0 -8 -6 -11 -15 -8 -8 4 -15 2 -15 -4 0 -5 -16 -13 -35 -16 -19 -4
-35 -11 -35 -15 0 -14 29 -21 36 -9 7 11 210 5 249 -7 16 -6 17 -5 5 4 -8 6
-40 16 -70 22 -64 13 -110 31 -110 41 0 4 11 10 25 14 22 6 56 41 66 69 2 6 7
9 12 8 11 -4 8 12 -5 25 -18 18 -26 15 -43 -17z"/>
<path d="M1370 4256 c-6 -8 -21 -16 -32 -18 -24 -3 -38 -28 -16 -28 12 0 68
45 68 55 0 9 -7 5 -20 -9z"/>
<path d="M428 4136 c-9 -22 -7 -29 18 -56 69 -75 182 -74 184 2 0 23 -27 48
-45 42 -8 -4 -15 -1 -15 5 0 7 -14 11 -35 9 -19 -1 -40 3 -47 10 -20 20 -48
14 -60 -12z m45 -2 c9 -10 -4 -34 -19 -34 -8 0 -14 6 -14 13 0 22 19 35 33 21z
m37 -33 c0 -20 -25 -47 -33 -34 -7 12 11 53 23 53 5 0 10 -8 10 -19z m81 -1
c12 0 19 -7 19 -19 0 -13 -10 -20 -36 -24 -37 -6 -64 -1 -64 13 0 16 33 41 47
36 8 -3 23 -6 34 -6z"/>
<path d="M1033 4137 c-17 -7 -35 -16 -39 -20 -5 -4 -2 -6 6 -3 8 4 29 8 47 10
24 2 30 0 26 -11 -3 -8 -11 -12 -17 -10 -6 3 -17 -2 -25 -10 -12 -13 -11 -15
5 -10 78 24 173 47 194 48 l25 1 -25 8 c-38 12 -161 10 -197 -3z"/>
<path d="M1580 4112 c0 -6 9 -12 20 -15 11 -3 20 -3 20 -1 0 2 -9 8 -20 14
-11 6 -20 7 -20 2z"/>
<path d="M955 4100 c-3 -5 -2 -10 4 -10 5 0 13 5 16 10 3 6 2 10 -4 10 -5 0
-13 -4 -16 -10z"/>
<path d="M1237 4103 c-40 -6 -25 -20 17 -15 20 2 33 8 30 13 -3 5 -8 8 -12 8
-4 -1 -19 -4 -35 -6z"/>
<path d="M1300 4096 c0 -9 5 -16 10 -16 6 0 10 4 10 9 0 6 -4 13 -10 16 -5 3
-10 -1 -10 -9z"/>
<path d="M1347 4094 c3 -9 8 -12 12 -5 4 6 39 9 86 7 49 -2 68 0 50 4 -16 4
-58 8 -92 9 -53 1 -61 -1 -56 -15z"/>
<path d="M930 4081 c0 -7 -4 -10 -9 -7 -5 3 -14 0 -20 -8 -9 -10 -8 -15 4 -20
9 -3 14 -2 11 3 -11 18 28 22 41 5 7 -10 13 -13 13 -7 0 5 -9 18 -20 28 -12
11 -20 13 -20 6z"/>
<path d="M1090 4060 c-9 -6 -10 -10 -3 -10 6 0 15 5 18 10 8 12 4 12 -15 0z"/>
<path d="M841 4020 c-43 -39 -39 -43 14 -13 50 28 51 29 31 36 -9 4 -29 -7
-45 -23z"/>
<path d="M860 3983 c-8 -3 -17 -9 -20 -13 -7 -10 -89 -106 -118 -137 -12 -13
-20 -28 -17 -33 3 -4 2 -10 -3 -12 -13 -6 -69 -122 -88 -183 -26 -87 -26 -296
0 -385 11 -36 30 -82 42 -102 24 -37 108 -108 128 -107 6 0 2 6 -9 12 -31 19
-105 98 -105 113 0 8 -4 14 -8 14 -5 0 -9 6 -10 13 0 6 -8 41 -17 77 -11 45
-15 101 -14 180 3 157 27 249 87 323 12 16 22 34 22 40 0 6 12 24 28 40 15 17
20 26 12 22 -8 -5 -3 4 13 20 15 15 27 32 27 37 0 5 5 6 12 2 6 -4 8 -3 5 3
-4 6 9 25 28 42 44 39 46 49 5 34z"/>
<path d="M2857 3949 c7 -7 15 -10 18 -7 3 3 -2 9 -12 12 -14 6 -15 5 -6 -5z"/>
<path d="M2471 3924 c0 -11 3 -14 6 -6 3 7 2 16 -1 19 -3 4 -6 -2 -5 -13z"/>
<path d="M1752 3890 c0 -14 2 -19 5 -12 2 6 2 18 0 25 -3 6 -5 1 -5 -13z"/>
<path d="M2160 3861 c0 -5 7 -14 15 -21 13 -10 15 -9 15 9 0 12 -6 21 -15 21
-8 0 -15 -4 -15 -9z"/>
<path d="M2300 3860 c-9 -6 -10 -10 -3 -10 6 0 15 5 18 10 8 12 4 12 -15 0z"/>
<path d="M2600 3860 c0 -5 10 -10 23 -10 18 0 19 2 7 10 -19 13 -30 13 -30 0z"/>
<path d="M1752 3830 c0 -19 2 -27 5 -17 2 9 2 25 0 35 -3 9 -5 1 -5 -18z"/>
<path d="M1025 3829 c-11 -16 -1 -19 13 -3 7 8 8 14 3 14 -5 0 -13 -5 -16 -11z"/>
<path d="M2045 3830 c-3 -5 -1 -10 4 -10 6 0 11 5 11 10 0 6 -2 10 -4 10 -3 0
-8 -4 -11 -10z"/>
<path d="M2417 3823 c-10 -9 -9 -23 1 -23 5 0 9 7 9 15 0 17 -1 18 -10 8z"/>
<path d="M2212 3807 c-17 -20 -3 -59 18 -52 10 3 22 0 26 -6 5 -9 2 -10 -9 -6
-10 4 -17 2 -17 -5 0 -6 -6 -6 -16 3 -14 11 -18 10 -30 -6 -8 -11 -11 -26 -8
-35 4 -8 6 -25 6 -37 -1 -11 5 -24 14 -27 9 -3 12 -2 9 5 -4 6 1 17 11 24 11
8 14 15 9 15 -6 0 -11 9 -12 20 -2 19 17 28 57 29 8 0 29 3 45 6 17 4 25 3 19
-2 -6 -4 -8 -17 -4 -27 6 -17 10 -12 30 27 13 26 27 47 32 47 4 0 8 8 8 18 0
14 -2 15 -10 2 -5 -8 -10 -11 -10 -5 0 5 -5 4 -11 -2 -6 -6 -19 -9 -28 -6 -13
4 -13 3 -2 -5 7 -5 11 -16 9 -23 -3 -9 -11 -6 -27 10 -21 21 -23 21 -17 3 11
-33 -14 -37 -40 -7 -13 16 -24 34 -24 42 0 17 -14 17 -28 0z"/>
<path d="M2977 3808 c-17 -13 -17 -15 -3 -27 20 -17 29 -10 24 19 -3 19 -5 19
-21 8z"/>
<path d="M2009 3793 c-13 -16 -12 -17 4 -4 9 7 17 15 17 17 0 8 -8 3 -21 -13z"/>
<path d="M2530 3788 c-45 -12 -67 -33 -91 -83 l-19 -40 45 48 c25 26 53 47 64
47 12 0 21 4 21 9 0 5 6 8 13 7 13 -1 23 17 10 20 -4 1 -24 -2 -43 -8z"/>
<path d="M1276 3721 c-3 -5 -15 -7 -26 -4 -12 3 -28 -1 -38 -10 -9 -8 -38 -18
-63 -21 -32 -5 -54 -15 -70 -33 -20 -21 -21 -25 -6 -20 10 4 23 7 28 7 5 0 9
6 9 13 0 14 23 15 53 2 10 -4 35 -3 55 3 63 20 105 15 124 -12 9 -14 10 -42 1
-33 -3 4 -12 -1 -20 -11 -9 -11 -12 -11 -7 -2 5 12 4 12 -6 3 -9 -8 -18 -4
-39 19 -27 31 -28 31 -79 18 -29 -6 -50 -16 -47 -20 3 -4 -2 -11 -11 -14 -9
-4 -15 -9 -12 -12 3 -3 24 5 47 17 36 18 45 20 71 9 46 -19 44 -27 -6 -27 -24
0 -50 -5 -56 -11 -7 -7 -20 -12 -31 -12 -10 0 -16 -4 -12 -9 3 -6 -10 -5 -31
0 -37 11 -94 4 -94 -11 0 -5 16 -8 36 -6 48 5 76 -4 70 -20 -8 -20 26 -26 70
-11 35 13 37 15 17 21 -34 11 -28 26 8 19 21 -4 34 -1 40 8 8 12 10 12 18 0 6
-9 11 -10 15 -2 4 6 12 8 18 5 7 -5 8 -2 3 6 -6 10 -3 12 13 8 14 -4 22 -1 25
11 3 12 7 8 16 -13 8 -19 16 -26 27 -22 9 3 18 6 21 6 4 0 -2 9 -11 19 -10 11
-18 35 -18 55 0 24 -5 36 -14 36 -8 0 -14 9 -14 20 0 22 -10 26 -27 9 -12 -12
-37 -3 -28 11 3 5 1 11 -4 14 -5 4 -12 2 -15 -3z m-13 -28 c-7 -2 -19 -2 -25
0 -7 3 -2 5 12 5 14 0 19 -2 13 -5z m-57 -18 c-11 -8 -27 -15 -35 -15 -10 0
-7 6 9 14 33 19 50 19 26 1z"/>
<path d="M1060 3702 c0 -12 3 -12 15 -2 8 7 15 13 15 15 0 1 -7 2 -15 2 -8 0
-15 -7 -15 -15z"/>
<path d="M2766 3669 c-26 -19 -34 -29 -22 -29 9 0 15 -4 12 -9 -4 -5 4 -6 16
-3 19 5 20 7 6 10 -10 2 -18 8 -18 13 0 13 24 11 40 -3 12 -11 12 -10 1 5 -8
9 -11 21 -7 24 4 4 11 1 15 -6 9 -15 31 -7 31 11 0 6 -3 8 -7 5 -3 -4 -11 -3
-17 2 -7 6 -25 -1 -50 -20z"/>
<path d="M2840 3655 c-6 -8 -10 -20 -7 -27 4 -8 8 -5 12 9 6 18 10 20 20 9 7
-7 15 -21 18 -32 4 -17 5 -17 6 -1 1 22 -16 57 -28 57 -5 0 -14 -7 -21 -15z"/>
<path d="M2259 3643 c-7 -10 -9 -15 -5 -11 5 4 15 3 22 -3 14 -12 29 4 19 21
-9 15 -21 12 -36 -7z"/>
<path d="M2635 3584 c-33 -25 -67 -51 -75 -57 -8 -7 -45 -34 -82 -62 -37 -27
-67 -55 -68 -61 0 -16 64 -74 83 -74 10 0 22 -11 27 -24 9 -26 20 -31 87 -41
48 -7 141 4 123 15 -7 4 -27 4 -46 0 -26 -6 -39 -4 -51 8 -9 10 -19 17 -22 17
-21 0 -99 33 -113 47 -10 10 -22 18 -26 18 -5 0 -15 11 -22 25 -12 22 -11 27
6 39 10 8 23 12 28 9 5 -4 6 -1 2 5 -5 8 0 12 13 12 22 0 74 43 64 53 -3 4 1
7 10 7 10 0 17 5 17 10 0 6 3 9 8 8 14 -4 52 13 52 23 0 6 6 7 13 3 6 -4 9 -3
4 1 -4 5 5 21 20 37 40 42 16 33 -52 -18z m-27 -299 c7 -7 -33 -6 -52 1 -9 3
-16 10 -16 14 0 8 58 -4 68 -15z"/>
<path d="M2791 3621 c-9 -6 -10 -11 -2 -15 6 -4 11 -2 11 4 0 6 5 8 10 5 6 -3
10 -1 10 4 0 13 -10 14 -29 2z"/>
<path d="M2827 3573 c-2 -4 -8 -24 -11 -43 -5 -26 -4 -31 3 -20 9 12 11 11 11
-7 0 -13 5 -23 10 -23 6 0 9 19 6 45 -3 46 -10 63 -19 48z"/>
<path d="M2341 3554 c0 -11 3 -14 6 -6 3 7 2 16 -1 19 -3 4 -6 -2 -5 -13z"/>
<path d="M1320 3549 c0 -5 5 -7 10 -4 6 3 10 8 10 11 0 2 -4 4 -10 4 -5 0 -10
-5 -10 -11z"/>
<path d="M995 3500 c-3 -5 -1 -10 4 -10 6 0 11 5 11 10 0 6 -2 10 -4 10 -3 0
-8 -4 -11 -10z"/>
<path d="M2961 3488 c8 -15 8 -22 -1 -28 -9 -5 -9 -9 -1 -14 16 -11 13 -26 -4
-20 -10 4 -15 0 -15 -11 0 -9 -9 -28 -20 -42 -11 -14 -20 -35 -20 -45 0 -13
-5 -18 -14 -15 -8 3 -26 -9 -42 -29 -16 -19 -35 -34 -42 -34 -7 0 -10 -4 -7
-10 4 -6 -6 -8 -24 -6 -17 2 -28 -1 -25 -5 3 -5 0 -9 -5 -9 -6 0 -11 -5 -11
-11 0 -7 7 -8 18 -4 9 4 28 10 42 13 14 3 30 11 35 18 6 7 21 11 36 8 22 -5
25 -10 22 -32 -4 -24 -3 -25 9 -10 17 20 32 11 35 -19 3 -25 -16 -30 -35 -11
-9 9 -12 7 -12 -10 0 -28 2 -27 67 3 38 18 53 31 53 45 0 24 -15 26 -24 4 -4
-9 -9 -14 -13 -11 -3 4 -12 -1 -19 -11 -11 -14 -12 -12 -4 18 6 19 10 36 10
38 0 2 4 0 10 -3 5 -3 18 -1 27 4 10 6 12 11 6 11 -7 0 -13 8 -14 18 0 10 -3
12 -6 5 -2 -7 -11 -13 -18 -13 -8 0 -18 -7 -22 -15 -7 -11 -18 -14 -41 -9
l-33 7 22 23 c16 17 25 21 30 12 5 -8 12 -3 20 15 7 15 16 27 22 27 5 0 7 6 4
14 -3 8 1 20 9 26 8 7 14 18 14 24 0 6 -5 4 -10 -4 -6 -9 -10 -10 -10 -3 0 7
7 16 17 21 10 6 18 26 20 53 4 41 2 44 -21 45 -23 2 -24 0 -15 -18z m-28 -156
c-3 -12 -9 -19 -14 -16 -5 3 -4 14 2 25 13 26 20 21 12 -9z"/>
<path d="M1571 3480 c-13 -11 -19 -20 -14 -20 6 0 18 9 28 20 23 25 17 25 -14
0z"/>
<path d="M995 3470 c-3 -5 1 -10 9 -10 9 0 16 5 16 10 0 6 -4 10 -9 10 -6 0
-13 -4 -16 -10z"/>
<path d="M1482 3451 c-24 -32 -18 -40 12 -18 10 7 17 21 15 31 -3 15 -8 12
-27 -13z"/>
<path d="M1033 3455 c-14 -15 -1 -31 16 -20 5 3 12 -5 14 -17 4 -21 4 -21 6
-2 0 11 -5 28 -11 36 -11 14 -15 15 -25 3z"/>
<path d="M753 3443 c-34 -17 -49 -45 -58 -103 -6 -38 28 -117 64 -151 31 -29
87 -44 113 -31 l23 13 -24 -5 c-37 -8 -98 32 -127 81 -25 44 -33 99 -19 142 9
29 62 56 80 41 10 -8 15 -8 20 1 8 11 -11 29 -30 28 -5 0 -24 -7 -42 -16z"/>
<path d="M1085 3409 c-11 -17 1 -21 15 -4 8 9 8 15 2 15 -6 0 -14 -5 -17 -11z"/>
<path d="M766 3401 c-3 -4 6 -6 19 -3 14 2 25 6 25 8 0 8 -39 4 -44 -5z"/>
<path d="M1485 3400 c-3 -5 -1 -10 4 -10 6 0 11 5 11 10 0 6 -2 10 -4 10 -3 0
-8 -4 -11 -10z"/>
<path d="M793 3371 c-47 -24 -56 -44 -42 -91 8 -27 23 -47 50 -64 21 -14 41
-22 44 -17 3 5 -10 19 -29 30 -38 24 -46 38 -46 87 0 23 4 32 13 28 7 -2 24 7
37 21 26 28 20 30 -27 6z"/>
<path d="M2370 3381 c0 -22 51 -69 69 -64 13 3 23 -2 31 -16 12 -23 69 -51
104 -51 18 0 19 -2 6 -11 -12 -9 -12 -10 3 -5 10 3 48 6 83 6 35 0 64 3 64 8
0 4 -35 7 -77 7 -80 0 -188 30 -163 45 7 4 1 11 -18 19 -16 7 -42 26 -58 42
-28 29 -44 37 -44 20z"/>
<path d="M2729 3373 c-13 -16 -12 -17 4 -4 16 13 21 21 13 21 -2 0 -10 -8 -17
-17z"/>
<path d="M2361 3350 c9 -20 9 -23 -1 -13 -7 6 -18 9 -26 6 -10 -4 -10 -11 3
-39 9 -19 23 -34 30 -34 8 0 11 5 7 11 -10 17 30 -7 47 -27 13 -17 13 -17 -10
-2 -13 9 -30 14 -37 11 -18 -6 59 -70 96 -80 37 -9 90 -39 83 -47 -3 -3 3 -6
15 -6 11 0 29 -3 39 -6 10 -3 5 2 -12 12 -16 9 -43 28 -58 40 -16 13 -34 24
-42 24 -7 0 -16 8 -19 17 -6 15 -8 15 -16 3 -9 -14 -13 -6 -9 16 1 3 -12 20
-28 37 -24 28 -25 29 -3 11 51 -42 60 -47 60 -35 0 6 -19 23 -42 38 -24 15
-46 32 -50 38 -4 5 -14 19 -23 30 -16 19 -16 19 -4 -5z"/>
<path d="M821 3336 c-8 -14 -10 -30 -5 -38 6 -9 3 -9 -11 2 -17 14 -17 13 -10
-10 10 -34 41 -65 49 -51 4 6 2 11 -3 11 -15 0 -14 83 1 98 7 7 8 12 2 12 -6
0 -16 -11 -23 -24z"/>
<path d="M2656 3345 c-25 -19 -16 -19 20 0 16 8 22 15 14 15 -8 -1 -24 -7 -34
-15z"/>
<path d="M2598 3323 c6 -2 18 -2 25 0 6 3 1 5 -13 5 -14 0 -19 -2 -12 -5z"/>
<path d="M2704 3309 c-19 -22 -19 -22 4 -8 12 8 22 17 22 21 0 12 -6 9 -26
-13z"/>
<path d="M1076 3304 c-8 -22 -8 -44 2 -44 4 0 7 14 8 30 1 34 -1 37 -10 14z"/>
<path d="M1669 3294 l-24 -27 32 17 c36 18 51 36 30 36 -7 0 -24 -12 -38 -26z"/>
<path d="M2650 3305 c-10 -12 -10 -15 4 -15 9 0 16 7 16 15 0 8 -2 15 -4 15
-2 0 -9 -7 -16 -15z"/>
<path d="M1160 3290 c0 -5 5 -10 10 -10 6 0 10 5 10 10 0 6 -4 10 -10 10 -5 0
-10 -4 -10 -10z"/>
<path d="M1246 3264 c-20 -42 -10 -60 19 -37 15 12 16 14 3 10 -15 -5 -15 -3
-2 29 19 46 2 44 -20 -2z"/>
<path d="M1130 3276 c0 -2 7 -9 15 -16 13 -11 14 -10 9 4 -5 14 -24 23 -24 12z"/>
<path d="M860 3250 c0 -5 7 -7 15 -4 8 4 15 8 15 10 0 2 -7 4 -15 4 -8 0 -15
-4 -15 -10z"/>
<path d="M2497 3245 c-7 -15 1 -25 20 -25 7 0 13 6 13 14 0 19 -27 28 -33 11z"/>
<path d="M1185 3230 c-18 -19 -17 -20 1 -20 13 0 20 7 21 20 1 11 0 20 -1 20
-2 0 -11 -9 -21 -20z"/>
<path d="M1150 3230 c-9 -6 -10 -10 -3 -10 6 0 15 5 18 10 8 12 4 12 -15 0z"/>
<path d="M10 3222 c0 -5 9 -35 19 -68 11 -32 29 -95 41 -139 25 -90 49 -144
49 -110 1 26 -17 105 -29 130 -5 11 -20 59 -35 108 -14 48 -30 87 -35 87 -6 0
-10 -4 -10 -8z"/>
<path d="M2620 3221 c14 -4 24 -13 23 -19 -2 -7 2 -12 7 -12 6 0 10 4 10 8 0
5 15 7 33 5 23 -2 18 1 -18 12 -27 8 -57 14 -65 14 -8 -1 -4 -4 10 -8z"/>
<path d="M2823 3205 c4 -8 2 -17 -3 -20 -6 -4 -10 -2 -10 3 0 5 -9 12 -20 15
-11 3 -20 1 -20 -4 0 -5 -8 -9 -19 -9 -10 0 -25 -8 -32 -17 -12 -15 -12 -16 6
-8 31 12 69 12 83 -2 21 -20 39 -15 46 12 8 30 1 45 -21 45 -9 0 -13 -6 -10
-15z"/>
<path d="M1196 3192 c-3 -6 -1 -14 5 -17 14 -9 20 -2 10 14 -6 8 -11 9 -15 3z"/>
<path d="M1250 3193 c0 -5 4 -15 10 -23 11 -18 25 -7 17 15 -6 15 -27 21 -27
8z"/>
<path d="M1141 3164 c0 -11 3 -14 6 -6 3 7 2 16 -1 19 -3 4 -6 -2 -5 -13z"/>
<path d="M2580 3165 c0 -8 5 -15 10 -15 6 0 10 7 10 15 0 8 -4 15 -10 15 -5 0
-10 -7 -10 -15z"/>
<path d="M2645 3170 c-3 -5 -12 -7 -20 -3 -9 3 -15 -1 -15 -10 0 -9 15 -21 36
-27 38 -13 55 -7 36 12 -9 9 -12 9 -12 0 0 -6 -7 -9 -15 -6 -26 10 -16 26 13
22 19 -3 29 0 29 9 0 15 -43 18 -52 3z"/>
<path d="M1240 3160 c0 -8 4 -21 9 -28 6 -10 11 -9 22 4 8 10 9 15 2 11 -7 -4
-16 0 -22 10 -8 14 -10 15 -11 3z"/>
<path d="M2750 3160 c0 -5 5 -10 11 -10 5 0 7 5 4 10 -3 6 -8 10 -11 10 -2 0
-4 -4 -4 -10z"/>
<path d="M1 3124 c-1 -63 51 -255 65 -241 7 6 -5 63 -40 192 -22 78 -25 85
-25 49z"/>
<path d="M2808 3123 c7 -3 16 -2 19 1 4 3 -2 6 -13 5 -11 0 -14 -3 -6 -6z"/>
<path d="M1215 3110 c-3 -5 -2 -10 4 -10 5 0 13 5 16 10 3 6 2 10 -4 10 -5 0
-13 -4 -16 -10z"/>
<path d="M734 3007 c3 -10 6 -21 6 -23 0 -9 29 -3 36 8 5 7 3 8 -5 4 -7 -5
-19 0 -27 10 -15 18 -15 18 -10 1z"/>
<path d="M1566 3012 c-3 -5 9 -9 26 -10 24 -1 28 2 18 8 -19 12 -37 13 -44 2z"/>
<path d="M1970 2970 c-9 -6 -10 -10 -3 -10 6 0 15 5 18 10 8 12 4 12 -15 0z"/>
<path d="M1422 2905 c-16 -55 -14 -67 4 -26 8 19 13 42 11 50 -2 9 -9 -2 -15
-24z"/>
<path d="M1530 2940 c-1 -3 -3 -14 -5 -24 -2 -10 -10 -23 -17 -27 -9 -6 -10
-9 -1 -9 15 0 36 37 29 53 -2 7 -5 10 -6 7z"/>
<path d="M2076 2811 c-16 -23 -25 -45 -20 -52 4 -8 16 5 31 35 31 60 25 69
-11 17z"/>
<path d="M1530 2830 c0 -5 5 -10 10 -10 6 0 10 5 10 10 0 6 -4 10 -10 10 -5 0
-10 -4 -10 -10z"/>
<path d="M1821 2804 c0 -11 3 -14 6 -6 3 7 2 16 -1 19 -3 4 -6 -2 -5 -13z"/>
<path d="M1490 2790 c0 -5 11 -17 25 -26 20 -13 32 -14 62 -6 l38 9 -41 0
c-26 -1 -47 5 -58 16 -20 19 -26 21 -26 7z"/>
<path d="M1810 2767 c0 -8 7 -17 15 -21 8 -3 15 -3 15 0 0 3 -7 12 -15 20 -13
13 -15 13 -15 1z"/>
<path d="M2105 2760 c-43 -28 -49 -53 -19 -85 14 -15 23 -30 20 -32 -6 -7 19
-33 32 -33 6 0 8 9 5 20 -3 11 -9 20 -13 20 -4 0 -18 17 -30 37 -18 30 -19 38
-7 44 26 15 62 48 52 49 -5 0 -23 -9 -40 -20z"/>
<path d="M84 2675 c0 -49 1 -71 3 -48 2 23 2 64 0 90 -2 26 -3 8 -3 -42z"/>
<path d="M1885 2730 c-3 -5 -1 -10 4 -10 6 0 11 5 11 10 0 6 -2 10 -4 10 -3 0
-8 -4 -11 -10z"/>
<path d="M2017 2695 c-8 -8 -18 -11 -21 -7 -4 3 -4 -1 -1 -10 6 -15 9 -14 31
5 13 11 24 22 24 24 0 8 -20 1 -33 -12z"/>
<path d="M2291 2658 c13 -18 62 -73 109 -123 77 -80 111 -125 146 -189 6 -11
17 -22 25 -24 11 -4 10 -1 -2 14 -9 10 -27 39 -39 63 -12 24 -60 83 -105 130
-46 47 -97 103 -112 123 -34 46 -53 50 -22 6z"/>
<path d="M785 2650 c-3 -5 -1 -10 4 -10 6 0 11 5 11 10 0 6 -2 10 -4 10 -3 0
-8 -4 -11 -10z"/>
<path d="M1636 2651 c-10 -15 3 -37 30 -51 13 -7 24 -17 24 -21 0 -4 9 -5 20
-2 11 3 20 10 20 15 0 5 -4 7 -10 3 -10 -6 -80 35 -80 48 0 11 14 8 36 -8 29
-22 43 -17 15 5 -25 21 -46 26 -55 11z"/>
<path d="M2248 2605 c2 -19 6 -35 8 -35 2 0 4 16 4 35 0 19 -4 35 -8 35 -4 0
-6 -16 -4 -35z"/>
<path d="M405 2620 c-3 -5 -1 -10 4 -10 6 0 11 5 11 10 0 6 -2 10 -4 10 -3 0
-8 -4 -11 -10z"/>
<path d="M541 2621 c-10 -6 -10 -10 -1 -16 13 -8 24 -1 19 14 -3 6 -10 7 -18
2z"/>
<path d="M1250 2619 c0 -6 -7 -8 -17 -5 -10 4 -14 3 -9 -1 4 -4 18 -8 31 -8
19 -1 22 2 13 12 -13 16 -18 16 -18 2z"/>
<path d="M2069 2613 c-13 -16 -12 -17 4 -4 9 7 17 15 17 17 0 8 -8 3 -21 -13z"/>
<path d="M362 2581 c-1 -19 19 -63 32 -73 6 -4 18 -2 28 3 10 5 30 7 45 4 27
-5 27 -5 3 4 -14 5 -38 12 -53 16 -22 4 -26 9 -18 19 6 8 23 11 39 9 l27 -5
-26 15 c-41 23 -76 26 -77 8z"/>
<path d="M135 2540 c8 -57 8 -63 1 -170 -2 -40 1 -77 10 -97 8 -20 9 -33 3
-33 -6 0 -7 -4 -4 -10 3 -5 1 -10 -6 -10 -7 0 -9 -3 -6 -7 4 -3 2 -12 -3 -18
-6 -7 -13 -48 -16 -91 -4 -43 -13 -94 -20 -111 -7 -18 -9 -35 -5 -38 14 -8 39
67 44 131 3 33 14 79 25 101 20 37 20 43 6 88 -16 55 -18 123 -4 145 12 18 12
17 15 -88 3 -78 12 -113 22 -84 10 26 22 10 29 -35 3 -27 13 -63 20 -82 8 -18
14 -48 14 -66 0 -18 7 -38 15 -45 12 -10 7 -21 -35 -76 -45 -58 -77 -130 -64
-143 2 -3 7 5 11 17 3 12 9 19 14 16 5 -3 6 -11 2 -17 -4 -8 -2 -8 9 1 13 11
17 8 22 -20 4 -18 8 -47 10 -65 1 -17 8 -38 15 -47 7 -8 9 -21 5 -27 -4 -8 -3
-9 5 -5 6 4 18 3 25 -4 9 -6 4 14 -11 50 -33 83 -41 182 -18 235 10 23 19 34
22 27 3 -8 0 -19 -6 -25 -6 -6 -11 -18 -11 -26 1 -14 3 -13 14 2 19 24 27 21
15 -6 -11 -25 5 -112 19 -103 4 2 8 -23 10 -56 2 -37 -1 -64 -8 -68 -7 -5 -5
-11 6 -21 10 -8 15 -9 12 -4 -4 6 -1 21 6 34 12 22 13 21 26 -25 7 -27 23 -87
35 -134 13 -47 25 -102 28 -122 5 -35 4 -37 -14 -25 -10 6 -22 21 -25 32 -10
31 -56 107 -62 101 -4 -5 82 -181 138 -281 16 -27 29 -59 29 -70 0 -17 -3 -16
-24 10 -14 17 -25 34 -25 38 0 4 -20 42 -44 85 -24 42 -60 110 -81 150 -20 40
-40 70 -43 67 -6 -6 116 -251 160 -322 15 -24 39 -48 53 -55 13 -6 22 -15 19
-19 -3 -5 -1 -9 5 -9 6 0 13 -17 16 -37 4 -21 13 -55 21 -75 7 -21 10 -38 6
-38 -4 0 -2 -4 3 -8 12 -8 35 -79 35 -105 0 -11 -5 -14 -16 -10 -13 5 -13 7
-2 14 10 7 10 9 1 9 -7 0 -13 5 -13 11 0 6 -26 37 -57 70 -45 46 -59 56 -66
44 -4 -8 -13 -15 -20 -15 -22 0 -104 -85 -112 -115 -5 -16 -8 -33 -7 -37 1 -5
-5 -8 -14 -8 -14 0 -14 -2 0 -15 17 -18 30 -20 20 -3 -5 8 -2 9 10 5 14 -6 16
-3 11 14 -5 13 -2 25 6 31 11 7 11 11 2 15 -7 2 -13 9 -13 14 0 5 6 9 13 9 6
1 32 21 57 45 25 25 50 45 55 45 6 0 18 -14 27 -30 10 -17 31 -37 48 -44 l30
-12 -24 -14 c-14 -7 -23 -17 -20 -22 3 -5 2 -8 -3 -7 -20 3 -34 -2 -28 -10 3
-6 -5 -15 -17 -22 -22 -12 -22 -11 -8 6 14 17 14 17 -17 1 -18 -9 -33 -19 -33
-22 0 -3 6 -2 13 1 6 4 3 -1 -7 -9 -25 -20 -32 -20 -40 -1 -3 8 -1 15 4 15 5
0 8 13 7 29 -2 23 -5 26 -18 18 -21 -13 -18 -61 5 -86 16 -18 13 -51 -5 -51
-14 0 -11 20 4 20 13 1 -30 40 -44 40 -5 0 -9 -11 -9 -25 0 -14 4 -25 10 -25
5 0 7 7 3 16 -4 11 -2 15 6 13 17 -6 16 -22 -4 -34 -11 -7 -19 -6 -26 5 -9 12
-10 12 -5 -3 3 -10 6 -20 6 -23 0 -2 6 -1 14 2 9 4 13 -2 11 -20 -2 -14 -6
-29 -9 -35 -4 -6 13 -22 36 -37 24 -14 49 -33 55 -42 12 -14 13 -14 13 1 0 10
-7 20 -16 24 -9 3 -12 8 -5 12 5 4 11 30 12 60 l3 53 80 41 c45 23 84 43 87
45 4 1 9 -7 12 -18 5 -18 -3 -25 -48 -46 -30 -13 -63 -21 -72 -18 -15 5 -16 4
-3 -5 12 -9 10 -11 -10 -9 -24 3 -25 1 -26 -55 -1 -39 3 -62 13 -72 8 -8 11
-15 8 -15 -4 0 0 -12 10 -26 9 -14 14 -32 11 -40 -3 -8 -1 -14 5 -14 16 0 -7
-35 -36 -54 -30 -20 -68 -30 -60 -15 4 5 11 6 17 3 7 -4 8 -2 4 5 -4 6 -12 9
-17 6 -5 -4 -9 -2 -9 4 0 14 32 29 50 24 9 -3 8 0 -3 7 -14 9 -22 9 -33 -1 -8
-6 -18 -9 -22 -5 -4 4 2 14 13 23 20 15 20 15 0 11 -21 -4 -24 -19 -12 -77 5
-25 4 -32 -6 -28 -8 3 -14 -1 -14 -9 0 -7 3 -12 6 -10 3 1 36 17 74 35 44 22
67 39 67 50 0 10 11 24 25 31 25 13 33 30 15 30 -5 0 -10 -4 -10 -10 0 -5 -6
-10 -13 -10 -7 0 -27 37 -44 83 -24 62 -29 85 -20 94 12 11 142 83 150 83 3 0
7 -9 10 -20 4 -16 -4 -24 -41 -40 -25 -11 -53 -18 -63 -15 -9 3 -20 1 -24 -4
-4 -7 1 -8 12 -4 16 6 16 5 4 -10 -11 -13 -17 -15 -28 -6 -7 7 -16 9 -20 5 -3
-3 -1 -6 6 -6 7 0 9 -4 6 -10 -11 -18 14 -11 85 25 38 19 72 35 75 35 3 0 5
-11 5 -25 0 -14 4 -25 8 -25 4 0 8 -8 9 -18 2 -30 58 -192 92 -266 17 -38 31
-78 31 -88 0 -12 5 -18 13 -15 6 2 11 10 9 16 -1 6 -3 19 -5 29 -1 9 -5 22 -8
27 -4 6 -12 28 -19 50 -7 22 -16 45 -20 50 -14 20 -115 351 -131 430 -7 34
-89 320 -118 410 -14 43 -142 519 -194 725 -61 238 -158 573 -170 585 -6 6 -7
-10 -2 -45z m328 -1210 c3 -12 0 -20 -8 -20 -16 0 -37 25 -28 33 13 13 31 7
36 -13z m102 -470 c3 -6 -4 -10 -17 -10 -18 0 -20 2 -8 10 19 12 18 12 25 0z
m9 -36 c4 -9 5 -18 4 -18 -26 -15 -61 -24 -73 -20 -9 4 -15 1 -15 -8 0 -18
-36 -39 -55 -32 -10 4 -15 2 -13 -7 2 -7 -6 -14 -17 -16 -11 -1 -15 0 -8 3 7
3 10 11 7 17 -2 7 28 30 73 54 91 48 89 48 97 27z m-204 -136 l9 -23 0 23 c1
12 6 22 12 22 7 0 8 -11 4 -30 -4 -19 -3 -30 4 -30 6 0 11 -9 11 -20 0 -12 -7
-20 -16 -20 -10 0 -14 6 -11 15 4 8 2 17 -3 20 -6 4 -10 -1 -10 -9 0 -9 -4
-16 -8 -16 -5 0 -9 20 -10 45 0 50 4 56 18 23z"/>
<path d="M520 800 c-9 -6 -10 -10 -3 -10 6 0 15 5 18 10 8 12 4 12 -15 0z"/>
<path d="M470 2580 c19 -13 30 -13 30 0 0 6 -10 10 -22 10 -19 0 -20 -2 -8
-10z"/>
<path d="M1641 2585 c-1 -15 25 -45 38 -45 6 0 11 -6 11 -13 0 -9 10 -12 33
-10 22 3 28 1 19 -5 -11 -7 -8 -11 11 -16 17 -4 24 -12 23 -23 -2 -10 -8 -18
-14 -17 -31 3 -35 6 -17 14 19 8 19 9 -2 9 -14 1 -23 7 -23 17 0 9 -5 14 -11
12 -16 -5 -13 -14 20 -68 19 -31 38 -50 48 -49 15 0 15 2 -2 9 -19 7 -19 8 -2
15 10 4 23 3 30 -4 6 -6 16 -11 22 -11 5 0 4 4 -4 9 -12 8 -12 12 -2 25 9 11
10 16 2 16 -6 0 -11 -3 -11 -7 0 -5 -15 -9 -33 -10 -25 -1 -28 0 -12 7 11 4
29 18 40 31 11 13 13 18 5 12 -21 -19 -28 -16 -22 12 2 15 0 25 -7 25 -7 0 -9
-4 -6 -10 3 -5 1 -10 -4 -10 -16 0 -13 20 4 26 21 8 9 23 -14 17 -10 -3 -22 0
-25 6 -4 6 -20 8 -38 4 -27 -5 -30 -4 -25 12 5 12 3 16 -7 12 -8 -3 -17 -1
-20 6 -2 7 -5 8 -5 2z"/>
<path d="M1747 2569 c4 -15 8 -17 14 -8 8 14 3 29 -11 29 -4 0 -6 -9 -3 -21z"/>
<path d="M2115 2580 c-3 -5 1 -10 9 -10 9 0 16 5 16 10 0 6 -4 10 -9 10 -6 0
-13 -4 -16 -10z"/>
<path d="M304 2566 c-3 -8 -12 -12 -19 -10 -7 3 -16 0 -20 -6 -8 -13 15 -45
24 -33 3 4 15 13 26 19 25 14 32 44 10 44 -8 0 -18 -6 -21 -14z"/>
<path d="M833 2567 c0 -8 6 -14 14 -14 15 0 12 19 -3 24 -6 2 -11 -3 -11 -10z"/>
<path d="M1170 2562 c0 -5 7 -9 15 -9 8 0 12 4 9 9 -3 4 -9 8 -15 8 -5 0 -9
-4 -9 -8z"/>
<path d="M1845 2550 c3 -5 8 -10 11 -10 2 0 4 5 4 10 0 6 -5 10 -11 10 -5 0
-7 -4 -4 -10z"/>
<path d="M2270 2551 c0 -5 5 -13 10 -16 6 -3 10 -2 10 4 0 5 -4 13 -10 16 -5
3 -10 2 -10 -4z"/>
<path d="M515 2529 c11 -7 27 -22 37 -33 9 -12 19 -19 21 -16 9 9 -29 47 -54
54 -22 6 -23 6 -4 -5z"/>
<path d="M1602 2520 c7 -11 17 -20 22 -20 5 0 1 9 -9 20 -10 11 -20 20 -22 20
-2 0 2 -9 9 -20z"/>
<path d="M1875 2530 c3 -5 8 -10 11 -10 2 0 4 5 4 10 0 6 -5 10 -11 10 -5 0
-7 -4 -4 -10z"/>
<path d="M1190 2519 c0 -5 5 -7 10 -4 6 3 10 8 10 11 0 2 -4 4 -10 4 -5 0 -10
-5 -10 -11z"/>
<path d="M1254 2503 c-23 -56 -27 -68 -25 -77 1 -4 -5 -19 -14 -32 -22 -34
-19 -54 9 -54 32 0 41 15 23 41 -12 16 -12 25 -3 44 6 14 14 25 18 25 3 0 4 8
1 19 -3 10 0 22 6 25 12 8 15 36 3 36 -4 0 -12 -12 -18 -27z m-14 -137 c0 -3
-4 -8 -10 -11 -5 -3 -10 -1 -10 4 0 6 5 11 10 11 6 0 10 -2 10 -4z"/>
<path d="M1570 2516 c0 -2 8 -10 18 -17 15 -13 16 -12 3 4 -13 16 -21 21 -21
13z"/>
<path d="M2310 2505 c0 -8 4 -15 10 -15 5 0 7 7 4 15 -4 8 -8 15 -10 15 -2 0
-4 -7 -4 -15z"/>
<path d="M710 2486 c0 -8 4 -17 9 -20 5 -4 7 3 4 14 -6 23 -13 26 -13 6z"/>
<path d="M1096 2488 c3 -5 10 -6 15 -3 13 9 11 12 -6 12 -8 0 -12 -4 -9 -9z"/>
<path d="M1290 2481 c0 -12 5 -21 10 -21 6 0 10 6 10 14 0 8 -4 18 -10 21 -5
3 -10 -3 -10 -14z"/>
<path d="M1162 2479 c2 -6 8 -10 13 -10 5 0 11 4 13 10 2 6 -4 11 -13 11 -9 0
-15 -5 -13 -11z"/>
<path d="M510 2476 c0 -2 9 -6 20 -9 11 -3 18 -1 14 4 -5 9 -34 13 -34 5z"/>
<path d="M1062 2460 c-13 -11 -18 -21 -12 -25 5 -3 10 -1 10 5 0 6 6 8 13 4 6
-4 9 -4 5 1 -4 4 -3 14 3 22 16 18 8 16 -19 -7z"/>
<path d="M2350 2443 c10 -21 22 -47 26 -58 4 -12 8 -15 11 -8 5 15 -23 77 -43
94 -8 7 -6 -3 6 -28z"/>
<path d="M1837 2459 c7 -7 15 -10 18 -7 3 3 -2 9 -12 12 -14 6 -15 5 -6 -5z"/>
<path d="M1273 2438 c-20 -26 -23 -37 -12 -44 8 -4 9 -3 5 4 -4 7 -1 12 8 12
9 0 16 9 16 20 0 23 -4 25 -17 8z"/>
<path d="M2304 2442 c-23 -15 -32 -45 -22 -74 6 -15 7 -35 4 -44 -4 -10 5 -26
24 -44 16 -15 30 -33 30 -39 0 -7 6 -14 14 -17 8 -3 19 -19 25 -34 6 -19 19
-32 35 -36 36 -9 52 0 60 32 6 21 2 33 -18 53 -13 14 -28 38 -31 54 -5 18 -14
27 -27 27 -17 0 -18 2 -8 15 7 9 10 18 6 22 -3 3 -6 0 -6 -8 0 -8 -10 -3 -25
13 -14 15 -25 36 -25 46 0 24 -22 44 -36 34z m12 -39 c-2 -16 -5 -31 -5 -35
-1 -5 -5 -8 -10 -8 -4 0 -7 10 -6 23 1 12 3 28 4 35 0 6 6 12 11 12 6 0 9 -12
6 -27z m45 -77 c6 -22 5 -26 -3 -18 -15 15 -28 15 -28 1 0 -5 5 -7 10 -4 6 3
10 -1 10 -9 0 -18 15 -21 25 -6 12 19 36 -2 33 -29 -4 -36 -43 -42 -52 -7 -3
13 -15 27 -25 31 -23 7 -34 43 -18 61 18 21 40 12 48 -20z m87 -98 c26 -26 2
-75 -31 -62 -23 9 -29 45 -9 60 21 17 25 17 40 2z"/>
<path d="M2380 2254 c0 -8 5 -12 10 -9 6 3 10 10 10 16 0 5 -4 9 -10 9 -5 0
-10 -7 -10 -16z"/>
<path d="M2416 2202 c-3 -6 -1 -14 5 -17 14 -9 20 -2 10 14 -6 8 -11 9 -15 3z"/>
<path d="M1350 2430 c0 -5 5 -10 11 -10 5 0 7 5 4 10 -3 6 -8 10 -11 10 -2 0
-4 -4 -4 -10z"/>
<path d="M1870 2434 c0 -4 8 -13 18 -20 14 -11 15 -13 2 -14 -9 0 -21 5 -28
12 -7 7 -12 8 -12 2 0 -5 10 -15 21 -23 18 -11 23 -11 30 0 4 8 12 10 16 5 4
-5 2 -11 -4 -13 -7 -3 -13 -10 -13 -17 0 -13 40 -39 56 -35 21 4 28 -2 14 -12
-12 -8 -9 -9 9 -4 20 6 23 4 18 -10 -4 -9 0 -23 9 -32 11 -12 12 -18 4 -23 -9
-5 -9 -9 -1 -14 6 -4 16 -4 22 0 8 4 8 0 0 -15 -8 -13 -20 -20 -36 -19 -13 1
-21 6 -18 11 3 5 14 6 25 4 16 -4 17 -3 7 9 -7 8 -20 12 -35 8 -13 -4 -24 -2
-24 4 0 13 29 24 43 16 7 -4 -6 11 -28 32 -22 21 -42 39 -45 40 -3 0 -13 4
-23 9 -10 4 -21 5 -24 1 -4 -3 1 -6 10 -6 9 0 19 -5 23 -12 5 -7 1 -9 -13 -6
-12 3 -20 0 -20 -8 0 -16 23 -19 32 -4 7 12 25 4 25 -11 0 -6 -4 -7 -10 -4 -5
3 -10 1 -10 -4 0 -6 4 -11 10 -11 5 0 7 -7 4 -15 -4 -9 0 -15 7 -15 12 0 12
-2 0 -9 -9 -6 -10 -11 -2 -15 6 -4 11 -4 11 0 0 4 14 -5 30 -21 20 -19 30 -24
30 -14 0 12 2 12 9 -1 6 -8 8 -17 5 -21 -2 -4 10 -10 27 -14 23 -5 34 -3 44
11 13 19 10 39 -5 29 -7 -4 -24 41 -18 48 2 1 -7 13 -19 26 -12 13 -20 28 -17
33 3 4 -2 15 -11 24 -9 9 -14 23 -11 30 3 8 1 14 -4 14 -6 0 -10 7 -10 16 0
25 -33 60 -53 56 -9 -2 -15 -8 -12 -13 4 -5 -1 -9 -10 -9 -8 0 -18 7 -21 15
-6 15 -24 21 -24 9z m94 -36 c11 -11 10 -16 -7 -30 -24 -22 -27 -22 -27 -3 0
8 8 16 18 16 16 1 16 2 0 6 -19 5 -25 23 -8 23 6 0 17 -6 24 -12z m26 -48 c0
-5 -2 -10 -4 -10 -3 0 -8 5 -11 10 -3 6 -1 10 4 10 6 0 11 -4 11 -10z m-25
-80 c3 -5 -1 -10 -9 -10 -9 0 -16 5 -16 10 0 6 4 10 9 10 6 0 13 -4 16 -10z
m101 -117 c-2 -3 -14 5 -26 17 -17 17 -19 24 -9 30 8 6 17 0 26 -17 7 -14 11
-28 9 -30z"/>
<path d="M1010 2417 c0 -11 41 -46 55 -47 5 0 -1 7 -13 16 -13 9 -21 22 -19
28 3 7 -1 13 -9 13 -8 0 -14 -4 -14 -10z"/>
<path d="M386 2387 c-32 -24 -14 -37 24 -18 24 11 46 15 68 10 17 -3 32 -3 32
1 0 7 -57 20 -91 20 -8 0 -23 -6 -33 -13z"/>
<path d="M533 2383 c-7 -3 -13 -9 -13 -15 0 -6 7 -8 15 -5 8 4 17 2 20 -3 4
-6 13 -10 21 -10 8 0 12 4 9 10 -9 15 -39 28 -52 23z"/>
<path d="M711 2364 c0 -11 3 -14 6 -6 3 7 2 16 -1 19 -3 4 -6 -2 -5 -13z"/>
<path d="M1841 2360 c-13 -11 -19 -20 -13 -20 10 0 42 27 42 36 0 7 -4 5 -29
-16z"/>
<path d="M1080 2352 c0 -7 5 -12 11 -12 5 0 7 -5 3 -12 -4 -6 -3 -8 4 -4 5 3
12 0 15 -6 2 -7 7 -10 11 -7 3 3 -5 16 -19 29 -14 13 -25 18 -25 12z"/>
<path d="M410 2342 c0 -4 17 -8 38 -9 28 0 32 1 17 7 -26 11 -55 12 -55 2z"/>
<path d="M1800 2331 c0 -10 19 -25 25 -20 1 2 -3 10 -11 17 -8 7 -14 8 -14 3z"/>
<path d="M1845 2320 c3 -5 8 -10 11 -10 2 0 4 5 4 10 0 6 -5 10 -11 10 -5 0
-7 -4 -4 -10z"/>
<path d="M435 2310 c3 -5 8 -10 11 -10 2 0 4 5 4 10 0 6 -5 10 -11 10 -5 0 -7
-4 -4 -10z"/>
<path d="M2600 2295 c8 -11 21 -26 27 -35 7 -8 20 -24 29 -35 11 -14 10 -10
-3 13 -10 18 -29 43 -43 55 -20 18 -22 19 -10 2z"/>
<path d="M769 2272 c-18 -12 -24 -25 -23 -46 3 -34 14 -48 14 -18 0 11 12 30
27 42 34 27 19 47 -18 22z"/>
<path d="M1155 2250 c3 -5 11 -10 16 -10 6 0 7 5 4 10 -3 6 -11 10 -16 10 -6
0 -7 -4 -4 -10z"/>
<path d="M475 2230 c-3 -6 1 -7 9 -4 18 7 21 14 7 14 -6 0 -13 -4 -16 -10z"/>
<path d="M911 2215 c0 -11 6 -31 14 -45 18 -31 18 -16 0 30 -9 23 -14 28 -14
15z"/>
<path d="M1140 2220 c-8 -5 -11 -12 -7 -16 4 -4 13 -2 19 4 6 6 10 14 7 16 -2
3 -11 1 -19 -4z"/>
<path d="M680 2204 c0 -8 5 -12 10 -9 6 3 10 10 10 16 0 5 -4 9 -10 9 -5 0
-10 -7 -10 -16z"/>
<path d="M605 2174 c-19 -20 -33 -40 -30 -44 3 -5 1 -11 -5 -15 -5 -3 -10 1
-10 9 0 43 -47 -6 -66 -69 -2 -5 -15 -43 -29 -84 -16 -45 -24 -84 -20 -99 8
-33 18 -21 20 25 3 47 43 153 57 153 6 0 8 3 5 7 -4 3 1 12 11 20 11 9 11 12
2 7 -12 -6 -13 -4 -3 6 18 20 26 6 27 -44 1 -24 4 -42 8 -40 4 3 6 -5 5 -16
-1 -11 -7 -20 -14 -20 -7 0 -13 -5 -13 -11 0 -5 4 -7 10 -4 5 3 7 0 4 -9 -6
-15 12 -56 30 -68 22 -15 56 -8 71 16 8 13 33 31 55 41 22 10 40 21 40 25 0 8
42 22 47 16 2 -2 -20 -20 -49 -39 -68 -47 -105 -76 -95 -77 8 0 106 68 157
110 21 17 22 19 5 14 -20 -6 -7 8 63 66 12 10 22 30 22 44 0 49 -77 74 -116
38 -11 -10 -26 -16 -33 -14 -8 3 -11 0 -7 -6 4 -6 -3 -16 -14 -22 -11 -6 -20
-21 -21 -33 0 -12 -3 -17 -6 -10 -3 9 -16 5 -44 -12 -48 -31 -53 -31 -34 -2 8
13 12 26 9 30 -3 3 6 29 20 57 30 60 30 60 12 60 -15 0 -54 -90 -63 -147 -3
-18 -11 -37 -17 -42 -23 -19 -2 111 27 167 15 28 25 52 22 52 -3 0 -21 -16
-40 -36z m263 -53 c8 -5 12 -21 10 -37 -3 -26 -7 -29 -41 -29 -41 0 -41 1 -27
-25 14 -26 -11 -45 -39 -30 -12 6 -21 14 -22 18 0 4 -2 17 -5 29 -4 23 25 41
46 28 5 -3 10 3 10 14 0 31 40 50 68 32z m-140 -103 c7 -7 12 -24 12 -39 0
-27 -16 -40 -48 -38 -10 1 -7 4 7 8 14 4 26 13 29 21 3 12 2 13 -6 1 -12 -17
-35 -4 -28 15 3 8 -1 14 -10 14 -8 0 -12 -4 -9 -10 3 -5 1 -10 -5 -10 -8 0
-10 -9 -6 -26 7 -27 -15 -64 -39 -64 -18 0 -41 32 -43 57 0 18 7 23 39 28 29
5 39 12 39 25 0 11 9 20 23 23 12 2 24 5 28 6 3 0 10 -4 17 -11z"/>
<path d="M817 2084 c-11 -11 3 -24 18 -18 8 4 12 10 9 15 -6 11 -18 12 -27 3z"/>
<path d="M612 1932 l-22 -7 21 -13 c12 -8 18 -9 15 -3 -4 5 2 14 11 20 20 11
10 12 -25 3z"/>
<path d="M2670 2185 c0 -8 4 -15 10 -15 5 0 7 7 4 15 -4 8 -8 15 -10 15 -2 0
-4 -7 -4 -15z"/>
<path d="M1280 2136 c0 -2 7 -6 15 -10 8 -3 15 -1 15 4 0 6 -7 10 -15 10 -8 0
-15 -2 -15 -4z"/>
<path d="M201 2120 c-16 -9 -26 -50 -13 -50 5 0 16 6 26 13 23 17 10 52 -13
37z"/>
<path d="M1440 2116 c0 -12 32 -77 36 -73 6 6 -22 77 -30 77 -4 0 -6 -2 -6 -4z"/>
<path d="M382 2062 l-53 -27 7 -40 c3 -22 24 -103 46 -180 21 -77 43 -156 48
-175 77 -290 165 -587 179 -603 7 -9 10 -24 7 -35 -4 -10 6 -41 22 -73 93
-176 125 -230 133 -222 10 10 -10 58 -43 105 -10 14 -18 33 -18 42 0 9 -5 16
-11 16 -5 0 -7 5 -4 10 3 6 -1 10 -11 10 -14 0 -15 2 -3 17 10 11 10 14 2 9
-8 -4 -13 -1 -13 8 0 17 34 39 44 29 3 -3 1 -12 -6 -20 -8 -11 -7 -12 6 -7 9
3 16 11 15 18 -3 24 1 37 10 31 5 -3 16 2 24 10 18 17 41 20 31 4 -4 -7 -1
-10 7 -7 8 3 15 11 15 19 3 32 5 33 18 16 13 -16 16 -16 55 7 38 21 41 25 27
39 -15 14 -26 10 -123 -45 -60 -33 -112 -64 -117 -69 -18 -16 -24 -9 -23 24 0
18 -13 62 -31 98 -18 36 -32 75 -32 88 0 12 -6 36 -13 54 -8 18 -14 46 -15 64
-1 30 1 31 23 23 14 -5 27 -6 29 -1 3 4 15 7 28 6 13 -1 30 3 38 10 8 7 26 16
40 20 14 3 33 9 43 11 9 3 17 0 17 -7 0 -20 -50 -116 -71 -135 -10 -9 -19 -23
-19 -31 0 -7 -3 -12 -7 -10 -5 1 -9 -3 -11 -8 -2 -6 -13 -20 -24 -32 -12 -13
-19 -26 -15 -29 12 -12 106 100 138 165 18 36 39 79 46 94 l15 29 -34 -8 c-18
-4 -51 -7 -72 -6 -47 3 -143 -15 -152 -29 -6 -10 35 -5 96 11 61 17 77 10 25
-11 -56 -22 -165 -28 -165 -9 0 5 -2 15 -5 22 -4 10 9 18 42 26 26 7 61 19 78
27 43 19 272 27 279 9 3 -7 0 -15 -7 -18 -7 -2 8 -5 32 -5 46 -1 52 6 11 12
-13 2 -26 10 -28 17 -5 13 4 12 88 -4 8 -2 16 -13 18 -25 3 -19 0 -22 -22 -19
-14 2 -25 0 -26 -4 -1 -24 2 -28 23 -28 33 0 64 36 51 58 -19 30 -63 44 -142
43 -210 -1 -266 -3 -281 -11 -44 -23 -105 -40 -113 -32 -12 12 -50 148 -52
184 0 14 -4 24 -7 22 -4 -2 -12 24 -19 59 -6 34 -14 68 -16 75 -2 6 2 12 8 12
7 0 4 6 -6 13 -9 7 -18 22 -19 35 0 12 -6 22 -11 22 -5 0 -6 3 -3 7 4 3 2 12
-5 20 -18 22 -3 24 20 3 25 -24 29 -14 7 16 -15 22 -11 89 6 100 5 3 9 13 9
23 0 10 7 24 15 31 8 7 14 22 14 34 -1 17 -2 18 -6 3 -2 -9 -9 -15 -14 -12 -5
4 -14 -6 -19 -20 -5 -14 -14 -24 -18 -21 -4 2 -13 -4 -20 -15 -10 -15 -10 -19
0 -19 10 0 10 -2 -1 -9 -8 -5 -9 -11 -3 -15 5 -3 10 -17 10 -31 l0 -25 -18 23
c-10 12 -22 39 -28 60 -10 35 -9 38 16 52 33 18 76 54 71 59 -2 2 -28 -8 -57
-22z"/>
<path d="M2727 2069 c4 -13 8 -18 11 -10 2 7 -1 18 -6 23 -8 8 -9 4 -5 -13z"/>
<path d="M1385 2069 c-4 -6 -5 -12 -2 -15 2 -3 7 2 10 11 7 17 1 20 -8 4z"/>
<path d="M1645 2062 c-16 -2 -36 -8 -42 -14 -7 -6 -20 -8 -28 -4 -9 3 -13 2
-10 -4 3 -6 -3 -10 -13 -10 -11 0 -25 -7 -32 -15 -7 -8 -16 -13 -20 -10 -5 3
-14 -1 -22 -8 -7 -7 -25 -20 -39 -29 -40 -25 -119 -99 -142 -133 -11 -16 13 2
54 41 41 39 89 79 107 89 17 11 32 22 32 25 0 4 6 7 13 8 6 0 39 10 72 22 68
24 169 28 237 10 136 -38 229 -116 338 -286 l50 -79 -25 -12 c-26 -14 -25 -46
2 -36 12 5 12 7 1 15 -9 7 -4 8 16 3 23 -5 27 -3 22 9 -3 9 -9 23 -12 31 -3 8
-1 15 5 15 7 0 31 8 54 19 23 10 80 35 127 56 47 20 101 44 120 52 37 17 77
34 180 78 36 15 92 40 125 55 33 15 88 40 123 55 34 15 62 34 62 41 0 9 -22 3
-72 -19 -40 -17 -76 -35 -79 -39 -3 -5 -20 -10 -37 -11 -18 -1 -32 -8 -32 -14
0 -7 -11 -13 -24 -13 -14 0 -28 -5 -31 -10 -4 -6 -10 -8 -15 -5 -4 3 -11 -2
-14 -11 -4 -9 -13 -14 -22 -10 -10 4 -13 2 -8 -6 5 -7 0 -9 -14 -6 -12 4 -20
2 -16 -3 5 -9 0 -11 -28 -13 -7 -1 -16 -5 -20 -11 -4 -5 -11 -10 -15 -10 -16
-1 -108 -39 -114 -48 -3 -5 -10 -9 -15 -9 -5 0 -18 -4 -29 -9 -11 -5 -63 -26
-115 -48 -51 -22 -99 -37 -105 -33 -5 3 2 11 18 16 15 5 27 13 27 18 0 4 7 8
16 8 8 0 13 4 10 9 -4 5 -1 11 5 13 8 3 6 10 -5 21 -13 12 -22 14 -35 7 -10
-5 -21 -6 -25 -3 -3 3 -6 -1 -6 -10 0 -18 25 -23 35 -7 3 6 10 10 16 10 5 0 9
-4 9 -10 0 -5 -7 -10 -15 -10 -8 0 -15 -4 -15 -10 0 -19 -31 -10 -39 12 -5 14
-10 18 -15 10 -4 -7 0 -19 8 -28 20 -19 20 -21 1 -21 -8 0 -25 21 -38 45 -28
57 -166 197 -214 217 -68 28 -128 46 -168 50 -22 2 -51 6 -65 7 -14 2 -38 2
-55 0z"/>
<path d="M173 2030 c-3 -11 -9 -20 -14 -20 -5 0 -15 -12 -23 -27 -8 -16 -15
-23 -16 -18 0 6 -5 3 -10 -5 -13 -20 -13 -97 1 -105 6 -4 8 -14 4 -23 -3 -9
-3 -13 1 -9 4 4 13 -1 20 -11 23 -31 25 -5 3 40 -18 38 -20 49 -10 86 7 23 20
50 30 59 18 19 35 53 25 53 -3 0 -8 -9 -11 -20z"/>
<path d="M231 2020 c-1 -26 -4 -31 -11 -20 -5 8 -11 12 -14 10 -2 -3 1 -13 8
-22 12 -16 14 -16 23 5 6 12 7 31 2 42 -6 16 -8 13 -8 -15z"/>
<path d="M1650 2023 c-101 -17 -192 -68 -283 -160 -70 -71 -78 -101 -9 -35 7
6 10 12 6 12 -8 0 57 61 102 96 34 26 49 31 38 12 -4 -8 -3 -10 2 -5 5 5 9 14
9 20 0 20 216 50 242 34 5 -3 10 0 10 8 0 8 -10 15 -21 16 -12 0 -32 2 -46 3
-14 2 -36 1 -50 -1z"/>
<path d="M1780 2015 c0 -9 59 -35 79 -35 10 0 21 -4 23 -8 2 -4 30 -28 63 -54
61 -46 103 -91 133 -140 9 -16 20 -28 24 -28 4 0 8 -5 8 -11 0 -6 7 -17 15
-25 15 -15 10 -44 -7 -44 -10 0 -128 -53 -202 -91 -31 -16 -42 -17 -55 -7 -13
10 -14 10 -4 -2 10 -11 6 -17 -25 -30 -26 -12 -39 -14 -44 -6 -5 6 -8 1 -8
-12 0 -14 -4 -21 -11 -17 -12 8 -33 55 -31 70 1 6 -9 12 -23 13 -14 1 -25 -3
-25 -9 0 -6 7 -9 15 -5 8 3 15 2 15 -3 0 -15 -36 -38 -113 -71 -58 -25 -81
-41 -92 -62 -15 -31 -11 -58 9 -58 18 1 61 28 58 36 -2 5 2 10 9 13 7 2 9 -1
4 -9 -5 -9 -4 -11 4 -6 6 4 9 11 6 16 -3 4 4 10 15 13 11 3 18 1 14 -4 -3 -5
2 -6 10 -3 9 3 13 10 10 15 -3 5 4 9 15 9 12 0 21 4 21 8 0 15 52 34 60 22 4
-6 46 8 116 41 60 28 123 56 139 63 120 50 164 72 165 80 0 23 -117 181 -173
231 -69 63 -97 80 -166 101 -53 16 -51 16 -51 9z m-40 -485 c0 -5 -7 -10 -15
-10 -8 0 -15 5 -15 10 0 6 7 10 15 10 8 0 15 -4 15 -10z m-30 -24 c0 -11 -19
-15 -25 -6 -3 5 1 10 9 10 9 0 16 -2 16 -4z m-50 -15 c0 -5 -7 -11 -15 -15 -9
-3 -15 0 -15 9 0 8 7 15 15 15 8 0 15 -4 15 -9z m-75 -42 c-39 -17 -61 -16
-49 2 3 5 14 7 24 4 10 -3 24 1 32 9 7 7 17 11 23 8 5 -3 -8 -14 -30 -23z"/>
<path d="M2880 1962 c-58 -26 -115 -52 -127 -57 -15 -7 -20 -14 -15 -23 6 -9
19 -7 56 11 26 12 43 26 39 31 -4 4 -1 7 7 5 24 -5 71 11 65 21 -3 6 1 7 9 4
10 -4 18 1 22 11 4 9 13 14 22 10 15 -6 42 11 42 26 0 14 -8 11 -120 -39z"/>
<path d="M195 1970 c-3 -5 -1 -10 4 -10 6 0 11 5 11 10 0 6 -2 10 -4 10 -3 0
-8 -4 -11 -10z"/>
<path d="M2980 1960 c-12 -7 -12 -12 -3 -21 15 -15 26 -7 21 15 -2 11 -7 13
-18 6z"/>
<path d="M1726 1928 c-19 -31 -32 -76 -18 -63 13 12 45 85 37 85 -2 0 -11 -10
-19 -22z"/>
<path d="M2903 1926 c-30 -15 -40 -25 -34 -34 6 -11 15 -9 45 7 41 23 71 28
44 7 -21 -15 -5 -37 21 -30 9 3 -2 -5 -24 -17 -22 -12 -42 -23 -44 -25 -2 -2
9 -24 23 -49 15 -25 23 -45 17 -45 -5 0 -21 20 -35 45 -24 40 -29 43 -46 33
-10 -7 -17 -16 -14 -20 3 -4 -2 -5 -10 -2 -8 3 -22 2 -31 -3 -14 -8 -13 -14
10 -47 14 -20 25 -40 25 -44 0 -10 -55 -42 -72 -42 -10 0 -10 3 2 11 12 8 11
9 -6 5 -30 -9 -27 19 3 33 29 13 47 5 38 -18 -4 -12 -3 -13 5 -5 8 8 8 18 -1
37 l-12 26 -27 -19 c-16 -11 -33 -20 -39 -20 -15 0 -14 -12 4 -37 8 -12 11
-24 7 -27 -5 -3 -21 16 -36 43 l-26 49 -39 -20 -40 -19 29 -50 c16 -27 25 -49
20 -49 -5 0 -21 20 -35 44 l-26 44 -39 -15 c-34 -14 -37 -18 -27 -35 12 -18
13 -18 33 8 12 15 27 23 33 20 15 -10 4 -25 -26 -37 -24 -9 -24 -10 -9 -34 19
-28 20 -35 6 -35 -5 0 -19 18 -30 39 -25 50 -28 51 -68 34 l-33 -13 31 -44
c33 -50 36 -56 18 -56 -7 1 -26 28 -43 61 -16 34 -34 63 -38 66 -8 5 -67 -15
-67 -22 0 -2 16 -31 36 -65 35 -58 38 -60 55 -44 24 22 24 23 -3 17 -22 -4
-22 -4 -4 8 16 10 21 9 32 -6 16 -22 10 -35 -17 -35 -10 0 -19 -4 -19 -10 0
-23 -17 -7 -43 40 l-27 50 -30 -15 -29 -15 19 -33 c11 -17 24 -40 30 -49 6
-10 6 -19 1 -22 -5 -3 -21 18 -36 47 -15 28 -35 63 -45 77 -9 14 -19 33 -23
42 -5 15 -10 15 -54 -8 -56 -28 -70 -30 -70 -9 0 11 6 13 20 9 16 -5 19 -3 14
11 -4 9 -7 19 -7 21 0 2 -10 -2 -22 -10 -13 -8 -47 -24 -76 -35 -109 -43 -297
-133 -305 -146 -4 -8 -14 -12 -22 -9 -13 5 -184 -65 -185 -76 0 -3 4 -11 8
-18 7 -9 28 -3 93 26 46 21 96 44 111 50 21 8 26 16 21 29 -6 16 -5 16 10 5
16 -14 50 -4 47 14 -1 5 4 10 11 13 7 2 9 -1 5 -8 -4 -7 -1 -9 8 -5 9 3 12 12
8 22 -5 15 -4 15 11 3 15 -12 17 -11 18 5 0 11 3 14 6 7 2 -7 9 -13 14 -13 4
0 5 8 2 17 -5 12 -2 15 10 10 10 -4 17 -2 17 4 0 6 7 9 15 5 9 -3 15 1 15 11
0 13 3 13 15 3 14 -11 19 -7 16 13 -2 13 17 7 23 -8 3 -10 -8 -20 -39 -34 -33
-15 -43 -24 -39 -36 7 -18 30 -14 26 5 -2 11 0 10 13 0 15 -13 15 -15 -5 -22
-13 -5 -18 -12 -14 -20 6 -9 9 -9 12 0 5 17 29 15 36 -3 5 -14 -6 -20 -28 -16
-4 1 0 -13 11 -31 13 -22 26 -32 39 -30 15 2 16 1 5 -7 -8 -5 -11 -16 -8 -25
7 -18 16 -20 36 -7 11 7 5 26 -33 94 -46 86 -56 111 -34 89 14 -14 32 -16 24
-3 -4 5 4 7 16 3 l22 -5 -24 38 -24 38 22 -5 c12 -4 20 -3 17 2 -3 4 2 10 10
14 8 3 15 1 15 -4 0 -6 4 -10 10 -10 5 0 7 7 4 15 -4 8 -2 15 4 15 6 0 15 -13
20 -30 8 -21 16 -28 26 -24 9 3 13 11 10 16 -4 6 2 8 15 3 17 -5 20 -3 14 12
-5 14 -3 16 7 6 7 -6 19 -9 27 -6 12 5 12 7 1 14 -10 7 -10 9 3 9 27 0 31 -14
8 -30 l-21 -17 41 -67 c45 -74 46 -76 31 -76 -5 0 -21 23 -35 50 -14 28 -27
50 -29 50 -2 0 -29 -12 -60 -26 -36 -17 -54 -30 -49 -37 4 -7 17 -27 30 -46
29 -43 29 -45 -4 -60 -25 -10 -26 -10 -10 3 18 14 17 18 -20 84 -39 71 -45 74
-81 47 -1 -1 0 -9 4 -18 5 -13 10 -14 26 -6 24 13 40 1 15 -12 -16 -9 -16 -12
-1 -42 21 -40 21 -40 33 -33 13 8 3 36 -13 36 -7 0 -13 7 -13 15 0 25 15 17
33 -17 15 -28 15 -32 0 -40 -8 -5 -13 -15 -10 -22 3 -9 -4 -17 -18 -22 -22 -7
-22 -7 -3 -14 16 -6 14 -8 -11 -7 -27 0 -35 7 -60 53 -31 57 -32 58 -52 45
-20 -12 6 -63 28 -56 10 3 20 -1 23 -9 4 -10 0 -12 -15 -8 -18 4 -19 3 -8 -18
9 -18 14 -20 21 -9 4 7 11 10 15 6 4 -4 -1 -14 -12 -21 -10 -8 -19 -14 -20
-13 -4 7 -60 107 -71 128 -13 26 -14 26 -48 11 -39 -18 -41 -35 -6 -40 16 -3
21 1 19 14 -2 9 3 19 11 22 8 3 11 0 7 -6 -3 -6 0 -12 6 -15 8 -2 1 -10 -14
-17 -25 -12 -40 -50 -20 -50 4 0 15 -20 25 -45 11 -25 23 -45 28 -45 5 0 9 -4
9 -10 0 -5 -4 -10 -9 -10 -11 0 -77 120 -74 132 7 22 -19 4 -27 -18 -8 -21
-13 -24 -24 -15 -11 10 -25 7 -65 -13 -27 -14 -84 -39 -125 -56 -117 -46 -297
-140 -291 -150 3 -6 -5 -15 -19 -22 -34 -15 -33 -30 0 -17 31 11 33 10 39 -21
3 -16 0 -20 -10 -16 -9 3 -12 0 -8 -10 6 -15 -13 -44 -29 -44 -13 0 -37 61
-30 79 4 10 1 13 -12 8 -10 -4 -15 -3 -11 3 3 6 -1 10 -9 10 -9 0 -15 -6 -14
-12 2 -7 -4 -14 -12 -14 -8 -1 -20 -2 -27 -3 -13 -1 -5 -41 9 -41 5 0 6 -4 3
-10 -3 -5 -1 -10 4 -10 6 0 11 -5 11 -10 0 -6 7 -21 16 -35 l15 -24 26 22 c13
12 28 22 32 22 9 0 61 41 58 46 -1 2 3 -1 9 -8 12 -14 24 -7 24 14 0 7 -8 13
-17 14 -10 0 -13 3 -6 5 8 4 6 14 -8 37 -20 34 -25 52 -10 43 10 -7 61 -101
61 -114 0 -5 -18 -14 -39 -21 -21 -6 -48 -19 -60 -29 l-20 -17 25 -29 c24 -27
26 -27 44 -11 15 13 17 22 10 36 -8 14 -6 21 12 30 22 12 22 11 8 -7 -8 -10
-10 -16 -5 -11 4 4 18 -2 29 -12 20 -19 22 -19 42 -2 12 10 24 26 26 37 2 10
10 18 16 16 7 -1 12 2 12 8 0 5 9 10 20 10 11 0 20 4 20 9 0 5 10 13 23 17 12
3 30 13 40 22 9 8 17 12 17 8 0 -9 83 34 91 47 4 6 13 1 20 -12 16 -24 27 -26
53 -6 11 9 15 18 10 27 -12 18 -12 32 1 40 5 4 0 8 -12 8 -13 0 -23 -5 -23
-11 0 -18 -20 1 -49 48 -17 27 -31 41 -35 34 -4 -6 -3 -11 3 -11 6 0 8 -8 5
-17 -4 -11 -3 -14 3 -7 5 8 16 -4 31 -33 13 -25 19 -42 14 -39 -5 3 -58 -19
-118 -48 -60 -28 -124 -58 -141 -65 -34 -14 -43 -34 -21 -47 7 -5 4 -10 -11
-16 -31 -11 -49 1 -27 18 14 10 15 17 7 33 -18 33 -13 46 25 64 34 17 71 14
43 -4 -18 -11 -6 -21 14 -13 15 5 15 8 -1 29 l-17 24 -42 -24 -42 -23 -21 35
c-11 19 -20 38 -20 42 0 13 160 82 173 75 7 -4 9 -4 5 1 -9 10 60 48 76 42 6
-3 24 -30 40 -61 16 -31 35 -56 41 -56 24 0 25 14 2 39 -31 33 -53 92 -31 84
9 -3 12 0 9 8 -3 9 13 22 47 37 28 12 53 20 56 17 2 -2 -7 -10 -22 -16 -14 -7
-26 -16 -26 -20 0 -15 22 -21 33 -10 9 9 7 11 -8 6 -20 -7 -20 -6 -1 9 22 18
40 21 31 6 -3 -5 1 -10 9 -10 9 0 16 6 16 14 0 17 27 29 35 16 8 -12 -3 -30
-17 -30 -5 0 -21 -9 -35 -20 -28 -22 -23 -26 10 -8 20 10 21 10 8 -6 -12 -15
-12 -16 5 -10 19 7 19 7 0 -14 -11 -12 -14 -22 -8 -22 7 0 12 4 12 10 0 5 7 6
17 3 12 -5 14 -3 8 7 -6 9 -4 11 5 5 7 -4 16 -2 21 6 6 10 11 11 19 3 8 -8 3
-15 -19 -24 -17 -7 -31 -17 -31 -22 0 -5 -4 -7 -9 -3 -21 13 -21 -18 0 -41 18
-19 25 -21 36 -12 9 7 13 23 11 40 -6 36 14 43 42 13 18 -19 27 -22 41 -14 14
7 19 6 20 -3 0 -7 2 -24 5 -37 9 -47 -13 -84 -72 -121 -68 -43 -140 -109 -175
-161 -14 -21 -29 -36 -34 -32 -4 5 -5 2 -1 -5 5 -8 -6 -31 -28 -59 -20 -26
-36 -51 -36 -57 0 -6 -9 -17 -21 -24 -12 -7 -18 -16 -15 -19 3 -3 -1 -12 -9
-20 -8 -8 -18 -20 -22 -26 -5 -7 -31 -32 -60 -56 -66 -55 -121 -65 -158 -31
-14 13 -27 37 -29 54 -7 42 -18 127 -19 149 -1 9 -6 17 -11 17 -5 0 -7 3 -3 6
3 3 -4 23 -17 43 -21 32 -26 64 -13 78 8 8 -31 43 -48 43 -8 0 -15 4 -15 10 0
5 -9 24 -21 42 -16 25 -19 27 -14 9 5 -17 4 -21 -5 -16 -14 9 1 -23 31 -67 11
-14 19 -34 19 -43 0 -14 -5 -13 -30 7 -16 13 -32 33 -36 45 -3 12 -12 27 -20
34 -8 6 -11 16 -7 22 3 6 1 7 -5 3 -9 -5 -9 -13 -2 -26 7 -13 7 -28 0 -46 -12
-31 -15 -30 -24 9 -4 19 -3 26 4 22 16 -10 12 5 -7 23 -16 16 -16 16 -11 0 4
-10 1 -19 -8 -22 -13 -5 -13 -9 1 -30 9 -13 15 -28 14 -32 -4 -16 13 -64 22
-64 5 0 9 5 9 10 0 19 16 10 17 -10 1 -16 -3 -18 -30 -14 -21 4 -28 3 -19 -4
10 -7 10 -11 -3 -22 -14 -11 -20 -11 -37 -1 -18 11 -20 11 -14 -4 3 -9 6 -19
6 -21 0 -2 8 -4 18 -4 43 0 128 63 106 78 -12 9 -15 62 -4 62 5 0 12 -10 15
-22 4 -13 20 -51 37 -86 39 -83 50 -176 22 -198 -17 -14 -17 -15 -1 -10 10 3
17 0 17 -7 1 -7 7 2 14 18 l13 30 9 -45 c5 -25 8 -51 7 -57 -1 -15 31 0 43 19
4 7 3 8 -4 4 -18 -11 -33 29 -49 128 -8 55 -24 108 -39 135 -14 26 -21 48 -16
53 6 6 20 -9 34 -34 25 -43 42 -102 54 -191 4 -29 16 -60 30 -76 13 -16 22
-30 19 -32 -2 -2 17 -4 43 -3 100 2 167 59 300 256 94 139 134 181 239 256 81
58 90 80 70 180 -15 75 -14 92 2 92 9 0 31 -121 31 -170 0 -51 -25 -84 -102
-137 -94 -66 -119 -93 -214 -233 -42 -63 -90 -129 -106 -146 -19 -20 -26 -34
-19 -39 6 -3 23 8 38 26 50 58 98 72 288 80 94 4 195 13 225 19 165 36 299
155 326 288 l6 32 -48 -22 c-72 -34 -190 -32 -259 4 -87 45 -125 106 -125 197
0 102 33 142 180 216 58 29 116 62 129 74 13 12 30 21 37 21 7 0 28 8 47 19
71 40 103 55 121 58 10 2 31 12 46 23 16 11 35 20 43 20 9 0 22 6 29 13 7 6
24 17 38 23 14 6 45 20 70 32 25 11 55 23 68 27 12 3 22 10 22 14 0 6 67 36
80 35 3 -1 16 10 30 24 23 22 23 24 5 20 -14 -2 -20 2 -19 14 1 10 -2 15 -7
12 -5 -3 -9 0 -9 5 0 6 4 11 8 11 5 0 17 7 28 16 18 14 18 15 -4 4 -33 -16
-46 -8 -27 15 9 11 13 13 9 5 -4 -8 3 -5 16 6 l22 22 -23 41 c-12 23 -25 41
-28 40 -3 -1 -25 -11 -48 -23z m-19 -151 c-10 -8 -28 -14 -39 -14 -20 0 -20 0
-1 14 11 8 26 15 34 15 8 0 10 5 6 13 -6 9 -4 9 6 0 12 -11 11 -15 -6 -28z
m34 -17 c18 -18 15 -26 -18 -43 -34 -17 -44 -19 -35 -5 3 6 1 10 -4 10 -20 0
-11 27 12 38 29 14 31 14 45 0z m-226 -103 c-3 -15 -1 -17 11 -7 13 11 27 7
27 -8 0 -4 -11 -12 -25 -18 -20 -9 -23 -9 -18 3 3 8 -2 18 -11 21 -22 8 -21
36 2 32 10 -2 16 -11 14 -23z m-282 -35 c12 -7 10 -11 -10 -18 -24 -9 -39 -1
-40 21 0 10 32 9 50 -3z m119 -26 c26 -44 26 -50 1 -57 -30 -8 -48 30 -23 49
17 13 16 14 -10 8 -22 -5 -26 -3 -21 10 3 9 10 13 15 10 5 -3 9 0 9 5 0 19 7
12 29 -25z m102 14 c10 -18 9 -20 -5 -15 -9 4 -15 2 -13 -5 1 -6 -4 -13 -12
-16 -8 -3 -11 0 -7 7 4 6 2 11 -3 11 -21 0 0 39 21 40 4 0 12 -10 19 -22z
m-211 -28 c-20 -13 -43 -13 -35 0 4 6 10 8 15 5 5 -3 12 0 15 6 4 5 10 8 13 4
4 -3 0 -10 -8 -15z m-166 -43 c-8 -5 -22 -6 -31 -3 -12 5 -13 9 -3 21 9 11 16
12 31 2 16 -10 16 -13 3 -20z m99 8 c7 -18 -6 -27 -27 -19 -19 7 -21 20 -3 27
20 9 25 8 30 -8z m-69 -46 c-3 -5 -11 -9 -19 -9 -11 0 -12 7 -6 39 1 2 8 -2
16 -9 8 -7 12 -16 9 -21z m92 -6 c-4 -9 -2 -11 5 -7 7 4 10 1 7 -7 -3 -8 -13
-16 -23 -17 -10 -2 -15 0 -11 6 3 6 0 12 -6 15 -10 3 -10 7 1 20 15 19 35 12
27 -10z m-162 -18 c3 -9 0 -15 -9 -15 -9 0 -12 6 -9 15 4 8 7 15 9 15 2 0 5
-7 9 -15z m94 -46 c-9 -6 -14 -2 -16 11 -2 11 -8 18 -13 15 -13 -9 -11 9 3 23
10 10 15 7 26 -14 12 -22 12 -28 0 -35z m-112 -11 c9 -28 25 -21 18 7 -5 21
-3 24 10 19 10 -4 15 -13 12 -20 -3 -8 0 -14 7 -14 7 -1 -8 -11 -33 -24 -32
-17 -47 -21 -52 -12 -11 16 -10 26 3 26 5 0 7 -4 4 -10 -3 -5 1 -10 9 -10 20
0 20 3 -4 50 -11 22 -20 43 -20 47 1 11 39 -39 46 -59z m-36 0 c0 -4 -5 -8
-11 -8 -5 0 -7 5 -4 10 3 6 -2 10 -12 11 -11 0 -13 3 -5 6 6 2 10 10 6 16 -3
7 2 3 10 -7 9 -11 16 -23 16 -28z m-513 -24 c-27 -14 -51 -23 -54 -20 -6 6 75
46 92 45 6 0 -12 -11 -38 -25z m321 -39 c-3 -3 -9 2 -12 12 -6 14 -5 15 5 6 7
-7 10 -15 7 -18z m-51 -25 c-3 -12 0 -20 7 -20 18 0 38 -47 25 -56 -6 -3 -11
-4 -13 -3 -1 2 -15 25 -30 52 -27 46 -27 47 -5 47 16 0 20 -5 16 -20z m128
-69 c-8 -14 -35 -14 -35 0 0 5 4 8 9 4 5 -3 13 0 16 6 4 5 9 8 12 5 3 -2 2 -9
-2 -15z m-184 -36 c0 -13 -41 -19 -41 -7 0 11 20 22 33 18 5 -1 8 -6 8 -11z
m119 -27 c0 -5 -9 -19 -20 -31 -16 -17 -24 -19 -37 -11 -9 6 -19 17 -21 25 -2
8 0 10 5 4 7 -9 17 -10 47 -6 5 0 3 8 -4 16 -16 19 -3 40 16 24 8 -6 14 -16
14 -21z m-120 -69 c0 -5 -7 -9 -15 -9 -15 0 -20 12 -9 23 8 8 24 -1 24 -14z
m-90 -54 c0 -8 -6 -15 -14 -15 -17 0 -28 14 -19 24 12 12 33 6 33 -9z m-540
-86 c0 -5 -9 -9 -20 -9 -22 0 -27 16 -7 23 15 5 27 -1 27 -14z m852 -14 c16
-14 26 -25 21 -25 -15 -1 68 -39 115 -53 63 -18 167 -14 203 9 19 11 -1 -37
-38 -93 -19 -29 -41 -53 -48 -53 -7 0 -19 -7 -26 -16 -15 -18 -76 -47 -149
-71 -28 -9 -105 -16 -205 -19 -88 -3 -179 -10 -203 -16 -23 -6 -45 -8 -49 -5
-3 4 10 26 29 49 19 24 47 67 62 96 16 32 31 50 38 46 6 -4 8 -3 5 3 -10 16
92 96 133 105 8 2 28 18 44 36 16 17 32 32 34 32 2 0 17 -11 34 -25z m-832
-29 c0 -17 -27 -29 -35 -16 -4 6 -3 15 0 20 9 15 35 12 35 -4z m-70 -61 c0 -5
-5 -3 -10 5 -5 8 -10 20 -10 25 0 6 5 3 10 -5 5 -8 10 -19 10 -25z m150 9 c0
-21 -17 -17 -23 5 -3 14 -1 18 9 14 8 -3 14 -11 14 -19z m-90 -60 c0 -16 -16
-19 -25 -4 -8 13 4 32 16 25 5 -4 9 -13 9 -21z m-120 -17 c0 -8 -3 -16 -6 -20
-8 -8 -34 3 -34 15 0 6 7 5 15 -2 13 -11 14 -10 9 4 -3 9 -1 16 5 16 6 0 11
-6 11 -13z"/>
<path d="M2510 1570 c-9 -6 -10 -10 -3 -10 6 0 15 5 18 10 8 12 4 12 -15 0z"/>
<path d="M1760 1913 c0 -12 -4 -25 -10 -28 -11 -7 -33 -45 -27 -45 3 0 16 15
30 33 17 23 23 38 16 48 -7 11 -9 9 -9 -8z"/>
<path d="M2750 1858 c-97 -46 -94 -44 -86 -56 4 -7 17 -6 35 1 17 6 28 14 25
19 -3 4 2 5 10 2 10 -4 16 -1 16 9 0 11 6 13 22 9 13 -3 19 -1 15 5 -5 7 0 9
12 6 10 -3 22 0 25 6 4 6 14 11 22 11 8 0 13 -4 10 -9 -4 -5 -3 -11 1 -14 5
-2 3 -2 -4 -1 -15 4 -73 -18 -73 -28 0 -18 23 -17 60 2 l41 21 -18 29 c-9 17
-20 30 -23 29 -3 0 -43 -19 -90 -41z"/>
<path d="M268 1842 c2 -26 13 -72 22 -102 l18 -55 1 43 c1 23 -6 59 -14 79 -8
19 -15 44 -15 54 0 10 -4 20 -9 23 -5 3 -6 -16 -3 -42z"/>
<path d="M2700 1882 c-8 -3 -48 -20 -89 -39 -57 -26 -72 -36 -63 -45 9 -9 15
-8 26 7 8 11 19 16 30 12 10 -4 19 -1 22 7 3 8 13 14 23 13 22 -1 81 23 81 34
0 12 -13 17 -30 11z"/>
<path d="M2896 1877 c-16 -12 -16 -15 -3 -26 15 -12 19 -10 30 22 8 20 -2 22
-27 4z"/>
<path d="M1734 1818 l-19 -23 23 19 c21 18 27 26 19 26 -2 0 -12 -10 -23 -22z"/>
<path d="M1677 1823 c-4 -3 -7 -11 -7 -17 0 -6 5 -5 12 2 6 6 9 14 7 17 -3 3
-9 2 -12 -2z"/>
<path d="M1468 1813 c6 -2 18 -2 25 0 6 3 1 5 -13 5 -14 0 -19 -2 -12 -5z"/>
<path d="M1511 1804 c0 -11 3 -14 6 -6 3 7 2 16 -1 19 -3 4 -6 -2 -5 -13z"/>
<path d="M2738 1806 c-10 -7 -15 -16 -12 -19 3 -3 -3 -3 -14 0 -22 5 -34 -7
-23 -25 10 -17 92 25 84 44 -6 17 -13 17 -35 0z"/>
<path d="M1692 1790 c-8 -13 -8 -20 -2 -20 6 0 21 -9 33 -21 l22 -20 -25 -19
c-14 -11 -30 -18 -37 -15 -7 2 -15 0 -18 -4 -3 -5 1 -11 8 -13 24 -9 62 8 77
36 14 25 14 28 -6 44 -11 10 -25 25 -30 34 -9 16 -10 16 -22 -2z"/>
<path d="M2493 1793 c-35 -18 -40 -27 -21 -39 6 -4 16 0 23 9 7 9 15 14 18 10
4 -3 7 -1 7 6 0 7 4 9 10 6 6 -3 7 1 4 9 -3 9 -7 16 -8 15 0 0 -16 -8 -33 -16z"/>
<path d="M2561 1774 c-87 -40 -88 -41 -74 -55 12 -12 51 3 45 18 -2 4 2 9 9
12 7 2 9 -1 5 -8 -4 -7 -1 -9 8 -5 9 3 12 12 8 22 -5 14 -3 15 10 4 12 -10 21
-10 42 -1 20 9 23 15 14 21 -9 6 -5 7 9 3 18 -5 22 -3 17 9 -8 21 -7 21 -93
-20z"/>
<path d="M2742 1758 c-34 -15 -41 -22 -33 -32 15 -18 92 19 84 40 -3 8 -6 14
-7 13 0 0 -20 -10 -44 -21z m38 -2 c0 -2 -7 -7 -16 -10 -8 -3 -12 -2 -9 4 6
10 25 14 25 6z"/>
<path d="M1652 1758 c-15 -15 -16 -35 -2 -43 6 -3 7 1 4 10 -4 8 -1 22 6 30
15 18 9 20 -8 3z"/>
<path d="M2400 1750 c-31 -16 -33 -19 -16 -26 13 -5 21 -3 24 4 2 7 8 10 13 6
5 -3 9 0 9 6 0 6 5 8 10 5 6 -3 10 1 10 9 0 20 -7 20 -50 -4z"/>
<path d="M2623 1754 c-22 -9 -31 -19 -27 -29 7 -18 7 -18 38 -4 14 7 23 16 20
20 -3 5 3 6 12 2 11 -4 15 -2 12 7 -6 19 -18 20 -55 4z"/>
<path d="M1208 1741 c-15 -9 -38 -28 -52 -42 -25 -25 -85 -49 -123 -49 -10 0
-28 -7 -39 -16 -18 -14 -15 -15 37 -11 69 6 121 32 173 86 44 45 45 57 4 32z"/>
<path d="M1677 1753 c-12 -12 -7 -43 7 -43 9 0 12 8 8 25 -5 27 -6 28 -15 18z"/>
<path d="M1210 1694 c-58 -60 -112 -87 -176 -88 -37 -1 -50 -5 -47 -14 20 -50
193 12 240 85 10 16 22 31 26 34 5 4 8 12 6 18 -2 6 -24 -9 -49 -35z"/>
<path d="M2340 1722 c-69 -23 -119 -52 -114 -66 3 -8 12 -12 20 -9 8 3 11 9 8
14 -3 5 3 6 12 2 13 -5 15 -3 9 7 -5 9 -4 11 3 6 7 -4 12 -2 12 4 0 6 4 8 10
5 5 -3 20 0 32 7 13 7 26 11 31 10 4 -1 7 2 7 7 0 14 -13 19 -30 13z"/>
<path d="M2390 1698 c-77 -35 -77 -35 -64 -48 12 -12 47 -2 39 10 -3 5 4 6 15
3 17 -4 19 -2 13 13 -6 17 -5 17 10 5 14 -11 18 -11 23 3 3 9 10 13 15 10 5
-3 9 -1 9 5 0 6 7 8 15 5 11 -5 13 -2 9 10 -8 20 -6 20 -84 -16z"/>
<path d="M2533 1712 c-22 -12 -30 -21 -24 -30 11 -18 82 15 74 34 -6 17 -11
17 -50 -4z"/>
<path d="M156 1659 c14 -28 28 -48 31 -45 8 8 -36 96 -48 96 -5 0 2 -23 17
-51z"/>
<path d="M107 1693 c-2 -4 -3 -19 -2 -33 1 -14 -2 -31 -8 -37 -5 -7 -7 -13 -4
-13 2 0 15 6 28 13 23 12 24 13 7 45 -9 18 -18 30 -21 25z"/>
<path d="M2448 1674 c-28 -15 -30 -48 -2 -37 8 3 11 9 8 14 -3 5 1 7 8 4 18
-7 42 10 34 24 -9 13 -13 13 -48 -5z"/>
<path d="M2268 1644 l-27 -14 22 -34 c22 -32 33 -34 75 -10 1 0 0 8 -4 17 -4
13 -10 14 -24 7 -26 -14 -37 -12 -37 5 0 8 5 15 11 14 26 -3 35 2 30 16 -7 18
-10 17 -46 -1z"/>
<path d="M870 1646 c0 -2 9 -6 20 -9 11 -3 20 -1 20 4 0 5 -9 9 -20 9 -11 0
-20 -2 -20 -4z"/>
<path d="M1369 1630 c-13 -10 -19 -19 -13 -20 6 0 19 9 29 20 23 26 14 26 -16
0z"/>
<path d="M119 1601 c-23 -19 -9 -25 19 -8 6 5 12 4 12 -1 0 -6 7 -13 16 -16
15 -6 15 -4 3 10 -8 10 -13 20 -11 23 9 15 -18 9 -39 -8z"/>
<path d="M885 1610 c3 -5 16 -10 28 -9 21 0 21 1 2 9 -28 12 -37 12 -30 0z"/>
<path d="M1430 1609 c0 -5 5 -7 10 -4 6 3 10 8 10 11 0 2 -4 4 -10 4 -5 0 -10
-5 -10 -11z"/>
<path d="M1517 1603 c-4 -3 -7 -11 -7 -17 0 -6 5 -5 12 2 6 6 9 14 7 17 -3 3
-9 2 -12 -2z"/>
<path d="M1561 1599 c-2 -24 8 -29 36 -18 13 5 22 5 19 0 -3 -5 1 -12 10 -15
9 -3 12 -2 9 5 -4 6 3 7 19 3 15 -3 26 -2 26 4 0 14 -80 25 -95 12 -10 -8 -14
-7 -18 7 -4 14 -5 14 -6 2z"/>
<path d="M0 1575 c0 -13 4 -14 20 -5 11 6 20 13 20 15 0 3 -9 5 -20 5 -11 0
-20 -7 -20 -15z"/>
<path d="M246 1577 c3 -10 9 -15 12 -12 3 3 0 11 -7 18 -10 9 -11 8 -5 -6z"/>
<path d="M1750 1581 c0 -5 7 -11 15 -15 8 -3 15 -1 15 3 0 5 -7 11 -15 15 -8
3 -15 1 -15 -3z"/>
<path d="M1400 1566 c0 -8 -6 -17 -12 -19 -10 -4 -10 -6 -1 -6 7 -1 17 8 23
19 7 14 7 20 0 20 -5 0 -10 -6 -10 -14z"/>
<path d="M20 1550 c-14 -11 -20 -20 -14 -20 7 0 22 9 35 20 31 25 12 26 -21 0z"/>
<path d="M1508 1535 c-10 -13 -18 -29 -18 -34 0 -6 -5 -11 -11 -11 -5 0 -7 -4
-4 -10 3 -5 0 -10 -8 -10 -8 0 -18 -7 -21 -16 -9 -23 -7 -31 4 -14 5 8 19 15
32 15 16 0 23 6 22 18 -1 9 2 17 6 17 4 0 7 10 6 23 -1 13 4 21 12 20 6 -2 12
4 12 12 0 22 -12 18 -32 -10z"/>
<path d="M2068 1553 c-21 -5 -22 -21 -5 -45 9 -11 18 -14 27 -8 9 5 19 5 27
-2 7 -6 13 -7 13 -3 0 11 -34 65 -40 64 -3 -1 -13 -3 -22 -6z m37 -33 c-3 -5
-14 -10 -23 -10 -15 0 -15 2 -2 10 20 13 33 13 25 0z"/>
<path d="M1586 1533 c-6 -14 -5 -15 5 -6 7 7 10 15 7 18 -3 3 -9 -2 -12 -12z"/>
<path d="M2153 1540 c-15 -6 -21 -15 -17 -25 7 -18 7 -18 38 -4 14 7 22 17 19
25 -6 16 -9 16 -40 4z"/>
<path d="M1456 1521 c-12 -5 -15 -10 -9 -14 6 -4 16 0 23 8 14 17 13 17 -14 6z"/>
<path d="M897 1485 c-15 -14 -24 -25 -18 -25 5 0 22 11 37 25 35 32 18 32 -19
0z"/>
<path d="M1416 1488 c4 -34 4 -34 13 -19 10 15 4 41 -8 41 -4 0 -7 -10 -5 -22z"/>
<path d="M1720 1475 c-8 -9 -8 -15 -2 -15 12 0 26 19 19 26 -2 2 -10 -2 -17
-11z"/>
<path d="M1891 1471 c-14 -9 -7 -31 10 -31 6 0 7 4 4 10 -4 6 1 7 11 3 11 -4
15 -2 12 7 -6 18 -20 22 -37 11z"/>
<path d="M1074 1455 c-10 -8 -14 -15 -8 -15 6 0 17 7 24 15 16 19 9 19 -16 0z"/>
<path d="M1823 1442 c-23 -12 -30 -21 -24 -31 11 -17 41 -7 41 14 0 8 5 15 11
15 5 0 7 -4 4 -10 -3 -5 0 -7 9 -4 8 3 12 12 9 20 -6 18 -10 17 -50 -4z"/>
<path d="M1918 1433 c-21 -5 -23 -14 -6 -31 15 -15 49 3 42 23 -6 16 -7 16
-36 8z"/>
<path d="M221 1394 c-27 -35 -26 -59 4 -89 20 -21 34 -25 77 -24 39 0 48 3 33
9 -11 5 -32 9 -46 9 -42 1 -73 32 -65 64 6 26 37 44 57 32 6 -4 8 -18 5 -31
-5 -20 -3 -24 15 -24 11 0 29 -10 40 -22 10 -13 18 -17 19 -10 0 7 -11 24 -25
38 -14 14 -25 30 -25 35 0 17 -27 39 -49 39 -11 0 -29 -12 -40 -26z"/>
<path d="M1200 1406 c0 -8 -7 -19 -16 -24 -9 -5 -15 -14 -13 -19 2 -5 14 3 27
18 13 17 18 30 12 34 -5 3 -10 -1 -10 -9z"/>
<path d="M1757 1398 c-5 -16 -9 -19 -19 -10 -10 8 -32 1 -88 -24 -63 -30 -176
-74 -188 -74 -2 0 0 5 4 12 4 7 3 8 -5 4 -6 -4 -9 -12 -6 -17 4 -5 -4 -13 -17
-18 -38 -15 -294 -140 -286 -141 4 0 30 9 58 20 68 27 64 15 -5 -16 -66 -28
-61 -28 -69 -9 -4 11 14 25 70 51 56 26 74 39 70 50 -3 9 -6 17 -6 19 0 2 -27
-10 -60 -26 -33 -16 -65 -29 -70 -29 -6 0 -10 -5 -10 -10 0 -6 18 -1 40 10 21
11 45 20 52 20 7 0 -12 -13 -42 -29 -53 -28 -77 -31 -64 -9 4 7 2 8 -5 4 -6
-4 -9 -11 -6 -16 7 -11 -34 -34 -43 -25 -3 3 4 8 16 12 12 3 19 9 16 14 -2 5
-29 -3 -58 -18 -42 -20 -52 -30 -48 -45 6 -23 28 -18 26 6 -2 18 12 22 18 5 3
-9 9 -9 25 0 27 14 46 14 38 1 -3 -5 2 -10 12 -10 15 0 15 -2 3 -10 -9 -5 -19
-5 -26 1 -9 7 -21 5 -41 -6 -15 -9 -20 -14 -10 -11 10 3 20 0 23 -9 7 -17 15
-14 146 50 56 27 75 41 71 52 -5 12 -3 13 13 3 10 -6 20 -23 20 -36 1 -14 0
-23 -3 -21 -2 3 -31 -6 -63 -19 -33 -13 -73 -24 -89 -24 -24 0 -29 -3 -24 -17
5 -12 2 -15 -10 -10 -22 8 -107 -24 -107 -40 0 -19 29 -28 43 -13 9 10 9 11 0
6 -18 -10 -16 2 2 20 11 11 18 12 32 4 15 -9 36 -3 108 33 50 24 100 47 113
51 15 5 22 14 20 27 -2 16 20 30 124 78 112 52 129 58 137 43 7 -12 13 -13 23
-5 7 6 56 29 108 53 52 23 96 43 98 45 4 4 -42 74 -49 75 -4 0 -9 -10 -12 -22z
m-37 -23 c0 -2 -22 -16 -50 -30 -27 -14 -50 -22 -50 -17 0 4 19 18 43 29 43
22 57 27 57 18z m68 -12 c-2 -11 -12 -17 -23 -16 -21 3 -105 -31 -319 -129
-98 -44 -132 -55 -138 -46 -13 21 -10 24 55 53 34 16 90 41 124 58 48 23 66
27 77 18 10 -8 30 -3 87 22 117 53 124 56 132 56 5 1 7 -7 5 -16z m-91 -59
c-27 -14 -51 -23 -54 -20 -6 6 74 44 92 45 6 0 -12 -11 -38 -25z m-567 -184
c0 -5 -4 -10 -10 -10 -5 0 -10 5 -10 10 0 6 5 10 10 10 6 0 10 -4 10 -10z"/>
<path d="M1410 1230 c-9 -6 -10 -10 -3 -10 6 0 15 5 18 10 8 12 4 12 -15 0z"/>
<path d="M891 1383 c-1 -12 4 -25 9 -28 12 -7 12 2 0 30 -8 19 -9 19 -9 -2z"/>
<path d="M1390 1388 c0 -10 5 -18 10 -18 6 0 10 -9 10 -20 0 -11 5 -20 10 -20
6 0 10 5 10 11 0 5 5 7 12 3 7 -5 8 -3 4 5 -5 7 -11 10 -14 7 -3 -4 -14 6 -24
21 -13 21 -18 24 -18 11z"/>
<path d="M1415 1390 c3 -5 8 -10 11 -10 2 0 4 5 4 10 0 6 -5 10 -11 10 -5 0
-7 -4 -4 -10z"/>
<path d="M1350 1380 c-8 -5 -12 -11 -9 -14 3 -3 14 1 25 9 21 16 8 20 -16 5z"/>
<path d="M2212 1327 c-96 -48 -104 -55 -127 -101 -56 -113 -14 -223 105 -274
57 -24 165 -20 237 10 l61 25 5 -25 c12 -61 -55 -184 -133 -245 -106 -82 -235
-117 -433 -117 -175 0 -266 -30 -302 -100 -11 -22 -20 -27 -37 -22 -21 5 -21
6 -2 12 19 7 19 7 -1 12 -12 3 -30 -5 -46 -20 -15 -13 -56 -35 -90 -48 l-64
-24 46 4 c25 3 62 14 82 25 l36 20 -17 -37 c-9 -20 -20 -39 -23 -42 -5 -5 -32
-68 -35 -80 -3 -16 -32 -79 -84 -182 -34 -68 -54 -118 -47 -118 18 0 76 104
131 235 26 61 59 133 73 162 13 29 22 57 18 62 -4 7 0 8 10 5 10 -4 14 -13 10
-23 -4 -9 -14 -36 -22 -61 -25 -74 -112 -271 -144 -327 -16 -29 -25 -53 -20
-53 5 0 20 18 32 40 13 22 26 40 31 40 12 0 10 -5 -12 -45 -15 -26 -16 -35 -6
-35 7 0 28 29 45 65 32 68 40 101 19 89 -7 -4 -8 -3 -4 5 4 6 12 9 17 6 5 -4
9 -2 9 4 0 5 -4 12 -9 15 -5 3 6 41 25 83 19 43 39 104 45 136 6 31 16 57 21
57 6 0 8 -7 4 -15 -3 -8 -2 -15 3 -15 5 0 12 12 16 27 9 37 57 78 108 92 23 7
106 13 183 14 78 1 140 6 137 10 -3 5 3 8 13 6 18 -2 34 1 119 22 52 13 135
50 135 61 0 4 5 8 10 8 6 0 27 16 47 35 20 19 40 35 45 35 4 0 8 6 8 14 0 7 8
20 17 27 15 12 16 12 9 -6 -4 -11 -9 -28 -11 -39 -3 -10 -10 -25 -17 -35 -11
-15 -10 -15 5 0 10 8 19 25 22 36 2 12 8 31 14 42 6 11 8 27 5 35 -3 9 -1 16
5 16 6 0 10 3 10 8 -1 4 -1 21 0 37 1 23 3 27 11 15 7 -11 10 0 10 38 0 37 -5
57 -18 70 -12 12 -16 25 -11 42 21 77 -4 159 -66 220 -47 45 -44 24 5 -46 34
-48 40 -65 40 -107 0 -65 -42 -154 -54 -115 -3 7 -17 75 -32 150 -15 76 -31
135 -36 132 -13 -8 16 -183 48 -288 6 -17 2 -18 -27 -12 -24 4 -30 3 -19 -4
12 -8 8 -10 -15 -11 -93 -4 -183 19 -169 43 4 7 4 10 -1 6 -14 -13 -42 11 -63
54 -15 34 -18 53 -13 90 13 81 55 130 160 183 39 20 71 38 71 41 0 6 3 7 -108
-49z m-708 -1202 c-4 -8 -11 -12 -16 -9 -6 4 -5 10 3 15 19 12 19 11 13 -6z"/>
<path d="M1126 1353 c-6 -14 -5 -15 5 -6 7 7 10 15 7 18 -3 3 -9 -2 -12 -12z"/>
<path d="M1460 1359 c0 -5 5 -7 10 -4 6 3 10 8 10 11 0 2 -4 4 -10 4 -5 0 -10
-5 -10 -11z"/>
<path d="M1380 1335 c0 -8 2 -15 4 -15 2 0 6 7 10 15 3 8 1 15 -4 15 -6 0 -10
-7 -10 -15z"/>
<path d="M1462 1335 c-24 -10 -32 -20 -31 -37 1 -21 2 -21 6 -3 7 27 23 36 44
24 12 -6 19 -4 23 6 8 22 -5 25 -42 10z"/>
<path d="M1263 1316 c7 -14 13 -23 15 -21 7 6 -9 45 -18 45 -4 0 -3 -11 3 -24z"/>
<path d="M1100 1319 c0 -5 5 -7 11 -3 7 4 10 1 7 -7 -3 -8 -14 -13 -24 -11
-12 2 -15 0 -7 -5 17 -12 4 -27 -45 -52 -32 -16 -42 -27 -38 -38 4 -10 -2 -21
-14 -30 -17 -12 -29 -43 -16 -43 2 0 36 15 77 34 41 19 105 48 142 65 l68 30
-17 31 c-21 35 -29 36 -69 10 -27 -18 -28 -20 -8 -20 28 0 37 -14 17 -30 -12
-11 -17 -9 -30 9 -11 14 -22 20 -33 16 -13 -5 -14 -4 -3 6 17 18 15 49 -3 49
-8 0 -15 -5 -15 -11z m122 -24 c0 -5 -5 -11 -11 -13 -6 -2 -11 4 -11 13 0 9 5
15 11 13 6 -2 11 -8 11 -13z m-82 -45 c0 -5 -4 -10 -10 -10 -5 0 -10 5 -10 10
0 6 5 10 10 10 6 0 10 -4 10 -10z m-21 -24 c9 -11 6 -16 -18 -24 -37 -13 -54
4 -26 25 24 16 30 16 44 -1z m-79 -16 c0 -5 -4 -10 -9 -10 -6 0 -13 5 -16 10
-3 6 1 10 9 10 9 0 16 -4 16 -10z"/>
<path d="M1025 1300 c-3 -5 -1 -10 4 -10 6 0 11 5 11 10 0 6 -2 10 -4 10 -3 0
-8 -4 -11 -10z"/>
<path d="M1370 1294 l-25 -15 30 6 c29 6 29 6 10 -9 -20 -15 -10 -23 11 -8 11
7 15 42 5 42 -3 -1 -17 -8 -31 -16z"/>
<path d="M980 1280 c0 -5 5 -10 10 -10 6 0 10 5 10 10 0 6 -4 10 -10 10 -5 0
-10 -4 -10 -10z"/>
<path d="M919 1263 c-13 -16 -12 -17 4 -4 16 13 21 21 13 21 -2 0 -10 -8 -17
-17z"/>
<path d="M951 1257 c-13 -21 -12 -21 5 -5 10 10 16 20 13 22 -3 3 -11 -5 -18
-17z"/>
<path d="M1306 1266 c-27 -12 -27 -13 -7 -19 13 -3 19 -1 14 6 -4 6 0 8 9 5 9
-4 15 0 15 8 0 8 -1 14 -1 13 -1 0 -14 -6 -30 -13z"/>
<path d="M1685 1240 c-3 -5 -2 -10 4 -10 5 0 13 5 16 10 3 6 2 10 -4 10 -5 0
-13 -4 -16 -10z"/>
<path d="M950 1216 c0 -2 7 -6 15 -10 8 -3 15 -1 15 4 0 6 -7 10 -15 10 -8 0
-15 -2 -15 -4z"/>
<path d="M842 1185 c-7 -8 -9 -15 -4 -15 5 0 15 7 22 15 16 19 -1 19 -18 0z"/>
<path d="M1743 1179 c-25 -9 -30 -19 -10 -19 15 0 43 17 37 23 -3 3 -15 1 -27
-4z"/>
<path d="M888 1166 c-10 -7 -18 -20 -18 -28 0 -8 -11 -32 -25 -52 l-25 -38 40
23 c22 13 40 27 40 31 0 5 4 7 9 4 5 -3 11 1 15 9 3 8 12 12 21 9 21 -9 19 8
-5 34 -24 25 -29 26 -52 8z m38 -18 c5 -7 2 -9 -9 -5 -9 3 -18 1 -21 -6 -2 -7
-5 -4 -5 6 -1 19 24 23 35 5z"/>
<path d="M1492 1131 c-101 -48 -139 -70 -95 -57 41 13 228 105 213 105 -8 0
-61 -21 -118 -48z"/>
<path d="M441 1143 c-1 -12 4 -25 9 -28 12 -7 12 2 0 30 -8 19 -9 19 -9 -2z"/>
<path d="M1233 1115 c-60 -27 -73 -44 -15 -19 20 9 45 18 55 21 9 3 17 9 17
14 0 12 3 12 -57 -16z"/>
<path d="M1615 1131 c-39 -13 -125 -56 -125 -62 0 -7 46 -29 60 -29 6 0 10 5
10 10 0 6 -9 10 -20 10 -11 0 -20 4 -20 8 0 12 73 43 80 33 3 -5 13 2 23 15
10 13 17 24 15 23 -2 -1 -12 -4 -23 -8z"/>
<path d="M950 1102 c0 -11 22 -32 32 -32 5 0 4 9 -2 20 -11 20 -30 28 -30 12z"/>
<path d="M926 1092 c-5 -9 -3 -20 7 -29 10 -10 17 -11 21 -4 4 6 3 11 -3 11
-5 0 -11 8 -13 18 -3 13 -5 14 -12 4z"/>
<path d="M1250 1064 l-25 -15 25 7 c14 3 32 10 40 15 13 7 13 8 0 8 -8 0 -26
-6 -40 -15z"/>
<path d="M1578 1068 c9 -9 15 -9 24 0 9 9 7 12 -12 12 -19 0 -21 -3 -12 -12z"/>
<path d="M991 1061 c-12 -8 -12 -11 1 -24 20 -20 55 -3 37 19 -13 16 -19 17
-38 5z"/>
<path d="M790 1052 c-8 -3 -21 -11 -28 -19 -7 -7 -20 -13 -28 -13 -8 0 -14 -5
-14 -11 0 -5 -4 -8 -9 -5 -5 3 -11 -1 -15 -9 -3 -8 -3 -15 -1 -15 4 0 102 58
114 67 9 6 -5 10 -19 5z"/>
<path d="M947 1044 c-4 -4 5 -20 18 -36 14 -16 25 -34 25 -39 0 -5 5 -9 10 -9
17 0 11 28 -7 39 -10 6 -14 11 -10 11 10 0 -11 40 -22 40 -4 0 -11 -3 -14 -6z"/>
<path d="M852 990 c-80 -44 -87 -46 -76 -27 4 6 3 8 -1 4 -14 -12 -14 -36 0
-31 23 9 24 -34 1 -51 l-21 -16 22 11 c17 8 24 7 31 -6 8 -14 10 -13 15 8 8
31 53 54 73 37 10 -8 22 -6 49 11 19 12 35 26 35 31 0 23 -32 18 -96 -15 -80
-42 -84 -42 -84 -17 0 27 17 36 38 19 15 -12 16 -11 4 4 -16 20 2 35 22 19 18
-15 88 17 84 38 -5 25 -21 22 -96 -19z"/>
<path d="M1116 1001 c-3 -5 1 -11 9 -15 9 -3 15 0 15 9 0 16 -16 20 -24 6z"/>
<path d="M1070 974 l-25 -15 25 7 c28 7 35 12 29 18 -2 2 -15 -2 -29 -10z"/>
<path d="M1006 945 c-8 -9 -18 -15 -21 -14 -4 1 -21 -7 -40 -17 -28 -15 -32
-21 -24 -37 6 -10 14 -16 17 -12 7 6 8 10 11 36 0 5 5 8 10 5 5 -3 20 3 33 14
14 11 27 17 30 15 3 -3 5 2 5 10 0 19 -2 19 -21 0z"/>
<path d="M724 914 c-18 -14 -18 -15 4 -4 12 6 22 13 22 15 0 8 -5 6 -26 -11z"/>
<path d="M1025 900 c3 -5 11 -10 16 -10 6 0 7 5 4 10 -3 6 -11 10 -16 10 -6 0
-7 -4 -4 -10z"/>
<path d="M430 890 c0 -5 5 -10 10 -10 6 0 10 5 10 10 0 6 -4 10 -10 10 -5 0
-10 -4 -10 -10z"/>
<path d="M480 873 c0 -7 4 -13 9 -13 5 0 13 6 19 13 8 10 6 13 -9 13 -10 0
-19 -6 -19 -13z"/>
<path d="M844 864 c-55 -29 -86 -54 -66 -54 7 0 12 -5 12 -11 0 -6 -7 -8 -17
-4 -13 4 -15 3 -7 -5 8 -8 23 -4 58 17 25 15 46 31 46 36 0 4 -11 0 -24 -8
-13 -9 -27 -12 -30 -7 -3 5 15 19 39 31 25 12 45 24 45 27 0 7 -5 5 -56 -22z"/>
<path d="M428 842 c-30 -18 -39 -39 -10 -23 28 16 58 40 47 40 -5 -1 -22 -8
-37 -17z"/>
<path d="M640 855 c0 -2 9 -28 21 -57 12 -29 34 -99 50 -155 34 -122 48 -161
102 -283 21 -47 22 -9 1 45 -8 22 -22 63 -30 90 -9 28 -20 58 -25 67 -5 11 -5
20 3 24 6 4 8 3 4 -4 -3 -5 -2 -12 2 -14 9 -3 60 -97 177 -323 119 -231 127
-245 142 -245 15 0 -33 95 -339 673 -88 166 -108 199 -108 182z"/>
<path d="M770 850 c0 -5 7 -7 15 -4 8 4 15 8 15 10 0 2 -7 4 -15 4 -8 0 -15
-4 -15 -10z"/>
<path d="M914 839 c-16 -11 -50 -31 -76 -45 -33 -17 -48 -31 -48 -44 0 -21 15
-27 25 -10 3 6 1 10 -4 10 -6 0 -11 4 -11 8 0 4 9 8 19 8 11 0 17 -4 15 -8 -3
-4 -1 -8 4 -8 13 0 33 25 26 32 -3 3 8 16 23 28 24 19 28 20 31 6 2 -9 7 -16
11 -16 4 0 7 -18 7 -39 -1 -22 2 -37 7 -34 11 6 9 71 -3 78 -16 10 -12 38 5
31 8 -3 15 -1 15 4 0 19 -17 18 -46 -1z"/>
<path d="M185 770 c-15 -16 -31 -27 -35 -25 -8 5 -44 -44 -38 -51 5 -5 108 90
108 99 0 12 -5 8 -35 -23z"/>
<path d="M253 785 c-7 -7 -17 -15 -24 -17 -7 -2 -10 -10 -7 -18 3 -11 9 -9 24
6 11 11 27 19 35 16 8 -2 10 0 4 5 -5 4 -12 11 -15 15 -3 3 -10 0 -17 -7z"/>
<path d="M900 770 c-9 -6 -10 -10 -3 -10 6 0 15 5 18 10 8 12 4 12 -15 0z"/>
<path d="M247 736 c-34 -32 -91 -60 -95 -47 -4 12 -42 -9 -42 -23 0 -4 7 -3
15 4 9 7 18 11 21 8 3 -3 -11 -15 -31 -27 -21 -12 -33 -26 -29 -32 4 -7 9 -7
13 -2 12 19 134 84 142 76 4 -4 21 -39 37 -76 16 -38 37 -78 48 -90 10 -12 18
-24 17 -27 -1 -3 1 -7 3 -9 15 -16 -2 32 -37 99 -22 44 -37 85 -33 91 4 7 3 9
-3 6 -6 -4 -14 0 -17 9 -10 25 -7 32 14 36 13 2 17 7 11 16 -6 9 -14 7 -34
-12z"/>
<path d="M835 730 c-39 -26 -25 -26 17 0 18 11 29 20 23 20 -5 0 -23 -9 -40
-20z"/>
<path d="M185 720 c-3 -5 1 -10 9 -10 9 0 16 5 16 10 0 6 -4 10 -9 10 -6 0
-13 -4 -16 -10z"/>
<path d="M2470 710 c-6 -11 -8 -20 -6 -20 3 0 10 9 16 20 6 11 8 20 6 20 -3 0
-10 -9 -16 -20z"/>
<path d="M575 710 c-3 -6 1 -7 9 -4 18 7 21 14 7 14 -6 0 -13 -4 -16 -10z"/>
<path d="M885 710 c-3 -6 1 -7 9 -4 18 7 21 14 7 14 -6 0 -13 -4 -16 -10z"/>
<path d="M775 700 c-6 -10 21 -68 60 -130 12 -20 52 -92 87 -160 36 -69 73
-138 82 -155 9 -16 42 -79 74 -139 52 -98 61 -109 87 -112 26 -2 27 -1 11 8
-15 8 -16 12 -5 19 8 4 16 4 20 -2 3 -6 6 5 7 23 0 30 -1 31 -9 10 -10 -27
-33 -19 -24 8 8 24 -20 50 -52 50 -15 0 -23 3 -20 7 4 3 -1 15 -10 25 -11 12
-14 22 -7 26 34 22 104 86 100 90 -6 5 -76 -44 -87 -61 -10 -14 -29 1 -29 21
0 9 14 35 30 56 17 22 30 45 30 52 0 7 20 25 45 40 30 17 47 35 51 52 3 15 7
35 9 44 5 26 -12 32 -25 9 -7 -13 -7 -22 0 -26 22 -14 7 -36 -40 -60 -28 -14
-50 -29 -50 -34 0 -13 -73 -121 -82 -121 -4 0 -8 9 -8 20 0 11 -7 23 -15 26
-10 4 -12 10 -6 18 5 6 12 30 16 54 4 32 3 42 -7 40 -8 -2 -12 6 -10 24 4 31
-10 41 -50 40 -19 0 -31 5 -35 16 -14 44 -37 91 -41 87 -8 -8 -78 123 -74 138
3 10 -16 9 -23 -3z m195 -258 c0 -4 -9 -8 -20 -9 -11 -1 -20 2 -20 8 0 5 9 9
20 9 11 0 20 -4 20 -8z m17 -14 c-3 -8 -6 -5 -6 6 -1 11 2 17 5 13 3 -3 4 -12
1 -19z m-10 -33 c9 -24 -1 -27 -15 -5 -8 13 -8 20 -2 20 6 0 13 -7 17 -15z
m17 -51 c3 -8 2 -12 -4 -9 -6 3 -10 10 -10 16 0 14 7 11 14 -7z m149 -256 c3
-10 4 -18 3 -18 -2 0 -10 8 -19 18 -14 15 -14 19 -3 19 8 0 17 -9 19 -19z"/>
<path d="M835 690 c-16 -7 -17 -9 -3 -9 9 -1 20 4 23 9 7 11 7 11 -20 0z"/>
<path d="M980 690 c8 -5 20 -10 25 -10 6 0 3 5 -5 10 -8 5 -19 10 -25 10 -5 0
-3 -5 5 -10z"/>
<path d="M920 665 c0 -8 -5 -15 -12 -15 -6 0 -9 -2 -7 -5 7 -6 49 6 49 15 0 4
-7 10 -15 14 -9 3 -15 0 -15 -9z"/>
<path d="M1045 651 c-7 -12 2 -31 15 -31 9 0 8 26 -2 35 -3 4 -9 2 -13 -4z"/>
<path d="M162 641 c-11 -7 -11 -9 0 -14 9 -3 15 1 15 9 0 8 -1 14 -1 14 -1 0
-7 -4 -14 -9z"/>
<path d="M566 625 c-11 -8 -29 -12 -42 -9 -18 5 -23 2 -21 -13 1 -18 3 -18 51
5 59 28 65 32 45 32 -8 0 -23 -7 -33 -15z"/>
<path d="M935 631 c-3 -5 -1 -12 5 -16 5 -3 10 1 10 9 0 18 -6 21 -15 7z"/>
<path d="M1135 630 c-3 -6 1 -7 9 -4 18 7 21 14 7 14 -6 0 -13 -4 -16 -10z"/>
<path d="M965 620 c-3 -5 -1 -10 4 -10 6 0 11 5 11 10 0 6 -2 10 -4 10 -3 0
-8 -4 -11 -10z"/>
<path d="M1080 604 c-24 -9 -29 -13 -14 -13 11 -1 29 6 40 14 22 17 20 17 -26
-1z"/>
<path d="M20 590 c-8 -5 -10 -10 -5 -10 6 0 17 5 25 10 8 5 11 10 5 10 -5 0
-17 -5 -25 -10z"/>
<path d="M587 579 c-9 -5 -21 -8 -26 -5 -5 3 -12 -1 -15 -10 -5 -13 -1 -15 21
-9 16 3 35 13 43 21 16 16 3 18 -23 3z"/>
<path d="M1015 580 c3 -5 10 -10 16 -10 5 0 9 5 9 10 0 6 -7 10 -16 10 -8 0
-12 -4 -9 -10z"/>
<path d="M961 572 c-1 -7 -5 -10 -11 -7 -6 3 -10 -4 -10 -17 0 -20 1 -21 16
-6 9 9 14 22 11 30 -4 10 -6 10 -6 0z"/>
<path d="M507 554 c-9 -10 4 -34 19 -34 8 0 14 3 14 6 0 10 -27 33 -33 28z"/>
<path d="M620 489 c0 -16 4 -28 9 -25 8 5 3 56 -5 56 -2 0 -4 -14 -4 -31z"/>
<path d="M980 500 c0 -6 7 -10 15 -10 8 0 15 2 15 4 0 2 -7 6 -15 10 -8 3 -15
1 -15 -4z"/>
<path d="M1047 483 c-4 -3 -7 -11 -7 -17 0 -6 5 -5 12 2 6 6 9 14 7 17 -3 3
-9 2 -12 -2z"/>
<path d="M273 427 c-56 -29 -61 -34 -45 -45 16 -12 16 -13 -3 -7 -11 3 -16 3
-13 -1 4 -3 -14 -17 -40 -31 -68 -36 -76 -49 -12 -20 130 59 227 115 123 72
-20 -8 -37 -14 -39 -12 -8 7 16 30 33 32 11 0 30 11 43 23 30 27 29 27 -47
-11z"/>
<path d="M656 443 c-9 -10 -7 -25 3 -19 5 4 12 0 14 -6 4 -8 6 -7 6 4 1 19
-13 31 -23 21z"/>
<path d="M1329 416 c-9 -12 -24 -34 -34 -51 -15 -25 -12 -23 21 11 21 22 46
43 54 46 11 3 9 6 -6 10 -13 3 -25 -2 -35 -16z"/>
<path d="M547 423 c-4 -3 -7 -11 -7 -17 0 -6 5 -5 12 2 6 6 9 14 7 17 -3 3 -9
2 -12 -2z"/>
<path d="M617 401 c-4 -17 -3 -21 5 -13 5 5 8 16 6 23 -3 8 -7 3 -11 -10z"/>
<path d="M158 374 c-39 -21 -35 -28 5 -8 37 19 44 24 31 24 -5 -1 -21 -8 -36
-16z"/>
<path d="M478 343 c7 -3 16 -2 19 1 4 3 -2 6 -13 5 -11 0 -14 -3 -6 -6z"/>
<path d="M690 340 c-8 -5 -10 -10 -5 -10 6 0 17 5 25 10 8 5 11 10 5 10 -5 0
-17 -5 -25 -10z"/>
<path d="M410 274 c0 -8 5 -12 10 -9 6 4 8 11 5 16 -9 14 -15 11 -15 -7z"/>
<path d="M355 260 c-3 -6 1 -7 9 -4 18 7 21 14 7 14 -6 0 -13 -4 -16 -10z"/>
<path d="M710 250 c0 -5 7 -7 15 -4 8 4 15 8 15 10 0 2 -7 4 -15 4 -8 0 -15
-4 -15 -10z"/>
<path d="M810 244 c0 -3 14 -23 30 -44 17 -21 30 -41 30 -46 0 -4 10 -18 22
-31 21 -23 21 -25 5 -52 -9 -16 -17 -39 -17 -51 0 -19 2 -21 15 -10 9 7 14 19
11 26 -2 6 1 20 9 30 15 21 14 25 -48 122 -35 54 -57 76 -57 56z"/>
<path d="M560 229 c0 -5 5 -7 10 -4 6 3 10 8 10 11 0 2 -4 4 -10 4 -5 0 -10
-5 -10 -11z"/>
<path d="M1531 211 c-6 -11 -7 -22 -2 -25 5 -3 11 4 14 16 8 30 1 35 -12 9z"/>
<path d="M430 210 c0 -5 4 -10 9 -10 6 0 13 5 16 10 3 6 -1 10 -9 10 -9 0 -16
-4 -16 -10z"/>
<path d="M1550 178 c-6 -18 -25 -64 -41 -102 -16 -38 -28 -71 -25 -73 5 -5 39
49 42 67 2 8 12 41 24 74 12 32 19 60 17 62 -2 3 -10 -10 -17 -28z"/>
<path d="M621 164 c0 -11 3 -14 6 -6 3 7 2 16 -1 19 -3 4 -6 -2 -5 -13z"/>
<path d="M734 148 c-4 -6 -3 -8 4 -4 6 3 13 2 17 -4 3 -5 3 -10 -2 -11 -4 0
-18 -2 -30 -5 -16 -3 -23 1 -23 11 0 33 -47 -3 -53 -41 -1 -11 -13 -34 -25
-51 -27 -39 -28 -52 -2 -28 18 16 20 16 20 2 0 -10 5 -17 12 -17 6 0 8 3 5 6
-3 4 -2 15 4 25 8 15 6 19 -8 19 -15 0 -15 2 -4 9 20 13 44 -18 29 -37 -6 -7
-8 -15 -4 -19 3 -4 12 2 20 12 12 17 11 22 -3 42 -9 12 -20 23 -26 23 -15 0
45 30 61 30 8 0 14 -6 14 -14 0 -8 14 -21 30 -30 25 -12 30 -12 30 -1 0 8 -10
15 -22 18 -23 4 -23 4 2 15 l25 12 -27 -3 c-31 -5 -35 1 -13 17 13 10 13 13
-4 23 -15 9 -22 10 -27 1z m-44 -38 c0 -5 -4 -10 -10 -10 -5 0 -10 5 -10 10 0
6 5 10 10 10 6 0 10 -4 10 -10z"/>
<path d="M584 131 c1 -17 26 -28 26 -11 0 6 -4 9 -9 5 -5 -3 -11 0 -14 7 -2 9
-4 8 -3 -1z"/>
<path d="M485 120 c3 -5 8 -10 11 -10 2 0 4 5 4 10 0 6 -5 10 -11 10 -5 0 -7
-4 -4 -10z"/>
<path d="M1567 68 c-4 -16 -14 -28 -23 -28 -8 0 -12 -4 -9 -10 3 -5 1 -10 -5
-10 -6 0 -8 -5 -5 -10 10 -16 25 -12 25 6 0 11 5 14 18 9 9 -4 33 -9 52 -11
l35 -4 -37 18 c-26 12 -38 24 -40 42 l-3 25 -8 -27z"/>
<path d="M737 46 c-3 -8 1 -22 9 -33 14 -17 14 -17 29 2 14 18 14 21 -2 32
-22 17 -30 16 -36 -1z m33 -22 c0 -8 -5 -14 -11 -14 -5 0 -7 5 -4 10 3 6 1 10
-5 10 -6 0 -8 5 -5 10 8 13 25 3 25 -16z"/>
<path d="M940 19 c0 -6 9 -9 20 -6 10 3 21 0 24 -7 2 -6 5 -3 5 7 1 12 -7 17
-24 17 -14 0 -25 -5 -25 -11z"/>
</g>
</svg>
