<?xml version="1.0" standalone="no"?>
<!DOCTYPE svg PUBLIC "-//W3C//DTD SVG 20010904//EN"
 "http://www.w3.org/TR/2001/REC-SVG-20010904/DTD/svg10.dtd">
<svg version="1.0" xmlns="http://www.w3.org/2000/svg"
 width="300.000000pt" height="169.000000pt" viewBox="0 0 300.000000 169.000000"
 preserveAspectRatio="xMidYMid meet">
<metadata>
Created by potrace 1.10, written by Peter Selinger 2001-2011
</metadata>
<g transform="translate(0.000000,169.000000) scale(0.100000,-0.100000)"
fill="#000000" stroke="none">
<path d="M42 1679 c9 -5 15 -15 12 -22 -2 -7 2 -21 11 -32 14 -19 14 -18 4 10
-6 17 -10 31 -10 33 4 14 -2 22 -16 22 -17 -1 -17 -1 -1 -11z"/>
<path d="M100 1676 c0 -8 5 -18 10 -21 6 -3 10 3 10 14 0 12 -4 21 -10 21 -5
0 -10 -6 -10 -14z"/>
<path d="M430 1680 c0 -8 5 -22 10 -30 9 -13 10 -13 10 0 0 8 -5 22 -10 30 -9
13 -10 13 -10 0z"/>
<path d="M723 1658 c7 -18 15 -35 18 -38 12 -11 18 -40 7 -40 -7 0 -6 -5 2
-15 7 -9 10 -18 7 -22 -3 -3 0 -21 8 -40 8 -18 12 -40 9 -48 -3 -7 4 -22 15
-31 15 -13 18 -21 9 -31 -7 -9 -7 -17 1 -27 9 -11 9 -15 -1 -19 -7 -3 -4 -6 7
-6 12 -1 16 -4 9 -9 -8 -5 -6 -27 9 -77 12 -38 25 -71 29 -73 4 -2 8 -8 8 -12
0 -5 9 -34 21 -65 15 -40 25 -55 40 -55 10 0 19 5 19 11 0 5 -4 7 -10 4 -5 -3
-10 0 -10 9 0 8 -3 16 -8 18 -10 4 -59 135 -67 178 -3 19 -7 42 -9 50 -5 32
-18 60 -27 60 -6 0 -7 5 -4 10 4 6 11 8 16 5 12 -8 11 -3 -6 36 -8 19 -14 28
-15 21 0 -7 -5 -10 -10 -7 -8 5 -8 11 0 20 15 19 8 67 -12 86 -20 18 -24 34
-7 23 7 -4 10 -3 7 2 -10 22 -36 81 -41 97 -4 9 -11 17 -16 17 -5 0 -4 -14 2
-32z"/>
<path d="M926 1675 c4 -8 8 -15 10 -15 2 0 4 7 4 15 0 8 -4 15 -10 15 -5 0 -7
-7 -4 -15z"/>
<path d="M1008 1668 c6 -27 33 -70 39 -65 6 7 -28 87 -37 87 -5 0 -6 -10 -2
-22z"/>
<path d="M1100 1685 c0 -5 5 -17 10 -25 5 -8 10 -10 10 -5 0 6 -5 17 -10 25
-5 8 -10 11 -10 5z"/>
<path d="M1147 1678 c6 -7 9 -31 8 -53 l-1 -40 22 20 c20 18 21 20 5 31 -9 7
-17 17 -17 23 -1 6 -2 16 -3 21 0 6 -6 10 -12 10 -8 0 -8 -4 -2 -12z"/>
<path d="M1768 1683 c7 -3 16 -2 19 1 4 3 -2 6 -13 5 -11 0 -14 -3 -6 -6z"/>
<path d="M2287 1618 c-45 -93 -48 -106 -49 -176 -1 -61 35 -194 58 -213 8 -6
14 -17 14 -23 0 -6 11 -23 24 -38 14 -14 22 -29 19 -32 -4 -3 1 -6 10 -6 9 0
17 -4 17 -9 0 -5 14 -14 31 -20 17 -6 28 -14 26 -18 -3 -5 8 -8 23 -9 28 -1
60 -24 60 -42 0 -5 8 -12 18 -15 9 -3 31 -15 47 -26 26 -17 32 -18 49 -6 10 8
20 22 21 32 1 10 7 31 13 46 7 16 10 33 7 37 -3 5 1 12 8 17 24 14 26 59 5 72
-12 7 -17 19 -14 27 3 9 -5 25 -18 39 -17 17 -21 26 -12 35 6 6 -15 0 -47 -14
-32 -15 -63 -26 -70 -26 -19 0 -48 23 -50 40 -2 8 -6 21 -10 28 -5 6 -5 12 -2
12 4 0 -3 16 -15 35 -20 32 -20 38 -8 53 8 9 22 43 32 75 11 36 21 55 28 51 7
-4 8 -2 4 5 -10 16 34 81 54 80 10 0 11 -2 2 -6 -6 -2 -9 -10 -5 -16 4 -7 9
-32 10 -57 4 -91 16 -108 77 -105 54 1 76 18 77 59 0 17 4 40 8 51 5 11 2 30
-6 45 -15 28 -17 50 -5 50 4 0 8 9 9 20 2 26 -13 26 -27 -1 -8 -13 -9 -50 -4
-109 l6 -88 -51 -3 c-61 -5 -60 -8 -64 126 l-2 90 -51 -50 c-33 -33 -57 -68
-68 -100 -10 -28 -28 -74 -42 -102 l-24 -53 21 -11 c14 -7 19 -17 16 -30 -3
-12 0 -22 8 -25 7 -3 11 -13 8 -23 -6 -22 40 -61 72 -61 12 0 38 7 57 15 31
12 38 12 56 -1 29 -20 28 -32 -4 -40 -29 -7 -21 -21 16 -26 17 -2 26 -10 28
-25 3 -18 -3 -24 -30 -31 -31 -8 -31 -9 -10 -16 27 -9 29 -32 2 -48 -13 -9
-18 -19 -14 -35 9 -35 -30 -30 -57 8 -13 19 -50 44 -95 65 -108 52 -176 138
-204 256 -23 101 -6 189 56 285 30 47 32 53 15 53 -14 0 -29 -20 -54 -72z"/>
<path d="M2767 1663 c10 -16 21 -31 26 -34 5 -3 9 -9 8 -12 0 -4 6 -22 14 -41
8 -20 15 -42 15 -50 0 -8 4 -17 9 -20 4 -3 11 -20 15 -37 3 -17 15 -44 27 -60
l21 -30 -41 -38 c-22 -21 -42 -33 -44 -27 -3 6 -4 -10 -3 -36 1 -27 -2 -48 -6
-48 -5 0 3 -17 16 -39 l25 -39 -30 -28 c-34 -32 -40 -57 -6 -27 33 30 84 52
138 59 38 5 49 11 49 25 0 17 -3 17 -67 -1 -38 -10 -72 -15 -76 -11 -5 5 -12
24 -16 43 -11 49 7 99 46 123 41 26 44 43 17 80 -12 17 -38 75 -59 130 -33 92
-66 145 -87 145 -5 0 -1 -12 9 -27z"/>
<path d="M2894 1668 c21 -30 20 -38 -5 -38 -15 0 -19 -5 -15 -15 3 -8 1 -15
-4 -15 -6 0 -10 5 -10 10 0 6 -4 10 -10 10 -12 0 -13 -37 -1 -44 5 -3 25 1 44
9 l36 15 20 -56 c12 -30 21 -59 21 -63 0 -5 7 -14 15 -21 13 -10 15 -9 15 8 0
12 -4 24 -10 27 -5 3 -10 16 -10 28 0 12 -9 36 -19 54 l-20 31 30 11 c35 12
40 36 5 27 -17 -4 -31 1 -50 19 -34 31 -52 33 -32 3z m51 -34 c13 -5 14 -8 3
-15 -21 -14 -38 -10 -32 6 7 17 7 17 29 9z"/>
<path d="M1530 1671 c0 -6 5 -13 10 -16 6 -3 10 1 10 9 0 9 -4 16 -10 16 -5 0
-10 -4 -10 -9z"/>
<path d="M761 1665 c1 -19 18 -51 18 -35 0 8 -4 22 -9 30 -5 8 -9 11 -9 5z"/>
<path d="M551 1644 c0 -11 3 -14 6 -6 3 7 2 16 -1 19 -3 4 -6 -2 -5 -13z"/>
<path d="M642 1640 c14 -22 24 -19 15 5 -4 8 -11 15 -17 15 -6 0 -6 -7 2 -20z"/>
<path d="M1260 1650 c0 -5 5 -10 10 -10 6 0 10 5 10 10 0 6 -4 10 -10 10 -5 0
-10 -4 -10 -10z"/>
<path d="M1298 1653 c7 -3 16 -2 19 1 4 3 -2 6 -13 5 -11 0 -14 -3 -6 -6z"/>
<path d="M1770 1650 c19 -13 30 -13 30 0 0 6 -10 10 -22 10 -19 0 -20 -2 -8
-10z"/>
<path d="M1340 1636 c0 -2 7 -6 15 -10 8 -3 15 -1 15 4 0 6 -7 10 -15 10 -8 0
-15 -2 -15 -4z"/>
<path d="M451 1614 c0 -11 3 -14 6 -6 3 7 2 16 -1 19 -3 4 -6 -2 -5 -13z"/>
<path d="M2155 1620 c3 -5 8 -10 11 -10 2 0 4 5 4 10 0 6 -5 10 -11 10 -5 0
-7 -4 -4 -10z"/>
<path d="M1260 1610 c-8 -5 -10 -10 -5 -10 6 0 17 5 25 10 8 5 11 10 5 10 -5
0 -17 -5 -25 -10z"/>
<path d="M1490 1595 c7 -8 16 -12 21 -10 4 3 12 -2 17 -11 6 -11 12 -13 16 -6
7 12 -28 35 -38 25 -3 -3 -6 -1 -6 5 0 7 -5 12 -11 12 -8 0 -8 -5 1 -15z"/>
<path d="M801 1584 c0 -11 3 -14 6 -6 3 7 2 16 -1 19 -3 4 -6 -2 -5 -13z"/>
<path d="M978 1565 c9 -13 20 -21 25 -18 13 8 7 18 -18 29 -24 12 -24 12 -7
-11z"/>
<path d="M1122 1574 c10 -10 20 -16 22 -13 3 3 -5 11 -17 18 -21 13 -21 12 -5
-5z"/>
<path d="M1795 1580 c3 -5 8 -10 11 -10 2 0 4 5 4 10 0 6 -5 10 -11 10 -5 0
-7 -4 -4 -10z"/>
<path d="M124 1569 c-3 -6 -1 -16 4 -21 8 -8 11 -5 9 11 -1 24 -3 25 -13 10z"/>
<path d="M1043 1564 c-3 -8 -1 -20 5 -26 7 -7 10 -2 9 16 -2 30 -5 32 -14 10z"/>
<path d="M663 1533 c14 -48 12 -47 34 -34 17 10 17 10 -1 11 -12 0 -16 5 -12
16 3 8 2 12 -4 9 -6 -3 -10 1 -10 9 0 8 -4 17 -9 20 -5 4 -4 -11 2 -31z"/>
<path d="M905 1560 c-3 -5 1 -10 10 -10 9 0 13 5 10 10 -3 6 -8 10 -10 10 -2
0 -7 -4 -10 -10z"/>
<path d="M573 1533 c2 -16 15 -57 27 -93 41 -118 41 -116 43 -157 2 -17 11
-41 21 -52 10 -11 15 -24 12 -30 -8 -12 10 -61 23 -61 11 0 -13 95 -28 114 -6
7 -7 17 -3 21 4 5 1 4 -7 0 -10 -6 -13 -4 -9 6 3 8 9 22 13 32 4 9 3 17 -3 17
-6 0 -13 18 -17 40 -4 22 -10 40 -14 40 -4 0 -8 6 -9 13 -1 25 -11 56 -27 86
-9 18 -13 36 -10 41 3 6 1 10 -6 10 -7 0 -9 -10 -6 -27z"/>
<path d="M1560 1555 c0 -2 15 -12 33 -20 l32 -16 -25 20 c-24 20 -40 26 -40
16z"/>
<path d="M1147 1535 c3 -8 9 -12 14 -9 12 7 11 11 -5 17 -10 4 -13 1 -9 -8z"/>
<path d="M827 1533 c-3 -4 6 -22 19 -38 29 -36 31 -28 5 16 -10 17 -21 27 -24
22z"/>
<path d="M1005 1531 c-3 -5 -1 -12 5 -16 5 -3 10 1 10 9 0 18 -6 21 -15 7z"/>
<path d="M477 1511 c3 -11 11 -22 19 -25 11 -4 12 -2 4 14 -14 27 -29 34 -23
11z"/>
<path d="M1895 1493 c22 -22 43 -36 46 -31 3 5 27 10 53 10 25 0 44 4 40 9 -7
12 -61 12 -84 -1 -15 -8 -27 -4 -57 21 l-38 32 40 -40z"/>
<path d="M132 1498 c7 -13 11 -26 10 -30 -1 -3 5 -12 14 -18 12 -11 13 -10 7
6 -6 17 -5 17 10 5 9 -7 17 -9 17 -4 0 5 -11 16 -25 23 -14 7 -25 19 -25 27 0
7 -5 13 -10 13 -7 0 -6 -8 2 -22z"/>
<path d="M1215 1510 c4 -6 11 -8 16 -5 5 4 9 1 9 -4 0 -6 6 -11 13 -11 6 0 25
-7 41 -15 16 -9 30 -14 32 -12 5 5 -93 57 -107 57 -5 0 -7 -5 -4 -10z"/>
<path d="M1136 1486 c4 -11 6 -49 5 -83 -2 -73 7 -78 59 -32 43 38 86 56 153
66 63 9 50 9 172 -2 89 -8 150 -10 188 -6 7 0 13 10 14 21 2 17 -1 18 -18 9
-11 -6 -27 -8 -34 -5 -8 3 -17 1 -20 -4 -4 -6 -21 -9 -38 -9 l-32 2 35 6 c32
6 29 7 -30 15 -36 4 -92 10 -125 12 -33 3 -73 10 -88 16 -21 8 -31 8 -40 -1
-8 -8 -4 -11 15 -11 15 0 30 -5 34 -12 5 -8 0 -9 -14 -6 -12 4 -20 3 -18 -1 3
-4 -28 -15 -67 -25 -53 -14 -79 -27 -101 -50 -16 -17 -26 -25 -22 -18 4 6 4
18 0 24 -12 19 -11 107 1 112 6 2 0 3 -12 3 -18 -1 -22 -5 -17 -21z"/>
<path d="M86 1493 c6 -4 14 -15 17 -23 5 -11 6 -9 4 4 -1 11 -9 21 -17 23 -10
3 -11 2 -4 -4z"/>
<path d="M950 1480 c0 -8 5 -22 10 -30 9 -13 10 -13 10 0 0 8 -5 22 -10 30 -9
13 -10 13 -10 0z"/>
<path d="M1020 1476 c0 -8 5 -18 10 -21 6 -3 10 1 10 9 0 8 -4 18 -10 21 -5 3
-10 -1 -10 -9z"/>
<path d="M480 1471 c0 -6 4 -13 10 -16 6 -3 7 1 4 9 -7 18 -14 21 -14 7z"/>
<path d="M845 1449 c16 -19 34 -38 39 -44 5 -5 1 4 -9 21 -9 17 -27 36 -39 44
-16 9 -13 4 9 -21z"/>
<path d="M671 1457 c2 -1 13 -9 24 -17 19 -14 19 -14 6 3 -7 9 -18 17 -24 17
-6 0 -8 -1 -6 -3z"/>
<path d="M1780 1456 c0 -2 8 -10 18 -17 15 -13 16 -12 3 4 -13 16 -21 21 -21
13z"/>
<path d="M1949 1443 c-13 -16 -12 -17 4 -4 9 7 17 15 17 17 0 8 -8 3 -21 -13z"/>
<path d="M328 1443 c7 -3 16 -2 19 1 4 3 -2 6 -13 5 -11 0 -14 -3 -6 -6z"/>
<path d="M441 1445 c1 -19 18 -51 18 -35 0 8 -4 22 -9 30 -5 8 -9 11 -9 5z"/>
<path d="M1225 1440 c-3 -6 1 -7 9 -4 18 7 21 14 7 14 -6 0 -13 -4 -16 -10z"/>
<path d="M1820 1440 c0 -5 5 -10 10 -10 6 0 10 5 10 10 0 6 -4 10 -10 10 -5 0
-10 -4 -10 -10z"/>
<path d="M495 1430 c3 -5 8 -10 11 -10 2 0 4 5 4 10 0 6 -5 10 -11 10 -5 0 -7
-4 -4 -10z"/>
<path d="M40 1423 c27 -2 51 -11 59 -21 13 -16 13 -16 7 1 -3 10 -6 21 -6 23
0 2 -24 3 -52 2 l-53 -1 45 -4z"/>
<path d="M123 1418 c9 -7 23 -22 31 -33 14 -19 15 -19 9 5 -7 27 -20 40 -42
40 -12 0 -11 -3 2 -12z"/>
<path d="M175 1420 c3 -5 8 -10 11 -10 2 0 4 5 4 10 0 6 -5 10 -11 10 -5 0 -7
-4 -4 -10z"/>
<path d="M930 1421 c0 -6 4 -13 10 -16 6 -3 7 1 4 9 -7 18 -14 21 -14 7z"/>
<path d="M1358 1416 c-27 -20 -22 -42 13 -56 22 -10 27 -16 19 -24 -8 -8 -14
-6 -21 7 -13 23 -29 22 -29 -3 0 -12 7 -20 18 -21 10 0 12 -3 5 -6 -9 -3 -10
-10 -3 -24 6 -10 8 -19 4 -19 -3 0 -1 -7 6 -15 15 -18 34 -20 23 -2 -13 21
-14 52 0 71 12 17 16 16 70 -10 32 -16 57 -35 57 -44 0 -9 3 -11 8 -4 8 12 42
15 42 3 0 -4 -8 -10 -17 -12 -16 -4 -16 -5 0 -6 11 -1 21 7 24 19 3 11 9 20
13 20 11 0 41 -80 35 -91 -4 -5 -23 -9 -43 -9 -20 0 -46 -7 -56 -15 -11 -8
-16 -15 -12 -15 4 0 -7 -13 -25 -29 -17 -16 -28 -34 -25 -40 10 -16 34 -2 38
22 2 12 14 27 26 33 17 8 20 13 10 17 -10 4 -10 6 2 7 8 1 23 3 33 5 11 2 16
-1 13 -8 -3 -7 -9 -20 -12 -29 -6 -17 -18 -23 -39 -18 -5 1 -2 -7 8 -18 22
-24 22 -24 -8 -56 -14 -15 -25 -35 -25 -44 0 -15 11 -16 112 -10 62 3 148 7
191 7 76 1 77 1 66 -20 -6 -12 -7 -19 -1 -15 5 3 13 -2 16 -11 5 -12 10 -13
17 -6 13 13 2 36 -12 27 -6 -3 -10 0 -8 7 5 39 -2 61 -16 55 -17 -6 -55 26
-55 47 0 8 -3 7 -10 -3 -8 -13 -11 -12 -23 4 -11 15 -16 16 -22 6 -6 -9 -4
-11 5 -5 10 6 12 4 7 -9 -4 -9 -3 -15 2 -12 5 3 21 -6 37 -19 l29 -25 -75 -2
c-106 -2 -102 -2 -135 5 -23 6 -27 5 -15 -3 12 -9 8 -11 -18 -7 -18 2 -35 0
-38 -5 -3 -5 -10 -6 -15 -2 -6 4 -4 14 5 28 8 13 20 42 26 66 6 24 25 54 42
70 27 25 30 32 24 65 -5 23 -3 42 5 51 16 19 0 18 -23 -3 -10 -9 -18 -11 -18
-6 0 6 7 16 15 23 8 7 12 16 9 21 -3 5 -1 9 4 9 16 0 22 29 12 55 -14 36 -31
31 -23 -6 4 -24 2 -34 -10 -41 -10 -5 -17 -15 -17 -22 0 -14 -21 -26 -43 -26
-7 0 -6 4 3 10 11 7 11 10 2 10 -7 0 -10 5 -7 10 3 6 15 10 26 10 10 0 19 4
19 9 0 11 -36 21 -75 20 l-30 0 25 -12 c14 -6 26 -12 28 -13 1 0 0 -8 -4 -17
-6 -17 -10 -17 -101 20 -35 15 -63 30 -63 34 0 5 9 13 21 20 15 8 18 14 10 22
-12 12 -44 -9 -36 -23 3 -5 1 -11 -4 -14 -19 -12 -23 16 -5 35 20 22 17 24 -8
5z m52 -10 c0 -2 -7 -7 -16 -10 -8 -3 -12 -2 -9 4 6 10 25 14 25 6z"/>
<path d="M2608 1423 c7 -3 16 -2 19 1 4 3 -2 6 -13 5 -11 0 -14 -3 -6 -6z"/>
<path d="M1956 1400 c14 -51 44 -99 76 -121 l33 -22 -26 29 c-15 16 -41 54
-59 84 -17 30 -28 44 -24 30z"/>
<path d="M680 1400 c0 -5 5 -10 11 -10 5 0 7 5 4 10 -3 6 -8 10 -11 10 -2 0
-4 -4 -4 -10z"/>
<path d="M1064 1389 c-19 -22 -19 -22 4 -8 12 8 22 17 22 21 0 12 -6 9 -26
-13z"/>
<path d="M1295 1400 c27 -12 35 -12 35 0 0 6 -12 10 -27 9 -25 0 -26 -1 -8 -9z"/>
<path d="M505 1390 c3 -5 8 -10 11 -10 2 0 4 5 4 10 0 6 -5 10 -11 10 -5 0 -7
-4 -4 -10z"/>
<path d="M964 1388 c-4 -7 -3 -8 4 -4 8 4 12 0 12 -11 0 -15 2 -15 9 -3 10 15
6 30 -9 30 -5 0 -12 -5 -16 -12z"/>
<path d="M185 1371 c-3 -5 -1 -12 5 -16 5 -3 10 1 10 9 0 18 -6 21 -15 7z"/>
<path d="M490 1351 c36 -30 53 -33 30 -6 -7 8 -19 15 -26 15 -8 0 -14 5 -14
10 0 6 -6 10 -12 10 -7 0 3 -14 22 -29z"/>
<path d="M880 1365 c7 -8 19 -15 27 -15 13 0 13 3 3 15 -7 8 -19 15 -27 15
-13 0 -13 -3 -3 -15z"/>
<path d="M2010 1372 c0 -12 119 -116 126 -110 2 3 -25 31 -61 62 -36 32 -65
53 -65 48z"/>
<path d="M2058 1373 c7 -3 16 -2 19 1 4 3 -2 6 -13 5 -11 0 -14 -3 -6 -6z"/>
<path d="M20 1361 c0 -5 5 -13 10 -16 6 -3 10 -2 10 4 0 5 -4 13 -10 16 -5 3
-10 2 -10 -4z"/>
<path d="M555 1360 c3 -5 8 -10 11 -10 2 0 4 5 4 10 0 6 -5 10 -11 10 -5 0 -7
-4 -4 -10z"/>
<path d="M953 1347 c22 -21 32 -25 45 -17 16 9 16 9 -1 10 -10 0 -30 8 -45 17
l-27 17 28 -27z"/>
<path d="M276 1347 c3 -10 9 -15 12 -12 3 3 0 11 -7 18 -10 9 -11 8 -5 -6z"/>
<path d="M430 1351 c0 -6 5 -13 10 -16 6 -3 10 1 10 9 0 9 -4 16 -10 16 -5 0
-10 -4 -10 -9z"/>
<path d="M1252 1348 c-17 -17 -15 -28 6 -44 26 -20 37 -16 12 4 l-23 19 24 16
c16 12 18 17 8 17 -8 0 -20 -5 -27 -12z"/>
<path d="M140 1344 c0 -1 8 -8 17 -15 9 -8 14 -9 10 -2 -4 6 -1 13 5 16 7 3 3
4 -9 4 -13 -1 -23 -2 -23 -3z"/>
<path d="M348 1343 c7 -3 16 -2 19 1 4 3 -2 6 -13 5 -11 0 -14 -3 -6 -6z"/>
<path d="M730 1340 c0 -5 5 -10 11 -10 5 0 7 5 4 10 -3 6 -8 10 -11 10 -2 0
-4 -4 -4 -10z"/>
<path d="M1780 1339 c0 -5 5 -7 10 -4 6 3 10 8 10 11 0 2 -4 4 -10 4 -5 0 -10
-5 -10 -11z"/>
<path d="M460 1334 c0 -4 16 -24 35 -45 22 -25 35 -33 35 -23 0 9 5 12 12 8 7
-4 8 -3 4 5 -4 6 -12 9 -17 6 -5 -4 -9 -2 -9 3 0 4 -13 18 -30 30 -16 13 -30
20 -30 16z"/>
<path d="M549 1331 c7 -5 14 -23 15 -40 1 -18 6 -35 11 -39 6 -4 16 -19 24
-34 8 -16 18 -28 22 -28 9 0 -28 67 -42 76 -5 3 -7 10 -3 15 11 18 -6 59 -24
59 -13 0 -14 -2 -3 -9z"/>
<path d="M900 1335 c0 -6 4 -15 9 -20 5 -6 21 -55 34 -110 32 -127 44 -158 58
-149 6 3 7 9 3 13 -5 3 -11 17 -13 31 -1 14 -10 38 -17 53 -8 15 -12 32 -9 37
3 5 -1 23 -10 39 -8 17 -15 38 -15 48 0 19 -39 76 -40 58z"/>
<path d="M1186 1327 c3 -10 9 -15 12 -12 3 3 0 11 -7 18 -10 9 -11 8 -5 -6z"/>
<path d="M1488 1333 c7 -3 16 -2 19 1 4 3 -2 6 -13 5 -11 0 -14 -3 -6 -6z"/>
<path d="M2980 1321 c-14 -27 -12 -62 4 -84 12 -16 14 -11 14 42 0 34 -2 61
-4 61 -2 0 -8 -9 -14 -19z"/>
<path d="M1158 1270 c-3 -36 -9 -75 -13 -88 -5 -14 -4 -22 2 -20 6 2 24 -8 39
-22 16 -14 55 -42 87 -63 64 -42 83 -73 61 -98 -8 -8 -14 -24 -14 -33 0 -26
-22 -15 -95 47 -79 66 -109 108 -100 139 l7 23 -18 -24 c-12 -17 -14 -26 -6
-29 7 -2 12 -8 12 -13 0 -15 152 -159 202 -191 31 -21 58 -23 58 -6 0 23 11 0
15 -34 2 -18 11 -58 19 -88 13 -51 12 -57 -5 -86 -14 -23 -19 -55 -22 -127 -2
-54 -1 -97 1 -97 3 0 13 10 24 22 17 20 18 32 13 94 -12 118 30 170 130 162
43 -4 52 -2 44 8 -6 7 -16 11 -24 8 -7 -3 -16 0 -21 7 -4 8 -3 10 4 5 23 -14
11 14 -19 46 l-31 33 7 -30 c4 -16 10 -31 15 -33 20 -7 -4 -32 -31 -32 -28 0
-29 2 -18 23 l11 22 -21 -23 c-12 -12 -26 -22 -30 -22 -8 0 -22 37 -26 70 -1
8 -5 32 -9 53 -8 43 -2 46 32 15 17 -16 26 -19 29 -10 7 17 28 15 44 -5 10
-11 10 -14 2 -9 -7 4 -13 2 -13 -3 0 -6 5 -11 12 -11 6 0 23 -10 36 -22 14
-13 22 -17 18 -10 -15 25 -13 71 3 77 36 14 133 16 149 3 10 -8 13 -8 9 -1 -4
6 -1 14 5 17 7 3 -39 5 -102 4 -63 0 -118 0 -123 1 -4 0 0 12 9 26 11 16 12
25 5 25 -7 0 -17 -13 -22 -30 -13 -35 -47 -50 -64 -26 -16 21 -31 20 -57 -4
-21 -20 -21 -20 -36 1 -12 18 -12 23 5 42 10 12 21 24 25 27 20 15 1 54 -42
83 -113 77 -160 118 -160 142 0 12 7 26 16 29 8 3 13 2 10 -3 -3 -4 0 -16 7
-26 12 -15 13 -12 9 19 -4 31 -6 34 -23 25 -16 -8 -19 -6 -19 9 0 26 11 34 27
20 11 -8 12 -7 7 6 -4 10 -12 15 -20 12 -8 -3 -14 4 -16 17 -2 12 -7 -7 -10
-43z m382 -379 c0 -5 3 -18 6 -28 5 -16 4 -16 -10 1 -18 23 -20 36 -6 36 6 0
10 -4 10 -9z"/>
<path d="M83 1304 c-8 -8 -9 -15 -3 -19 6 -3 10 0 11 7 0 7 4 4 9 -7 6 -13 9
-15 9 -5 1 27 -13 39 -26 24z"/>
<path d="M180 1310 c0 -6 5 -10 11 -10 6 0 9 -7 6 -15 -4 -8 -3 -16 1 -19 4
-2 9 6 10 19 1 13 -5 26 -13 29 -8 3 -15 1 -15 -4z"/>
<path d="M280 1316 c0 -2 8 -10 18 -17 15 -13 16 -12 3 4 -13 16 -21 21 -21
13z"/>
<path d="M863 1302 c1 -14 5 -18 11 -12 7 7 6 14 -1 21 -9 9 -12 7 -10 -9z"/>
<path d="M50 1280 c0 -5 5 -10 11 -10 5 0 7 5 4 10 -3 6 -8 10 -11 10 -2 0 -4
-4 -4 -10z"/>
<path d="M426 1273 c-6 -14 -5 -15 5 -6 7 7 10 15 7 18 -3 3 -9 -2 -12 -12z"/>
<path d="M460 1282 c0 -9 38 -52 46 -52 3 0 -3 14 -13 30 -16 29 -33 39 -33
22z"/>
<path d="M720 1270 c6 -11 13 -20 16 -20 2 0 0 9 -6 20 -6 11 -13 20 -16 20
-2 0 0 -9 6 -20z"/>
<path d="M770 1286 c0 -2 8 -10 18 -17 15 -13 16 -12 3 4 -13 16 -21 21 -21
13z"/>
<path d="M990 1278 c0 -4 4 -8 9 -8 6 0 12 4 15 8 3 5 -1 9 -9 9 -8 0 -15 -4
-15 -9z"/>
<path d="M1945 1280 c-3 -6 -3 -19 0 -30 5 -15 3 -18 -9 -14 -9 3 -16 12 -16
20 0 16 -16 19 -25 4 -3 -5 -1 -10 6 -10 7 0 4 -7 -7 -15 -14 -11 -15 -14 -4
-15 36 0 -39 -36 -84 -39 -5 -1 -6 -4 -3 -8 4 -3 0 -14 -9 -24 -16 -18 -13
-49 4 -49 5 0 15 13 22 30 12 29 66 66 72 50 2 -5 10 -10 18 -12 8 -2 20 -9
25 -16 9 -11 14 -11 25 3 16 19 3 50 -20 50 -7 0 -15 6 -18 13 -3 11 0 12 16
3 28 -15 28 -15 28 16 -1 14 5 28 12 31 7 2 12 0 10 -5 -1 -4 2 -28 6 -53 5
-25 8 -52 7 -60 -2 -8 0 -12 5 -8 4 4 13 0 21 -10 10 -12 16 -14 19 -4 3 6 15
12 26 12 15 0 18 5 13 21 -13 40 44 76 73 47 18 -18 15 -65 -5 -77 -12 -7 -14
-10 -4 -11 11 0 11 -3 1 -15 -19 -23 -43 -19 -37 6 5 17 1 20 -21 17 -21 -2
-27 -8 -26 -25 0 -13 -3 -23 -8 -23 -4 0 -8 4 -8 10 0 5 -9 14 -19 20 -15 7
-19 7 -17 -4 4 -28 27 -46 46 -36 31 17 49 12 43 -11 -4 -14 -12 -19 -24 -16
-21 6 -25 -3 -8 -20 7 -7 7 -13 1 -17 -5 -3 -22 10 -36 29 -15 19 -34 35 -42
35 -7 0 -14 5 -14 10 0 6 -11 8 -25 4 -15 -4 -25 -2 -25 5 0 6 -7 11 -16 11
-9 0 -14 -6 -11 -13 3 -8 -1 -14 -9 -14 -8 0 -14 4 -14 9 0 5 -4 7 -9 4 -16
-10 -20 21 -6 48 14 27 8 35 -13 14 -17 -17 -15 -73 2 -87 16 -13 39 -15 76
-6 19 5 39 -3 83 -31 31 -21 57 -44 57 -52 0 -7 3 -11 8 -9 14 9 52 -12 52
-29 0 -19 37 -74 51 -74 10 0 13 163 3 173 -4 4 -16 -12 -27 -34 l-20 -40 -23
22 c-24 22 -24 23 -6 53 18 31 62 49 62 25 0 -7 3 -9 7 -6 3 4 -2 16 -12 27
-16 17 -16 20 -2 20 29 0 51 -92 44 -188 l-6 -86 50 -68 c49 -65 78 -94 46
-45 -14 22 -13 27 15 78 36 63 48 73 67 55 17 -17 7 -86 -13 -86 -7 0 -22 -18
-35 -40 l-22 -40 41 -54 c29 -38 46 -53 59 -49 26 7 47 -22 31 -42 -18 -22
-60 -20 -60 3 0 11 -8 28 -17 40 -10 12 -52 69 -92 126 -41 58 -76 104 -77
103 -2 -1 -5 -15 -8 -29 -3 -18 0 -27 7 -25 16 3 20 -41 9 -102 -5 -28 -8 -51
-7 -51 2 0 15 20 29 45 30 51 36 53 54 25 11 -18 9 -27 -15 -68 -15 -26 -30
-49 -33 -52 -9 -8 -31 -62 -27 -66 9 -9 116 -24 171 -24 46 1 57 3 44 11 -29
17 -22 39 11 35 35 -4 51 -13 51 -30 0 -7 14 -32 31 -55 16 -23 34 -52 39 -64
6 -15 9 -17 9 -6 1 9 -10 33 -24 53 -30 45 -30 48 -5 64 20 12 27 56 12 78 -4
6 -33 19 -65 29 -110 34 -132 75 -81 151 58 87 219 225 244 209 24 -15 -3
-125 -30 -125 -6 0 -10 -4 -10 -8 0 -5 21 -14 48 -20 64 -17 82 -29 63 -41 -9
-6 -23 -6 -35 0 -21 10 -21 10 -2 -5 16 -13 17 -19 8 -28 -7 -7 -12 -20 -12
-30 0 -13 -8 -18 -29 -18 -17 0 -33 -5 -36 -11 -4 -6 -1 -10 6 -8 34 4 40 0
29 -22 -7 -11 -9 -23 -6 -27 8 -7 6 -9 50 73 60 111 104 155 107 108 3 -60 -5
-113 -23 -143 l-20 -35 30 34 c17 18 45 60 62 92 17 33 35 59 41 59 5 0 9 10
9 23 1 24 22 57 37 57 11 0 76 90 70 96 -11 11 -39 -12 -53 -43 -14 -28 -21
-33 -43 -30 -14 2 -20 2 -13 0 7 -3 11 -10 8 -16 -3 -7 -9 -20 -12 -29 -4 -12
-17 -18 -35 -18 -17 0 -32 -6 -35 -15 -7 -18 -24 -20 -24 -2 0 7 -12 14 -27
15 -21 1 -24 -1 -13 -8 11 -7 12 -12 3 -21 -9 -9 -24 -8 -63 1 -41 10 -50 15
-44 29 4 9 12 30 18 46 7 19 17 30 29 29 11 -1 12 0 3 3 -8 2 -18 12 -21 22
-3 10 -16 23 -30 29 -21 10 -31 6 -77 -25 -29 -19 -69 -51 -89 -69 -19 -19
-39 -31 -44 -27 -4 5 -5 3 -1 -4 3 -6 1 -15 -5 -19 -13 -8 -31 16 -25 33 3 6
-12 18 -32 26 -35 14 -37 14 -44 -5 -4 -10 -15 -26 -23 -34 -8 -9 -15 -22 -15
-30 0 -8 -9 -14 -20 -14 -11 0 -20 7 -20 15 0 8 -4 15 -8 15 -5 0 -14 11 -20
24 -9 19 -8 27 4 37 10 8 11 15 4 24 -8 9 -8 15 0 20 13 8 4 82 -12 102 -6 7
-8 21 -6 31 3 10 0 23 -6 29 -29 32 -34 41 -25 54 18 28 10 78 -13 90 -29 16
-68 20 -68 8 0 -5 -6 -9 -13 -9 -21 0 -38 -45 -24 -60 9 -10 9 -11 0 -6 -6 3
-13 0 -16 -6 -3 -9 -8 -10 -15 -3 -7 7 -5 22 8 48 l19 38 -47 30 c-50 32 -58
34 -67 19z m-10 -90 c3 -5 -1 -10 -9 -10 -9 0 -16 5 -16 10 0 6 4 10 9 10 6 0
13 -4 16 -10z m-132 -55 c-3 -9 -8 -14 -10 -11 -3 3 -2 9 2 15 9 16 15 13 8
-4z m297 -150 c7 -8 8 -15 2 -15 -5 0 -15 7 -22 15 -7 8 -8 15 -2 15 5 0 15
-7 22 -15z m57 -67 c-3 -7 -5 -2 -5 12 0 14 2 19 5 13 2 -7 2 -19 0 -25z m703
-118 c0 -6 -9 -20 -20 -32 -18 -20 -20 -20 -26 -3 -5 12 -1 22 11 31 22 17 35
18 35 4z m-493 -83 c-6 -15 -16 -27 -20 -27 -5 0 -5 -5 -1 -12 4 -7 3 -8 -4
-4 -7 4 -4 18 10 42 23 40 34 41 15 1z m-52 -127 c-3 -4 7 -16 20 -26 14 -10
25 -26 25 -36 0 -9 6 -19 13 -21 19 -9 -14 -28 -38 -22 -11 2 -37 5 -57 5 -31
0 -38 4 -38 20 0 12 7 20 16 20 14 0 14 3 4 15 -11 14 -7 19 13 16 4 0 7 10 7
23 0 19 4 23 20 19 11 -3 18 -9 15 -13z m215 -71 c0 -9 -7 -22 -15 -29 -13
-11 -14 -10 -9 4 5 12 2 15 -10 10 -9 -3 -16 -1 -16 5 0 6 4 11 9 11 5 0 7 9
4 21 -5 19 -4 20 16 8 11 -8 21 -21 21 -30z"/>
<path d="M10 1271 c0 -20 53 -96 58 -82 2 6 9 8 14 5 7 -4 8 -2 4 5 -4 6 -12
9 -17 6 -5 -4 -9 2 -9 11 0 10 -3 14 -7 10 -4 -4 -15 8 -25 26 -9 18 -17 26
-18 19z"/>
<path d="M1105 1270 c3 -5 8 -10 11 -10 2 0 4 5 4 10 0 6 -5 10 -11 10 -5 0
-7 -4 -4 -10z"/>
<path d="M1250 1259 c28 -20 36 -23 44 -11 2 4 -12 13 -32 19 l-36 11 24 -19z"/>
<path d="M1328 1234 c3 -19 7 -22 18 -13 20 16 17 34 -4 36 -15 1 -18 -4 -14
-23z"/>
<path d="M96 1225 c19 -30 26 -28 17 3 -3 12 -12 22 -19 22 -12 0 -11 -5 2
-25z"/>
<path d="M446 1241 c-4 -6 -2 -11 3 -11 6 0 11 -6 11 -14 0 -8 5 -18 11 -22 8
-4 9 1 4 17 -10 32 -21 43 -29 30z"/>
<path d="M995 1240 c-3 -5 -1 -10 6 -10 6 0 23 -12 37 -27 23 -25 23 -27 6
-33 -12 -4 -14 -9 -6 -14 6 -3 9 -13 5 -21 -3 -8 0 -15 7 -15 6 0 8 -4 5 -10
-3 -5 -4 -10 -1 -10 3 0 10 10 17 21 6 12 7 19 1 15 -14 -8 -23 19 -10 32 7 7
4 18 -7 36 -22 33 -51 50 -60 36z"/>
<path d="M1122 1230 c0 -14 2 -19 5 -12 2 6 2 18 0 25 -3 6 -5 1 -5 -13z"/>
<path d="M733 1225 c0 -8 6 -16 14 -19 15 -6 15 -4 7 18 -8 20 -21 21 -21 1z"/>
<path d="M203 1215 c3 -24 47 -89 54 -81 3 3 -8 27 -26 53 -18 28 -30 40 -28
28z"/>
<path d="M525 1210 c9 -31 25 -50 25 -29 0 7 -8 23 -16 34 -16 19 -16 19 -9
-5z"/>
<path d="M1395 1220 c10 -17 -6 -34 -17 -19 -8 11 -9 10 -5 -3 3 -9 -1 -19 -9
-22 -28 -11 -37 -6 -23 10 12 15 11 16 -10 9 -16 -5 -21 -4 -17 4 4 6 0 11 -9
11 -21 0 -8 -24 38 -70 76 -76 107 -93 107 -59 0 6 -4 7 -10 4 -5 -3 -10 -2
-10 4 0 5 6 12 13 14 7 3 5 6 -5 6 -10 1 -18 6 -18 12 0 8 -6 7 -17 -2 -15
-12 -16 -12 -10 4 4 11 3 16 -3 12 -6 -3 -10 -1 -10 5 0 6 -4 8 -10 5 -5 -3
-10 1 -10 9 0 9 6 16 14 16 8 0 17 8 21 18 6 16 7 16 16 -1 6 -9 14 -15 20
-12 5 4 9 -6 9 -20 0 -15 4 -24 10 -20 6 4 7 11 4 17 -5 8 -1 9 11 4 15 -5 14
-2 -5 17 -14 13 -28 22 -31 20 -4 -1 -9 6 -12 17 -3 11 -10 20 -17 20 -6 0 -8
-4 -5 -10z"/>
<path d="M1526 1221 c-4 -7 -5 -15 -2 -18 9 -9 19 4 14 18 -4 11 -6 11 -12 0z"/>
<path d="M331 1211 c-8 -5 -9 -11 -3 -15 5 -3 12 1 16 9 6 17 6 18 -13 6z"/>
<path d="M1568 1203 c7 -3 16 -2 19 1 4 3 -2 6 -13 5 -11 0 -14 -3 -6 -6z"/>
<path d="M147 1185 c3 -8 9 -12 14 -9 12 7 11 11 -5 17 -10 4 -13 1 -9 -8z"/>
<path d="M897 1165 c9 -19 21 -35 26 -35 5 0 4 7 -3 15 -7 8 -9 15 -6 15 4 0
2 9 -4 20 -19 35 -30 21 -13 -15z"/>
<path d="M395 1170 c10 -11 20 -20 23 -20 3 0 -3 9 -13 20 -10 11 -20 20 -23
20 -3 0 3 -9 13 -20z"/>
<path d="M750 1183 c0 -6 8 -17 18 -24 16 -13 16 -13 2 6 -8 11 -16 22 -17 24
-2 2 -3 0 -3 -6z"/>
<path d="M810 1185 c0 -5 5 -17 10 -25 5 -8 10 -10 10 -5 0 6 -5 17 -10 25 -5
8 -10 11 -10 5z"/>
<path d="M107 1160 c3 -11 9 -20 15 -20 5 0 4 9 -2 20 -6 11 -12 20 -14 20 -2
0 -2 -9 1 -20z"/>
<path d="M460 1166 c0 -2 7 -7 16 -10 8 -3 12 -2 9 4 -6 10 -25 14 -25 6z"/>
<path d="M618 1163 c6 -2 12 -11 12 -19 0 -8 4 -14 9 -14 5 0 7 9 4 20 -3 11
-13 20 -22 19 -10 0 -11 -2 -3 -6z"/>
<path d="M80 1150 c0 -5 5 -10 11 -10 5 0 7 5 4 10 -3 6 -8 10 -11 10 -2 0 -4
-4 -4 -10z"/>
<path d="M1415 1150 c3 -5 8 -10 11 -10 2 0 4 5 4 10 0 6 -5 10 -11 10 -5 0
-7 -4 -4 -10z"/>
<path d="M2735 1150 c-3 -5 -1 -10 4 -10 6 0 11 5 11 10 0 6 -2 10 -4 10 -3 0
-8 -4 -11 -10z"/>
<path d="M160 1139 c0 -5 5 -7 10 -4 6 3 10 8 10 11 0 2 -4 4 -10 4 -5 0 -10
-5 -10 -11z"/>
<path d="M1970 1140 c-9 -6 -10 -10 -3 -10 6 0 15 5 18 10 8 12 4 12 -15 0z"/>
<path d="M550 1130 c0 -6 7 -10 15 -10 8 0 15 2 15 4 0 2 -7 6 -15 10 -8 3
-15 1 -15 -4z"/>
<path d="M825 1130 c3 -5 8 -10 11 -10 2 0 4 5 4 10 0 6 -5 10 -11 10 -5 0 -7
-4 -4 -10z"/>
<path d="M30 1119 c0 -5 5 -7 10 -4 6 3 10 8 10 11 0 2 -4 4 -10 4 -5 0 -10
-5 -10 -11z"/>
<path d="M105 1108 c3 -13 8 -35 9 -49 1 -14 6 -31 10 -37 4 -7 3 -12 -3 -12
-7 0 -7 -8 -1 -26 12 -31 13 -47 1 -40 -4 3 -23 1 -40 -4 -24 -7 -31 -6 -28 3
2 7 9 13 15 13 7 1 20 2 30 3 13 1 11 5 -10 18 -15 9 -29 26 -32 37 -7 25 2
35 14 16 7 -11 9 -9 7 8 0 12 -7 22 -13 22 -7 0 -15 10 -17 23 -2 12 -3 -2 -2
-31 1 -29 7 -58 13 -64 9 -9 8 -16 -5 -30 -9 -10 -22 -18 -29 -18 -7 0 -16 -5
-20 -11 -4 -8 15 -9 67 -5 41 3 132 8 204 11 317 12 425 18 425 23 0 3 -7 13
-16 23 -16 17 -49 16 -38 -2 3 -5 -5 -5 -18 0 -15 5 -30 4 -45 -6 -23 -15 -40
-3 -27 20 5 6 -7 0 -25 -15 -34 -29 -51 -35 -51 -18 0 10 -43 7 -74 -6 -13 -5
-17 -4 -13 3 5 8 -1 8 -22 0 -26 -10 -32 -8 -51 14 -20 23 -21 23 -10 1 18
-37 -11 -22 -40 21 -13 21 -26 33 -28 27 -2 -6 5 -22 17 -34 25 -27 26 -36 5
-36 -8 0 -12 5 -9 11 4 6 -2 5 -13 -2 -18 -11 -24 -10 -44 6 -18 16 -20 16 -9
2 16 -20 11 -30 -12 -21 -9 3 -21 22 -28 42 -6 21 -15 42 -20 48 -5 6 -6 14
-3 17 10 10 -6 77 -18 77 -6 0 -8 -9 -3 -22z"/>
<path d="M211 1113 c25 -32 39 -45 39 -36 0 14 -30 53 -42 53 -6 0 -5 -7 3
-17z"/>
<path d="M480 1107 c0 -22 16 -47 31 -47 11 0 3 34 -9 38 -6 2 -8 10 -5 18 3
8 0 14 -6 14 -6 0 -11 -10 -11 -23z"/>
<path d="M700 1111 c0 -5 7 -12 16 -15 14 -5 15 -4 4 9 -14 17 -20 19 -20 6z"/>
<path d="M286 1095 c4 -8 8 -15 10 -15 2 0 4 7 4 15 0 8 -4 15 -10 15 -5 0 -7
-7 -4 -15z"/>
<path d="M375 1100 c-3 -6 1 -7 9 -4 18 7 21 14 7 14 -6 0 -13 -4 -16 -10z"/>
<path d="M425 1070 c1 -17 6 -34 10 -38 5 -4 5 -1 1 6 -4 6 -3 12 2 12 6 0 8
9 5 20 -9 33 -21 32 -18 0z"/>
<path d="M166 1070 c4 -14 7 -31 7 -37 0 -7 4 -13 9 -13 5 0 7 -4 4 -8 -7 -11
34 -46 42 -36 4 4 1 9 -5 11 -7 3 -13 10 -13 16 0 7 -12 30 -26 52 -17 28 -23
33 -18 15z"/>
<path d="M699 1072 c7 -12 17 -20 22 -16 6 3 9 7 7 8 -2 1 -12 8 -22 16 -18
14 -19 14 -7 -8z"/>
<path d="M1490 1063 c-7 -11 -13 -14 -16 -7 -3 8 -15 7 -38 -4 -33 -15 -34
-16 -18 -40 l15 -24 15 28 c12 24 16 26 21 12 6 -16 8 -15 31 2 14 11 20 20
13 20 -7 0 -10 7 -7 15 8 21 -3 19 -16 -2z"/>
<path d="M347 1063 c-4 -3 -7 -13 -7 -22 1 -13 3 -13 11 2 11 19 8 33 -4 20z"/>
<path d="M665 1060 c-3 -5 -1 -10 4 -10 6 0 11 5 11 10 0 6 -2 10 -4 10 -3 0
-8 -4 -11 -10z"/>
<path d="M2790 1052 c0 -7 14 -26 31 -44 l31 -33 -28 40 c-16 22 -29 42 -31
44 -2 2 -3 -1 -3 -7z"/>
<path d="M2410 1032 c6 -13 14 -21 18 -18 3 4 -2 14 -12 24 -18 16 -18 16 -6
-6z"/>
<path d="M2719 1033 c-13 -16 -12 -17 4 -4 16 13 21 21 13 21 -2 0 -10 -8 -17
-17z"/>
<path d="M539 1031 c11 -7 11 -9 0 -14 -8 -3 -9 -6 -3 -6 6 -1 16 5 22 12 8
10 6 13 -11 14 -15 2 -18 0 -8 -6z"/>
<path d="M906 1023 c2 -10 -3 -27 -11 -37 -12 -16 -17 -17 -30 -6 -12 10 -15
10 -15 -4 0 -9 8 -16 20 -16 18 0 30 -19 13 -20 -135 -9 -800 -40 -855 -40
-16 0 -28 -5 -28 -10 0 -10 210 -7 335 5 28 2 129 7 225 11 96 3 203 9 238 13
34 4 62 6 62 4 0 -3 -5 -13 -10 -23 -8 -16 -7 -18 4 -14 8 3 17 12 20 20 3 9
11 12 18 8 7 -4 10 -4 6 1 -4 4 -2 15 5 23 9 12 9 16 0 19 -15 5 -6 16 45 52
37 26 37 40 1 20 -17 -9 -24 -9 -27 0 -6 18 -21 13 -16 -6z"/>
<path d="M1920 1033 c0 -7 9 -17 20 -23 14 -7 19 -17 15 -29 -3 -10 1 -24 10
-31 8 -7 12 -17 9 -22 -3 -5 -12 -1 -20 9 -9 12 -13 13 -14 5 0 -7 -5 -10 -12
-6 -7 4 -8 3 -4 -5 4 -6 12 -9 17 -6 10 7 11 5 14 -40 1 -16 -4 -37 -11 -45
-7 -8 -13 -18 -14 -22 -1 -4 -9 -26 -17 -48 -13 -33 -18 -38 -25 -25 -5 8 -13
13 -19 10 -5 -4 -9 0 -9 7 0 10 -2 10 -9 -1 -7 -11 -10 -9 -16 8 -4 13 -4 25
-1 28 3 4 6 0 6 -8 0 -11 2 -11 10 1 6 9 10 10 10 3 0 -7 9 -17 19 -22 16 -9
18 -8 14 12 -4 18 -3 19 6 7 13 -19 14 -1 1 20 -5 8 -10 10 -10 4 0 -6 -7 -11
-15 -11 -10 0 -14 6 -10 14 3 8 5 20 5 26 0 7 4 6 10 -3 9 -13 10 -13 10 0 1
9 6 5 16 -10 14 -23 14 -23 9 -3 -5 19 -3 22 11 16 13 -5 15 -3 9 7 -6 9 -4
11 6 5 8 -5 12 -6 9 -2 -3 3 -9 6 -15 8 -5 1 -15 9 -22 18 -10 14 -11 12 -7
-9 5 -22 4 -23 -6 -7 -6 9 -9 25 -6 35 3 9 1 24 -5 32 -8 12 -9 10 -4 -8 4
-15 2 -22 -5 -20 -7 2 -15 -4 -17 -12 -4 -13 -3 -13 6 0 10 13 11 13 11 0 0
-8 -5 -22 -10 -30 -9 -13 -10 -13 -10 0 0 13 -1 13 -10 0 -5 -8 -7 -26 -4 -40
4 -17 3 -21 -3 -12 -7 9 -13 6 -21 -13 -15 -32 -15 -38 -2 -30 13 8 13 -5 0
-25 -9 -13 -10 -13 -11 0 0 8 -13 -12 -29 -45 -32 -68 -39 -98 -10 -45 11 19
19 30 20 23 0 -16 -38 -103 -45 -103 -4 0 -3 5 0 10 3 6 2 10 -3 10 -8 0 -22
-22 -22 -35 0 -7 36 1 42 10 5 6 8 5 8 -2 0 -7 10 -13 21 -13 12 0 36 -14 54
-32 28 -27 32 -36 28 -69 -5 -35 -4 -37 26 -44 21 -4 37 -2 48 7 14 11 16 11
8 -1 -5 -10 -4 -12 4 -7 6 4 9 11 6 16 -6 9 23 35 31 27 3 -3 1 -15 -5 -26
-13 -24 -49 -36 -87 -28 l-26 5 4 -62 c3 -33 10 -73 16 -88 l11 -28 34 20 c54
32 71 57 72 103 0 23 -4 53 -9 67 -7 21 -6 23 5 12 16 -15 19 -106 5 -135 -8
-16 -2 -17 85 -15 l94 3 7 -55 c9 -65 10 -118 2 -144 -4 -13 -2 -17 7 -14 9 3
14 19 13 42 -1 25 3 36 13 36 11 0 13 -7 8 -27 -6 -23 -4 -25 10 -13 9 7 14
19 11 27 -3 7 0 13 7 13 13 0 81 83 83 101 1 5 2 12 3 15 2 9 31 -17 31 -27 0
-5 -7 -9 -16 -9 -12 0 -10 -7 10 -31 29 -34 33 -49 12 -49 -8 0 -16 -6 -19
-14 -11 -27 24 -10 56 29 20 25 27 40 19 43 -19 6 -14 22 8 22 16 0 20 7 20
30 0 29 -9 38 -23 23 -4 -3 -2 -12 4 -20 9 -10 8 -13 -5 -13 -11 0 -16 9 -16
26 0 22 4 25 28 22 21 -2 27 -8 26 -27 -1 -22 0 -23 12 -6 7 10 11 21 9 25 -5
9 25 23 32 16 3 -3 -23 -41 -57 -86 -34 -45 -60 -83 -58 -86 2 -2 31 32 63 76
32 44 63 80 68 80 8 0 -5 -20 -65 -100 -19 -24 -19 -24 1 -32 17 -6 21 -15 20
-50 l-2 -43 -6 39 c-8 55 -31 60 -31 7 0 -32 -4 -41 -17 -41 -13 0 -14 3 -5
12 7 7 12 26 12 43 l0 30 -29 -44 c-17 -25 -45 -56 -63 -70 -30 -24 -29 -22
11 27 24 28 42 55 39 58 -3 3 -22 -18 -43 -45 -20 -28 -43 -55 -52 -59 -10 -6
-4 -9 21 -10 20 -1 36 2 36 6 0 13 60 44 75 38 8 -3 17 -1 21 5 3 6 12 8 20 5
7 -3 18 3 24 12 9 14 10 12 4 -8 -4 -14 -9 -30 -11 -36 -2 -6 2 -14 10 -17 10
-4 13 0 10 12 -2 9 5 25 16 35 12 11 21 25 21 31 0 7 7 18 15 25 12 10 15 7
20 -13 4 -14 4 -35 0 -46 -5 -16 -1 -22 19 -27 14 -3 23 -10 20 -16 -4 -7 28
-6 54 1 1 1 -2 10 -8 20 -7 14 -6 21 3 24 9 4 9 6 0 6 -7 1 -13 6 -13 11 0 6
8 5 19 -2 11 -7 17 -16 15 -20 -7 -10 36 -47 54 -48 9 0 2 15 -16 38 -16 20
-37 52 -48 69 -10 18 -22 33 -27 33 -4 0 -5 -5 -1 -12 4 -7 3 -8 -5 -4 -6 4
-9 11 -6 16 3 5 -15 39 -40 76 -25 36 -45 64 -45 61 0 -3 20 -60 45 -127 25
-67 45 -125 45 -131 0 -5 -9 -4 -20 3 -14 9 -18 19 -13 37 4 17 2 22 -6 17 -6
-4 -11 -1 -11 9 0 8 -11 46 -23 83 -24 66 -42 140 -39 154 1 5 -2 7 -7 5 -5
-1 -20 10 -34 26 -14 15 -24 27 -21 27 3 0 -7 16 -21 35 -25 32 -30 34 -70 28
-24 -3 -77 -2 -119 2 -59 5 -82 12 -110 33 -48 37 -60 106 -39 218 27 144 28
134 -13 187 -31 40 -35 50 -23 58 8 5 9 9 3 9 -6 0 -17 -7 -24 -16 -12 -13
-15 -12 -26 13 -17 40 -41 69 -50 61 -4 -4 5 -25 19 -47 l26 -40 -27 -53 c-15
-29 -35 -64 -44 -78 -10 -15 -14 -30 -9 -38 6 -10 13 -4 24 21 16 34 44 64 51
56 3 -2 -8 -29 -24 -60 -15 -31 -31 -67 -35 -80 -7 -21 -6 -22 9 -10 9 7 16
17 16 22 0 21 45 109 56 109 6 0 14 7 18 15 8 21 43 19 50 -3 7 -22 -14 -78
-41 -107 -10 -11 -27 -38 -38 -60 -10 -22 -24 -47 -31 -55 -6 -8 -17 -37 -25
-64 -8 -27 -24 -56 -36 -66 -13 -10 -23 -23 -23 -28 0 -11 -38 -27 -46 -19 -3
2 1 17 7 33 7 16 13 31 14 34 8 30 18 50 26 50 5 0 9 12 9 26 0 14 4 23 9 20
5 -3 11 4 14 17 2 12 8 30 12 40 4 9 3 17 -3 17 -8 0 -34 -50 -78 -156 -15
-36 -17 -37 -25 -17 -6 16 -2 36 12 68 14 31 17 50 11 62 -7 12 -1 31 24 72
l33 55 -21 23 c-12 13 -18 24 -15 24 4 1 13 2 20 3 6 0 15 19 19 41 14 92 21
121 31 133 7 9 4 12 -12 12 -22 0 -30 19 -8 21 6 0 -1 5 -18 11 -16 6 -33 16
-37 22 -5 8 -8 7 -8 -1z m176 -129 c-3 -9 -6 -27 -6 -40 0 -19 -5 -24 -25 -24
-14 0 -25 5 -25 10 0 6 7 10 16 10 12 0 15 6 10 24 -4 15 -1 26 7 29 23 10 29
7 23 -9z m-261 -184 c-4 -12 -9 -19 -12 -17 -3 3 -2 15 2 27 4 12 9 19 12 17
3 -3 2 -15 -2 -27z m51 5 c3 -12 -4 -46 -16 -76 -12 -30 -24 -62 -26 -73 -4
-24 -10 -30 -23 -21 -15 9 -14 28 2 19 6 -4 3 2 -8 13 -11 11 -24 18 -29 15
-4 -2 -3 -8 4 -12 7 -4 9 -13 5 -20 -5 -8 -11 -8 -17 -2 -7 7 -5 25 6 54 8 23
15 50 14 58 -4 45 4 53 18 16 8 -22 12 -47 9 -57 -3 -10 -1 -20 4 -24 7 -4 8
1 4 11 -4 11 -3 15 4 11 7 -5 9 1 6 15 -4 19 -3 20 7 8 10 -13 11 -13 7 0 -2
8 -10 14 -16 13 -14 -4 -14 3 0 42 14 36 37 42 45 10z m27 -51 c-28 -51 -33
-68 -23 -74 11 -7 11 -14 0 -39 -15 -38 -39 -42 -32 -6 2 14 8 28 13 30 4 3 6
11 3 19 -7 18 54 149 65 141 6 -3 -5 -34 -26 -71z m212 2 c-10 -25 -15 -52
-12 -60 6 -16 -25 -102 -51 -143 -16 -26 -40 -30 -49 -8 -11 30 49 169 101
236 28 36 31 29 11 -25z m28 -221 c13 -28 86 -114 90 -107 1 2 10 0 20 -4 14
-5 15 -9 6 -20 -6 -8 -15 -11 -20 -8 -5 3 -6 -2 -3 -10 7 -18 -15 -20 -83 -7
-23 4 -46 5 -50 0 -4 -4 -19 -9 -33 -11 -23 -3 -25 0 -27 37 -1 22 -2 42 -3
45 -11 35 -8 60 8 69 11 6 22 7 26 3 4 -3 4 1 1 10 -4 9 1 31 10 48 l17 33 13
-24 c8 -13 20 -37 28 -54z m153 -51 c38 -1 87 2 109 7 33 7 43 5 59 -11 19
-18 18 -19 -19 -34 -20 -9 -46 -16 -57 -16 -10 0 -17 -4 -14 -9 3 -5 26 -5 52
0 45 9 74 0 74 -22 0 -8 -16 -10 -96 -9 -29 0 -44 -5 -48 -15 -5 -14 -8 -14
-31 1 -15 10 -24 23 -21 31 3 8 2 12 -3 8 -5 -3 -11 -2 -13 2 -1 5 -20 17 -41
27 -40 21 -64 49 -86 101 -11 26 -7 25 27 -15 39 -45 40 -45 108 -46z m-306
-49 c0 -14 -4 -25 -10 -25 -5 0 -7 -6 -4 -13 6 -17 -51 -58 -70 -51 -18 7 -30
56 -21 84 5 16 13 20 34 17 16 -3 35 -1 42 4 23 14 29 11 29 -16z m520 -5 c0
-5 -2 -10 -4 -10 -3 0 -8 5 -11 10 -3 6 -1 10 4 10 6 0 11 -4 11 -10z m-227
-56 c-4 -12 0 -15 14 -12 11 1 21 0 22 -5 5 -16 -11 -87 -20 -87 -5 0 -6 18
-3 40 5 32 3 40 -9 40 -14 0 -30 34 -20 44 11 10 22 -5 16 -20z m131 -35 c9
-44 8 -59 -4 -59 -5 0 -10 16 -10 35 0 28 -4 35 -20 35 -11 0 -20 5 -20 10 0
6 11 10 24 10 18 0 25 -7 30 -31z m-148 -13 c7 -40 0 -56 -24 -56 -12 0 -13 3
-4 12 17 17 15 58 -3 58 -10 0 -15 -10 -15 -34 0 -19 -4 -38 -10 -41 -6 -4
-10 13 -10 42 0 47 1 49 30 51 26 2 30 -1 36 -32z m302 -76 c9 -29 9 -46 2
-60 -14 -25 -22 -25 -38 1 -11 17 -11 25 4 46 15 24 15 26 0 20 -14 -6 -15 -3
-6 13 16 29 24 25 38 -20z m-301 -5 c-5 -16 -47 -18 -47 -3 0 7 11 13 25 13
14 0 24 -4 22 -10z m423 -71 c0 -2 -7 -4 -15 -4 -8 0 -15 4 -15 10 0 5 7 7 15
4 8 -4 15 -8 15 -10z"/>
<path d="M1851 711 c-8 -14 -7 -20 2 -24 7 -3 12 5 12 19 0 29 -1 29 -14 5z"/>
<path d="M1803 645 c-3 -9 -3 -18 -1 -21 3 -3 8 4 11 16 6 23 -1 27 -10 5z"/>
<path d="M2077 599 c7 -7 15 -10 18 -7 3 3 -2 9 -12 12 -14 6 -15 5 -6 -5z"/>
<path d="M2560 134 c0 -8 5 -12 10 -9 6 3 10 10 10 16 0 5 -4 9 -10 9 -5 0
-10 -7 -10 -16z"/>
<path d="M570 1016 c0 -2 7 -7 16 -10 8 -3 12 -2 9 4 -6 10 -25 14 -25 6z"/>
<path d="M700 1004 c0 -8 5 -14 11 -14 6 0 8 -9 4 -20 -6 -18 -2 -20 34 -20
32 0 41 4 41 18 0 14 -2 15 -10 2 -7 -12 -10 -12 -10 -1 0 7 -6 11 -15 7 -8
-3 -14 -2 -14 2 3 20 -3 30 -21 35 -13 3 -20 0 -20 -9z"/>
<path d="M1912 1000 c16 -26 31 -30 34 -11 2 7 0 6 -3 0 -4 -8 -13 -4 -26 12
l-19 24 14 -25z"/>
<path d="M500 987 c-12 -21 -12 -21 6 -7 10 8 20 15 22 16 2 1 -1 4 -5 7 -5 3
-15 -4 -23 -16z"/>
<path d="M334 984 c2 -10 8 -20 14 -22 17 -5 15 13 -2 27 -12 10 -14 9 -12 -5z"/>
<path d="M1087 977 c53 -43 68 -50 28 -13 -22 20 -44 36 -48 36 -5 0 4 -10 20
-23z"/>
<path d="M1265 990 c-3 -5 1 -10 9 -10 9 0 16 5 16 10 0 6 -4 10 -9 10 -6 0
-13 -4 -16 -10z"/>
<path d="M1385 971 c-4 -17 -11 -31 -16 -31 -5 0 -9 -5 -9 -11 0 -8 4 -8 14 0
15 12 30 60 22 68 -2 2 -7 -9 -11 -26z"/>
<path d="M1455 990 c-8 -13 5 -13 25 0 13 8 13 10 -2 10 -9 0 -20 -4 -23 -10z"/>
<path d="M800 969 c0 -11 4 -18 10 -14 5 3 7 12 3 20 -7 21 -13 19 -13 -6z"/>
<path d="M1001 986 c12 -10 60 -16 54 -6 -3 5 -18 10 -32 10 -15 0 -24 -2 -22
-4z"/>
<path d="M1420 969 c0 -5 5 -7 10 -4 6 3 10 8 10 11 0 2 -4 4 -10 4 -5 0 -10
-5 -10 -11z"/>
<path d="M2905 970 c6 -9 2 -10 -16 -5 -17 5 -21 4 -14 -3 6 -6 21 -12 35 -15
14 -2 19 -2 12 0 -7 3 -10 8 -7 13 3 5 0 12 -6 16 -8 5 -9 3 -4 -6z"/>
<path d="M1439 958 c-14 -10 -14 -13 3 -30 11 -11 23 -17 26 -13 4 3 1 10 -6
14 -7 4 -10 15 -6 24 7 19 5 20 -17 5z"/>
<path d="M1470 959 c0 -5 5 -7 10 -4 6 3 10 8 10 11 0 2 -4 4 -10 4 -5 0 -10
-5 -10 -11z"/>
<path d="M2825 960 c3 -5 8 -10 11 -10 2 0 4 5 4 10 0 6 -5 10 -11 10 -5 0 -7
-4 -4 -10z"/>
<path d="M1859 942 c-5 -12 -99 -22 -99 -10 0 4 -5 8 -11 8 -8 0 -7 -5 2 -16
7 -9 22 -14 35 -11 39 7 48 -6 34 -47 -11 -33 -14 -36 -51 -36 -24 0 -38 -4
-34 -10 3 -5 17 -10 31 -10 13 0 24 -4 24 -10 0 -5 -10 -10 -22 -10 -17 0 -19
-3 -10 -12 7 -7 12 -15 12 -19 0 -11 -68 -31 -80 -24 -6 4 -9 3 -8 -2 5 -13
-5 -15 -30 -6 l-23 9 25 21 c13 12 34 26 45 33 38 20 22 30 -49 30 -38 0 -70
-1 -70 -3 0 -2 9 -21 19 -43 11 -21 17 -42 15 -46 -3 -4 -27 -4 -55 -1 -93 11
-125 -29 -117 -148 5 -60 3 -73 -16 -96 -20 -26 -20 -27 -1 -19 11 5 49 14 85
21 36 7 81 20 100 28 19 8 47 20 63 26 15 6 32 23 37 38 6 16 15 36 20 45 8
15 3 22 -31 43 -22 14 -51 31 -64 37 -13 6 -22 15 -19 20 3 4 25 -5 49 -22 24
-16 46 -30 48 -30 11 0 14 39 3 44 -6 2 -6 5 -1 5 6 0 16 -3 24 -8 12 -8 12
-12 -2 -26 -10 -9 -14 -21 -11 -27 9 -15 18 -1 54 82 18 41 46 103 62 138 17
35 28 66 25 68 -3 3 -7 1 -8 -4z m-205 -167 c-25 -19 -34 -19 -34 0 0 8 7 15
15 15 8 0 15 5 15 12 0 9 3 9 12 0 9 -9 8 -15 -8 -27z m-12 -102 c38 -21 65
-39 59 -41 -6 -2 -11 -12 -11 -22 0 -20 -67 -73 -82 -64 -4 3 -8 1 -8 -5 0 -5
-10 -13 -22 -16 -13 -4 -38 -13 -56 -22 -18 -8 -41 -11 -50 -8 -9 4 -12 9 -6
11 6 3 8 22 4 52 -10 78 -4 114 20 134 33 27 74 22 152 -19z"/>
<path d="M1548 640 c-15 -27 -15 -30 -1 -30 10 0 13 -6 9 -16 -5 -12 1 -15 27
-12 27 2 33 8 35 31 7 58 -42 77 -70 27z m45 -12 c7 -26 3 -32 -17 -25 -9 4
-12 14 -9 26 7 27 19 27 26 -1z"/>
<path d="M953 919 c-18 -5 -34 -13 -37 -18 -6 -8 123 15 133 24 8 8 -62 4 -96
-6z"/>
<path d="M2767 919 c-9 -6 -22 -7 -28 -3 -6 3 -5 -3 2 -15 8 -11 16 -16 19
-11 3 5 24 10 47 11 23 2 40 6 37 10 -3 5 -11 6 -19 2 -9 -3 -21 -1 -28 5 -8
7 -18 7 -30 1z"/>
<path d="M2860 920 c0 -5 5 -10 10 -10 6 0 10 5 10 10 0 6 -4 10 -10 10 -5 0
-10 -4 -10 -10z"/>
<path d="M1910 914 c0 -6 6 -17 14 -23 11 -9 16 -9 22 1 4 7 4 10 -1 6 -4 -4
-14 0 -21 10 -7 9 -14 12 -14 6z"/>
<path d="M1270 875 c19 -19 36 -35 39 -35 3 0 -10 16 -29 35 -19 19 -36 35
-39 35 -3 0 10 -16 29 -35z"/>
<path d="M2970 880 c-6 -11 -8 -20 -4 -20 3 0 1 -6 -5 -13 -6 -8 -7 -18 -3
-22 4 -5 -1 -5 -10 -2 -13 5 -19 0 -24 -18 -3 -13 -15 -27 -25 -30 -17 -6 -17
-8 -4 -21 20 -20 20 -45 0 -38 -11 5 -13 2 -8 -12 5 -13 3 -16 -8 -12 -8 3
-24 -1 -34 -9 -19 -13 -18 -14 10 -7 23 5 27 4 19 -5 -6 -7 -18 -13 -25 -15
-25 -4 -46 -20 -71 -56 -13 -19 -52 -73 -86 -119 -42 -57 -58 -87 -50 -92 8
-5 3 -17 -15 -39 -15 -17 -27 -37 -27 -43 1 -24 39 -57 64 -57 30 0 35 -17 6
-22 -18 -3 -16 -9 23 -63 101 -143 110 -153 124 -148 11 4 10 8 -4 19 -14 10
-15 15 -6 24 9 10 17 4 35 -24 21 -33 38 -46 38 -28 0 4 -21 30 -47 57 -26 28
-40 42 -33 32 10 -13 10 -21 2 -29 -8 -8 -13 -6 -19 10 -4 11 -12 20 -18 19
-5 -1 -11 10 -12 25 -1 21 2 26 14 21 11 -4 14 -2 9 5 -4 7 -14 12 -22 12 -8
0 -13 3 -12 7 2 5 -1 9 -7 11 -5 2 -11 -1 -13 -7 -2 -6 1 -11 7 -11 6 0 11 -7
11 -16 0 -14 -3 -14 -15 -4 -8 7 -15 18 -15 25 0 7 -7 18 -15 25 -17 14 -3 40
21 40 8 0 14 10 14 25 0 14 4 25 9 25 4 0 8 -19 7 -42 -1 -22 4 -43 9 -45 17
-5 17 61 0 82 -15 20 -15 20 -34 -3 -12 -13 -22 -18 -26 -12 -3 6 -10 8 -14 6
-10 -7 -51 22 -51 35 0 6 11 25 25 43 14 18 25 38 25 44 0 7 4 12 9 12 5 0 26
22 47 50 38 50 67 65 62 33 -2 -11 2 -17 10 -15 9 2 12 -4 8 -15 -8 -26 7 -48
22 -31 10 13 12 18 12 38 0 6 3 9 8 9 20 -3 33 2 27 11 -4 6 -12 7 -18 3 -7
-4 -6 0 2 10 12 16 15 16 36 -1 19 -15 39 -18 88 -13 4 1 7 13 7 27 0 14 -4
23 -9 19 -5 -3 -12 -1 -16 5 -3 5 1 10 9 10 10 0 16 8 15 23 -1 16 -3 17 -6 5
-2 -9 -13 -20 -24 -23 -17 -6 -17 -8 -4 -21 18 -19 19 -25 3 -19 -7 2 -38 6
-70 9 -44 4 -57 2 -62 -9 -3 -8 -1 -15 4 -15 5 0 7 -7 4 -15 -9 -23 -25 -7
-22 22 3 23 -1 27 -28 30 -29 4 -36 -2 -80 -62 -26 -36 -52 -65 -56 -65 -12 0
-4 12 87 133 44 58 83 101 86 95 4 -6 11 -3 18 8 6 11 11 13 11 7 0 -24 15
-13 44 33 16 25 39 51 52 56 13 6 21 14 18 19 -2 4 3 12 12 17 10 5 14 18 12
33 -4 24 -4 24 -23 -7 -18 -30 -53 -60 -61 -52 -2 2 17 28 41 58 43 54 54 83
36 95 -6 3 -15 -4 -21 -15z"/>
<path d="M676 872 c-4 -13 -5 -26 -2 -29 3 -4 6 -1 6 5 0 7 5 12 11 12 7 0 10
-12 7 -30 -4 -26 -1 -31 20 -37 14 -3 33 -1 44 6 12 7 18 8 18 1 0 -6 -10 -15
-22 -20 -22 -8 -22 -9 5 -9 15 -1 27 3 27 8 0 5 3 16 6 25 4 11 1 16 -10 16
-9 0 -16 8 -16 20 0 11 7 20 16 20 8 0 12 -4 9 -10 -9 -14 8 -13 23 2 25 25
11 31 -58 26 -46 -4 -71 -2 -73 6 -2 6 -7 1 -11 -12z m79 -22 c4 -6 -5 -10
-20 -10 -15 0 -24 4 -20 10 3 6 12 10 20 10 8 0 17 -4 20 -10z m0 -30 c3 -5
-3 -10 -14 -10 -12 0 -21 5 -21 10 0 6 6 10 14 10 8 0 18 -4 21 -10z"/>
<path d="M2802 855 c-6 -14 -8 -25 -3 -25 4 0 13 11 19 25 6 14 8 25 3 25 -4
0 -13 -11 -19 -25z"/>
<path d="M270 859 c0 -3 -37 -7 -82 -7 -98 -2 -188 -12 -188 -21 0 -11 50 -29
56 -20 3 5 19 9 37 8 53 -1 107 9 123 21 12 11 14 5 14 -34 0 -47 0 -47 -32
-44 -25 2 -34 8 -36 26 -5 35 -32 27 -33 -10 0 -18 -3 -28 -6 -21 -3 10 -9 10
-23 0 -15 -9 -22 -9 -32 1 -9 9 -8 12 8 12 26 0 34 8 27 26 -9 24 -32 15 -47
-18 -12 -29 -14 -30 -15 -10 -1 12 -8 25 -16 29 -27 10 -29 -6 -6 -37 21 -30
21 -30 1 -30 -11 0 -20 -4 -20 -8 0 -4 26 -5 58 -2 31 4 96 7 145 6 48 -1 87
2 87 5 0 11 203 20 214 9 5 -5 27 -10 47 -10 21 0 40 -5 42 -10 3 -6 4 -5 3 2
-1 7 -11 14 -22 16 -44 7 -46 11 -24 39 14 19 19 35 15 54 -5 23 -3 26 18 24
14 -2 34 -6 45 -9 11 -4 23 -2 27 3 3 7 0 8 -9 5 -9 -3 -16 -1 -16 5 0 7 -56
10 -180 8 -99 -1 -180 -5 -180 -8z m274 -35 c13 -33 -24 -65 -50 -43 -11 9
-14 8 -15 -2 -1 -8 -4 0 -8 16 -8 38 -35 40 -39 3 -3 -24 -8 -28 -37 -28 -19
0 -37 5 -41 12 -5 8 -10 6 -15 -8 -7 -19 -8 -19 -8 0 -1 19 -1 19 -15 1 -8
-11 -19 -16 -30 -12 -11 4 -16 1 -16 -10 0 -28 -7 -10 -14 35 -6 41 -6 42 23
42 17 0 33 -5 37 -12 5 -8 10 -6 15 8 7 18 8 18 9 -1 1 -18 1 -19 11 -2 13 22
27 22 51 0 18 -16 18 -16 12 2 -7 16 -3 18 33 13 22 -3 46 -2 53 2 17 10 37 3
44 -16z"/>
<path d="M495 820 c-8 -14 3 -30 21 -30 8 0 14 9 14 20 0 21 -24 28 -35 10z"/>
<path d="M277 813 c-14 -13 -6 -33 13 -33 13 0 20 7 20 20 0 19 -20 27 -33 13z"/>
<path d="M360 800 c0 -15 5 -20 18 -18 9 2 17 10 17 18 0 8 -8 16 -17 18 -13
2 -18 -3 -18 -18z"/>
<path d="M897 853 c4 -10 8 -12 10 -6 3 7 10 10 18 7 7 -3 16 -1 20 5 4 7 -5
11 -24 11 -24 0 -29 -3 -24 -17z"/>
<path d="M1103 805 c28 -30 53 -55 55 -55 5 0 -71 93 -83 102 -30 23 -18 1 28
-47z"/>
<path d="M2554 831 c-39 -28 -144 -139 -144 -153 0 -4 18 -13 40 -19 21 -7 37
-15 35 -20 -3 -4 3 -5 14 -2 22 6 69 -17 96 -47 16 -18 17 -23 5 -30 -10 -7
-11 -10 -2 -10 6 0 12 -9 12 -20 0 -11 -7 -20 -15 -20 -18 0 -19 -12 -3 -28 9
-9 6 -17 -12 -37 -21 -23 -24 -23 -36 -7 -7 9 -15 14 -19 11 -3 -4 5 -19 19
-34 15 -16 26 -36 26 -46 0 -11 4 -19 9 -19 5 0 7 -10 4 -22 -4 -22 -4 -22 8
-3 6 11 19 29 28 40 16 20 16 20 -6 1 -29 -24 -29 -15 0 32 12 20 27 44 32 53
6 9 30 42 55 72 36 44 46 65 47 97 1 22 0 40 -3 40 -9 0 -35 -71 -29 -80 8
-13 -36 -13 -68 -1 -31 12 -77 57 -68 67 3 4 -4 4 -16 1 -13 -3 -23 -1 -23 5
0 5 -4 6 -10 3 -5 -3 -10 -1 -10 5 0 7 -8 9 -21 5 -15 -5 -19 -4 -14 5 5 8 1
11 -12 8 -11 -2 -19 2 -19 7 1 6 5 9 9 7 5 -1 6 2 2 8 -4 6 4 23 18 39 22 27
25 28 50 14 15 -7 27 -9 27 -4 0 5 -9 13 -21 16 -20 7 -20 8 -3 26 10 11 24
17 31 15 7 -3 19 5 28 17 32 45 14 49 -41 8z m114 -274 c6 -5 17 -5 22 -2 6 3
10 2 10 -4 0 -5 -17 -8 -37 -6 -47 4 -45 3 -39 14 7 10 25 9 44 -2z m-28 -38
c0 -6 7 -8 16 -5 10 4 14 1 12 -6 -7 -21 -48 -18 -48 3 0 11 5 19 10 19 6 0
10 -5 10 -11z m-40 -109 c0 -5 -4 -10 -10 -10 -5 0 -10 5 -10 10 0 6 5 10 10
10 6 0 10 -4 10 -10z"/>
<path d="M1461 834 c0 -11 3 -14 6 -6 3 7 2 16 -1 19 -3 4 -6 -2 -5 -13z"/>
<path d="M2910 835 c-7 -9 -11 -17 -9 -20 3 -2 10 5 17 15 14 24 10 26 -8 5z"/>
<path d="M980 829 c0 -5 6 -9 14 -9 8 0 22 -3 32 -7 11 -4 15 -3 11 4 -8 13
-57 23 -57 12z"/>
<path d="M1053 805 c0 -8 4 -12 8 -9 4 2 10 0 14 -6 3 -5 11 -10 16 -10 14 0
2 18 -20 29 -13 7 -18 6 -18 -4z"/>
<path d="M172 793 c5 -26 38 -29 38 -4 0 15 -6 21 -21 21 -14 0 -19 -5 -17
-17z"/>
<path d="M1200 790 c13 -9 13 -11 0 -20 -9 -6 -11 -12 -5 -17 6 -5 9 -6 8 -4
-2 2 2 10 8 17 12 15 4 34 -14 34 -7 0 -6 -4 3 -10z"/>
<path d="M950 775 c-10 -12 -10 -15 2 -15 8 0 15 7 15 15 0 8 -1 15 -2 15 -2
0 -8 -7 -15 -15z"/>
<path d="M705 760 c3 -5 8 -10 11 -10 2 0 4 5 4 10 0 6 -5 10 -11 10 -5 0 -7
-4 -4 -10z"/>
<path d="M2590 738 c11 -12 23 -18 27 -14 5 4 -1 14 -11 22 -30 21 -39 17 -16
-8z"/>
<path d="M2630 749 c0 -5 5 -7 10 -4 6 3 10 8 10 11 0 2 -4 4 -10 4 -5 0 -10
-5 -10 -11z"/>
<path d="M881 734 c0 -11 3 -14 6 -6 3 7 2 16 -1 19 -3 4 -6 -2 -5 -13z"/>
<path d="M988 743 c6 -2 18 -2 25 0 6 3 1 5 -13 5 -14 0 -19 -2 -12 -5z"/>
<path d="M1282 743 c-6 -3 -10 -9 -6 -14 3 -5 0 -9 -6 -9 -6 0 -18 -7 -26 -15
-19 -19 -5 -20 22 -1 11 8 31 16 44 18 24 3 24 4 5 14 -11 6 -26 9 -33 7z"/>
<path d="M470 731 c0 -5 5 -13 10 -16 6 -3 10 -2 10 4 0 5 -4 13 -10 16 -5 3
-10 2 -10 -4z"/>
<path d="M1355 700 c-21 -22 -34 -40 -28 -40 6 0 16 7 23 15 7 9 20 13 29 10
12 -3 16 3 17 25 1 17 0 30 0 30 -1 0 -20 -18 -41 -40z"/>
<path d="M415 720 c-3 -5 -2 -10 4 -10 5 0 13 5 16 10 3 6 2 10 -4 10 -5 0
-13 -4 -16 -10z"/>
<path d="M1947 688 c-15 -23 -27 -49 -26 -58 0 -8 7 0 15 18 8 17 18 32 23 32
8 0 23 41 18 47 -2 1 -15 -16 -30 -39z"/>
<path d="M2166 698 c-14 -91 -13 -112 8 -130 12 -10 25 -17 31 -18 5 0 -1 7
-13 16 -21 15 -22 21 -17 90 6 75 0 102 -9 42z"/>
<path d="M670 716 c0 -2 8 -10 18 -17 15 -13 16 -12 3 4 -13 16 -21 21 -21 13z"/>
<path d="M839 707 c-8 -7 -18 -21 -22 -32 -7 -20 -7 -20 8 0 9 11 23 26 32 33
9 6 13 12 7 12 -5 0 -16 -6 -25 -13z"/>
<path d="M60 700 c8 -5 20 -10 25 -10 6 0 3 5 -5 10 -8 5 -19 10 -25 10 -5 0
-3 -5 5 -10z"/>
<path d="M220 701 c0 -6 4 -13 10 -16 6 -3 7 1 4 9 -7 18 -14 21 -14 7z"/>
<path d="M776 695 c-3 -8 -1 -15 4 -15 6 0 10 7 10 15 0 8 -2 15 -4 15 -2 0
-6 -7 -10 -15z"/>
<path d="M887 703 c-13 -13 -7 -21 13 -16 11 3 17 9 14 14 -6 11 -18 12 -27 2z"/>
<path d="M985 700 c28 -12 37 -12 30 0 -3 6 -16 10 -28 9 -21 0 -21 -1 -2 -9z"/>
<path d="M1192 643 c-1 -36 1 -63 5 -60 3 4 12 2 20 -4 8 -7 13 -8 13 -1 0 5
-7 12 -14 15 -12 5 -13 13 -6 38 5 18 15 36 21 39 6 4 2 10 -11 13 -12 3 -19
10 -15 16 3 6 2 11 -3 11 -4 0 -9 -30 -10 -67z"/>
<path d="M319 685 c5 -11 17 -29 26 -40 16 -20 16 -20 6 0 -5 11 -17 29 -26
40 -16 20 -16 20 -6 0z"/>
<path d="M463 682 c8 -9 12 -24 10 -32 -4 -13 -3 -13 7 0 10 12 11 11 6 -9 -3
-16 3 -35 18 -55 13 -17 29 -46 36 -63 7 -18 16 -33 21 -33 12 0 11 17 -1 25
-5 3 -20 28 -31 56 -12 27 -26 49 -31 49 -5 0 -6 5 -3 11 12 18 -4 56 -26 62
-19 5 -19 4 -6 -11z"/>
<path d="M855 690 c-3 -5 -1 -10 4 -10 6 0 11 5 11 10 0 6 -2 10 -4 10 -3 0
-8 -4 -11 -10z"/>
<path d="M2971 669 c-23 -37 -27 -59 -10 -59 5 0 7 -4 4 -10 -3 -5 -29 -10
-56 -10 -28 0 -48 4 -45 8 2 4 1 14 -4 21 -6 11 -11 9 -20 -9 -6 -12 -9 -24
-6 -28 11 -11 131 -21 134 -11 2 5 10 16 18 23 18 19 18 37 -1 30 -9 -4 -15 0
-15 10 0 9 4 16 9 16 11 0 25 39 17 47 -3 3 -14 -10 -25 -28z"/>
<path d="M175 680 c3 -5 8 -10 11 -10 2 0 4 5 4 10 0 6 -5 10 -11 10 -5 0 -7
-4 -4 -10z"/>
<path d="M375 659 c9 -17 19 -29 21 -26 7 7 -18 57 -28 57 -5 0 -1 -14 7 -31z"/>
<path d="M660 590 c22 -44 40 -82 40 -85 0 -14 -31 -3 -43 16 -9 11 -18 16
-21 11 -3 -6 1 -17 10 -26 19 -19 9 -40 -17 -33 -10 3 -22 1 -25 -4 -3 -5 -10
-6 -16 -3 -7 4 -8 2 -4 -5 6 -9 11 -9 22 0 11 9 14 8 14 -3 0 -22 -22 -39 -35
-28 -15 13 -2 -51 26 -125 10 -28 19 -57 19 -65 0 -8 8 -24 17 -35 11 -14 14
-15 10 -4 -25 74 -47 155 -47 175 0 66 50 107 149 123 65 11 84 23 74 48 -5
12 -7 12 -14 2 -4 -7 -6 -16 -4 -19 9 -15 -61 -5 -73 9 -11 14 -11 14 -6 -3
12 -32 -27 -15 -47 22 -11 18 -19 34 -19 37 -1 8 -42 75 -46 75 -2 0 14 -36
36 -80z"/>
<path d="M955 660 c3 -5 13 -10 21 -10 8 0 12 5 9 10 -3 6 -13 10 -21 10 -8 0
-12 -4 -9 -10z"/>
<path d="M30 651 c0 -5 7 -11 14 -14 10 -4 13 -1 9 9 -6 15 -23 19 -23 5z"/>
<path d="M91 644 c0 -11 3 -14 6 -6 3 7 2 16 -1 19 -3 4 -6 -2 -5 -13z"/>
<path d="M1254 638 c-19 -23 -19 -23 1 -7 11 9 27 19 35 22 13 5 13 6 -1 6 -9
1 -24 -9 -35 -21z"/>
<path d="M110 639 c0 -5 5 -7 10 -4 6 3 10 8 10 11 0 2 -4 4 -10 4 -5 0 -10
-5 -10 -11z"/>
<path d="M791 640 c0 -8 4 -24 9 -35 5 -13 9 -14 9 -5 0 8 -4 24 -9 35 -5 13
-9 14 -9 5z"/>
<path d="M2400 640 c0 -5 7 -7 15 -4 8 4 15 8 15 10 0 2 -7 4 -15 4 -8 0 -15
-4 -15 -10z"/>
<path d="M1 624 c0 -11 3 -14 6 -6 3 7 2 16 -1 19 -3 4 -6 -2 -5 -13z"/>
<path d="M1280 620 c-14 -10 -22 -21 -20 -24 3 -2 16 4 30 14 14 10 22 21 20
24 -3 2 -16 -4 -30 -14z"/>
<path d="M405 619 c-9 -14 -2 -20 14 -10 8 6 9 11 3 15 -6 3 -14 1 -17 -5z"/>
<path d="M871 604 c0 -11 3 -14 6 -6 3 7 2 16 -1 19 -3 4 -6 -2 -5 -13z"/>
<path d="M2435 610 c-3 -6 1 -7 9 -4 18 7 21 14 7 14 -6 0 -13 -4 -16 -10z"/>
<path d="M2798 579 c-16 -23 -23 -39 -15 -39 11 0 52 69 45 75 -2 2 -15 -15
-30 -36z"/>
<path d="M821 594 c0 -11 3 -14 6 -6 3 7 2 16 -1 19 -3 4 -6 -2 -5 -13z"/>
<path d="M1152 590 c0 -14 2 -19 5 -12 2 6 2 18 0 25 -3 6 -5 1 -5 -13z"/>
<path d="M2196 578 c3 -4 9 -8 15 -8 5 0 9 4 9 8 0 5 -7 9 -15 9 -8 0 -12 -4
-9 -9z"/>
<path d="M851 553 c5 -14 5 -23 -1 -23 -12 0 -3 -237 10 -259 5 -10 1 -25 -13
-43 -25 -34 -20 -43 11 -19 23 17 23 19 11 84 -10 54 -10 72 0 91 8 13 10 30
6 36 -4 7 -7 45 -6 85 2 57 -1 72 -13 72 -11 0 -12 -6 -5 -24z"/>
<path d="M1042 570 c-19 -4 -39 -13 -45 -19 -9 -9 7 -10 63 -7 54 4 71 3 60
-5 -12 -8 -11 -9 7 -4 12 3 24 1 28 -5 3 -6 -3 -10 -17 -10 -14 0 -33 -13 -49
-33 -31 -38 -69 -110 -69 -129 0 -7 11 10 24 38 13 28 35 62 49 76 14 14 23
29 20 32 -4 3 5 6 18 7 13 0 32 2 42 4 9 2 17 -1 17 -5 0 -14 61 -23 73 -11 7
7 5 9 -10 7 -24 -5 -38 25 -20 43 8 8 8 11 0 11 -7 0 -15 -10 -18 -21 -5 -15
-9 -18 -15 -9 -5 9 -9 9 -14 1 -5 -8 -17 -3 -38 14 -16 14 -33 25 -38 25 -5 0
-14 2 -22 4 -7 2 -28 0 -46 -4z"/>
<path d="M2555 570 c-3 -5 -2 -10 4 -10 5 0 13 5 16 10 3 6 2 10 -4 10 -5 0
-13 -4 -16 -10z"/>
<path d="M30 566 c0 -2 7 -9 15 -16 12 -10 15 -10 15 4 0 9 -7 16 -15 16 -8 0
-15 -2 -15 -4z"/>
<path d="M558 563 c7 -3 16 -2 19 1 4 3 -2 6 -13 5 -11 0 -14 -3 -6 -6z"/>
<path d="M2166 537 c15 -31 19 -35 25 -20 4 10 6 18 5 18 0 0 -12 9 -25 20
l-23 20 18 -38z"/>
<path d="M920 556 c0 -2 7 -6 15 -10 8 -3 15 -1 15 4 0 6 -7 10 -15 10 -8 0
-15 -2 -15 -4z"/>
<path d="M2852 553 c-13 -5 -7 -23 9 -23 6 0 7 5 4 10 -3 6 5 10 19 10 14 0
28 -4 31 -10 3 -5 11 -10 17 -10 7 0 6 6 -2 15 -12 14 -52 19 -78 8z"/>
<path d="M492 541 c-11 -6 -9 -9 6 -13 15 -4 19 -2 15 8 -6 16 -4 16 -21 5z"/>
<path d="M1340 530 c-8 -11 -22 -23 -32 -26 -21 -6 -13 -34 11 -34 13 0 13 2
2 9 -11 7 -9 10 8 16 11 3 21 10 21 15 0 5 7 16 16 24 12 12 12 16 2 16 -8 0
-20 -9 -28 -20z"/>
<path d="M956 508 c-9 -12 -13 -24 -9 -27 3 -3 8 0 10 7 3 6 9 10 13 7 5 -3 8
4 7 15 -2 25 -2 25 -21 -2z"/>
<path d="M1050 514 c-65 -28 -138 -121 -127 -162 4 -15 5 -15 6 1 0 9 6 17 11
17 6 0 10 6 10 14 0 24 44 85 61 86 9 0 24 9 34 20 19 21 41 28 29 8 -4 -7 -3
-8 5 -4 6 4 9 11 6 16 -3 4 1 11 7 13 7 3 9 6 3 6 -5 0 -26 -7 -45 -15z"/>
<path d="M1780 515 c7 -8 17 -15 22 -15 6 0 5 7 -2 15 -7 8 -17 15 -22 15 -6
0 -5 -7 2 -15z"/>
<path d="M50 506 c0 -15 18 -31 26 -23 7 7 -7 37 -17 37 -5 0 -9 -6 -9 -14z"/>
<path d="M438 508 c9 -9 15 -9 24 0 9 9 7 12 -12 12 -19 0 -21 -3 -12 -12z"/>
<path d="M390 501 c0 -5 7 -11 15 -15 8 -3 15 -1 15 3 0 5 -7 11 -15 15 -8 3
-15 1 -15 -3z"/>
<path d="M890 500 c-8 -5 -11 -12 -8 -16 10 -9 38 3 38 16 0 12 -10 13 -30 0z"/>
<path d="M1740 499 c0 -5 5 -7 10 -4 6 3 10 8 10 11 0 2 -4 4 -10 4 -5 0 -10
-5 -10 -11z"/>
<path d="M460 480 c0 -11 2 -20 4 -20 2 0 11 -3 20 -6 9 -3 16 -1 16 6 0 6 -4
8 -10 5 -5 -3 -10 3 -10 14 0 12 -4 21 -10 21 -5 0 -10 -9 -10 -20z"/>
<path d="M1120 454 c-11 -27 -32 -71 -46 -99 l-25 -50 25 30 c14 17 31 48 37
69 6 22 18 50 26 63 9 13 13 26 9 30 -3 3 -15 -16 -26 -43z"/>
<path d="M150 460 c6 -11 13 -20 16 -20 2 0 0 9 -6 20 -6 11 -13 20 -16 20 -2
0 0 -9 6 -20z"/>
<path d="M1340 471 c0 -6 4 -13 10 -16 6 -3 7 1 4 9 -7 18 -14 21 -14 7z"/>
<path d="M1526 468 c4 -7 13 -20 20 -28 7 -9 15 -34 16 -57 4 -51 18 -46 18 6
0 24 -8 48 -21 65 -21 26 -46 37 -33 14z"/>
<path d="M1780 460 c-6 -11 -17 -20 -24 -20 -7 0 -21 -9 -31 -20 -29 -32 -6
-23 41 16 24 19 44 31 44 26 0 -6 9 -8 20 -5 25 7 23 8 -12 17 -21 5 -30 2
-38 -14z"/>
<path d="M341 454 c0 -11 3 -14 6 -6 3 7 2 16 -1 19 -3 4 -6 -2 -5 -13z"/>
<path d="M1183 437 c-16 -18 -35 -49 -43 -68 -7 -18 -27 -49 -44 -68 -30 -33
-30 -33 -4 -15 15 10 44 50 64 88 27 52 39 65 46 55 8 -11 9 -11 5 2 -3 9 0
22 6 28 6 6 8 11 5 11 -3 0 -19 -15 -35 -33z"/>
<path d="M1238 445 c-5 -25 -4 -25 10 -11 12 11 13 19 5 27 -7 7 -12 3 -15
-16z"/>
<path d="M1281 460 c-1 -8 -43 -57 -93 -109 -79 -81 -88 -94 -32 -46 7 6 35
28 62 49 51 40 79 83 69 108 -4 10 -6 9 -6 -2z"/>
<path d="M2900 466 c0 -2 7 -9 15 -16 12 -10 15 -10 15 4 0 9 -7 16 -15 16 -8
0 -15 -2 -15 -4z"/>
<path d="M880 450 c0 -5 5 -10 11 -10 5 0 7 5 4 10 -3 6 -8 10 -11 10 -2 0 -4
-4 -4 -10z"/>
<path d="M916 443 c-6 -14 -5 -15 5 -6 7 7 10 15 7 18 -3 3 -9 -2 -12 -12z"/>
<path d="M1146 445 c-9 -26 -7 -32 5 -12 6 10 9 21 6 23 -2 3 -7 -2 -11 -11z"/>
<path d="M1690 449 c0 -5 5 -7 10 -4 6 3 10 8 10 11 0 2 -4 4 -10 4 -5 0 -10
-5 -10 -11z"/>
<path d="M1307 436 c-3 -7 12 -11 45 -11 56 0 64 -6 48 -35 -6 -11 -7 -20 -3
-20 5 0 14 13 20 29 9 25 8 31 -6 36 -30 12 -100 13 -104 1z"/>
<path d="M50 430 c0 -5 7 -7 15 -4 8 4 15 8 15 10 0 2 -7 4 -15 4 -8 0 -15 -4
-15 -10z"/>
<path d="M497 433 c-4 -3 0 -14 9 -24 9 -10 23 -32 32 -50 10 -18 23 -35 30
-37 15 -4 -17 52 -47 85 -11 11 -17 24 -14 27 4 3 4 6 1 6 -2 0 -8 -3 -11 -7z"/>
<path d="M2980 425 c-7 -8 -10 -22 -6 -30 6 -17 26 -21 26 -5 0 6 -5 10 -11
10 -8 0 -7 5 1 15 7 9 11 18 8 20 -3 3 -11 -1 -18 -10z"/>
<path d="M70 417 c0 -2 9 -14 20 -27 19 -22 20 -22 20 -3 0 12 -7 24 -16 27
-18 7 -24 8 -24 3z"/>
<path d="M1535 410 c3 -5 8 -10 11 -10 2 0 4 5 4 10 0 6 -5 10 -11 10 -5 0 -7
-4 -4 -10z"/>
<path d="M1790 410 c-11 -7 -7 -10 18 -10 26 0 33 -4 30 -17 -2 -12 -14 -19
-36 -21 -24 -3 -33 -9 -38 -28 -3 -13 -10 -24 -16 -24 -5 0 -6 9 -3 20 6 17 2
20 -29 20 -20 0 -36 -4 -36 -9 0 -5 -3 -18 -6 -28 -5 -17 -5 -17 6 -1 10 17
13 17 40 3 17 -9 30 -20 30 -25 0 -9 -28 -15 -57 -11 -7 1 -13 -4 -14 -11 0
-7 -4 -4 -8 6 -7 18 -8 18 -14 3 -5 -13 5 -24 36 -44 23 -15 47 -26 54 -25 6
1 39 -20 73 -47 35 -28 68 -47 76 -44 20 7 18 60 -6 128 -11 32 -20 80 -20
106 0 38 -4 51 -19 59 -24 12 -42 13 -61 0z m58 -97 c2 -21 7 -39 12 -41 6 -2
10 -10 10 -18 0 -8 7 -28 15 -44 15 -29 11 -60 -7 -60 -15 0 -128 100 -128
113 0 7 4 7 9 -2 7 -11 11 -10 19 6 6 11 9 29 6 40 -4 15 2 22 28 30 18 6 33
11 33 12 1 1 2 -16 3 -36z m-123 -53 c-3 -4 0 -10 7 -12 8 -3 6 -7 -5 -11 -9
-3 -17 -2 -17 4 0 6 -4 7 -10 4 -5 -3 -10 0 -10 7 0 8 9 14 20 15 11 1 18 -2
15 -7z"/>
<path d="M1431 400 c0 -9 -13 -33 -28 -55 -15 -22 -20 -34 -11 -28 8 7 18 11
21 8 4 -3 5 -2 2 2 -3 3 2 17 11 30 8 13 13 32 11 41 -4 13 -5 14 -6 2z"/>
<path d="M1750 399 c0 -5 5 -7 10 -4 6 3 10 8 10 11 0 2 -4 4 -10 4 -5 0 -10
-5 -10 -11z"/>
<path d="M2846 395 c4 -8 8 -15 10 -15 2 0 4 7 4 15 0 8 -4 15 -10 15 -5 0 -7
-7 -4 -15z"/>
<path d="M1348 393 c6 -2 18 -2 25 0 6 3 1 5 -13 5 -14 0 -19 -2 -12 -5z"/>
<path d="M1245 346 c-22 -23 -49 -47 -60 -53 -15 -10 -12 -10 14 0 31 11 101
82 90 90 -2 2 -22 -15 -44 -37z"/>
<path d="M265 360 c-22 -11 -31 -17 -20 -14 11 4 30 9 43 11 12 3 25 9 28 14
8 14 -7 10 -51 -11z"/>
<path d="M430 374 c0 -4 11 -17 25 -30 14 -13 25 -20 25 -15 0 4 -11 17 -25
29 -14 12 -25 19 -25 16z"/>
<path d="M491 363 c7 -12 15 -20 18 -17 3 2 -3 12 -13 22 -17 16 -18 16 -5 -5z"/>
<path d="M13 355 c0 -8 4 -15 9 -15 4 0 8 7 8 15 0 8 -4 15 -8 15 -5 0 -9 -7
-9 -15z"/>
<path d="M90 350 c-9 -6 -10 -10 -3 -10 6 0 15 5 18 10 8 12 4 12 -15 0z"/>
<path d="M160 346 c0 -2 7 -6 15 -10 8 -3 15 -1 15 4 0 6 -7 10 -15 10 -8 0
-15 -2 -15 -4z"/>
<path d="M325 340 c-3 -5 -1 -10 4 -10 6 0 11 5 11 10 0 6 -2 10 -4 10 -3 0
-8 -4 -11 -10z"/>
<path d="M1580 330 c-6 -12 -18 -19 -25 -16 -9 3 -12 0 -9 -8 5 -14 -25 -30
-91 -46 l-40 -9 45 4 c25 3 52 5 61 6 8 0 24 11 34 25 14 19 21 22 31 13 13
-11 19 -2 16 23 -1 3 5 9 14 12 10 4 13 2 8 -7 -5 -7 0 -5 11 3 17 14 18 13
13 -5 -3 -11 -9 -28 -13 -37 -4 -10 -3 -18 3 -18 5 0 12 10 15 23 2 12 7 29
11 38 5 12 -1 16 -33 17 -32 2 -42 -2 -51 -18z"/>
<path d="M1089 323 c-13 -16 -12 -17 4 -4 9 7 17 15 17 17 0 8 -8 3 -21 -13z"/>
<path d="M110 326 c0 -2 7 -7 16 -10 8 -3 12 -2 9 4 -6 10 -25 14 -25 6z"/>
<path d="M1490 310 c0 -6 -6 -8 -12 -4 -10 5 -10 3 0 -7 11 -12 14 -12 21 0 6
9 10 10 14 2 4 -8 5 -8 3 1 -3 15 -26 23 -26 8z"/>
<path d="M75 290 c10 -11 20 -20 23 -20 3 0 -3 9 -13 20 -10 11 -20 20 -23 20
-3 0 3 -9 13 -20z"/>
<path d="M579 307 c-5 -27 -4 -35 9 -62 19 -40 73 -107 80 -101 3 3 -2 14 -11
24 -9 10 -23 35 -32 55 -10 25 -20 35 -28 30 -9 -5 -9 -4 0 8 9 11 8 18 -3 33
-8 11 -15 17 -15 13z"/>
<path d="M1610 294 c0 -8 5 -12 10 -9 6 3 10 10 10 16 0 5 -4 9 -10 9 -5 0
-10 -7 -10 -16z"/>
<path d="M1570 276 c0 -9 -5 -16 -11 -16 -5 0 -7 -5 -4 -11 11 -16 -54 -141
-70 -135 -21 8 -35 -17 -39 -70 -3 -43 -2 -46 11 -28 7 10 12 28 9 39 -3 11
-1 27 4 35 8 12 9 9 8 -9 -3 -22 1 -25 33 -27 30 -2 37 1 46 24 6 15 27 62 47
105 20 43 31 75 25 72 -5 -4 -29 -47 -51 -96 -23 -49 -43 -88 -45 -85 -2 2 15
45 37 96 23 50 39 94 36 97 -5 5 -36 -58 -72 -148 -13 -31 -44 -51 -44 -27 0
4 5 8 11 8 5 0 24 30 41 67 44 98 48 112 38 118 -6 4 -10 -1 -10 -9z"/>
<path d="M1345 270 c3 -5 8 -10 11 -10 2 0 4 5 4 10 0 6 -5 10 -11 10 -5 0 -7
-4 -4 -10z"/>
<path d="M1329 256 c6 -7 8 -15 5 -19 -3 -3 1 -4 10 -3 26 4 26 11 0 23 -21
10 -23 9 -15 -1z"/>
<path d="M1958 236 c-46 -31 -47 -33 -33 -59 8 -16 10 -29 4 -32 -5 -4 -9 -14
-9 -24 0 -25 41 -121 51 -121 5 0 2 17 -7 38 -9 20 -16 46 -15 57 0 11 1 39 1
63 0 23 4 42 9 42 5 0 23 13 40 29 44 41 17 46 -41 7z"/>
<path d="M115 250 c3 -5 11 -10 16 -10 6 0 7 5 4 10 -3 6 -11 10 -16 10 -6 0
-7 -4 -4 -10z"/>
<path d="M984 207 c13 -34 22 -73 20 -99 -1 -24 4 -55 12 -69 7 -15 10 -29 7
-33 -4 -3 1 -6 9 -6 13 0 13 6 2 52 -22 83 -14 170 15 176 9 2 11 -3 6 -15
-20 -51 -20 -49 -2 -34 9 7 17 20 17 27 0 8 4 14 8 14 4 0 14 -28 21 -62 14
-71 49 -158 62 -158 12 0 11 12 -5 51 -8 19 -20 63 -27 99 -7 36 -18 71 -25
78 -15 15 -58 16 -84 2 -15 -8 -23 -6 -39 11 -19 20 -18 18 3 -34z"/>
<path d="M2145 241 c-9 -30 -22 -190 -17 -216 5 -28 24 -29 28 -2 1 9 -2 15
-7 11 -15 -9 -10 8 8 28 9 11 11 18 5 18 -17 0 -14 86 3 135 8 22 15 40 15 41
0 0 -7 1 -15 1 -8 0 -17 -7 -20 -16z"/>
<path d="M390 246 c0 -2 8 -10 18 -17 15 -13 16 -12 3 4 -13 16 -21 21 -21 13z"/>
<path d="M1388 243 c7 -3 16 -2 19 1 4 3 -2 6 -13 5 -11 0 -14 -3 -6 -6z"/>
<path d="M2102 218 c-17 -52 -27 -218 -13 -218 7 0 11 27 11 78 1 42 5 97 10
122 10 54 6 64 -8 18z"/>
<path d="M938 222 c-5 -18 7 -32 28 -32 8 0 4 17 -9 35 -13 17 -14 17 -19 -3z"/>
<path d="M1621 195 c-62 -140 -64 -144 -51 -160 10 -12 6 -14 -27 -12 -24 2
-37 7 -35 15 1 6 0 12 -2 12 -8 0 -36 -31 -36 -39 0 -7 58 -8 96 -3 14 2 86
151 81 166 -2 6 -18 -22 -37 -62 -18 -40 -35 -70 -37 -68 -2 2 14 43 37 92 22
48 39 93 37 98 -2 6 -14 -11 -26 -39z"/>
<path d="M2816 218 c3 -4 11 -5 19 -1 21 7 19 12 -4 10 -11 0 -18 -5 -15 -9z"/>
<path d="M1657 214 c-4 -4 -7 -14 -7 -23 0 -11 3 -12 11 -4 6 6 10 16 7 23 -2
6 -7 8 -11 4z"/>
<path d="M2703 206 c5 -15 24 -18 24 -3 0 8 -6 14 -14 14 -7 0 -12 -5 -10 -11z"/>
<path d="M515 200 c3 -5 8 -10 11 -10 2 0 4 5 4 10 0 6 -5 10 -11 10 -5 0 -7
-4 -4 -10z"/>
<path d="M576 191 c22 -21 27 -21 18 3 -3 9 -13 16 -22 16 -13 0 -12 -3 4 -19z"/>
<path d="M1643 124 c-49 -106 -52 -115 -35 -121 7 -3 10 1 7 9 -3 7 13 51 35
97 22 46 39 88 37 94 -1 5 -21 -30 -44 -79z"/>
<path d="M1714 185 c11 -8 25 -15 31 -15 6 0 28 -18 49 -39 30 -31 37 -45 33
-63 -7 -28 2 -68 15 -68 6 0 8 20 6 45 -2 35 0 44 10 40 8 -3 16 -5 18 -5 3 0
2 -4 -1 -10 -3 -5 0 -7 9 -4 10 4 18 -6 27 -30 7 -20 19 -36 26 -36 9 0 8 12
-6 47 -14 36 -25 49 -42 51 -13 2 -47 24 -75 49 -33 28 -65 46 -86 48 -31 4
-32 3 -14 -10z"/>
<path d="M770 175 c0 -8 4 -15 10 -15 5 0 7 7 4 15 -4 8 -8 15 -10 15 -2 0 -4
-7 -4 -15z"/>
<path d="M880 180 c-8 -5 -18 -6 -22 -4 -4 3 -8 0 -8 -6 0 -10 36 -5 49 6 10
9 -6 12 -19 4z"/>
<path d="M1061 172 c-6 -12 -8 -22 -4 -22 4 0 2 -5 -5 -12 -15 -15 -15 -51 -1
-100 12 -45 34 -52 24 -8 -9 39 3 39 16 0 6 -16 17 -30 24 -30 11 0 11 7 -2
37 -8 21 -21 65 -27 98 -12 55 -14 58 -25 37z m0 -69 c-12 -20 -14 -14 -5 12
4 9 9 14 11 11 3 -2 0 -13 -6 -23z"/>
<path d="M960 174 c0 -3 7 -12 15 -20 16 -17 18 -14 9 10 -6 15 -24 23 -24 10z"/>
<path d="M1690 173 c0 -10 28 -32 34 -26 11 11 6 21 -14 26 -11 3 -20 3 -20 0z"/>
<path d="M780 136 c0 -2 8 -10 18 -17 15 -13 16 -12 3 4 -13 16 -21 21 -21 13z"/>
<path d="M1648 80 c-24 -53 -25 -60 -10 -72 13 -11 15 -10 9 11 -7 27 28 105
43 96 6 -3 7 1 4 9 -10 26 -18 18 -46 -44z"/>
<path d="M2337 128 c6 -7 13 -20 16 -28 4 -10 6 -8 6 6 1 12 -6 25 -15 28 -13
5 -14 3 -7 -6z"/>
<path d="M454 118 c-4 -7 -4 -10 1 -6 4 4 14 3 21 -3 9 -7 14 -6 20 3 4 7 4
10 -1 6 -4 -4 -14 -3 -21 3 -9 7 -14 6 -20 -3z"/>
<path d="M545 110 c21 -24 26 -25 19 -6 -3 8 -13 17 -22 21 -13 5 -13 2 3 -15z"/>
<path d="M646 113 c-3 -8 -2 -12 3 -9 9 6 36 -43 32 -58 -1 -4 3 -14 9 -20 5
-7 7 -16 3 -19 -3 -4 1 -7 11 -7 19 0 18 8 -11 86 -14 40 -37 53 -47 27z"/>
<path d="M825 110 c-3 -5 -1 -10 4 -10 6 0 11 5 11 10 0 6 -2 10 -4 10 -3 0
-8 -4 -11 -10z"/>
<path d="M2315 110 c-3 -5 1 -10 10 -10 9 0 13 5 10 10 -3 6 -8 10 -10 10 -2
0 -7 -4 -10 -10z"/>
<path d="M510 84 c0 -8 5 -12 10 -9 6 4 8 11 5 16 -9 14 -15 11 -15 -7z"/>
<path d="M2360 80 c-9 -6 -10 -10 -3 -10 6 0 15 5 18 10 8 12 4 12 -15 0z"/>
<path d="M540 66 c0 -2 8 -10 18 -17 15 -13 16 -12 3 4 -13 16 -21 21 -21 13z"/>
<path d="M820 39 c11 -38 26 -55 17 -19 -4 14 -7 31 -7 38 0 6 -4 12 -9 12 -6
0 -6 -12 -1 -31z"/>
<path d="M2186 35 c-4 -11 2 -15 24 -15 16 0 32 -4 35 -10 3 -5 10 -10 16 -10
5 0 -1 11 -13 25 -24 28 -53 33 -62 10z"/>
<path d="M1773 27 c4 -11 1 -14 -9 -10 -7 3 -14 1 -14 -4 0 -6 12 -10 28 -9
31 1 38 29 8 34 -14 3 -17 0 -13 -11z"/>
<path d="M893 23 c9 -2 25 -2 35 0 9 3 1 5 -18 5 -19 0 -27 -2 -17 -5z"/>
<path d="M2578 13 c7 -3 16 -2 19 1 4 3 -2 6 -13 5 -11 0 -14 -3 -6 -6z"/>
</g>
</svg>
