<?xml version="1.0" standalone="no"?>
<!DOCTYPE svg PUBLIC "-//W3C//DTD SVG 20010904//EN"
 "http://www.w3.org/TR/2001/REC-SVG-20010904/DTD/svg10.dtd">
<svg version="1.0" xmlns="http://www.w3.org/2000/svg"
 width="300.000000pt" height="200.000000pt" viewBox="0 0 300.000000 200.000000"
 preserveAspectRatio="xMidYMid meet">
<metadata>
Created by potrace 1.10, written by Peter Selinger 2001-2011
</metadata>
<g transform="translate(0.000000,200.000000) scale(0.100000,-0.100000)"
fill="#000000" stroke="none">
<path d="M218 1993 c23 -2 59 -2 80 0 20 2 1 4 -43 4 -44 0 -61 -2 -37 -4z"/>
<path d="M374 1989 c-2 -3 69 -9 157 -13 88 -4 168 -10 177 -13 12 -4 14 -3 7
4 -11 12 -334 32 -341 22z"/>
<path d="M1098 1974 c-2 -21 -8 -28 -20 -26 -11 2 -18 -3 -18 -13 0 -15 -10
-16 -72 -11 -77 7 -931 56 -967 56 -11 0 -21 -4 -21 -9 0 -4 37 -11 83 -15 77
-6 565 -34 597 -34 8 0 94 -6 191 -12 176 -12 177 -12 207 10 32 24 47 59 32
74 -5 5 -10 -4 -12 -20z"/>
<path d="M1218 1955 c-2 -31 1 -45 9 -45 9 0 13 16 13 45 0 25 -4 45 -9 45 -5
0 -11 -20 -13 -45z"/>
<path d="M1668 1965 c4 -33 6 -35 42 -35 23 0 47 -8 61 -19 23 -19 23 -21 9
-47 -8 -15 -35 -38 -59 -51 -24 -13 -38 -23 -30 -24 8 0 -3 -7 -25 -15 -92
-33 -399 -44 -380 -12 4 6 -2 6 -14 -1 -18 -10 -22 -41 -5 -41 3 0 2 7 -1 16
-3 8 -2 12 4 9 6 -3 10 -20 10 -36 0 -18 4 -28 10 -24 6 3 10 16 10 28 0 21 3
22 112 22 62 0 140 2 173 5 68 6 72 1 60 -76 -6 -39 -9 -44 -33 -44 -20 0 -23
3 -14 12 17 17 15 33 -3 18 -8 -6 -22 -10 -31 -8 -13 2 -6 10 24 31 23 15 42
33 41 40 0 8 -2 9 -5 0 -3 -6 -30 -26 -60 -44 -29 -18 -54 -37 -54 -41 0 -4 0
-11 0 -15 0 -5 27 -6 60 -5 60 4 78 -7 44 -26 -9 -5 -15 -12 -14 -16 1 -4 -3
-20 -10 -35 -8 -21 -20 -30 -41 -33 -23 -4 -29 -1 -24 9 3 8 5 17 5 19 0 2 8
4 19 4 15 0 13 6 -15 36 l-34 35 -35 -17 c-42 -19 -47 -52 -14 -85 l22 -22
-26 7 c-16 4 -28 1 -33 -6 -4 -7 -4 -10 0 -6 4 3 21 2 38 -3 21 -6 41 -4 65 6
46 19 50 19 30 -3 -10 -10 -14 -22 -10 -25 10 -10 -48 -51 -71 -50 -12 0 -34
6 -51 13 -16 7 -36 14 -44 16 -7 1 -18 7 -24 13 -15 15 -24 14 -24 -4 0 -9 6
-14 14 -11 7 3 13 1 13 -4 0 -15 -37 -12 -43 3 -3 7 -6 5 -6 -5 -1 -11 6 -18
17 -18 14 0 15 -2 2 -10 -9 -6 -17 -5 -22 3 -5 8 -11 6 -22 -8 -13 -18 -13
-20 4 -23 22 -4 80 24 80 38 0 6 5 10 11 10 7 0 10 -19 7 -52 -2 -36 1 -52 9
-51 6 1 17 -5 25 -14 9 -12 9 -15 1 -9 -9 5 -12 0 -11 -18 1 -14 4 -23 7 -21
2 3 12 -2 22 -11 10 -9 19 -11 23 -5 4 5 -2 16 -13 23 -13 9 -17 19 -11 28 7
12 11 12 26 -1 16 -12 17 -12 9 1 -5 8 -8 22 -7 32 4 25 -14 30 -47 14 l-29
-16 11 30 c6 16 17 32 25 35 13 5 42 -17 43 -32 0 -4 2 -9 4 -11 6 -7 107 129
135 183 26 50 30 53 30 29 0 -16 -9 -44 -20 -62 -22 -36 -25 -46 -11 -37 5 3
13 0 17 -6 5 -8 3 -9 -6 -4 -10 6 -12 4 -7 -9 5 -11 3 -15 -5 -10 -8 5 -9 2
-5 -10 4 -9 3 -15 -3 -11 -5 3 -8 -3 -7 -14 0 -11 5 -17 9 -15 4 3 8 0 8 -6 0
-7 7 -10 15 -6 8 3 15 2 15 -3 0 -15 -12 -20 -34 -11 -17 6 -25 4 -34 -11 -7
-10 -9 -19 -5 -18 5 1 10 0 13 -1 18 -7 39 -7 35 0 -3 4 7 10 21 13 17 3 24 1
20 -8 -2 -7 1 -18 7 -24 9 -9 6 -11 -16 -7 -16 3 -25 1 -22 -5 4 -5 10 -7 15
-4 21 13 19 -20 -4 -70 -24 -52 -42 -75 -30 -37 5 14 4 14 -4 2 -8 -10 -8 -18
0 -27 7 -9 7 -13 -1 -13 -7 0 -9 -5 -5 -12 4 -7 -2 -5 -13 5 -11 9 -23 17 -28
17 -4 0 -14 8 -22 18 -8 9 -12 12 -9 5 5 -8 0 -8 -17 0 l-24 11 35 80 c19 45
39 83 43 84 5 2 7 8 3 13 -3 5 0 9 7 9 7 0 10 3 6 6 -3 4 0 19 8 35 20 38 19
45 -5 24 -26 -24 -61 -80 -78 -125 -61 -162 -70 -200 -52 -200 6 0 10 6 10 13
1 35 17 39 61 17 69 -35 69 -36 51 -79 l-17 -39 -48 25 c-27 13 -46 20 -42 14
3 -7 0 -8 -9 -5 -8 3 -13 11 -10 17 6 18 -29 36 -59 30 -14 -3 -28 -11 -31
-18 -4 -11 1 -11 25 -3 34 12 41 8 45 -27 3 -26 -5 -31 -22 -16 -5 4 -23 13
-41 19 l-31 10 19 -42 c10 -23 21 -68 25 -100 5 -44 10 -56 21 -52 8 4 16 6
17 6 2 0 -1 23 -5 51 -4 27 -4 60 1 72 8 20 9 20 11 -8 0 -16 1 -38 0 -47 -2
-12 4 -16 20 -13 33 6 35 14 11 31 -12 8 -22 22 -22 30 0 18 3 18 40 -4 23
-14 27 -21 18 -30 -9 -9 -9 -12 -1 -12 6 0 13 6 15 12 3 7 7 3 10 -9 4 -16 2
-20 -8 -16 -8 3 -14 0 -14 -7 0 -7 -8 -9 -19 -5 -11 3 -22 1 -25 -4 -12 -19
13 -21 54 -5 22 9 43 14 46 11 3 -3 6 -19 6 -36 1 -17 7 -36 15 -42 10 -9 13
-6 11 15 -1 14 -7 26 -13 26 -5 0 -3 5 5 10 13 9 13 10 0 10 -13 0 -13 1 0 10
19 12 33 13 26 1 -3 -5 0 -11 7 -14 8 -3 13 5 13 24 2 28 1 28 -26 14 -27 -14
-70 -10 -70 7 0 5 11 21 25 36 14 15 32 34 39 42 16 18 50 93 59 133 4 15 11
27 16 27 13 0 131 82 131 91 0 5 -28 -11 -61 -36 -34 -25 -64 -43 -66 -41 -3
3 23 70 57 149 43 100 60 152 55 166 -3 12 -11 19 -16 16 -5 -4 -9 -2 -9 4 0
6 10 15 21 22 22 11 38 0 39 -28 0 -6 20 -26 44 -45 218 -163 249 -196 244
-250 -2 -18 -7 -31 -13 -28 -5 3 -9 8 -7 13 4 13 -16 7 -21 -7 -3 -8 2 -16 14
-19 11 -3 19 -14 19 -26 0 -24 3 -25 28 -12 33 18 173 53 187 47 8 -3 15 -1
15 4 0 6 -4 10 -10 10 -5 0 -10 5 -10 10 0 14 16 12 32 -3 11 -12 16 -12 26 0
7 7 25 14 40 14 17 1 21 3 9 6 -9 2 -15 8 -12 13 7 11 45 0 45 -14 0 -11 -116
-53 -136 -48 -16 3 -13 -26 4 -33 8 -3 12 -12 8 -20 -4 -12 3 -14 42 -10 l47
4 -50 -9 c-27 -6 -58 -15 -68 -21 -10 -5 -33 -8 -50 -4 l-32 5 30 -15 c23 -12
25 -14 7 -11 -24 5 -82 -14 -82 -26 0 -4 -7 -8 -15 -8 -10 0 -15 10 -15 31 0
27 -3 30 -22 23 -54 -17 -54 -16 -39 -6 11 8 11 10 0 15 -8 3 -1 4 16 4 20 -2
30 3 33 15 3 14 -1 15 -32 6 l-36 -11 7 -56 c3 -31 13 -61 21 -67 15 -11 14
-29 -4 -91 -5 -17 -2 -23 9 -23 20 0 28 23 20 60 -3 17 -1 30 4 30 6 0 8 11 5
25 -3 20 -1 24 12 19 9 -3 30 -1 47 6 16 7 32 10 35 7 4 -3 9 -68 14 -144 l7
-138 1 153 2 152 26 11 c15 5 36 7 47 3 14 -4 17 -3 12 6 -5 9 -4 11 4 6 15
-9 -4 -36 -25 -36 -7 0 -15 -4 -18 -8 -3 -5 19 -4 49 1 30 6 52 14 48 20 -3 5
3 6 15 3 11 -4 23 -2 27 4 3 6 -3 10 -14 10 -12 0 -21 4 -21 9 0 15 18 23 25
11 4 -6 11 -8 16 -4 5 3 8 0 7 -8 -2 -7 5 -12 15 -12 17 2 17 0 2 -23 -15 -23
-15 -26 -1 -42 9 -10 13 -21 9 -25 -5 -4 -1 -6 7 -4 8 2 14 -3 13 -9 -5 -23 7
-13 18 15 17 41 22 95 8 87 -6 -4 -9 -17 -7 -29 4 -20 -12 -46 -27 -46 -13 0
-3 50 12 66 12 11 14 19 6 21 -17 6 -4 40 18 46 10 3 17 1 13 -4 -3 -5 1 -9 8
-9 7 -1 2 -7 -12 -16 l-25 -14 35 2 c34 3 35 2 35 -33 0 -31 3 -35 22 -33 21
2 21 1 8 -20 -20 -30 -6 -45 47 -52 l46 -6 24 103 c23 98 26 149 7 118 -7 -12
-15 6 -22 52 -4 23 -77 125 -77 108 0 -20 -27 -45 -37 -35 -4 4 -3 10 3 14 6
4 14 17 18 29 4 11 22 33 41 48 45 34 63 69 69 136 l6 54 -14 -60 c-17 -79
-23 -90 -52 -105 -13 -7 -24 -16 -24 -20 0 -4 -23 -5 -50 -2 -57 5 -80 -8 -80
-44 0 -27 -15 -32 -24 -9 -8 22 -39 18 -54 -6 -10 -16 -17 -18 -25 -10 -27 27
-103 -5 -94 -40 3 -11 1 -22 -4 -25 -5 -3 -7 -9 -4 -14 3 -5 1 -11 -5 -15 -5
-3 -10 1 -10 9 0 10 -6 13 -15 10 -8 -4 -15 -13 -15 -21 0 -7 -6 -13 -12 -12
-12 2 -34 -2 -89 -17 -14 -4 -17 4 -16 45 1 36 -5 56 -18 71 -22 24 -13 37 30
43 19 2 12 5 -22 6 -28 0 -58 7 -65 14 -7 7 -29 24 -48 37 -19 13 -37 27 -40
30 -3 3 -24 18 -47 34 -24 16 -59 48 -78 72 -38 46 -55 53 -77 31 -7 -8 -20
-12 -28 -9 -12 4 -13 2 -2 -9 16 -18 15 -29 -4 -29 -8 0 -12 4 -9 10 4 6 -1 7
-10 3 -14 -5 -12 -10 14 -30 22 -17 29 -29 22 -37 -9 -11 -11 -17 -11 -37 0
-5 -4 -8 -8 -5 -4 2 -8 -7 -7 -22 0 -21 -5 -26 -26 -27 -14 -1 -32 -5 -39 -10
-10 -6 -12 -4 -7 8 4 10 2 16 -5 14 -6 -1 -13 4 -16 12 -2 8 -1 11 4 8 14 -8
14 47 1 56 -7 5 2 5 20 2 37 -7 48 5 27 31 -14 18 -15 18 -4 -3 8 -18 8 -23
-3 -23 -8 0 -13 9 -11 23 1 12 3 28 3 35 1 7 5 11 10 7 5 -3 13 0 17 6 4 8 3
9 -5 5 -16 -11 -32 35 -17 53 9 12 8 13 -3 6 -11 -6 -13 -4 -6 11 5 10 11 46
13 79 2 33 8 65 13 70 7 7 8 3 3 -10 -7 -17 -3 -16 28 8 20 15 41 27 47 27 11
0 61 80 61 96 0 26 -42 54 -80 54 -35 0 -39 3 -45 30 -9 42 -22 38 -17 -5z
m72 -160 c-7 -8 -17 -15 -23 -15 -6 0 -2 7 9 15 25 19 30 19 14 0z m-227 -246
c15 -17 16 -23 5 -37 -7 -9 -17 -20 -22 -24 -12 -8 -55 23 -56 40 0 13 16 17
23 5 2 -5 2 -2 0 5 -9 35 24 42 50 11z m107 -190 c0 -6 -4 -7 -10 -4 -5 3 -10
11 -10 16 0 6 5 7 10 4 6 -3 10 -11 10 -16z m70 -10 c0 -15 -23 -59 -30 -59
-5 0 -7 8 -6 18 0 9 -5 16 -11 15 -17 -4 -16 2 1 20 15 15 46 19 46 6z m868
-8 c11 -7 9 -13 -9 -29 -21 -20 -23 -20 -35 -4 -21 27 -18 32 26 41 3 0 11 -3
18 -8z m-958 -25 c0 -11 -19 -15 -25 -6 -3 5 1 10 9 10 9 0 16 -2 16 -4z m840
-5 c0 -5 3 -16 6 -24 3 -8 -2 -17 -11 -21 -13 -5 -15 -1 -10 14 4 12 2 20 -5
20 -6 0 -8 5 -5 10 8 13 25 13 25 1z m190 -51 c0 -14 -33 -21 -41 -8 -12 19
10 41 27 27 8 -6 14 -15 14 -19z m-260 14 c0 -14 -22 -44 -33 -44 -15 0 -38
35 -30 44 8 8 63 8 63 0z m160 -15 c0 -4 -3 -10 -8 -13 -9 -5 -44 19 -36 26 7
8 44 -3 44 -13z m46 -16 c4 -10 8 -20 9 -23 13 -51 35 -69 35 -29 0 12 -4 17
-11 14 -6 -4 -5 2 3 14 12 20 13 20 20 2 3 -10 3 -34 -1 -53 -5 -20 -4 -42 0
-51 10 -17 -6 -34 -16 -17 -3 5 -14 10 -23 10 -13 0 -14 -2 -4 -8 14 -9 6 -42
-11 -42 -5 0 -2 -9 8 -20 15 -17 16 -20 3 -20 -16 0 -28 20 -28 46 0 9 5 12
10 9 13 -8 13 8 1 21 -6 5 -4 16 5 28 8 11 14 14 14 8 0 -7 5 -12 10 -12 6 0
10 9 10 20 0 17 -5 19 -27 14 -19 -4 -24 -2 -15 4 10 7 9 15 -5 40 -10 18 -22
32 -27 32 -5 0 -3 7 4 15 16 20 26 19 36 -2z m-96 -3 c-8 -5 -22 -10 -30 -10
-13 0 -13 1 0 10 8 5 22 10 30 10 13 0 13 -1 0 -10z m70 -40 c8 -14 8 -20 0
-20 -6 0 -9 -4 -6 -9 3 -5 -13 -9 -37 -10 -70 -2 -97 -6 -97 -13 0 -4 -7 -5
-15 -2 -8 4 -15 1 -15 -5 0 -6 -4 -11 -10 -11 -17 0 -11 37 8 44 9 3 24 9 32
12 13 5 13 4 0 -5 -22 -16 1 -13 30 4 15 9 19 14 10 15 -33 1 15 20 52 20 27
0 40 -5 48 -20z m-204 -57 c-4 -4 -12 -1 -19 7 -9 10 -9 11 1 6 7 -4 12 -2 13
6 0 11 2 11 6 0 3 -7 2 -16 -1 -19z m334 -1 c0 -13 -12 -22 -22 -16 -10 6 -1
24 13 24 5 0 9 -4 9 -8z m-130 -17 c0 -18 -12 -19 -27 -4 -15 15 -83 1 -77
-16 4 -9 -3 -12 -19 -11 -34 2 -29 25 7 35 53 15 116 13 116 -4z m136 -42
c-12 -69 -37 -133 -52 -133 -20 0 -17 18 4 23 13 3 11 6 -10 15 -15 6 -26 17
-24 24 3 7 7 25 10 41 4 18 13 27 26 27 11 0 18 -5 16 -12 -14 -44 -17 -72 -7
-62 6 5 12 30 14 55 2 37 11 58 26 59 2 0 0 -17 -3 -37z m-589 21 c-3 -3 -12
-4 -19 -1 -8 3 -5 6 6 6 11 1 17 -2 13 -5z m253 -30 c0 -17 -10 -17 -33 0 -16
12 -15 14 8 14 15 0 25 -6 25 -14z m-260 -14 c-8 -5 -19 -10 -25 -10 -5 0 -3
5 5 10 8 5 20 10 25 10 6 0 3 -5 -5 -10z m7 -37 c-9 -9 -20 -13 -24 -9 -4 4
-1 11 7 16 25 16 35 11 17 -7z m-621 -2 c-3 -5 7 -14 24 -21 24 -10 27 -15 18
-30 -11 -17 -13 -16 -45 2 -44 27 -49 36 -21 47 30 13 30 13 24 2z m1125 -54
c-1 -12 -15 -9 -19 4 -3 6 1 10 8 8 6 -3 11 -8 11 -12z"/>
<path d="M1655 1340 c3 -5 8 -10 11 -10 2 0 4 5 4 10 0 6 -5 10 -11 10 -5 0
-7 -4 -4 -10z"/>
<path d="M1852 1935 c-1 -41 2 -64 7 -55 4 8 5 40 1 70 l-7 55 -1 -70z"/>
<path d="M2006 1953 c4 -154 35 -393 59 -451 17 -38 72 -92 95 -91 11 0 11 3
-4 12 -45 29 -65 49 -79 79 -19 41 -44 213 -53 376 -4 67 -10 122 -13 122 -4
0 -6 -21 -5 -47z"/>
<path d="M2042 1873 c9 -159 34 -335 49 -343 6 -4 10 -10 10 -14 -1 -3 -1 -11
-1 -17 0 -12 90 -54 135 -63 l30 -6 -30 14 c-36 17 -69 28 -71 24 -1 -2 -11 5
-21 15 -11 9 -23 14 -28 10 -4 -5 -5 -3 -2 3 3 6 0 28 -7 50 -8 21 -17 59 -20
84 -13 98 -25 238 -27 303 -1 41 -6 67 -13 67 -8 0 -9 -36 -4 -127z"/>
<path d="M2082 1948 c-2 -58 12 -80 20 -33 3 14 2 25 -3 25 -4 0 -10 15 -12
33 -2 19 -4 10 -5 -25z"/>
<path d="M2669 1858 c0 -179 -7 -275 -23 -356 -7 -37 -9 -59 -3 -53 6 6 14 32
19 58 10 60 23 493 14 493 -3 0 -6 -64 -7 -142z"/>
<path d="M2712 1980 c0 -14 2 -19 5 -12 2 6 2 18 0 25 -3 6 -5 1 -5 -13z"/>
<path d="M2733 1848 c4 -84 10 -241 13 -348 4 -107 7 -210 8 -229 1 -36 19
-48 66 -46 14 1 60 3 103 3 46 1 77 6 77 13 0 5 -6 7 -12 3 -10 -6 -10 -4 0 7
17 18 15 30 -3 23 -9 -4 -15 0 -15 10 0 9 -7 16 -16 16 -9 0 -12 5 -8 12 5 7
3 8 -5 3 -9 -5 -7 -13 8 -29 12 -12 21 -26 21 -32 0 -5 -33 -9 -74 -9 -41 0
-72 3 -69 8 2 4 -5 7 -17 7 -12 0 -18 -4 -15 -10 3 -5 2 -10 -4 -10 -6 0 -12
15 -15 33 -5 31 -26 599 -26 685 0 25 -5 42 -11 42 -9 0 -10 -41 -6 -152z"/>
<path d="M2840 1985 c0 -8 2 -15 4 -15 2 0 6 7 10 15 3 8 1 15 -4 15 -6 0 -10
-7 -10 -15z"/>
<path d="M815 1960 c99 -9 241 -12 234 -6 -2 2 -76 6 -164 9 -120 4 -138 3
-70 -3z"/>
<path d="M1821 1944 c0 -11 3 -14 6 -6 3 7 2 16 -1 19 -3 4 -6 -2 -5 -13z"/>
<path d="M2975 1948 c-6 -18 -26 -291 -21 -295 2 -2 7 22 10 54 16 136 18 149
28 128 7 -16 7 -15 2 5 -11 47 -12 84 -3 102 7 12 6 18 -1 18 -6 0 -13 -6 -15
-12z"/>
<path d="M2712 1930 c0 -14 2 -19 5 -12 2 6 2 18 0 25 -3 6 -5 1 -5 -13z"/>
<path d="M2761 1934 c0 -11 3 -14 6 -6 3 7 2 16 -1 19 -3 4 -6 -2 -5 -13z"/>
<path d="M2847 1941 c8 -9 9 -21 2 -38 -5 -14 -6 -29 -3 -34 3 -6 0 -17 -7
-25 -9 -11 -10 -17 -1 -22 6 -5 12 -42 13 -92 1 -49 6 -88 13 -92 8 -6 8 -8 0
-8 -8 0 -12 -33 -13 -100 -1 -55 2 -100 6 -100 4 0 7 31 6 70 l-2 70 32 -6
c18 -3 38 -7 45 -7 6 0 12 -13 12 -29 0 -39 20 -35 21 5 0 17 3 26 6 20 7 -19
22 -16 19 5 -3 18 -9 19 -88 21 -27 1 -48 6 -48 12 0 5 4 8 9 4 6 -3 10 24 10
65 0 41 -4 68 -9 65 -6 -3 -9 11 -7 34 1 31 6 41 20 41 9 0 17 7 17 15 0 18
-12 19 -28 3 -16 -16 -16 4 1 21 10 11 9 12 -2 6 -11 -6 -13 -4 -8 9 19 48 18
62 -5 81 -13 11 -18 13 -11 6z"/>
<path d="M2912 1929 c3 -8 -1 -20 -9 -27 -7 -7 -13 -18 -13 -24 0 -6 9 -1 20
12 23 26 25 36 9 46 -7 4 -10 1 -7 -7z"/>
<path d="M1150 1903 c-35 -24 -26 -67 24 -118 25 -25 48 -55 52 -67 4 -13 16
-31 27 -40 25 -22 15 -48 -17 -48 -14 0 -60 -5 -103 -11 -71 -11 -81 -15 -115
-51 -21 -21 -38 -45 -38 -52 0 -7 -36 -47 -80 -89 -44 -41 -80 -82 -80 -90 0
-8 -20 -31 -43 -51 -24 -20 -50 -49 -57 -64 -8 -15 -37 -50 -66 -78 -63 -62
-75 -99 -72 -213 2 -65 6 -80 18 -78 8 1 15 -2 15 -8 3 -46 35 -102 49 -87 4
4 2 -6 -3 -21 -6 -16 -11 -34 -10 -40 0 -7 5 1 11 16 8 23 12 26 25 16 8 -7
24 -30 35 -52 16 -32 19 -51 14 -101 -4 -33 -7 -77 -9 -96 -1 -19 -8 -40 -16
-46 -10 -8 -11 -13 -3 -18 7 -4 12 -2 12 3 0 6 4 11 9 11 6 0 6 -12 1 -30 -11
-37 -3 -40 10 -4 8 21 15 25 34 20 39 -10 60 15 58 69 -2 35 2 51 15 61 10 7
20 14 23 14 8 0 45 -63 43 -72 -1 -3 5 -5 15 -3 11 1 16 10 15 26 -3 22 -2 22
8 6 10 -18 8 -75 -4 -125 -8 -31 1 -52 23 -52 9 0 53 37 96 83 44 45 97 96
117 112 31 24 39 38 41 70 2 21 8 41 13 42 6 2 9 -8 6 -24 -4 -27 -4 -27 11 4
9 20 29 40 50 50 37 17 44 37 26 78 -7 16 -9 12 -9 -19 -1 -53 -9 -42 -12 17
-2 26 -6 47 -10 47 -4 0 -6 -26 -4 -57 3 -38 2 -51 -4 -38 -5 11 -7 23 -5 27
3 4 0 9 -6 13 -6 3 -9 -9 -7 -32 3 -47 -24 -53 -35 -8 -7 27 -7 27 -4 -6 3
-26 0 -36 -10 -36 -16 0 -22 19 -27 82 -3 36 -4 35 -5 -11 -1 -28 3 -66 9 -84
12 -34 2 -50 -31 -49 -8 0 -4 5 10 11 l25 11 -27 10 c-16 6 -28 17 -28 25 0 8
6 12 13 9 8 -3 14 1 14 9 0 8 -6 13 -13 10 -20 -8 -25 6 -6 21 12 10 8 9 -15
-2 -31 -14 -36 -14 -72 5 -22 11 -45 28 -50 37 -6 10 -10 14 -11 8 0 -5 4 -15
8 -21 12 -18 92 -55 103 -48 7 4 6 -2 -1 -16 -10 -19 -18 -21 -48 -16 -22 3
-47 17 -65 36 -16 17 -33 27 -39 24 -7 -5 -9 1 -5 15 3 13 3 20 0 17 -3 -3
-12 2 -20 12 -8 9 -12 12 -9 5 8 -14 -3 -43 -16 -43 -5 0 -20 12 -33 27 -19
22 -21 32 -13 48 6 11 16 23 22 27 7 5 4 8 -6 8 -24 0 -46 -36 -54 -87 -6 -39
-4 -44 17 -52 22 -9 22 -10 3 -10 -49 -2 -56 41 -19 114 32 64 26 69 -7 8 -34
-62 -53 -127 -44 -150 7 -16 9 -16 22 7 14 23 14 23 9 3 -5 -19 -3 -22 12 -16
10 4 21 11 24 16 9 12 31 -1 24 -14 -4 -5 -1 -9 5 -9 6 0 8 -5 5 -10 -3 -5
-11 -10 -16 -10 -6 0 -7 5 -4 10 8 13 2 13 -30 -2 -16 -7 -24 -17 -20 -26 4
-10 0 -13 -15 -9 -23 6 -24 1 -21 -89 3 -55 1 -62 -18 -67 -17 -4 -21 -1 -21
16 0 18 2 19 11 7 7 -11 9 2 6 48 -3 34 -1 62 3 62 7 0 -3 73 -15 105 -8 20
-8 20 9 0 17 -20 17 -20 7 1 -5 11 -30 40 -55 64 -46 44 -58 74 -33 83 6 2 8
8 4 13 -5 5 -14 1 -21 -8 -18 -24 -25 -13 -20 30 2 21 2 31 -2 25 -6 -15 -24
-17 -24 -4 0 4 13 23 29 42 17 18 27 36 25 39 -3 3 -15 -6 -26 -19 -16 -21
-21 -22 -29 -10 -13 20 -11 28 11 56 11 14 20 20 20 13 0 -8 4 -9 13 -3 6 5
28 10 46 12 58 3 49 12 -10 9 -37 -1 -61 -8 -76 -22 l-23 -19 20 60 c17 48 29
66 65 93 25 19 45 38 45 42 0 5 4 6 10 3 6 -3 7 1 3 10 -4 12 13 36 54 78 33
34 65 74 71 89 6 15 24 34 40 42 32 16 90 84 116 133 21 43 35 49 147 68 52 9
104 19 116 21 28 7 36 -33 12 -61 -10 -11 -26 -40 -37 -66 -17 -38 -18 -48 -6
-64 7 -10 11 -21 9 -26 -3 -4 -2 -10 3 -12 4 -3 13 6 19 20 10 21 10 24 -3 19
-7 -3 -14 -1 -14 4 0 6 9 10 19 10 27 0 35 17 12 23 -13 3 -19 13 -18 31 2 25
21 41 37 31 5 -3 7 4 5 16 -3 16 0 19 12 15 11 -5 13 -2 8 11 -4 10 -8 30 -10
46 -1 15 -5 30 -10 35 -4 4 -4 -4 -1 -18 l7 -25 -20 24 c-12 12 -19 27 -16 31
3 4 -2 11 -10 14 -18 6 -56 86 -49 98 3 4 -1 8 -8 8 -21 0 -78 57 -78 77 0 24
19 43 42 43 10 0 18 4 18 8 0 13 -28 10 -50 -5z m-250 -1201 c14 -20 45 -58
69 -84 37 -41 49 -48 82 -48 21 0 41 5 44 10 4 6 -11 10 -37 10 -38 0 -47 5
-90 52 -44 49 -62 78 -38 63 6 -3 11 4 11 17 l2 23 4 -22 c2 -13 9 -23 14 -23
6 0 26 -16 45 -36 30 -33 38 -36 72 -32 33 5 39 2 50 -20 6 -14 10 -28 7 -30
-3 -3 -5 1 -5 8 0 9 -7 6 -20 -8 -30 -32 -89 -30 -132 5 l-33 27 35 -38 c33
-36 37 -37 83 -31 55 7 65 -11 11 -21 -22 -4 -45 -2 -62 7 -15 7 -30 15 -35
17 -4 2 -4 -3 -1 -12 3 -9 2 -16 -4 -16 -14 0 -23 28 -12 35 6 4 4 16 -5 29
-8 12 -13 25 -11 27 3 2 -3 15 -13 28 l-18 23 1 -46 c1 -25 4 -46 9 -46 11 0
9 -48 -3 -55 -5 -3 -10 -3 -11 2 0 4 -2 17 -5 28 -2 11 -5 30 -6 41 -2 21 -3
21 -35 6 -18 -9 -31 -17 -29 -20 2 -2 14 2 26 8 12 6 24 9 27 7 3 -3 -9 -13
-26 -21 -35 -18 -45 -20 -36 -6 3 6 1 10 -5 10 -7 0 -11 -19 -10 -52 2 -75 1
-92 -7 -85 -3 4 -8 29 -10 57 -1 27 -4 55 -5 62 -2 6 14 20 35 30 36 18 53 36
21 24 -9 -3 -12 -2 -9 5 4 6 13 8 21 5 50 -19 62 50 14 84 -17 12 -27 27 -24
35 8 20 26 10 54 -33z m265 -82 c-28 -12 -37 -12 -30 0 3 6 16 10 28 9 21 0
21 -1 2 -9z m23 -50 c-17 -26 -37 -33 -55 -18 -13 10 -10 14 18 24 47 17 51
17 37 -6z m-48 -51 c0 -6 -4 -7 -10 -4 -5 3 -10 11 -10 16 0 6 5 7 10 4 6 -3
10 -11 10 -16z m-48 -30 c-11 -8 -23 -26 -27 -38 -4 -14 -10 -19 -14 -13 -4 7
-14 -2 -25 -22 -10 -19 -29 -39 -43 -45 -25 -12 -26 -11 -19 20 3 17 6 50 6
73 l0 42 70 -1 c66 0 69 -1 52 -16z"/>
<path d="M1647 1905 c3 -8 9 -12 14 -9 12 7 11 11 -5 17 -10 4 -13 1 -9 -8z"/>
<path d="M1693 1913 c9 -2 25 -2 35 0 9 3 1 5 -18 5 -19 0 -27 -2 -17 -5z"/>
<path d="M1827 1888 c-3 -12 -2 -29 3 -37 7 -12 9 -6 10 22 0 42 -5 48 -13 15z"/>
<path d="M2763 1860 c0 -30 2 -43 4 -27 2 15 2 39 0 55 -2 15 -4 2 -4 -28z"/>
<path d="M1202 1889 c-18 -3 -36 -9 -39 -12 -6 -6 69 3 76 9 10 9 -6 10 -37 3z"/>
<path d="M480 1875 c0 -8 4 -15 10 -15 5 0 7 7 4 15 -4 8 -8 15 -10 15 -2 0
-4 -7 -4 -15z"/>
<path d="M1662 1878 c-10 -13 -10 -17 0 -21 10 -4 10 -7 -1 -18 -12 -12 -13
-12 -5 1 4 8 -6 2 -23 -15 -37 -36 -35 -42 7 -20 34 18 43 33 38 66 -3 20 -4
20 -16 7z"/>
<path d="M2705 1757 c-4 -74 -5 -141 -3 -149 3 -7 8 52 12 130 4 79 5 146 3
149 -3 2 -8 -56 -12 -130z"/>
<path d="M2815 1879 c4 -10 2 -20 -4 -24 -6 -3 -11 -18 -10 -33 0 -15 3 -20 6
-12 2 8 9 25 16 38 8 17 8 25 -2 35 -10 9 -11 9 -6 -4z"/>
<path d="M2090 1830 c0 -29 3 -50 7 -46 7 7 5 87 -3 95 -2 2 -4 -20 -4 -49z"/>
<path d="M1254 1864 c-6 -2 -9 -18 -6 -34 3 -21 12 -31 35 -39 38 -14 47 -14
47 0 0 5 -4 7 -10 4 -9 -6 -14 8 -11 28 1 4 -10 12 -25 17 -14 6 -22 14 -19
20 7 11 6 11 -11 4z m40 -50 c5 -14 4 -15 -9 -4 -17 14 -19 20 -6 20 5 0 12
-7 15 -16z"/>
<path d="M2901 1861 c-10 -7 -10 -10 -1 -16 6 -4 16 -3 22 3 13 13 -4 23 -21
13z"/>
<path d="M412 1840 c-6 -11 -12 -28 -12 -38 0 -23 25 -57 42 -57 15 0 27 -57
27 -138 l1 -58 -42 33 c-24 18 -60 48 -81 65 -20 18 -43 33 -51 33 -8 0 -16 8
-18 17 -2 13 -6 10 -15 -10 -12 -26 -11 -27 16 -27 20 0 36 -9 51 -27 11 -14
29 -31 38 -37 117 -71 120 -77 132 -309 5 -103 5 -184 0 -187 -4 -3 -12 -19
-16 -35 -8 -37 -32 -65 -54 -65 -10 0 -28 -8 -41 -19 -34 -26 -105 -61 -126
-61 -31 0 7 -27 47 -33 34 -5 34 -5 7 6 -33 13 -35 27 -4 28 36 1 59 7 70 18
6 6 19 11 30 11 11 0 15 5 11 11 -4 7 1 9 12 7 14 -3 25 7 41 37 l22 40 1 -38
c0 -24 -8 -48 -20 -64 -11 -14 -19 -37 -19 -52 2 -22 2 -23 6 -5 2 12 12 29
23 39 18 16 18 14 19 -52 1 -37 3 -79 5 -93 2 -14 4 -39 5 -57 1 -26 4 -30 20
-26 12 3 17 11 14 19 -3 8 -8 12 -12 10 -3 -2 -5 33 -4 77 1 45 -2 84 -6 87
-4 3 -11 113 -14 245 -7 242 -29 635 -37 655 -1 3 -1 17 0 33 2 32 -15 36 -30
6 -9 -16 -8 -24 5 -39 22 -24 11 -44 -16 -30 -24 13 -25 57 -2 82 13 14 13 18
2 18 -8 0 -20 -9 -27 -20z"/>
<path d="M507 1841 c-4 -17 -3 -21 5 -13 5 5 8 16 6 23 -3 8 -7 3 -11 -10z"/>
<path d="M1507 1848 c-7 -5 -2 -8 15 -8 15 0 29 4 32 8 6 10 -31 10 -47 0z"/>
<path d="M1345 1840 c23 -10 81 -13 72 -4 -3 4 -25 8 -49 9 -30 2 -37 0 -23
-5z"/>
<path d="M1160 1835 c0 -3 21 -19 47 -35 26 -17 41 -30 33 -30 -7 0 -11 -2 -8
-5 3 -3 13 -3 22 1 14 5 10 11 -21 30 -21 12 -46 28 -55 34 -10 6 -18 8 -18 5z"/>
<path d="M1855 1829 c-4 -6 -5 -12 -2 -15 2 -3 7 2 10 11 7 17 1 20 -8 4z"/>
<path d="M2902 1793 c-17 -21 -29 -39 -27 -42 5 -4 40 34 56 62 16 28 4 20
-29 -20z"/>
<path d="M521 1803 c0 -10 4 -42 8 -71 4 -29 4 -55 0 -57 -3 -3 -9 22 -11 55
-2 33 -10 66 -18 73 -10 10 -12 8 -6 -8 4 -11 10 -51 12 -90 15 -257 27 -471
30 -535 2 -41 7 -108 10 -149 4 -51 3 -71 -5 -67 -6 4 -3 -13 6 -38 10 -25 18
-44 19 -43 0 1 -2 56 -5 122 -4 66 -6 183 -6 259 1 119 -1 135 -11 110 -10
-25 -12 -7 -13 120 -1 94 3 153 9 162 8 9 8 35 -1 93 -10 74 -20 107 -18 64z"/>
<path d="M2992 1790 c0 -14 2 -19 5 -12 2 6 2 18 0 25 -3 6 -5 1 -5 -13z"/>
<path d="M1410 1780 c-12 -8 -11 -10 8 -10 12 0 22 5 22 10 0 13 -11 13 -30 0z"/>
<path d="M0 1776 c0 -2 7 -6 15 -10 8 -3 15 -1 15 4 0 6 -7 10 -15 10 -8 0
-15 -2 -15 -4z"/>
<path d="M148 1773 c6 -2 18 -2 25 0 6 3 1 5 -13 5 -14 0 -19 -2 -12 -5z"/>
<path d="M40 1758 c0 -6 3 -8 7 -5 3 4 17 -3 30 -15 23 -21 29 -15 17 16 -7
18 -54 22 -54 4z"/>
<path d="M2817 1755 c-4 -8 -2 -17 3 -20 6 -4 10 3 10 14 0 25 -6 27 -13 6z"/>
<path d="M185 1740 c13 -14 14 -20 5 -20 -10 0 -9 -4 2 -17 9 -10 18 -27 21
-38 3 -14 5 -11 6 10 0 17 8 41 17 53 18 26 12 29 -10 6 -14 -13 -16 -13 -16
-1 0 8 -7 18 -16 21 -26 10 -28 7 -9 -14z"/>
<path d="M2100 1712 c0 -29 3 -52 8 -52 8 0 6 89 -2 98 -3 3 -6 -18 -6 -46z"/>
<path d="M2975 1685 c-4 -41 -11 -73 -16 -69 -5 3 -9 -1 -9 -8 0 -7 11 -13 25
-13 15 0 21 4 15 10 -12 11 -13 28 -2 22 4 -3 8 23 10 58 4 90 -14 90 -23 0z"/>
<path d="M26 1725 c-3 -8 -1 -15 4 -15 6 0 9 -6 8 -12 -2 -8 9 -14 27 -15 17
-1 22 1 13 3 -10 3 -21 16 -24 30 -7 27 -19 31 -28 9z"/>
<path d="M2783 1723 c-7 -3 -13 -17 -12 -31 0 -15 3 -21 6 -14 8 20 23 3 23
-26 0 -20 3 -23 9 -12 6 8 7 18 4 24 -4 5 -9 21 -12 36 -3 15 -11 25 -18 23z"/>
<path d="M2825 1699 c-4 -6 -5 -12 -2 -15 2 -3 7 2 10 11 7 17 1 20 -8 4z"/>
<path d="M2922 1690 c0 -14 2 -19 5 -12 2 6 2 18 0 25 -3 6 -5 1 -5 -13z"/>
<path d="M1335 1691 c5 -10 63 -41 74 -41 3 0 -11 11 -31 25 -39 26 -53 31
-43 16z"/>
<path d="M96 1671 c-8 -13 63 -19 74 -7 5 7 -5 12 -30 14 -21 1 -41 -2 -44 -7z"/>
<path d="M30 1623 c0 -28 -7 -58 -16 -71 -8 -12 -10 -22 -5 -22 6 0 11 4 11 9
0 11 70 45 77 37 3 -3 1 -12 -6 -20 -10 -11 -6 -17 20 -30 28 -14 30 -14 18 0
-7 9 -19 32 -25 50 -10 31 -10 36 7 45 14 7 19 7 17 -2 -2 -6 2 -13 9 -16 7
-3 9 3 6 16 -6 22 -27 28 -38 11 -11 -18 -34 -10 -37 12 -2 13 -11 24 -20 26
-15 3 -18 -4 -18 -45z m35 -7 c15 -14 10 -26 -10 -26 -6 0 -11 9 -11 20 0 24
3 24 21 6z"/>
<path d="M267 1640 c9 -10 9 -17 0 -33 -20 -35 -57 -68 -67 -62 -6 3 -10 1
-10 -6 0 -10 -3 -10 -11 -2 -8 8 -7 17 5 34 9 13 16 19 16 14 1 -16 30 27 30
43 0 11 -4 10 -17 -4 -10 -11 -36 -28 -57 -38 l-40 -19 25 -13 c14 -7 30 -24
37 -38 9 -21 8 -25 -6 -29 -14 -4 -13 -5 3 -6 11 0 31 8 45 19 14 11 20 20 15
20 -6 0 -16 -5 -23 -12 -6 -6 -15 -9 -18 -5 -4 4 14 25 40 48 62 55 70 72 43
88 -16 10 -19 10 -10 1z"/>
<path d="M1350 1640 c0 -5 5 -10 10 -10 17 0 11 -18 -7 -24 -10 -2 0 -2 22 1
22 3 44 9 50 14 16 15 28 10 15 -6 -10 -13 -9 -15 9 -15 29 0 26 24 -5 38 -14
7 -23 8 -20 3 4 -5 0 -11 -6 -14 -18 -5 -48 3 -48 14 0 5 -4 9 -10 9 -5 0 -10
-4 -10 -10z"/>
<path d="M2905 1630 c-3 -5 -1 -10 4 -10 6 0 11 5 11 10 0 6 -2 10 -4 10 -3 0
-8 -4 -11 -10z"/>
<path d="M2110 1621 c0 -6 4 -13 10 -16 6 -3 7 1 4 9 -7 18 -14 21 -14 7z"/>
<path d="M2810 1610 c0 -5 5 -10 11 -10 5 0 7 5 4 10 -3 6 -8 10 -11 10 -2 0
-4 -4 -4 -10z"/>
<path d="M1247 1558 c-45 -57 -73 -106 -93 -159 -28 -77 -33 -99 -23 -99 5 0
9 8 9 18 0 26 63 152 110 222 47 70 46 79 -3 18z"/>
<path d="M1385 1591 c-3 -6 3 -9 14 -8 11 0 17 5 15 9 -7 11 -22 10 -29 -1z"/>
<path d="M542 1525 c0 -16 2 -22 5 -12 2 9 2 23 0 30 -3 6 -5 -1 -5 -18z"/>
<path d="M250 1525 c7 -9 15 -13 17 -11 7 7 -7 26 -19 26 -6 0 -6 -6 2 -15z"/>
<path d="M1330 1536 c0 -3 7 -12 17 -21 14 -14 14 -18 2 -26 -11 -7 -10 -9 6
-9 15 0 17 -2 6 -9 -9 -6 -10 -11 -2 -15 6 -4 11 -2 11 5 0 7 8 3 18 -7 9 -11
25 -18 35 -16 10 2 24 -2 32 -8 10 -8 19 -8 34 0 25 13 28 25 4 16 -9 -4 -38
1 -65 10 -39 13 -51 22 -63 50 -8 19 -19 34 -24 34 -6 0 -11 -2 -11 -4z"/>
<path d="M2366 1514 c-3 -9 -6 -23 -5 -32 1 -10 4 -7 8 8 5 15 14 23 22 21 8
-2 22 -4 32 -5 11 0 17 -8 17 -22 0 -16 -6 -21 -25 -21 -19 0 -25 5 -25 20 0
11 -3 18 -6 14 -4 -3 -4 -17 0 -30 5 -20 11 -23 31 -19 17 3 25 0 26 -9 1 -8
5 2 9 21 11 48 -3 70 -44 70 -22 0 -36 -6 -40 -16z"/>
<path d="M2796 1514 c-11 -8 -16 -14 -10 -14 13 0 39 18 34 24 -3 2 -14 -2
-24 -10z"/>
<path d="M2 1490 c0 -19 2 -27 5 -17 2 9 2 25 0 35 -3 9 -5 1 -5 -18z"/>
<path d="M295 1510 c3 -5 14 -10 23 -10 15 0 15 2 2 10 -20 13 -33 13 -25 0z"/>
<path d="M2974 1495 c-3 -13 -4 -30 -1 -37 3 -7 6 -3 6 10 1 12 6 22 11 22 6
0 10 7 10 15 0 24 -19 17 -26 -10z"/>
<path d="M141 1480 c-1 -3 -4 -27 -6 -55 -4 -47 -4 -48 6 -16 8 26 8 91 0 71z"/>
<path d="M1842 1435 c13 -19 24 -30 26 -25 4 11 -28 60 -39 60 -5 0 1 -16 13
-35z"/>
<path d="M57 1453 c-4 -3 -7 -11 -7 -17 0 -6 5 -5 12 2 6 6 9 14 7 17 -3 3 -9
2 -12 -2z"/>
<path d="M85 1435 c-4 -16 -9 -34 -11 -40 -10 -33 -24 -92 -24 -104 0 -21 13
-4 17 22 2 12 10 43 19 69 9 26 14 56 12 65 -3 13 -6 9 -13 -12z"/>
<path d="M2343 1445 c-17 -19 -16 -25 2 -25 8 0 15 9 15 20 0 23 -1 24 -17 5z"/>
<path d="M986 1437 c3 -10 9 -15 12 -12 3 3 0 11 -7 18 -10 9 -11 8 -5 -6z"/>
<path d="M1648 1443 c7 -3 16 -2 19 1 4 3 -2 6 -13 5 -11 0 -14 -3 -6 -6z"/>
<path d="M416 1425 c-9 -26 -7 -32 5 -12 6 10 9 21 6 23 -2 3 -7 -2 -11 -11z"/>
<path d="M463 1425 c0 -8 4 -12 9 -9 5 3 6 10 3 15 -9 13 -12 11 -12 -6z"/>
<path d="M547 1419 c4 -13 8 -18 11 -10 2 7 -1 18 -6 23 -8 8 -9 4 -5 -13z"/>
<path d="M2270 1436 c0 -2 11 -6 25 -8 13 -3 22 -1 19 3 -5 9 -44 13 -44 5z"/>
<path d="M1210 1416 c0 -8 4 -17 9 -20 5 -4 7 3 4 14 -6 23 -13 26 -13 6z"/>
<path d="M181 1410 c-1 -8 6 -55 13 -103 11 -66 23 -101 45 -135 17 -26 31
-43 31 -38 0 6 -12 27 -26 47 -14 21 -24 46 -22 56 3 14 9 10 29 -19 14 -21
29 -35 32 -32 3 4 26 -5 50 -19 29 -16 50 -21 58 -16 11 7 10 9 -4 9 -9 0 -35
12 -57 26 -21 14 -44 23 -49 19 -6 -3 -11 -1 -11 5 0 6 -11 22 -24 35 -14 14
-31 53 -44 102 -11 43 -20 71 -21 63z"/>
<path d="M236 1406 c10 -8 21 -12 24 -10 5 6 -21 24 -34 24 -6 0 -1 -6 10 -14z"/>
<path d="M2400 1409 c0 -5 14 -9 32 -9 37 0 34 7 -5 14 -15 2 -27 0 -27 -5z"/>
<path d="M2188 1403 c6 -2 18 -2 25 0 6 3 1 5 -13 5 -14 0 -19 -2 -12 -5z"/>
<path d="M946 1385 c-3 -9 -12 -12 -23 -8 -19 7 -18 5 11 -17 11 -8 17 -10 13
-3 -4 7 0 16 9 21 10 6 12 12 6 16 -5 3 -12 -1 -16 -9z"/>
<path d="M1815 1380 c-4 -12 -20 -26 -36 -32 -17 -6 -28 -12 -26 -14 2 -3 16
0 30 5 25 10 54 48 44 58 -3 2 -8 -5 -12 -17z"/>
<path d="M2955 1380 c-18 -19 -19 -30 -4 -30 5 0 7 5 4 10 -4 6 5 10 19 10 15
0 26 6 26 13 0 19 -27 17 -45 -3z"/>
<path d="M2068 1383 c6 -2 18 -2 25 0 6 3 1 5 -13 5 -14 0 -19 -2 -12 -5z"/>
<path d="M2278 1383 c7 -3 16 -2 19 1 4 3 -2 6 -13 5 -11 0 -14 -3 -6 -6z"/>
<path d="M256 1371 c-4 -7 -5 -15 -2 -18 9 -9 19 4 14 18 -4 11 -6 11 -12 0z"/>
<path d="M470 1351 c0 -17 4 -32 8 -35 4 -2 6 11 4 30 -5 42 -12 45 -12 5z"/>
<path d="M975 1369 c-4 -6 -5 -12 -2 -15 2 -3 7 2 10 11 7 17 1 20 -8 4z"/>
<path d="M1857 1361 c-4 -17 -3 -21 5 -13 5 5 8 16 6 23 -3 8 -7 3 -11 -10z"/>
<path d="M2110 1376 c0 -2 11 -6 25 -8 13 -3 22 -1 19 3 -5 9 -44 13 -44 5z"/>
<path d="M2440 1372 c0 -4 9 -8 20 -9 11 -1 20 2 20 8 0 5 -9 9 -20 9 -11 0
-20 -4 -20 -8z"/>
<path d="M305 1343 c8 -18 18 -33 20 -33 10 0 4 16 -16 40 l-20 25 16 -32z"/>
<path d="M1031 1349 c-2 -35 -11 -42 -28 -21 -8 9 -7 3 3 -15 16 -29 16 -35 2
-72 -9 -23 -12 -41 -8 -41 5 0 6 -8 3 -17 -5 -13 -8 -14 -11 -3 -3 9 -9 5 -19
-11 l-14 -24 5 23 c4 22 3 23 -12 8 -10 -8 -33 -22 -52 -30 -33 -14 -33 -15
-9 -16 14 0 29 3 33 7 29 29 58 -5 45 -53 -7 -23 -17 -33 -41 -40 -43 -13 -42
-33 4 -48 20 -7 54 -27 76 -45 39 -30 62 -39 62 -23 0 13 -23 32 -40 32 -12 0
-16 17 -18 95 -3 64 0 95 7 95 6 0 11 -4 11 -9 0 -6 8 -9 18 -8 10 0 19 7 19
14 0 7 -10 11 -21 10 -17 -2 -22 4 -24 35 -2 21 1 53 7 73 7 26 6 35 -2 35 -8
0 -7 3 1 9 8 5 12 20 9 37 -4 28 -4 28 -6 3z m-21 -194 c0 -1 -9 -5 -19 -8
-13 -3 -18 -1 -14 9 4 10 33 10 33 -1z m-10 -55 c0 -27 -7 -47 -20 -60 -28
-28 -48 -25 -23 3 11 12 24 39 27 60 9 48 16 47 16 -3z"/>
<path d="M1189 1338 c-7 -18 -14 -36 -17 -40 -2 -5 1 -8 7 -8 6 0 10 3 9 8 -1
4 4 20 11 36 6 16 10 31 7 33 -2 2 -10 -11 -17 -29z"/>
<path d="M1415 1360 c-3 -5 -1 -10 4 -10 6 0 11 5 11 10 0 6 -2 10 -4 10 -3 0
-8 -4 -11 -10z"/>
<path d="M1101 1323 c-23 -85 -30 -117 -26 -122 3 -2 5 2 5 10 1 10 5 9 15 -5
13 -17 14 -14 8 32 -3 28 -1 64 6 83 6 18 9 34 7 37 -3 2 -9 -13 -15 -35z"/>
<path d="M1330 1347 c0 -8 7 -14 15 -14 11 0 12 4 4 14 -6 7 -13 13 -15 13 -2
0 -4 -6 -4 -13z"/>
<path d="M2168 1343 c7 -3 16 -2 19 1 4 3 -2 6 -13 5 -11 0 -14 -3 -6 -6z"/>
<path d="M2975 1340 c-3 -6 1 -7 9 -4 18 7 21 14 7 14 -6 0 -13 -4 -16 -10z"/>
<path d="M21 1324 c0 -11 3 -14 6 -6 3 7 2 16 -1 19 -3 4 -6 -2 -5 -13z"/>
<path d="M1250 1336 c0 -2 8 -10 18 -17 15 -13 16 -12 3 4 -13 16 -21 21 -21
13z"/>
<path d="M2820 1328 c0 -4 4 -8 9 -8 6 0 12 4 15 8 3 5 -1 9 -9 9 -8 0 -15 -4
-15 -9z"/>
<path d="M2878 1333 c12 -2 30 -2 40 0 9 3 -1 5 -23 4 -22 0 -30 -2 -17 -4z"/>
<path d="M351 1314 c0 -11 3 -14 6 -6 3 7 2 16 -1 19 -3 4 -6 -2 -5 -13z"/>
<path d="M1830 1308 c-12 -22 -12 -22 6 -6 10 10 15 20 12 24 -4 3 -12 -5 -18
-18z"/>
<path d="M2210 1326 c0 -2 9 -6 20 -9 11 -3 18 -1 14 4 -5 9 -34 13 -34 5z"/>
<path d="M1330 1309 c0 -5 5 -7 10 -4 6 3 10 8 10 11 0 2 -4 4 -10 4 -5 0 -10
-5 -10 -11z"/>
<path d="M2961 1317 c2 -1 11 -8 20 -15 13 -9 16 -9 16 3 0 8 -9 15 -20 15
-11 0 -18 -1 -16 -3z"/>
<path d="M926 1302 c-3 -5 1 -9 9 -9 8 0 12 4 9 9 -3 4 -7 8 -9 8 -2 0 -6 -4
-9 -8z"/>
<path d="M1245 1289 c-4 -6 -5 -12 -2 -15 2 -3 7 2 10 11 7 17 1 20 -8 4z"/>
<path d="M1312 1228 c22 -40 40 -83 40 -95 -1 -12 2 -24 7 -28 5 -3 7 5 4 17
-4 19 -3 20 7 8 21 -27 6 6 -40 88 -25 45 -48 82 -52 82 -3 0 12 -33 34 -72z"/>
<path d="M1540 1296 c0 -2 9 -6 20 -9 11 -3 18 -1 14 4 -5 9 -34 13 -34 5z"/>
<path d="M2780 1285 c0 -8 2 -15 4 -15 2 0 6 7 10 15 3 8 1 15 -4 15 -6 0 -10
-7 -10 -15z"/>
<path d="M2810 1285 c0 -8 4 -15 10 -15 5 0 7 7 4 15 -4 8 -8 15 -10 15 -2 0
-4 -7 -4 -15z"/>
<path d="M351 1280 c0 -8 4 -22 9 -30 12 -18 12 -2 0 25 -6 13 -9 15 -9 5z"/>
<path d="M1340 1276 c0 -8 4 -17 9 -20 5 -4 7 3 4 14 -6 23 -13 26 -13 6z"/>
<path d="M1371 1280 c0 -8 4 -24 9 -35 9 -20 9 -20 9 0 0 11 -4 27 -9 35 -9
13 -10 13 -9 0z"/>
<path d="M1999 1273 c-13 -16 -12 -17 4 -4 9 7 17 15 17 17 0 8 -8 3 -21 -13z"/>
<path d="M900 1271 c0 -4 11 -6 24 -4 13 3 27 0 30 -6 4 -6 12 -11 18 -11 7 0
6 6 -2 15 -13 16 -70 21 -70 6z"/>
<path d="M14 1257 c-3 -8 0 -25 6 -37 14 -26 5 -63 -10 -40 -9 13 -10 13 -10
0 0 -8 25 -41 55 -73 30 -32 55 -65 55 -73 0 -15 -26 -19 -34 -5 -8 13 -66 32
-66 22 0 -5 14 -14 30 -21 17 -7 30 -17 30 -22 0 -11 97 -1 120 13 10 6 7 7
-11 3 -20 -4 -30 0 -42 15 -8 12 -33 42 -56 67 -38 40 -43 51 -46 100 -4 59
-11 77 -21 51z"/>
<path d="M63 1234 c-1 -20 3 -32 7 -28 15 16 16 64 2 64 -4 0 -8 -16 -9 -36z"/>
<path d="M1561 1266 c2 -2 22 -6 44 -9 28 -5 34 -4 20 3 -19 8 -73 14 -64 6z"/>
<path d="M1869 1263 c-1 -5 -1 -12 0 -16 1 -4 -6 -10 -14 -13 -8 -4 -15 -13
-15 -20 0 -8 -6 -17 -13 -20 -9 -3 -12 -16 -9 -36 l5 -31 14 27 c8 14 11 31 8
36 -3 5 2 13 11 18 9 5 15 12 15 15 -1 4 -1 8 0 10 4 14 6 37 3 37 -2 0 -5 -3
-5 -7z"/>
<path d="M2019 1253 c-13 -16 -12 -17 4 -4 16 13 21 21 13 21 -2 0 -10 -8 -17
-17z"/>
<path d="M1165 1250 c3 -5 8 -10 11 -10 2 0 4 5 4 10 0 6 -5 10 -11 10 -5 0
-7 -4 -4 -10z"/>
<path d="M1239 1239 c-8 -15 -8 -19 0 -15 14 9 14 0 1 -25 -6 -10 -8 -19 -6
-19 3 0 13 14 22 31 10 21 11 29 3 23 -9 -5 -11 -2 -6 9 9 24 0 21 -14 -4z"/>
<path d="M1525 1250 c3 -5 8 -10 11 -10 2 0 4 5 4 10 0 6 -5 10 -11 10 -5 0
-7 -4 -4 -10z"/>
<path d="M1944 1245 c-10 -8 -14 -15 -8 -15 6 0 17 7 24 15 16 19 9 19 -16 0z"/>
<path d="M2213 1253 c9 -2 23 -2 30 0 6 3 -1 5 -18 5 -16 0 -22 -2 -12 -5z"/>
<path d="M170 1240 c0 -8 9 -32 20 -53 11 -20 20 -45 20 -54 0 -12 3 -14 10
-7 11 11 6 27 -30 94 -11 19 -19 28 -20 20z"/>
<path d="M320 1235 c-10 -12 -10 -15 4 -15 9 0 16 7 16 15 0 8 -2 15 -4 15 -2
0 -9 -7 -16 -15z"/>
<path d="M787 1230 c-38 -23 -46 -34 -20 -26 42 13 58 14 93 2 28 -9 41 -9 63
2 15 7 27 15 27 16 0 2 -12 2 -27 1 -16 -1 -34 3 -42 9 -21 17 -63 15 -94 -4z
m101 -14 c13 -13 10 -13 -29 0 -56 20 -60 24 -19 19 18 -2 40 -11 48 -19z"/>
<path d="M1551 1246 c3 -3 23 -8 45 -12 21 -3 36 -3 33 0 -3 3 -23 8 -45 12
-21 3 -36 3 -33 0z"/>
<path d="M477 1187 c-5 -32 -6 -61 -3 -65 13 -12 17 8 14 64 l-3 59 -8 -58z"/>
<path d="M1516 1230 c5 -5 32 -11 59 -14 50 -5 42 -1 -29 14 -21 5 -34 5 -30
0z"/>
<path d="M118 1207 c-3 -19 -2 -25 4 -19 6 6 8 18 6 28 -3 14 -5 12 -10 -9z"/>
<path d="M1356 1217 c3 -10 9 -15 12 -12 3 3 0 11 -7 18 -10 9 -11 8 -5 -6z"/>
<path d="M1505 1210 c3 -4 14 -10 25 -13 11 -3 18 -2 15 3 -3 4 -14 10 -25 13
-11 3 -18 2 -15 -3z"/>
<path d="M1970 1205 c-11 -13 -10 -14 4 -9 9 3 16 10 16 15 0 13 -6 11 -20 -6z"/>
<path d="M360 1201 c0 -5 5 -13 10 -16 6 -3 10 -2 10 4 0 5 -4 13 -10 16 -5 3
-10 2 -10 -4z"/>
<path d="M1380 1185 c0 -14 4 -25 9 -25 4 0 6 11 3 25 -2 14 -6 25 -8 25 -2 0
-4 -11 -4 -25z"/>
<path d="M2730 1201 c0 -9 30 -24 36 -18 2 1 -6 8 -16 15 -11 7 -20 8 -20 3z"/>
<path d="M1181 1177 c-13 -21 -12 -21 5 -5 10 10 16 20 13 22 -3 3 -11 -5 -18
-17z"/>
<path d="M1573 1193 c9 -2 23 -2 30 0 6 3 -1 5 -18 5 -16 0 -22 -2 -12 -5z"/>
<path d="M2796 1185 c4 -8 8 -15 10 -15 2 0 4 7 4 15 0 8 -4 15 -10 15 -5 0
-7 -7 -4 -15z"/>
<path d="M1500 1186 c0 -2 9 -6 20 -9 11 -3 18 -1 14 4 -5 9 -34 13 -34 5z"/>
<path d="M1558 1173 c7 -3 16 -2 19 1 4 3 -2 6 -13 5 -11 0 -14 -3 -6 -6z"/>
<path d="M1932 1160 c-7 -12 -18 -18 -25 -14 -7 4 -9 3 -4 -1 4 -5 -7 -24 -25
-42 -17 -18 -30 -34 -27 -36 2 -3 28 22 58 54 29 33 49 59 44 59 -4 0 -14 -9
-21 -20z"/>
<path d="M1995 1169 c-3 -4 2 -6 10 -5 21 3 28 13 10 13 -9 0 -18 -4 -20 -8z"/>
<path d="M2240 1170 c-8 -5 -10 -10 -5 -10 6 0 17 5 25 10 8 5 11 10 5 10 -5
0 -17 -5 -25 -10z"/>
<path d="M111 1154 c0 -11 3 -14 6 -6 3 7 2 16 -1 19 -3 4 -6 -2 -5 -13z"/>
<path d="M1666 1161 c-4 -5 3 -7 14 -4 23 6 26 13 6 13 -8 0 -17 -4 -20 -9z"/>
<path d="M2195 1160 c3 -5 11 -10 16 -10 6 0 7 5 4 10 -3 6 -11 10 -16 10 -6
0 -7 -4 -4 -10z"/>
<path d="M2982 1150 c-15 -25 -15 -30 0 -30 6 0 8 3 5 7 -4 3 -2 12 5 20 6 7
9 15 7 18 -3 2 -10 -5 -17 -15z"/>
<path d="M296 1147 c3 -10 9 -15 12 -12 3 3 0 11 -7 18 -10 9 -11 8 -5 -6z"/>
<path d="M1548 1153 c7 -3 16 -2 19 1 4 3 -2 6 -13 5 -11 0 -14 -3 -6 -6z"/>
<path d="M1764 1152 c3 -5 0 -13 -6 -15 -9 -4 -10 -6 -1 -6 17 -1 25 16 12 25
-7 4 -9 3 -5 -4z"/>
<path d="M2025 1149 c-4 -6 -14 -8 -24 -4 -13 5 -14 4 -3 -6 10 -11 15 -10 29
4 10 9 14 17 11 17 -4 0 -10 -5 -13 -11z"/>
<path d="M2145 1150 c-16 -7 -14 -8 12 -7 17 1 29 5 26 10 -5 9 -12 8 -38 -3z"/>
<path d="M2210 1141 c-25 -10 -49 -17 -55 -15 -5 2 -10 -9 -10 -26 0 -31 9
-37 35 -20 13 8 12 10 -4 10 -37 0 -8 10 50 18 50 6 59 10 59 27 0 26 -21 28
-75 6z"/>
<path d="M2045 1140 c-3 -6 1 -7 9 -4 18 7 21 14 7 14 -6 0 -13 -4 -16 -10z"/>
<path d="M700 1130 c-12 -7 -8 -10 15 -10 17 0 41 -7 53 -16 27 -18 29 -4 4
19 -21 19 -49 22 -72 7z"/>
<path d="M1938 1122 c-11 -13 -11 -14 2 -7 8 5 23 8 33 7 23 -4 22 4 -3 11
-11 3 -25 -2 -32 -11z"/>
<path d="M2755 1109 l-30 -31 39 16 c48 20 55 26 32 26 -9 0 -14 5 -11 10 11
17 1 10 -30 -21z"/>
<path d="M354 1099 l-29 -32 37 24 c21 13 38 27 38 32 0 15 -17 6 -46 -24z"/>
<path d="M816 1105 c-5 -15 22 -36 46 -34 7 0 1 5 -14 10 -17 7 -25 15 -21 25
3 8 3 14 0 14 -3 0 -7 -7 -11 -15z"/>
<path d="M1997 1102 c-28 -16 -29 -19 -24 -76 3 -34 2 -55 -4 -49 -5 5 -10 30
-11 56 -2 26 -7 47 -13 47 -5 0 -30 -9 -54 -20 -23 -11 -48 -17 -54 -13 -5 3
-7 2 -4 -3 3 -5 -21 -20 -54 -33 -53 -20 -59 -26 -59 -51 0 -23 3 -27 20 -23
11 3 23 10 26 15 4 6 -3 8 -17 3 -19 -5 -21 -4 -9 4 13 10 13 11 0 12 -16 1
77 47 97 48 6 1 10 -7 8 -18 -3 -14 1 -18 16 -14 11 3 22 10 25 15 4 6 -3 8
-17 4 l-24 -7 25 16 25 16 -25 -5 c-16 -4 -10 1 15 14 22 11 47 19 55 19 8 0
2 -5 -14 -11 -27 -10 -28 -13 -22 -54 3 -26 2 -44 -4 -44 -6 0 -10 9 -10 20 0
17 -3 18 -24 8 -15 -6 -27 -21 -29 -37 -3 -23 -4 -22 -6 7 0 17 -6 32 -12 32
-5 0 -8 -4 -5 -9 3 -5 -1 -11 -8 -14 -8 -3 -17 -1 -20 6 -3 7 -5 -5 -3 -25 2
-21 -1 -38 -5 -38 -4 0 -8 9 -8 19 0 14 -5 18 -20 14 -26 -7 -29 -63 -4 -63
15 0 15 -2 2 -22 -16 -23 -47 -40 -33 -18 6 9 4 11 -5 5 -10 -6 -10 -11 3 -20
10 -7 17 -19 17 -27 0 -12 14 -16 63 -16 l62 0 -35 15 c-19 9 -29 18 -22 20 6
3 12 9 12 14 0 13 -33 -2 -53 -26 -18 -20 -18 -20 -11 5 21 79 24 82 166 139
127 50 135 55 130 78 -4 21 -9 23 -36 19 l-31 -5 28 11 c22 10 27 18 27 45 0
18 -1 33 -2 32 -2 0 -16 -8 -31 -17z m13 -22 c-13 -9 -13 -10 0 -10 13 0 13
-1 0 -10 -8 -5 -19 -10 -25 -10 -5 0 -3 5 5 10 13 9 13 10 0 10 -13 0 -13 1 0
10 8 5 20 10 25 10 6 0 3 -5 -5 -10z m-62 -52 c-3 -14 -18 -28 -30 -28 -11 0
-5 23 7 32 15 12 25 9 23 -4z m67 -26 c-3 -3 -11 0 -18 7 -9 10 -8 11 6 5 10
-3 15 -9 12 -12z"/>
<path d="M2826 1112 c-2 -4 -1 -14 4 -22 7 -11 9 -9 7 8 -1 24 -3 26 -11 14z"/>
<path d="M713 1094 c40 -22 27 -28 -18 -9 -21 8 -40 13 -43 10 -8 -8 69 -37
84 -31 14 5 85 -49 116 -87 10 -12 18 -31 18 -42 1 -41 63 -113 125 -146 33
-17 69 -40 81 -50 24 -23 73 -28 52 -5 -7 7 -20 11 -28 9 -10 -3 -9 -1 3 7 9
6 22 8 29 4 6 -4 8 -3 4 4 -3 6 -2 13 4 17 6 4 10 -5 10 -19 0 -16 6 -26 15
-26 8 0 15 9 15 21 0 11 -4 17 -10 14 -6 -3 -7 1 -4 9 3 9 14 16 23 16 14 0
14 2 1 10 -8 5 -11 12 -7 17 14 14 42 -14 48 -48 l6 -34 2 36 c1 35 4 38 57
60 l57 22 -6 64 c-11 112 -51 164 -114 148 -17 -4 -56 -37 -97 -81 -38 -41
-75 -74 -83 -74 -8 0 -35 16 -59 35 -25 19 -70 41 -99 50 -30 8 -57 20 -61 26
-9 15 -125 89 -138 89 -6 -1 2 -8 17 -16z m554 -60 c31 -8 58 -83 54 -150 -1
-24 -59 -57 -89 -52 -23 4 -103 -23 -97 -32 3 -5 -3 -11 -12 -14 -10 -4 -14
-4 -11 0 4 4 -9 20 -30 36 -20 16 -40 39 -45 50 -6 17 -4 20 15 15 17 -5 36 9
98 73 43 44 81 80 86 80 5 0 19 -3 31 -6z m-284 -102 c26 -11 29 -16 31 -57 1
-11 15 -29 33 -40 18 -11 36 -32 41 -46 l10 -26 -39 19 c-21 10 -39 25 -39 33
0 17 -30 35 -58 35 -22 0 -59 53 -66 95 -5 30 22 39 44 15 8 -9 27 -21 43 -28z"/>
<path d="M1200 998 c0 -6 -9 -22 -21 -34 -20 -21 -20 -23 -4 -47 27 -42 65
-45 85 -6 8 14 6 21 -10 29 -11 6 -20 20 -20 32 0 21 0 21 -14 2 -10 -13 -11
-23 -4 -32 15 -17 2 -28 -16 -13 -13 11 -12 17 6 47 11 19 15 34 9 34 -6 0
-11 -5 -11 -12z m44 -83 c-10 -8 -25 -15 -33 -15 -11 0 -9 4 5 15 10 8 25 15
33 15 11 0 9 -4 -5 -15z"/>
<path d="M910 946 c0 -8 4 -17 8 -20 4 -2 8 4 8 15 0 10 -4 19 -8 19 -4 0 -8
-6 -8 -14z"/>
<path d="M939 918 c-8 -28 -5 -35 15 -30 18 5 18 7 3 10 -9 2 -15 8 -12 13 4
5 4 9 1 9 -3 0 -6 -1 -7 -2z"/>
<path d="M870 1099 c-11 -8 -5 -9 28 -6 27 3 40 2 36 -5 -4 -6 -1 -9 5 -7 7 3
13 9 14 14 3 14 -65 17 -83 4z"/>
<path d="M2985 1099 c-4 -6 -5 -12 -2 -15 2 -3 7 2 10 11 7 17 1 20 -8 4z"/>
<path d="M185 1085 l-30 -13 37 5 c23 3 48 -1 69 -11 38 -19 49 -15 17 6 -37
24 -61 28 -93 13z"/>
<path d="M410 1091 c0 -10 30 -24 37 -17 3 2 -5 9 -16 16 -12 6 -21 7 -21 1z"/>
<path d="M1787 1094 c-3 -4 -2 -14 3 -24 5 -10 6 -20 2 -24 -3 -4 1 -4 10 -1
10 4 14 13 11 22 -4 11 -2 14 5 9 7 -4 12 -3 12 2 0 6 -7 13 -16 16 -19 7 -19
7 -27 0z"/>
<path d="M1644 1081 c-25 -18 -6 -26 62 -27 65 -1 73 1 61 13 -15 15 -108 25
-123 14z"/>
<path d="M630 1060 c0 -5 6 -10 14 -10 8 0 18 5 21 10 3 6 -3 10 -14 10 -12 0
-21 -4 -21 -10z"/>
<path d="M1097 1049 c7 -7 15 -10 18 -7 3 3 -2 9 -12 12 -14 6 -15 5 -6 -5z"/>
<path d="M2238 886 c2 -134 5 -163 17 -163 8 0 15 9 15 19 0 13 -4 17 -12 12
-9 -5 -9 -2 1 9 9 11 10 17 2 17 -7 0 -11 40 -11 129 0 72 -3 132 -7 134 -5 3
-7 -68 -5 -157z"/>
<path d="M210 1025 c0 -13 4 -14 20 -5 11 6 20 13 20 15 0 3 -9 5 -20 5 -11 0
-20 -7 -20 -15z"/>
<path d="M703 1033 c9 -2 25 -2 35 0 9 3 1 5 -18 5 -19 0 -27 -2 -17 -5z"/>
<path d="M2376 1025 c-3 -8 2 -21 10 -30 14 -13 14 -15 -1 -15 -9 0 -13 -4
-10 -10 3 -5 1 -10 -4 -10 -6 0 -11 16 -11 36 0 24 -4 34 -12 31 -15 -4 -12
-41 6 -74 9 -18 14 -20 28 -9 18 13 23 31 20 74 -2 25 -17 30 -26 7z"/>
<path d="M2757 1021 c-4 -17 -3 -21 5 -13 5 5 8 16 6 23 -3 8 -7 3 -11 -10z"/>
<path d="M0 1020 c0 -9 39 -25 46 -18 2 3 -7 10 -21 16 -14 6 -25 7 -25 2z"/>
<path d="M371 1014 c0 -11 3 -14 6 -6 3 7 2 16 -1 19 -3 4 -6 -2 -5 -13z"/>
<path d="M1126 1017 c3 -10 9 -15 12 -12 3 3 0 11 -7 18 -10 9 -11 8 -5 -6z"/>
<path d="M1680 1020 c-8 -5 -12 -12 -9 -15 4 -3 12 1 19 10 14 17 11 19 -10 5z"/>
<path d="M2862 1006 c1 -14 6 -23 9 -20 10 6 7 44 -3 44 -4 0 -7 -11 -6 -24z"/>
<path d="M1104 1002 c4 -7 1 -13 -6 -14 -7 0 -17 -2 -23 -3 -5 -2 -16 -3 -23
-4 -7 0 -10 -5 -7 -11 8 -13 45 -13 45 1 0 5 4 8 9 5 5 -3 11 1 15 9 3 8 0 17
-6 21 -7 4 -8 3 -4 -4z"/>
<path d="M290 993 c-8 -3 -26 -10 -39 -15 -42 -15 -15 -19 29 -4 23 8 49 12
58 9 10 -4 13 -2 8 5 -8 13 -31 14 -56 5z"/>
<path d="M755 990 c3 -6 1 -10 -5 -10 -7 0 -24 -10 -38 -21 -15 -12 -22 -20
-17 -17 52 23 85 39 85 42 0 2 -7 7 -16 10 -8 3 -12 2 -9 -4z"/>
<path d="M1790 990 c-8 -5 -10 -10 -5 -10 6 0 17 5 25 10 8 5 11 10 5 10 -5 0
-17 -5 -25 -10z"/>
<path d="M2819 983 c-13 -15 -12 -15 9 -4 23 12 28 21 13 21 -5 0 -15 -7 -22
-17z"/>
<path d="M1688 979 c-11 -6 -18 -22 -18 -40 0 -18 4 -28 10 -24 6 4 8 11 5 16
-4 5 -1 9 4 9 16 0 13 -27 -3 -33 -9 -4 -12 -15 -8 -33 3 -19 1 -25 -7 -20 -6
4 -11 24 -11 46 0 35 -2 38 -22 32 -21 -6 -21 -7 -4 -10 15 -3 16 -6 5 -13 -8
-5 -13 -23 -12 -46 2 -28 0 -32 -5 -15 -4 13 -11 23 -16 22 -5 -1 -13 4 -18
12 -5 8 -8 -1 -6 -26 3 -35 7 -41 37 -51 19 -6 37 -17 39 -25 3 -7 0 -10 -7
-6 -6 4 -11 2 -11 -4 0 -26 -32 -19 -74 16 -42 35 -44 39 -41 80 2 24 0 44 -5
44 -15 0 -21 -18 -8 -23 10 -4 10 -6 1 -6 -14 -1 -17 -29 -7 -56 4 -8 26 -29
50 -46 24 -16 44 -36 44 -43 0 -8 7 -17 16 -20 8 -3 13 -2 10 2 -3 4 4 13 15
20 16 10 19 9 19 -7 0 -11 -3 -21 -7 -24 -5 -2 -2 -2 4 -1 8 2 12 -6 11 -21
-1 -14 -6 -25 -10 -25 -4 0 -7 -6 -5 -12 1 -9 -11 -12 -42 -11 -47 2 -51 4
-55 26 -2 16 -22 37 -51 53 -11 6 -30 26 -42 44 -29 42 -30 19 -2 -26 25 -41
13 -44 -24 -6 -22 23 -26 34 -21 60 4 21 3 32 -5 32 -6 0 -12 -19 -12 -42 -2
-30 -3 -35 -6 -15 -2 15 -9 27 -15 27 -6 0 -8 -12 -4 -30 3 -17 1 -30 -4 -30
-6 0 -10 20 -10 45 0 25 -4 45 -9 45 -5 0 -8 -15 -6 -32 2 -18 4 -45 4 -61 1
-27 2 -27 26 -11 22 15 26 15 40 0 9 -9 22 -16 28 -16 12 -1 -22 -24 -35 -25
-3 0 -16 -11 -27 -24 -18 -21 -23 -22 -53 -12 -29 11 -35 9 -50 -10 -46 -56
-14 -170 44 -156 21 6 23 11 20 54 -3 37 2 56 20 82 13 19 30 37 38 39 9 3 5
-6 -9 -22 -14 -14 -22 -28 -19 -32 3 -3 15 8 27 24 11 16 18 32 15 35 -4 3 7
9 22 13 16 4 34 11 41 16 20 16 73 -28 73 -60 0 -14 8 -46 17 -71 13 -33 18
-40 23 -26 6 17 8 16 27 -4 l20 -22 12 45 c15 60 14 65 -7 59 -14 -3 -18 -12
-15 -36 2 -18 0 -26 -3 -20 -4 9 -11 10 -25 3 -17 -10 -19 -7 -19 35 0 42 1
44 19 33 15 -9 26 -9 45 0 30 13 46 63 46 140 0 45 -3 54 -22 61 -21 8 -20 10
19 26 38 15 41 19 32 37 -6 10 -11 39 -12 64 -1 24 -1 44 -2 44 0 0 -8 -5 -17
-11z m-361 -395 c-6 -19 -14 -34 -19 -34 -5 0 -6 -4 -3 -10 3 -6 -1 -7 -10 -4
-12 5 -14 15 -10 42 6 38 20 53 40 45 10 -3 10 -13 2 -39z m-11 -73 c-4 -5 0
-12 6 -14 9 -4 7 -6 -3 -6 -9 -1 -22 6 -29 14 -10 13 -9 15 9 15 12 0 20 -4
17 -9z"/>
<path d="M2756 975 c-9 -26 -7 -32 5 -12 6 10 9 21 6 23 -2 3 -7 -2 -11 -11z"/>
<path d="M2 960 c3 -12 19 -14 89 -12 100 3 104 1 172 -103 26 -38 62 -88 82
-110 19 -22 35 -43 35 -47 0 -4 -51 -7 -112 -7 -164 0 -192 0 -187 -6 3 -2 78
-6 168 -9 124 -3 161 -1 158 8 -6 16 -170 245 -195 273 -11 12 -19 23 -17 25
2 2 -41 3 -96 3 -83 0 -99 -2 -97 -15z"/>
<path d="M1634 955 c-17 -13 -17 -14 -2 -15 9 0 20 5 23 11 11 17 0 20 -21 4z"/>
<path d="M2025 959 c-10 -15 3 -25 16 -12 7 7 7 13 1 17 -6 3 -14 1 -17 -5z"/>
<path d="M2740 929 c0 -5 5 -7 10 -4 6 3 10 8 10 11 0 2 -4 4 -10 4 -5 0 -10
-5 -10 -11z"/>
<path d="M1945 920 c3 -5 13 -10 21 -10 8 0 12 5 9 10 -3 6 -13 10 -21 10 -8
0 -12 -4 -9 -10z"/>
<path d="M2028 924 c-5 -4 -8 -16 -8 -28 0 -14 3 -17 11 -9 6 6 9 19 7 28 -1
9 -6 13 -10 9z"/>
<path d="M2110 919 c0 -5 9 -9 20 -9 11 0 20 2 20 4 0 2 -9 6 -20 9 -11 3 -20
1 -20 -4z"/>
<path d="M2324 919 c-3 -6 -1 -16 5 -22 8 -8 11 -5 11 11 0 24 -5 28 -16 11z"/>
<path d="M690 909 c0 -5 5 -7 10 -4 6 3 10 8 10 11 0 2 -4 4 -10 4 -5 0 -10
-5 -10 -11z"/>
<path d="M745 911 c-3 -5 -2 -12 3 -15 5 -3 9 1 9 9 0 17 -3 19 -12 6z"/>
<path d="M2475 910 c-3 -5 -1 -10 4 -10 6 0 11 5 11 10 0 6 -2 10 -4 10 -3 0
-8 -4 -11 -10z"/>
<path d="M2549 903 c-13 -15 -12 -15 9 -4 23 12 28 21 13 21 -5 0 -15 -7 -22
-17z"/>
<path d="M2643 905 c-3 -9 -3 -18 -1 -21 3 -3 8 4 11 16 6 23 -1 27 -10 5z"/>
<path d="M660 899 c0 -5 5 -7 10 -4 6 3 10 8 10 11 0 2 -4 4 -10 4 -5 0 -10
-5 -10 -11z"/>
<path d="M415 890 c-19 -8 -19 -9 3 -9 12 -1 22 4 22 9 0 6 -1 10 -2 9 -2 0
-12 -4 -23 -9z"/>
<path d="M1410 890 c0 -5 6 -10 14 -10 9 0 13 -7 11 -20 -2 -11 0 -20 6 -20
13 0 11 34 -3 48 -15 15 -28 16 -28 2z"/>
<path d="M1976 886 c21 -15 30 -14 19 3 -3 6 -14 11 -23 11 -13 0 -13 -2 4
-14z"/>
<path d="M1464 864 c4 -20 0 -27 -14 -31 -20 -5 -25 -15 -13 -26 3 -4 12 1 19
11 12 15 13 15 14 -8 1 -31 63 -100 97 -106 19 -4 24 -1 21 13 -2 11 -11 17
-22 15 -11 -2 -33 11 -52 29 -30 29 -34 38 -30 71 3 25 0 38 -7 38 -7 0 -6 4
3 10 13 8 12 10 -3 10 -13 0 -16 -6 -13 -26z"/>
<path d="M1842 881 c-11 -6 -10 -10 5 -16 10 -4 27 -10 38 -12 10 -2 22 -8 25
-14 4 -6 12 -4 20 6 11 13 10 14 -5 8 -14 -5 -17 -3 -13 9 6 16 -17 18 -40 4
-11 -7 -16 -1 -13 17 1 9 -1 9 -17 -2z"/>
<path d="M2475 860 c-10 -11 -16 -22 -14 -24 2 -2 12 7 22 20 22 29 17 32 -8
4z"/>
<path d="M1409 868 c-6 -21 -5 -38 2 -38 5 0 9 9 9 20 0 16 -7 28 -11 18z"/>
<path d="M2044 848 c-7 -20 -7 -144 -1 -203 1 -15 -4 -20 -19 -19 -13 0 -20
-5 -18 -11 3 -7 -1 -17 -9 -23 -12 -10 -14 -7 -10 15 3 21 -2 15 -21 -22 -24
-47 -30 -79 -6 -36 6 12 17 21 24 21 8 0 19 7 26 15 18 21 41 19 47 -5 3 -12
12 -20 21 -18 21 4 28 28 8 28 -9 0 -16 5 -16 11 0 5 -4 7 -10 4 -5 -3 -10 -1
-10 4 0 6 4 11 9 11 5 0 11 13 13 29 3 18 0 27 -5 24 -6 -4 -8 5 -5 20 3 16 1
24 -5 20 -6 -4 -7 -1 -2 6 4 7 8 34 10 60 1 25 5 56 10 69 5 16 4 22 -8 22 -9
0 -19 -10 -23 -22z"/>
<path d="M2096 833 c4 -21 13 -54 21 -73 l13 -35 -6 50 c-8 70 -15 95 -26 95
-5 0 -6 -16 -2 -37z"/>
<path d="M2129 838 c4 -32 5 -32 11 -8 7 26 4 40 -9 40 -4 0 -5 -15 -2 -32z"/>
<path d="M2376 854 c-8 -20 -8 -24 2 -24 4 0 8 9 9 20 2 24 -3 26 -11 4z"/>
<path d="M400 850 c0 -5 5 -10 11 -10 5 0 7 5 4 10 -3 6 -8 10 -11 10 -2 0 -4
-4 -4 -10z"/>
<path d="M1798 853 c7 -3 16 -2 19 1 4 3 -2 6 -13 5 -11 0 -14 -3 -6 -6z"/>
<path d="M2307 853 c19 -13 29 -75 12 -71 -7 2 -15 -5 -17 -14 -5 -25 15 -23
28 2 18 33 9 84 -15 88 -13 2 -16 0 -8 -5z"/>
<path d="M2515 850 c3 -5 8 -10 11 -10 2 0 4 5 4 10 0 6 -5 10 -11 10 -5 0 -7
-4 -4 -10z"/>
<path d="M325 840 c-3 -5 3 -10 14 -10 12 0 21 5 21 10 0 6 -6 10 -14 10 -8 0
-18 -4 -21 -10z"/>
<path d="M740 840 c0 -5 -12 -16 -26 -23 l-26 -14 28 0 c23 0 29 5 30 24 1 13
0 23 -2 23 -2 0 -4 -4 -4 -10z"/>
<path d="M760 841 c0 -6 4 -13 10 -16 6 -3 7 1 4 9 -7 18 -14 21 -14 7z"/>
<path d="M409 801 c-42 -37 -43 -39 -16 -34 15 3 25 8 22 11 -14 14 28 40 58
36 30 -4 31 -4 13 11 -27 20 -28 20 -77 -24z"/>
<path d="M580 832 c0 -12 19 -26 26 -19 2 2 -2 10 -11 17 -9 8 -15 8 -15 2z"/>
<path d="M1370 815 c0 -8 4 -15 8 -15 5 0 9 7 9 15 0 8 -4 15 -9 15 -4 0 -8
-7 -8 -15z"/>
<path d="M2435 819 c-4 -6 -5 -12 -2 -15 2 -3 7 2 10 11 7 17 1 20 -8 4z"/>
<path d="M2640 815 c0 -8 4 -15 8 -15 5 0 9 7 9 15 0 8 -4 15 -9 15 -4 0 -8
-7 -8 -15z"/>
<path d="M2351 804 c0 -11 3 -14 6 -6 3 7 2 16 -1 19 -3 4 -6 -2 -5 -13z"/>
<path d="M2920 806 c0 -9 5 -16 10 -16 6 0 10 4 10 9 0 6 -4 13 -10 16 -5 3
-10 -1 -10 -9z"/>
<path d="M1321 794 c0 -11 3 -14 6 -6 3 7 2 16 -1 19 -3 4 -6 -2 -5 -13z"/>
<path d="M1830 800 c8 -5 25 -10 38 -10 13 0 45 -7 72 -16 57 -19 86 -53 70
-83 -12 -24 -13 -51 -1 -51 13 0 20 72 8 95 -11 22 -48 61 -57 59 -3 -1 -15 2
-28 7 -33 13 -122 12 -102 -1z"/>
<path d="M2141 784 c0 -11 3 -14 6 -6 3 7 2 16 -1 19 -3 4 -6 -2 -5 -13z"/>
<path d="M1213 740 c0 -30 2 -43 4 -27 2 15 2 39 0 55 -2 15 -4 2 -4 -28z"/>
<path d="M1271 774 c0 -11 3 -14 6 -6 3 7 2 16 -1 19 -3 4 -6 -2 -5 -13z"/>
<path d="M1251 738 c0 -26 3 -49 7 -52 4 -2 6 12 4 32 -6 62 -10 69 -11 20z"/>
<path d="M2091 770 c0 -8 4 -24 9 -35 5 -13 9 -14 9 -5 0 8 -4 24 -9 35 -5 13
-9 14 -9 5z"/>
<path d="M1918 757 c12 -7 20 -16 17 -19 -4 -3 -1 -9 6 -14 8 -5 10 -3 4 6 -6
10 -4 12 8 7 10 -3 17 -2 17 2 0 5 -14 14 -31 20 -42 14 -50 13 -21 -2z"/>
<path d="M575 734 c0 -13 5 -24 12 -24 6 0 9 9 6 20 -8 30 -18 32 -18 4z"/>
<path d="M2429 733 c-13 -16 -12 -17 4 -4 16 13 21 21 13 21 -2 0 -10 -8 -17
-17z"/>
<path d="M2573 743 c-9 -3 -11 -25 -8 -76 7 -96 14 -372 15 -531 0 -71 3 -126
8 -122 4 4 7 67 8 140 0 73 4 138 8 144 4 7 2 12 -5 12 -7 0 -10 3 -7 6 4 3 2
19 -2 35 -5 17 -5 29 0 29 5 0 8 6 6 13 -3 6 -7 39 -10 72 -4 41 -3 55 4 45 7
-11 10 -7 10 18 0 18 -3 31 -8 28 -4 -2 -7 27 -8 64 0 62 2 70 20 73 20 4 19
4 -1 6 -14 0 -23 7 -23 17 0 10 6 14 15 10 9 -3 15 0 15 8 0 13 -14 16 -37 9z"/>
<path d="M2634 738 c-3 -5 76 -8 180 -6 102 1 186 5 186 9 0 10 -360 8 -366
-3z"/>
<path d="M637 733 c-11 -17 -37 -117 -32 -121 7 -8 9 -3 26 66 15 58 16 72 6
55z"/>
<path d="M1771 730 c3 -44 -3 -61 -23 -70 -13 -5 -17 -9 -10 -9 7 -1 11 -5 8
-10 -3 -5 1 -12 10 -15 25 -9 27 -7 13 11 -10 11 -10 14 -1 9 9 -5 12 2 12 26
0 19 6 40 13 47 8 9 8 12 0 7 -6 -3 -14 0 -17 6 -4 9 -5 8 -5 -2z"/>
<path d="M2212 722 c-1 -9 -2 -48 -2 -87 0 -55 -2 -67 -12 -57 -20 20 -32 13
-13 -8 14 -15 17 -32 13 -80 -2 -33 -1 -55 4 -48 6 10 8 9 8 -3 0 -8 7 -24 15
-35 13 -18 14 -18 9 6 -3 14 -10 35 -16 47 -8 15 -8 26 -1 35 13 16 17 234 5
242 -5 3 -9 -3 -10 -12z"/>
<path d="M2316 725 c-3 -9 -4 -21 -1 -25 3 -5 1 -11 -4 -14 -5 -4 -12 3 -16
14 -7 23 -25 27 -25 6 0 -8 -7 -22 -16 -31 -9 -9 -14 -19 -10 -22 3 -4 13 2
20 13 11 14 17 16 27 7 6 -6 17 -9 25 -6 10 4 12 -4 7 -31 -4 -25 -2 -36 6
-36 12 0 9 78 -3 99 -4 5 0 11 6 14 10 3 10 8 2 16 -9 10 -13 8 -18 -4z"/>
<path d="M1831 710 c0 -3 3 -13 7 -22 6 -15 9 -14 18 7 10 20 9 23 -7 22 -11
-1 -19 -4 -18 -7z"/>
<path d="M1971 703 c7 -12 15 -20 18 -17 3 2 -3 12 -13 22 -17 16 -18 16 -5
-5z"/>
<path d="M1804 686 c3 -16 8 -31 11 -34 9 -10 5 33 -5 48 -8 11 -9 8 -6 -14z"/>
<path d="M1905 700 c3 -5 8 -10 11 -10 2 0 4 5 4 10 0 6 -5 10 -11 10 -5 0 -7
-4 -4 -10z"/>
<path d="M2240 700 c0 -5 5 -10 10 -10 6 0 10 5 10 10 0 6 -4 10 -10 10 -5 0
-10 -4 -10 -10z"/>
<path d="M1947 680 c-3 -11 -1 -20 4 -20 5 0 9 9 9 20 0 11 -2 20 -4 20 -2 0
-6 -9 -9 -20z"/>
<path d="M2123 685 c-3 -9 -3 -18 -1 -21 3 -3 8 4 11 16 6 23 -1 27 -10 5z"/>
<path d="M2378 693 c7 -3 16 -2 19 1 4 3 -2 6 -13 5 -11 0 -14 -3 -6 -6z"/>
<path d="M570 674 c0 -8 -4 -13 -9 -10 -4 3 -7 -5 -5 -17 2 -12 6 -87 8 -167
5 -161 5 -167 37 -320 11 -55 40 -143 44 -138 2 2 -8 46 -21 98 -27 109 -40
231 -30 285 4 20 10 35 12 32 3 -3 9 -48 14 -102 29 -302 215 -354 363 -101
50 86 46 81 53 73 11 -10 -75 -146 -118 -188 -22 -21 -54 -44 -73 -50 -23 -9
-31 -17 -28 -30 3 -11 -3 -19 -17 -24 -27 -9 -40 3 -17 16 23 13 22 29 -3 29
-59 0 -121 65 -150 157 -11 32 -19 51 -19 43 -1 -29 37 -186 53 -220 9 -19 14
-26 10 -15 -14 49 -16 75 -6 75 6 0 15 -6 19 -13 4 -7 20 -20 36 -30 15 -10
27 -24 27 -32 0 -8 12 -18 26 -21 21 -5 32 0 61 30 19 20 39 36 44 36 4 0 24
14 44 32 24 21 48 32 73 33 41 3 53 17 112 129 19 36 41 68 48 71 7 2 10 0 7
-5 -3 -6 3 -10 14 -10 17 0 21 -6 21 -35 0 -44 -7 -45 -19 -2 -8 29 -9 27 -10
-28 -1 -62 -13 -111 -50 -203 -11 -28 -17 -52 -12 -52 5 0 12 7 15 15 5 14 9
14 31 -1 14 -9 28 -14 32 -11 3 4 -6 12 -21 18 -30 14 -32 32 -11 83 8 19 20
59 26 87 6 28 14 48 17 44 3 -3 6 -37 7 -75 0 -66 -1 -69 -20 -64 -19 6 -19 6
-2 -13 9 -11 17 -34 17 -51 0 -18 5 -32 10 -32 6 0 10 61 10 164 l0 163 44 -2
c25 -2 49 -6 55 -10 6 -3 11 -2 11 3 0 15 -27 22 -86 22 -30 0 -71 7 -92 15
-45 20 -82 12 -82 -16 0 -15 -5 -20 -22 -17 -12 2 -23 9 -26 17 -3 9 0 11 8 6
7 -4 18 1 26 14 18 25 42 26 106 7 70 -22 118 -2 157 65 l21 36 -25 -5 c-41
-7 -75 31 -76 87 -1 25 -4 36 -6 23 -2 -12 -21 -35 -41 -50 -20 -15 -75 -66
-122 -114 -83 -86 -115 -104 -126 -73 -4 8 -10 15 -14 15 -9 0 -60 -73 -60
-86 0 -5 3 -5 8 1 14 20 71 43 91 38 19 -5 19 -7 6 -26 -8 -12 -15 -30 -15
-40 0 -10 -5 -15 -10 -12 -6 4 -7 12 -3 18 3 7 -3 4 -15 -7 -19 -16 -24 -17
-39 -5 -9 8 -14 9 -10 3 4 -7 -2 -14 -14 -17 -17 -5 -20 -11 -15 -32 6 -24 5
-25 -14 -13 -11 7 -20 17 -21 23 0 5 -4 1 -8 -10 -5 -11 -4 -25 1 -32 13 -16
6 -55 -10 -61 -11 -3 -12 0 -3 17 8 15 9 21 1 21 -6 0 -9 4 -5 9 3 5 0 13 -6
17 -7 4 -9 3 -5 -4 3 -6 2 -14 -4 -17 -6 -4 -8 -16 -4 -27 4 -15 3 -18 -6 -13
-6 4 -10 18 -7 31 6 32 -1 30 -14 -2 -9 -26 -10 -26 -30 -8 -47 42 -92 151
-79 189 4 11 3 33 -1 50 -12 42 -12 45 11 45 12 0 21 7 21 18 6 78 5 83 -17
88 -16 4 -24 15 -27 37 -2 18 -3 -2 -2 -43 1 -41 0 -58 -2 -37 -2 20 -8 37
-12 37 -4 0 -7 24 -5 53 l3 52 -8 -45 c-5 -25 -12 -67 -16 -95 -12 -89 -16
-62 -12 83 2 78 3 142 1 142 -2 0 -4 -7 -4 -16z m658 -189 c-3 -13 -2 -23 1
-23 11 2 61 -25 61 -33 0 -32 -109 -66 -125 -38 -4 6 -13 8 -20 5 -7 -2 -21 2
-32 9 -10 8 -13 15 -7 15 5 0 16 -6 23 -12 10 -11 11 -8 6 12 -4 20 1 31 27
55 17 17 28 23 23 15 -7 -13 -6 -13 7 -2 13 10 17 10 21 0 4 -8 6 -7 6 5 1 9
4 17 7 17 4 0 4 -11 2 -25z m-571 -52 c-2 -16 -4 -5 -4 22 0 28 2 40 4 28 2
-13 2 -35 0 -50z m462 -102 c11 -7 8 -18 -14 -55 -15 -25 -34 -52 -44 -59 -9
-6 -17 -19 -19 -27 -6 -24 -23 -40 -44 -40 -19 0 -19 1 -1 31 10 17 26 35 35
40 10 5 15 15 12 23 -3 7 2 19 10 26 9 7 14 16 11 20 -3 5 0 12 6 16 7 4 9 3
5 -4 -3 -6 -2 -13 3 -16 6 -4 8 7 6 24 -4 31 7 38 34 21z m-184 -10 c3 -6 -4
-15 -15 -21 -20 -11 -21 -10 -10 9 12 23 16 25 25 12z m-41 -133 c-6 -20 -5
-21 9 -9 9 7 14 17 11 22 -6 10 9 12 19 3 7 -8 -70 -84 -85 -84 -7 0 -18 11
-25 25 -12 28 -10 30 17 15 15 -8 21 -6 30 10 6 11 8 25 5 30 -3 6 1 10 10 10
12 0 15 -5 9 -22z"/>
<path d="M1350 680 c0 -5 5 -10 10 -10 6 0 10 5 10 10 0 6 -4 10 -10 10 -5 0
-10 -4 -10 -10z"/>
<path d="M1883 663 c-1 -32 -35 -129 -52 -146 -6 -6 -11 -15 -11 -21 0 -13 50
46 51 62 2 22 4 27 18 47 9 15 11 16 7 3 -3 -10 -1 -18 5 -18 7 0 8 15 4 43
-8 51 -22 69 -22 30z"/>
<path d="M532 559 c0 -69 3 -131 7 -137 6 -10 4 204 -3 243 -2 11 -4 -37 -4
-106z"/>
<path d="M641 664 c0 -11 3 -14 6 -6 3 7 2 16 -1 19 -3 4 -6 -2 -5 -13z"/>
<path d="M1312 671 c-10 -6 -8 -10 9 -14 13 -4 25 -4 28 -2 2 3 -1 5 -8 5 -7
0 -9 5 -6 10 8 12 -5 13 -23 1z"/>
<path d="M2611 654 c0 -11 3 -14 6 -6 3 7 2 16 -1 19 -3 4 -6 -2 -5 -13z"/>
<path d="M188 645 c5 -11 10 -23 11 -28 0 -4 5 -15 11 -25 8 -13 9 -11 4 13
-4 17 -13 37 -21 45 -14 13 -14 13 -5 -5z"/>
<path d="M1829 648 c-1 -7 -3 -28 -5 -46 -1 -18 -8 -40 -15 -48 -10 -12 -9
-13 4 -8 9 3 18 18 22 32 14 64 15 82 5 82 -5 0 -11 -6 -11 -12z"/>
<path d="M2267 646 c-10 -26 -8 -74 3 -81 6 -4 10 7 10 24 0 18 5 31 13 31 8
0 9 3 1 8 -6 4 -13 14 -16 21 -3 12 -6 11 -11 -3z"/>
<path d="M1457 643 c-3 -5 4 -18 16 -28 12 -10 31 -25 41 -34 18 -15 18 -15 8
4 -15 30 -59 68 -65 58z"/>
<path d="M1935 620 c-4 -16 -11 -32 -16 -35 -5 -4 -9 -14 -9 -24 0 -10 -9 -26
-20 -36 -26 -23 -26 -39 0 -23 28 18 82 148 61 148 -5 0 -12 -13 -16 -30z"/>
<path d="M632 615 c0 -16 2 -22 5 -12 2 9 2 23 0 30 -3 6 -5 -1 -5 -18z"/>
<path d="M2523 625 c-3 -9 -3 -18 -1 -21 3 -3 8 4 11 16 6 23 -1 27 -10 5z"/>
<path d="M158 613 c7 -3 16 -2 19 1 4 3 -2 6 -13 5 -11 0 -14 -3 -6 -6z"/>
<path d="M485 600 c3 -5 8 -10 11 -10 2 0 4 5 4 10 0 6 -5 10 -11 10 -5 0 -7
-4 -4 -10z"/>
<path d="M2135 600 c-4 -6 -11 -7 -17 -4 -7 5 -8 2 -2 -7 5 -8 7 -23 5 -34 -2
-16 0 -18 10 -7 21 20 26 15 40 -40 7 -31 15 -45 17 -34 4 20 -25 106 -36 105
-19 -3 -23 2 -12 16 7 8 10 15 7 15 -3 0 -9 -5 -12 -10z"/>
<path d="M1800 592 c0 -6 -8 -13 -17 -15 -16 -4 -16 -5 -1 -6 18 -1 34 16 24
26 -3 4 -6 1 -6 -5z"/>
<path d="M1355 556 c-11 -54 1 -75 44 -82 45 -7 54 -12 69 -39 10 -19 11 -18
9 5 -1 23 -27 63 -27 42 0 -19 -62 1 -78 25 -15 24 -15 26 3 39 23 17 35 18
31 2 -1 -7 -1 -10 1 -6 2 4 11 4 19 1 8 -3 14 0 14 7 0 6 5 8 10 5 6 -3 10 -1
10 4 0 15 -17 14 -26 -1 -5 -7 -11 -5 -21 7 -7 11 -13 16 -13 12 0 -4 -9 -3
-20 3 -17 9 -20 6 -25 -24z"/>
<path d="M1740 575 c0 -8 -3 -14 -7 -13 -17 4 -83 -45 -82 -60 0 -11 2 -12 6
-4 2 6 9 12 14 12 4 0 6 -7 3 -15 -4 -8 -12 -15 -20 -15 -14 0 -20 -29 -6 -31
4 0 14 -2 23 -4 9 -1 16 3 16 11 0 10 -4 11 -14 3 -20 -17 -16 -1 9 34 12 17
16 27 7 22 -7 -4 -11 -5 -7 -1 3 4 9 6 13 4 4 -1 13 8 22 22 13 23 12 12 -3
-25 -3 -8 -1 -15 5 -15 6 0 11 7 11 15 0 9 7 29 15 45 9 17 11 30 5 30 -5 0
-10 -7 -10 -15z"/>
<path d="M2291 574 c0 -11 3 -14 6 -6 3 7 2 16 -1 19 -3 4 -6 -2 -5 -13z"/>
<path d="M486 564 c-8 -21 -8 -34 2 -34 4 0 8 11 8 25 2 29 -1 32 -10 9z"/>
<path d="M210 569 c0 -2 4 -19 9 -37 l10 -32 -62 -2 c-34 -1 -4 -5 68 -8 l130
-5 -2 -27 c-1 -14 4 -29 11 -31 9 -4 13 4 12 26 -1 30 1 32 44 38 40 5 36 6
-30 9 -177 7 -165 5 -168 31 -3 20 -22 53 -22 38z"/>
<path d="M1540 530 c5 -17 5 -28 0 -25 -9 5 -20 -18 -20 -42 0 -13 3 -13 16
-2 13 10 17 10 24 -2 7 -10 3 -16 -18 -20 -26 -6 -26 -7 6 -8 17 0 34 0 36 2
2 1 13 -6 23 -15 12 -11 28 -16 44 -12 13 3 36 7 52 10 15 3 39 12 54 19 15 8
28 13 30 12 1 -2 3 -26 4 -55 2 -39 5 -49 14 -42 9 7 16 6 25 -5 7 -8 9 -15 5
-15 -4 0 -2 -6 4 -14 8 -10 8 -16 -3 -25 -9 -7 -17 -8 -20 -2 -3 5 -2 11 3 13
5 1 3 9 -5 16 -12 11 -14 8 -14 -16 0 -16 7 -48 15 -72 8 -23 18 -84 21 -136
5 -69 11 -94 20 -94 9 0 14 11 14 30 0 20 5 30 15 30 9 0 12 -6 9 -17 -4 -10
4 -3 15 16 24 36 20 57 -4 25 -13 -17 -14 -13 -10 41 10 111 12 220 5 265 -6
42 -15 -67 -23 -271 -1 -33 -6 -45 -14 -42 -16 6 -20 119 -9 248 2 22 -1 49
-5 60 -9 20 -9 20 -8 0 2 -34 0 -36 -21 -18 -21 20 -23 63 -3 63 7 0 13 9 13
20 0 11 -5 18 -12 16 -7 -3 -26 -7 -43 -11 l-29 -6 19 22 c16 18 17 21 3 16
-9 -3 -19 -3 -22 1 -10 9 -46 10 -52 0 -3 -5 -2 -8 3 -7 4 1 18 1 30 0 17 -1
20 -6 16 -22 -6 -21 -7 -21 -19 -4 -8 10 -17 15 -21 12 -3 -4 -3 -7 2 -7 4 0
2 -7 -5 -15 -17 -21 -84 -21 -76 0 4 13 2 13 -14 5 -22 -12 -31 0 -49 68 -7
23 -16 42 -21 42 -5 0 -5 -13 0 -30z m300 -276 c0 -8 -4 -12 -10 -9 -5 3 -10
10 -10 16 0 5 5 9 10 9 6 0 10 -7 10 -16z"/>
<path d="M1753 543 c-3 -10 -8 -21 -10 -25 -10 -19 6 -5 21 17 9 14 12 25 6
25 -6 0 -13 -8 -17 -17z"/>
<path d="M2329 548 c-3 -7 -2 -35 1 -63 l6 -50 4 53 c5 52 -3 89 -11 60z"/>
<path d="M2640 551 c0 -6 4 -13 10 -16 6 -3 7 1 4 9 -7 18 -14 21 -14 7z"/>
<path d="M1955 530 c-11 -12 -32 -28 -47 -36 -18 -9 -25 -20 -22 -29 4 -10 0
-15 -11 -15 -12 0 -15 5 -11 16 4 10 1 14 -6 12 -17 -6 -17 -40 -1 -45 7 -3
23 7 37 22 17 18 26 22 29 13 4 -11 6 -11 6 0 1 7 13 23 27 36 15 12 25 28 23
35 -3 9 -11 6 -24 -9z"/>
<path d="M2240 542 c0 -5 3 -12 7 -16 8 -7 10 -27 14 -113 1 -34 6 -67 10 -74
7 -12 2 146 -5 183 -2 9 1 19 8 22 6 2 1 5 -11 5 -13 1 -23 -3 -23 -7z"/>
<path d="M2623 515 c0 -22 2 -30 4 -17 2 12 2 30 0 40 -3 9 -5 -1 -4 -23z"/>
<path d="M2004 525 c8 -8 19 -15 25 -15 6 0 11 -7 11 -15 0 -8 -4 -15 -10 -15
-5 0 -10 -11 -10 -25 0 -15 -7 -39 -15 -54 -8 -16 -12 -31 -9 -34 3 -3 1 -21
-4 -41 -6 -21 -7 -36 -1 -36 5 0 9 6 9 13 0 8 4 7 10 -3 8 -11 9 -8 4 12 -10
45 23 160 54 186 l27 23 -28 -7 c-22 -5 -26 -3 -21 10 5 13 -1 16 -26 16 -28
0 -30 -2 -16 -15z"/>
<path d="M1776 515 c-3 -8 -1 -15 4 -15 6 0 10 5 10 11 0 5 5 7 10 4 6 -3 10
-1 10 4 0 17 -27 13 -34 -4z"/>
<path d="M54 509 c3 -8 8 -32 11 -53 8 -56 15 -58 15 -4 0 29 -6 50 -15 58
-13 11 -15 10 -11 -1z"/>
<path d="M1420 510 c-12 -8 -9 -10 13 -10 16 0 26 4 22 10 -8 12 -16 12 -35 0z"/>
<path d="M31 468 c0 -26 4 -50 9 -53 11 -7 11 25 0 70 -7 27 -8 25 -9 -17z"/>
<path d="M1966 481 c-4 -5 -9 -38 -13 -73 -3 -34 -12 -80 -20 -102 -20 -58
-15 -78 7 -26 10 25 22 80 25 122 6 59 11 75 21 71 8 -3 14 0 14 6 0 13 -27
15 -34 2z"/>
<path d="M2065 470 c-16 -17 -16 -20 -3 -15 9 4 19 13 22 21 7 19 2 18 -19 -6z"/>
<path d="M235 450 c9 -17 18 -30 21 -30 2 0 0 8 -5 19 -6 10 -8 21 -5 23 3 3
-2 8 -11 11 -14 6 -14 4 0 -23z"/>
<path d="M2300 473 c0 -4 5 -15 10 -23 8 -13 10 -13 10 2 0 9 -4 20 -10 23 -5
3 -10 3 -10 -2z"/>
<path d="M1340 430 c-7 -17 -27 -42 -44 -56 -20 -17 -24 -23 -11 -19 11 5 36
10 55 13 31 4 33 3 21 -12 -15 -18 -8 -21 20 -6 21 12 63 87 51 93 -4 2 -23 7
-43 11 -34 6 -37 4 -49 -24z m54 -9 c3 -4 -3 -16 -13 -25 -15 -13 -21 -14 -27
-5 -4 7 -2 15 4 17 7 2 10 8 6 13 -3 5 2 9 10 9 8 0 17 -4 20 -9z"/>
<path d="M2425 450 c-3 -5 -1 -10 4 -10 6 0 11 5 11 10 0 6 -2 10 -4 10 -3 0
-8 -4 -11 -10z"/>
<path d="M2083 438 c-23 -30 -24 -41 -2 -21 12 12 20 25 17 28 -3 3 -10 0 -15
-7z"/>
<path d="M2328 405 c-3 -16 -10 -41 -14 -54 -6 -19 -4 -23 7 -17 8 4 5 0 -5
-8 -21 -17 -11 -22 12 -7 9 5 12 25 10 62 -2 45 -4 49 -10 24z"/>
<path d="M2968 423 c6 -2 18 -2 25 0 6 3 1 5 -13 5 -14 0 -19 -2 -12 -5z"/>
<path d="M917 399 c-13 -18 -18 -19 -36 -7 -18 11 -23 11 -31 -2 -5 -8 -15
-15 -21 -15 -7 0 -13 -6 -15 -13 -1 -7 0 -8 3 -2 3 7 10 4 19 -7 15 -21 18
-37 5 -29 -5 3 -12 -1 -15 -9 -5 -13 -2 -14 17 -4 44 23 68 47 55 53 -7 4 -3
4 10 2 12 -2 20 0 17 5 -3 5 -1 18 5 29 14 26 5 26 -13 -1z m-37 -33 c0 -14
-5 -28 -12 -32 -8 -5 -9 -2 -5 9 4 10 1 17 -6 18 -9 0 -9 2 1 6 6 2 10 9 6 14
-3 5 0 9 5 9 6 0 11 -11 11 -24z"/>
<path d="M2198 264 c-3 -87 -2 -184 2 -214 7 -56 11 -48 14 25 1 30 5 40 18
40 26 0 29 10 8 23 -17 10 -20 10 -20 -4 0 -8 -4 -12 -10 -9 -5 3 -10 14 -10
24 0 21 38 35 55 21 7 -6 15 -7 18 -3 4 3 7 1 7 -5 0 -7 -7 -12 -16 -12 -14 0
-14 -3 -4 -15 19 -22 30 -18 30 11 0 17 -6 28 -20 31 -11 3 -20 9 -20 14 0 5
7 6 15 3 8 -4 15 -1 15 5 0 14 -27 15 -35 1 -16 -26 -26 9 -24 88 1 48 -3 98
-8 111 -7 18 -11 -17 -15 -135z"/>
<path d="M2360 409 c-11 -8 -7 -9 18 -5 24 4 34 2 38 -9 8 -20 20 -19 20 3 0
20 -52 28 -76 11z"/>
<path d="M182 402 c-10 -3 10 -92 21 -92 5 0 6 8 3 18 -22 73 -17 83 28 66 19
-7 22 -70 4 -77 -7 -3 43 -6 111 -6 68 -1 122 1 120 3 -4 4 -87 16 -134 19
-21 2 -35 15 -35 33 0 12 49 21 155 31 33 3 62 7 64 9 4 4 -324 0 -337 -4z
m108 -31 c0 -5 3 -16 6 -25 4 -12 0 -16 -15 -16 -12 0 -21 6 -21 16 0 8 4 12
10 9 6 -3 7 1 4 9 -3 9 -1 16 5 16 6 0 11 -4 11 -9z"/>
<path d="M2087 386 c-3 -8 0 -17 7 -19 10 -4 12 1 9 14 -6 23 -9 24 -16 5z"/>
<path d="M650 376 c0 -9 5 -16 10 -16 6 0 10 4 10 9 0 6 -4 13 -10 16 -5 3
-10 -1 -10 -9z"/>
<path d="M1580 381 c0 -6 4 -13 10 -16 6 -3 7 1 4 9 -7 18 -14 21 -14 7z"/>
<path d="M2042 378 c-14 -14 -16 -28 -3 -28 9 0 24 30 18 36 -2 2 -9 -2 -15
-8z"/>
<path d="M2465 381 c-3 -6 3 -9 14 -8 11 0 17 5 15 9 -7 11 -22 10 -29 -1z"/>
<path d="M500 363 c0 -5 5 -15 10 -23 7 -12 9 -10 7 8 -1 19 -17 33 -17 15z"/>
<path d="M1491 349 c-1 -9 7 -26 17 -36 15 -18 23 -19 82 -9 l65 11 -74 5
c-62 4 -75 8 -82 25 -6 15 -8 16 -8 4z"/>
<path d="M2405 349 c-4 -6 -5 -12 -2 -15 2 -3 7 2 10 11 7 17 1 20 -8 4z"/>
<path d="M602 320 c0 -19 2 -27 5 -17 2 9 2 25 0 35 -3 9 -5 1 -5 -18z"/>
<path d="M1395 330 c3 -5 8 -10 11 -10 2 0 4 5 4 10 0 6 -5 10 -11 10 -5 0 -7
-4 -4 -10z"/>
<path d="M1456 328 c3 -5 10 -6 15 -3 13 9 11 12 -6 12 -8 0 -12 -4 -9 -9z"/>
<path d="M2450 320 c-6 -11 -8 -20 -6 -20 3 0 10 9 16 20 6 11 8 20 6 20 -3 0
-10 -9 -16 -20z"/>
<path d="M2620 330 c0 -5 5 -10 10 -10 6 0 10 5 10 10 0 6 -4 10 -10 10 -5 0
-10 -4 -10 -10z"/>
<path d="M540 307 c0 -14 5 -29 10 -32 7 -4 8 3 4 22 -9 38 -14 42 -14 10z"/>
<path d="M2068 305 c-3 -14 -1 -25 3 -25 5 0 9 11 9 25 0 14 -2 25 -4 25 -2 0
-6 -11 -8 -25z"/>
<path d="M1110 239 c-47 -85 -104 -159 -123 -159 -6 0 0 12 14 26 24 26 24 26
2 15 -13 -6 -24 -16 -24 -21 -1 -6 -2 -15 -3 -20 -2 -20 -31 -29 -71 -23 -36
6 -39 5 -26 -10 15 -18 26 -23 16 -7 -3 6 1 10 10 10 13 0 14 -4 5 -20 -16
-31 9 -26 66 13 44 29 133 130 134 151 0 5 7 14 16 20 13 10 40 94 32 101 -2
2 -23 -33 -48 -76z"/>
<path d="M1708 309 c24 -4 52 -4 65 1 16 6 5 9 -43 8 -63 0 -64 0 -22 -9z"/>
<path d="M796 284 c13 -19 14 -28 5 -37 -15 -15 -14 -24 3 -24 8 0 15 3 14 6
0 3 1 9 2 14 7 21 4 34 -14 50 -26 24 -29 21 -10 -9z"/>
<path d="M2137 296 c-4 -10 -1 -13 8 -9 8 3 12 9 9 14 -7 12 -11 11 -17 -5z"/>
<path d="M1344 293 c4 -5 11 -8 14 -9 28 -3 42 -18 37 -38 -5 -18 -5 -19 5 -3
6 9 23 18 38 18 17 1 20 3 10 6 -10 2 -18 9 -18 15 0 6 -9 8 -20 5 -11 -3 -20
-2 -20 2 0 4 -12 8 -27 9 -14 1 -23 -1 -19 -5z"/>
<path d="M2271 293 c-1 -6 4 -24 11 -40 6 -15 10 -38 9 -50 -1 -11 2 -24 8
-27 6 -4 9 9 8 33 -1 22 -4 38 -6 35 -3 -3 -11 10 -17 28 -7 18 -13 28 -13 21z"/>
<path d="M2323 265 c1 -19 7 -37 14 -39 9 -4 10 1 4 18 -5 13 -5 29 0 39 8 13
6 17 -5 17 -12 0 -15 -9 -13 -35z"/>
<path d="M224 278 c-2 -4 16 -10 41 -13 44 -7 56 -17 35 -30 -13 -8 6 -45 23
-45 7 0 23 -16 36 -35 13 -19 29 -35 35 -34 7 0 6 3 -1 6 -7 2 -13 10 -13 18
0 7 -7 18 -15 25 -26 21 -17 28 35 27 27 0 53 3 57 6 3 4 -28 7 -70 7 -45 0
-77 4 -77 10 0 6 21 10 48 10 37 1 43 3 29 11 -9 5 -23 7 -30 3 -8 -5 -7 -2 2
9 9 11 28 17 55 17 30 1 37 3 25 10 -18 10 -208 9 -215 -2z"/>
<path d="M760 261 c0 -24 16 -36 26 -20 3 6 1 15 -6 19 -10 6 -9 9 1 13 10 4
9 6 -3 6 -11 1 -18 -6 -18 -18z"/>
<path d="M1488 273 c7 -3 16 -2 19 1 4 3 -2 6 -13 5 -11 0 -14 -3 -6 -6z"/>
<path d="M1595 269 c-11 -17 1 -21 15 -4 8 9 8 15 2 15 -6 0 -14 -5 -17 -11z"/>
<path d="M1630 255 c-12 -13 -28 -22 -34 -18 -6 3 -6 0 1 -7 9 -10 15 -10 26
-1 19 15 115 21 121 7 2 -6 5 -4 5 5 1 21 -15 27 -54 23 -16 -2 -32 1 -35 7
-4 5 -17 -2 -30 -16z"/>
<path d="M2365 270 c-3 -5 -1 -10 4 -10 6 0 11 5 11 10 0 6 -2 10 -4 10 -3 0
-8 -4 -11 -10z"/>
<path d="M1977 256 c-9 -24 -9 -28 3 -21 6 3 10 -2 10 -12 0 -15 2 -16 10 -3
5 8 5 17 1 20 -4 3 -10 12 -13 19 -3 12 -6 11 -11 -3z"/>
<path d="M1350 247 c0 -10 8 -17 18 -17 9 0 13 4 7 8 -5 4 -13 11 -17 16 -5 5
-8 2 -8 -7z"/>
<path d="M1517 253 c-4 -3 -7 -11 -7 -17 0 -6 5 -5 12 2 6 6 9 14 7 17 -3 3
-9 2 -12 -2z"/>
<path d="M1571 244 c0 -11 3 -14 6 -6 3 7 2 16 -1 19 -3 4 -6 -2 -5 -13z"/>
<path d="M840 235 c-6 -8 -10 -19 -8 -26 2 -6 9 0 16 15 13 29 10 33 -8 11z"/>
<path d="M1293 229 c1 -10 4 -19 8 -19 7 0 34 30 28 31 -34 7 -37 5 -36 -12z"/>
<path d="M1465 240 c3 -5 14 -10 23 -10 15 0 15 2 2 10 -20 13 -33 13 -25 0z"/>
<path d="M2040 239 c0 -5 5 -7 10 -4 6 3 10 8 10 11 0 2 -4 4 -10 4 -5 0 -10
-5 -10 -11z"/>
<path d="M541 224 c0 -11 3 -14 6 -6 3 7 2 16 -1 19 -3 4 -6 -2 -5 -13z"/>
<path d="M2101 224 c0 -11 3 -14 6 -6 3 7 2 16 -1 19 -3 4 -6 -2 -5 -13z"/>
<path d="M2447 229 c7 -7 15 -10 18 -7 3 3 -2 9 -12 12 -14 6 -15 5 -6 -5z"/>
<path d="M1262 221 c-10 -6 -10 -10 1 -20 12 -9 16 -7 20 9 5 21 0 25 -21 11z"/>
<path d="M1706 155 c-44 -42 -77 -78 -73 -81 3 -3 15 3 28 13 63 50 146 144
127 143 -2 0 -39 -34 -82 -75z"/>
<path d="M2060 219 c0 -5 -4 -7 -10 -4 -6 3 -7 -1 -4 -9 3 -9 10 -16 15 -16
13 0 -1 -28 -17 -34 -9 -3 -25 -1 -37 5 -21 10 -21 10 -3 -5 12 -9 28 -13 39
-10 15 5 19 3 14 -10 -3 -8 -2 -18 4 -22 6 -3 8 -13 4 -22 -3 -9 -3 -13 2 -9
10 11 11 147 1 147 -5 0 -8 -5 -8 -11z"/>
<path d="M2137 222 c-3 -4 3 -17 13 -29 l18 -23 -2 24 c-1 16 -6 22 -15 18 -9
-3 -12 -1 -7 6 4 7 5 12 2 12 -3 0 -7 -3 -9 -8z"/>
<path d="M1961 204 c0 -11 3 -14 6 -6 3 7 2 16 -1 19 -3 4 -6 -2 -5 -13z"/>
<path d="M2321 194 c0 -11 3 -14 6 -6 3 7 2 16 -1 19 -3 4 -6 -2 -5 -13z"/>
<path d="M1790 179 c-6 -11 -10 -25 -8 -30 2 -5 8 4 15 21 13 34 9 40 -7 9z"/>
<path d="M490 175 c0 -5 5 -17 10 -25 5 -8 10 -10 10 -5 0 6 -5 17 -10 25 -5
8 -10 11 -10 5z"/>
<path d="M1941 154 c-6 -15 -9 -29 -7 -32 3 -2 10 8 16 23 14 36 7 43 -9 9z"/>
<path d="M2500 169 c0 -5 5 -7 10 -4 6 3 10 8 10 11 0 2 -4 4 -10 4 -5 0 -10
-5 -10 -11z"/>
<path d="M2635 170 c3 -5 8 -10 11 -10 2 0 4 5 4 10 0 6 -5 10 -11 10 -5 0 -7
-4 -4 -10z"/>
<path d="M532 145 c0 -16 2 -22 5 -12 2 9 2 23 0 30 -3 6 -5 -1 -5 -18z"/>
<path d="M2314 146 c-9 -20 -9 -23 3 -19 12 5 15 -4 13 -48 -3 -70 -2 -79 10
-79 6 0 8 25 4 70 l-7 70 27 0 c28 0 35 14 11 24 -8 3 -15 1 -15 -4 0 -6 -8
-10 -17 -10 -15 0 -16 2 -3 10 13 9 13 10 0 10 -8 0 -20 -11 -26 -24z"/>
<path d="M2526 161 c-4 -5 1 -8 9 -7 21 3 31 16 12 16 -9 0 -18 -4 -21 -9z"/>
<path d="M2140 150 c-9 -6 -10 -10 -3 -10 6 0 15 5 18 10 8 12 4 12 -15 0z"/>
<path d="M2639 145 c0 -5 -2 -19 -4 -30 -3 -11 0 -34 5 -50 10 -29 12 -30 82
-33 39 -1 76 -7 83 -12 7 -5 15 -7 18 -3 4 3 33 8 64 10 63 3 78 13 86 60 7
36 5 38 -86 48 -41 5 -63 3 -73 -6 -10 -8 -18 -9 -22 -2 -4 5 -34 9 -68 9 -50
0 -60 -3 -57 -16 3 -12 15 -16 41 -14 20 1 31 0 25 -3 -7 -2 -13 -16 -13 -29
0 -21 -4 -24 -30 -22 -27 2 -30 6 -30 38 0 31 -18 80 -21 55z m121 -29 c0 -8
5 -18 12 -22 7 -4 8 -3 4 4 -4 7 -2 12 3 12 6 0 11 -7 11 -15 0 -8 -5 -15 -11
-15 -8 0 -8 -4 1 -14 9 -12 8 -15 -8 -13 -16 1 -21 10 -24 39 -2 21 0 38 4 38
5 0 8 -6 8 -14z m106 -2 c-3 -9 -6 -27 -6 -40 0 -14 -4 -23 -9 -19 -5 3 -16
-1 -24 -10 -19 -18 -27 -2 -20 39 4 21 10 26 24 23 12 -3 19 0 19 9 0 8 5 14
11 14 6 0 8 -7 5 -16z m34 -26 c0 -13 -7 -32 -15 -42 -14 -18 -15 -17 -15 22
0 31 4 42 15 42 9 0 15 -9 15 -22z m24 10 c-6 -10 -4 -10 7 0 21 19 26 15 21
-19 -3 -21 -9 -29 -21 -27 -18 4 -29 58 -11 58 6 0 8 -6 4 -12z"/>
<path d="M2820 85 c0 -8 5 -15 10 -15 6 0 10 7 10 15 0 8 -4 15 -10 15 -5 0
-10 -7 -10 -15z"/>
<path d="M2882 80 c0 -14 2 -19 5 -12 2 6 2 18 0 25 -3 6 -5 1 -5 -13z"/>
<path d="M2920 70 c0 -5 5 -10 10 -10 6 0 10 5 10 10 0 6 -4 10 -10 10 -5 0
-10 -4 -10 -10z"/>
<path d="M1362 129 c2 -7 10 -15 17 -17 8 -3 12 1 9 9 -2 7 -10 15 -17 17 -8
3 -12 -1 -9 -9z"/>
<path d="M501 114 c0 -11 3 -14 6 -6 3 7 2 16 -1 19 -3 4 -6 -2 -5 -13z"/>
<path d="M1551 114 c0 -11 3 -14 6 -6 3 7 2 16 -1 19 -3 4 -6 -2 -5 -13z"/>
<path d="M1785 121 c3 -5 1 -12 -5 -16 -5 -3 -10 -12 -10 -18 0 -7 7 -3 15 7
18 23 19 36 4 36 -5 0 -8 -4 -4 -9z"/>
<path d="M1970 119 c0 -6 -11 -24 -25 -41 -25 -30 -33 -58 -15 -58 5 0 7 6 4
13 -3 8 2 20 11 27 13 11 15 9 15 -10 0 -13 2 -21 5 -18 7 7 17 98 10 98 -3 0
-5 -5 -5 -11z"/>
<path d="M2126 122 c-2 -4 4 -9 15 -9 11 -1 17 2 14 8 -7 11 -22 12 -29 1z"/>
<path d="M2274 95 c2 -17 36 -49 43 -41 4 3 -2 13 -13 22 -18 14 -18 15 -1 10
12 -4 17 -2 15 6 -6 17 -46 19 -44 3z"/>
<path d="M2500 95 c-7 -8 -17 -12 -23 -8 -6 4 -7 1 -3 -6 6 -9 13 -8 27 5 10
9 19 19 19 21 0 7 -8 2 -20 -12z"/>
<path d="M2680 84 c0 -8 4 -13 9 -10 5 4 11 0 14 -6 3 -7 4 -3 4 10 -1 25 -27
31 -27 6z"/>
<path d="M1607 65 c-4 -8 -2 -17 3 -20 6 -4 10 3 10 14 0 25 -6 27 -13 6z"/>
<path d="M2148 73 c6 -2 10 -9 6 -14 -3 -5 0 -9 5 -9 6 0 11 7 11 15 0 8 -8
15 -17 14 -11 0 -13 -3 -5 -6z"/>
<path d="M2520 70 c0 -5 4 -10 9 -10 6 0 13 5 16 10 3 6 -1 10 -9 10 -9 0 -16
-4 -16 -10z"/>
<path d="M436 57 c3 -10 9 -15 12 -12 3 3 0 11 -7 18 -10 9 -11 8 -5 -6z"/>
<path d="M1373 53 c4 -3 3 -11 -2 -17 -6 -7 -2 -11 14 -11 22 0 22 1 8 18 -9
9 -18 17 -21 17 -3 0 -2 -3 1 -7z"/>
<path d="M1779 44 c-7 -9 -14 -23 -15 -33 -2 -12 0 -12 11 4 8 11 19 26 25 33
6 6 7 12 2 12 -5 0 -16 -7 -23 -16z"/>
<path d="M2057 41 c-2 -10 -1 -25 4 -32 6 -10 9 -4 9 19 0 36 -5 42 -13 13z"/>
<path d="M1325 39 c-4 -6 -5 -12 -2 -15 2 -3 7 2 10 11 7 17 1 20 -8 4z"/>
<path d="M1460 42 c0 -10 46 -10 56 1 4 4 -7 7 -24 7 -18 0 -32 -4 -32 -8z"/>
<path d="M1736 42 c-2 -4 -1 -14 4 -22 7 -11 9 -9 7 8 -1 24 -3 26 -11 14z"/>
<path d="M2443 19 c-2 -21 -1 -21 13 -3 9 11 13 13 9 7 -9 -18 0 -16 15 2 10
13 9 15 -12 15 -17 0 -24 -6 -25 -21z"/>
<path d="M2145 10 c3 -5 10 -10 16 -10 5 0 9 5 9 10 0 6 -7 10 -16 10 -8 0
-12 -4 -9 -10z"/>
</g>
</svg>
